<svg width="207" height="44" viewBox="0 0 207 44" fill="none" xmlns="http://www.w3.org/2000/svg">
<rect width="43" height="43" rx="12.9" fill="#FF3D00"/>
<path d="M22.038 34.3771C23.7442 34.3771 25.3476 34.0524 26.848 33.4029C28.3482 32.7537 29.6546 31.8728 30.7673 30.7601C31.8797 29.6475 32.7594 28.3402 33.4064 26.8381C34.0534 25.3361 34.377 23.7311 34.377 22.023C34.377 20.318 34.053 18.7158 33.4052 17.2164C32.7574 15.7167 31.8783 14.4123 30.7679 13.3031C29.6573 12.1937 28.3513 11.3155 26.8501 10.6685C25.3489 10.0215 23.7447 9.69798 22.0377 9.69798C20.3309 9.69798 18.7267 10.0215 17.2253 10.6685C15.7239 11.3155 14.4178 12.1937 13.3072 13.3031C12.1966 14.4123 11.3174 15.7167 10.6696 17.2164C10.0218 18.7158 9.69784 20.318 9.69784 22.023C9.69784 23.7311 10.0214 25.3361 10.6684 26.8381C11.3154 28.3402 12.1951 29.6475 13.3075 30.7601C14.4202 31.8728 15.7268 32.7537 17.2274 33.4029C18.7282 34.0524 20.3318 34.3771 22.038 34.3771ZM22.0374 31.6258C20.9875 31.6258 19.9731 31.4615 18.9943 31.1329C18.0153 30.8042 17.1171 30.3193 16.2995 29.6784L29.6927 16.2924C30.324 17.1196 30.8041 18.0203 31.1328 18.9944C31.4614 19.9684 31.6256 20.9779 31.6256 22.023C31.6256 24.7 30.6956 26.9697 28.8356 28.8321C26.9756 30.6945 24.7095 31.6258 22.0374 31.6258ZM14.3751 27.7539C13.7484 26.9265 13.2707 26.0258 12.942 25.0519C12.6134 24.0777 12.4492 23.0681 12.4492 22.023C12.4492 19.3503 13.3792 17.0866 15.2392 15.2318C17.0992 13.3768 19.3653 12.4493 22.0374 12.4493C23.0825 12.4493 24.0908 12.6112 25.0623 12.9349C26.0341 13.2588 26.9336 13.7341 27.7608 14.3607L14.3751 27.7539Z" fill="white"/>
<path d="M55.2121 34.075V9.99499H66.0137C68.7886 9.99499 70.9214 10.5569 72.4121 11.6806C73.9028 12.7814 74.6481 14.295 74.6481 16.2214C74.6481 17.5286 74.35 18.6294 73.7537 19.5238C73.1804 20.4182 72.4006 21.1062 71.4145 21.5878C70.4284 22.0694 69.362 22.3102 68.2153 22.3102L68.8345 21.2782C70.2105 21.2782 71.426 21.519 72.4809 22.0006C73.5358 22.4822 74.3729 23.1931 74.9921 24.1334C75.6113 25.0507 75.9209 26.1974 75.9209 27.5734C75.9209 29.6374 75.1412 31.2427 73.5817 32.3894C72.0452 33.5131 69.7518 34.075 66.7017 34.075H55.2121ZM58.6521 31.2886H66.5641C68.4676 31.2886 69.9238 30.9675 70.9329 30.3254C71.942 29.6833 72.4465 28.6742 72.4465 27.2982C72.4465 25.8993 71.942 24.8787 70.9329 24.2366C69.9238 23.5945 68.4676 23.2734 66.5641 23.2734H58.3425V20.487H65.7041C67.447 20.487 68.8001 20.1659 69.7633 19.5238C70.7265 18.8817 71.2081 17.9185 71.2081 16.6342C71.2081 15.3499 70.7265 14.3867 69.7633 13.7446C68.8001 13.1025 67.447 12.7814 65.7041 12.7814H58.6521V31.2886ZM80.7657 34.075V8.55019H84.0681V34.075H80.7657ZM98.1823 34.2814C96.3476 34.2814 94.7193 33.8801 93.2975 33.0774C91.8756 32.2747 90.7519 31.1739 89.9263 29.775C89.1007 28.3531 88.6879 26.7478 88.6879 24.959C88.6879 23.1473 89.1007 21.5419 89.9263 20.143C90.7519 18.7441 91.8756 17.6547 93.2975 16.875C94.7193 16.0723 96.3476 15.671 98.1823 15.671C99.994 15.671 101.611 16.0723 103.033 16.875C104.477 17.6547 105.601 18.7441 106.404 20.143C107.229 21.519 107.642 23.1243 107.642 24.959C107.642 26.7707 107.229 28.3761 106.404 29.775C105.601 31.1739 104.477 32.2747 103.033 33.0774C101.611 33.8801 99.994 34.2814 98.1823 34.2814ZM98.1823 31.3918C99.3519 31.3918 100.395 31.1281 101.313 30.6006C102.253 30.0731 102.987 29.3278 103.514 28.3646C104.042 27.3785 104.305 26.2433 104.305 24.959C104.305 23.6518 104.042 22.5281 103.514 21.5878C102.987 20.6246 102.253 19.8793 101.313 19.3518C100.395 18.8243 99.3519 18.5606 98.1823 18.5606C97.0127 18.5606 95.9692 18.8243 95.0519 19.3518C94.1345 19.8793 93.4007 20.6246 92.8503 21.5878C92.2999 22.5281 92.0247 23.6518 92.0247 24.959C92.0247 26.2433 92.2999 27.3785 92.8503 28.3646C93.4007 29.3278 94.1345 30.0731 95.0519 30.6006C95.9692 31.1281 97.0127 31.3918 98.1823 31.3918ZM120.156 34.2814C118.298 34.2814 116.636 33.8801 115.168 33.0774C113.723 32.2747 112.588 31.1739 111.762 29.775C110.937 28.3761 110.524 26.7707 110.524 24.959C110.524 23.1473 110.937 21.5419 111.762 20.143C112.588 18.7441 113.723 17.6547 115.168 16.875C116.636 16.0723 118.298 15.671 120.156 15.671C121.807 15.671 123.275 16.0035 124.559 16.6686C125.866 17.3107 126.875 18.2739 127.586 19.5582L125.075 21.175C124.479 20.2806 123.745 19.627 122.873 19.2142C122.025 18.7785 121.108 18.5606 120.121 18.5606C118.929 18.5606 117.862 18.8243 116.922 19.3518C115.982 19.8793 115.237 20.6246 114.686 21.5878C114.136 22.5281 113.861 23.6518 113.861 24.959C113.861 26.2662 114.136 27.4014 114.686 28.3646C115.237 29.3278 115.982 30.0731 116.922 30.6006C117.862 31.1281 118.929 31.3918 120.121 31.3918C121.108 31.3918 122.025 31.1854 122.873 30.7726C123.745 30.3369 124.479 29.6718 125.075 28.7774L127.586 30.3598C126.875 31.6211 125.866 32.5958 124.559 33.2838C123.275 33.9489 121.807 34.2814 120.156 34.2814ZM134.31 29.6718L134.379 25.4406L144.871 15.843H148.861L140.811 23.755L139.023 25.2686L134.31 29.6718ZM131.627 34.075V8.55019H134.929V34.075H131.627ZM145.559 34.075L138.403 25.1998L140.536 22.551L149.618 34.075H145.559ZM160.204 34.2814C158.254 34.2814 156.534 33.8801 155.044 33.0774C153.576 32.2747 152.429 31.1739 151.604 29.775C150.801 28.3761 150.4 26.7707 150.4 24.959C150.4 23.1473 150.789 21.5419 151.569 20.143C152.372 18.7441 153.461 17.6547 154.837 16.875C156.236 16.0723 157.807 15.671 159.55 15.671C161.316 15.671 162.875 16.0609 164.228 16.8406C165.581 17.6203 166.636 18.7211 167.393 20.143C168.173 21.5419 168.563 23.1817 168.563 25.0622C168.563 25.1998 168.551 25.3603 168.528 25.5438C168.528 25.7273 168.517 25.8993 168.494 26.0598H152.98V23.6862H166.774L165.432 24.5118C165.455 23.3422 165.215 22.2987 164.71 21.3814C164.205 20.4641 163.506 19.7531 162.612 19.2486C161.74 18.7211 160.72 18.4574 159.55 18.4574C158.403 18.4574 157.383 18.7211 156.488 19.2486C155.594 19.7531 154.895 20.4755 154.39 21.4158C153.885 22.3331 153.633 23.3881 153.633 24.5806V25.131C153.633 26.3465 153.908 27.4358 154.459 28.399C155.032 29.3393 155.823 30.0731 156.832 30.6006C157.841 31.1281 159 31.3918 160.307 31.3918C161.385 31.3918 162.359 31.2083 163.231 30.8414C164.125 30.4745 164.905 29.9241 165.57 29.1902L167.393 31.323C166.568 32.2862 165.536 33.0201 164.297 33.5246C163.082 34.0291 161.717 34.2814 160.204 34.2814ZM173.148 34.075V15.843H176.313V20.7966L176.004 19.5582C176.508 18.2969 177.357 17.3337 178.549 16.6686C179.742 16.0035 181.21 15.671 182.952 15.671V18.8702C182.815 18.8473 182.677 18.8358 182.54 18.8358C182.425 18.8358 182.31 18.8358 182.196 18.8358C180.43 18.8358 179.031 19.3633 177.999 20.4182C176.967 21.4731 176.451 22.9982 176.451 24.9934V34.075H173.148ZM183.13 34.075L193.141 20.4182V23.067L183.681 9.99499H187.602L195.101 20.2806L193.553 20.315L201.018 9.99499H204.768L195.377 22.8606V20.3838L205.387 34.075H201.431L193.45 23.1014H194.964L187.086 34.075H183.13Z" fill="#FF3D00"/>
</svg>
