<svg width="27" height="29" viewBox="0 0 27 29" fill="none" xmlns="http://www.w3.org/2000/svg">
<path fill-rule="evenodd" clip-rule="evenodd" d="M9.8969 3.61422L13.4259 0.791016L16.9549 3.61422L20.6764 3.45381L21.5105 3.38964L21.703 4.19169L22.6334 7.75277L25.7132 9.77393L26.387 10.2231L26.0982 10.993L24.7829 14.4258L26.0982 17.8585L26.387 18.6285L25.7132 19.0777L22.6334 21.0988L21.703 24.6599L21.5105 25.4619L20.6764 25.3978L16.9549 25.2374L13.4259 28.0606L9.8969 25.2374L6.17541 25.3978L5.34128 25.4619L5.14879 24.6599L4.21842 21.0988L1.13856 19.0777L0.464844 18.6285L0.75358 17.8585L2.06894 14.4258L0.75358 10.993L0.464844 10.2231L1.13856 9.77393L4.21842 7.75277L5.14879 4.19169L5.34128 3.38964L6.17541 3.45381L9.8969 3.61422ZM18.6671 10.7949L12.2186 17.2434L8.85003 13.8748L7.37427 15.3505L11.4807 19.457L12.2186 20.1628L12.9565 19.457L20.1428 12.2707L18.6671 10.7949Z" fill="white"/>
</svg>
