<svg width="22" height="25" viewBox="0 0 22 25" fill="none" xmlns="http://www.w3.org/2000/svg">
<path d="M20.9804 10.7405L2.62504 0.238263C2.35745 0.0822205 2.05324 0 1.74348 0C1.43372 0 1.1295 0.0822205 0.861915 0.238263C0.598277 0.389432 0.379543 0.607942 0.228103 0.871424C0.0766634 1.13491 -0.00204311 1.4339 4.03128e-05 1.73779V22.7662C-0.000827282 23.0698 0.0789078 23.3682 0.2311 23.6309C0.383292 23.8936 0.602486 24.1111 0.86629 24.2614C1.13388 24.4174 1.43809 24.4997 1.74785 24.4997C2.05762 24.4997 2.36183 24.4174 2.62942 24.2614L20.9804 13.7614C21.2514 13.6128 21.4775 13.3941 21.635 13.1282C21.7925 12.8623 21.8756 12.5589 21.8756 12.2498C21.8756 11.9408 21.7925 11.6374 21.635 11.3714C21.4775 11.1055 21.2514 10.8868 20.9804 10.7383V10.7405ZM12.25 13.489L14.3194 15.5584L4.63973 21.0994L12.25 13.489ZM4.63754 3.40358L14.3205 8.94561L12.25 11.015L4.63754 3.40358ZM15.8933 14.6583L13.4871 12.252L15.8933 9.84576L20.0966 12.252L15.8933 14.6583Z" fill="white"/>
</svg>
