<svg width="237" height="68" viewBox="0 0 237 68" fill="none" xmlns="http://www.w3.org/2000/svg">
<rect width="237" height="68" rx="34" fill="#4285F4"/>
<path d="M75.2304 32.4885L56.875 21.9863C56.6075 21.8303 56.3032 21.748 55.9935 21.748C55.6837 21.748 55.3795 21.8303 55.1119 21.9863C54.8483 22.1375 54.6295 22.356 54.4781 22.6195C54.3267 22.883 54.248 23.1819 54.25 23.4858V44.5143C54.2492 44.8179 54.3289 45.1162 54.4811 45.3789C54.6333 45.6416 54.8525 45.8592 55.1163 46.0094C55.3839 46.1655 55.6881 46.2477 55.9979 46.2477C56.3076 46.2477 56.6118 46.1655 56.8794 46.0094L75.2304 35.5094C75.5014 35.3609 75.7275 35.1422 75.885 34.8763C76.0425 34.6103 76.1256 34.3069 76.1256 33.9979C76.1256 33.6888 76.0425 33.3854 75.885 33.1195C75.7275 32.8536 75.5014 32.6349 75.2304 32.4863V32.4885ZM66.5 35.2371L68.5694 37.3065L58.8897 42.8474L66.5 35.2371ZM58.8875 25.1516L68.5705 30.6937L66.5 32.763L58.8875 25.1516ZM70.1433 36.4063L67.7371 34.0001L70.1433 31.5938L74.3466 34.0001L70.1433 36.4063Z" fill="white"/>
<path d="M94.904 37.728H90.248L89.448 40H87.544L91.528 28.864H93.64L97.624 40H95.704L94.904 37.728ZM94.392 36.24L92.584 31.072L90.76 36.24H94.392ZM103.804 31.04C104.498 31.04 105.116 31.184 105.66 31.472C106.215 31.76 106.647 32.1867 106.956 32.752C107.266 33.3173 107.42 34 107.42 34.8V40H105.612V35.072C105.612 34.2827 105.415 33.68 105.02 33.264C104.626 32.8373 104.087 32.624 103.404 32.624C102.722 32.624 102.178 32.8373 101.772 33.264C101.378 33.68 101.18 34.2827 101.18 35.072V40H99.3563V31.184H101.18V32.192C101.479 31.8293 101.858 31.5467 102.316 31.344C102.786 31.1413 103.282 31.04 103.804 31.04ZM109.139 35.552C109.139 34.6667 109.32 33.8827 109.683 33.2C110.056 32.5173 110.558 31.9893 111.187 31.616C111.827 31.232 112.536 31.04 113.315 31.04C113.891 31.04 114.456 31.168 115.011 31.424C115.576 31.6693 116.024 32 116.355 32.416V28.16H118.195V40H116.355V38.672C116.056 39.0987 115.64 39.4507 115.107 39.728C114.584 40.0053 113.982 40.144 113.299 40.144C112.531 40.144 111.827 39.952 111.187 39.568C110.558 39.1733 110.056 38.6293 109.683 37.936C109.32 37.232 109.139 36.4373 109.139 35.552ZM116.355 35.584C116.355 34.976 116.227 34.448 115.971 34C115.726 33.552 115.4 33.2107 114.995 32.976C114.59 32.7413 114.152 32.624 113.683 32.624C113.214 32.624 112.776 32.7413 112.371 32.976C111.966 33.2 111.635 33.536 111.379 33.984C111.134 34.4213 111.011 34.944 111.011 35.552C111.011 36.16 111.134 36.6933 111.379 37.152C111.635 37.6107 111.966 37.9627 112.371 38.208C112.787 38.4427 113.224 38.56 113.683 38.56C114.152 38.56 114.59 38.4427 114.995 38.208C115.4 37.9733 115.726 37.632 115.971 37.184C116.227 36.7253 116.355 36.192 116.355 35.584ZM122.415 32.464C122.681 32.016 123.033 31.6693 123.471 31.424C123.919 31.168 124.447 31.04 125.055 31.04V32.928H124.591C123.876 32.928 123.332 33.1093 122.959 33.472C122.596 33.8347 122.415 34.464 122.415 35.36V40H120.591V31.184H122.415V32.464ZM130.555 40.144C129.723 40.144 128.971 39.9573 128.299 39.584C127.627 39.2 127.099 38.6667 126.715 37.984C126.331 37.2907 126.139 36.4907 126.139 35.584C126.139 34.688 126.337 33.8933 126.731 33.2C127.126 32.5067 127.665 31.9733 128.347 31.6C129.03 31.2267 129.793 31.04 130.635 31.04C131.478 31.04 132.241 31.2267 132.923 31.6C133.606 31.9733 134.145 32.5067 134.539 33.2C134.934 33.8933 135.131 34.688 135.131 35.584C135.131 36.48 134.929 37.2747 134.523 37.968C134.118 38.6613 133.563 39.2 132.859 39.584C132.166 39.9573 131.398 40.144 130.555 40.144ZM130.555 38.56C131.025 38.56 131.462 38.448 131.867 38.224C132.283 38 132.619 37.664 132.875 37.216C133.131 36.768 133.259 36.224 133.259 35.584C133.259 34.944 133.137 34.4053 132.891 33.968C132.646 33.52 132.321 33.184 131.915 32.96C131.51 32.736 131.073 32.624 130.603 32.624C130.134 32.624 129.697 32.736 129.291 32.96C128.897 33.184 128.582 33.52 128.347 33.968C128.113 34.4053 127.995 34.944 127.995 35.584C127.995 36.5333 128.235 37.2693 128.715 37.792C129.206 38.304 129.819 38.56 130.555 38.56ZM137.862 30.016C137.532 30.016 137.254 29.904 137.03 29.68C136.806 29.456 136.694 29.1787 136.694 28.848C136.694 28.5173 136.806 28.24 137.03 28.016C137.254 27.792 137.532 27.68 137.862 27.68C138.182 27.68 138.454 27.792 138.678 28.016C138.902 28.24 139.014 28.5173 139.014 28.848C139.014 29.1787 138.902 29.456 138.678 29.68C138.454 29.904 138.182 30.016 137.862 30.016ZM138.758 31.184V40H136.934V31.184H138.758ZM140.545 35.552C140.545 34.6667 140.726 33.8827 141.089 33.2C141.462 32.5173 141.964 31.9893 142.593 31.616C143.233 31.232 143.942 31.04 144.721 31.04C145.297 31.04 145.862 31.168 146.417 31.424C146.982 31.6693 147.43 32 147.761 32.416V28.16H149.601V40H147.761V38.672C147.462 39.0987 147.046 39.4507 146.513 39.728C145.99 40.0053 145.388 40.144 144.705 40.144C143.937 40.144 143.233 39.952 142.593 39.568C141.964 39.1733 141.462 38.6293 141.089 37.936C140.726 37.232 140.545 36.4373 140.545 35.552ZM147.761 35.584C147.761 34.976 147.633 34.448 147.377 34C147.132 33.552 146.806 33.2107 146.401 32.976C145.996 32.7413 145.558 32.624 145.089 32.624C144.62 32.624 144.182 32.7413 143.777 32.976C143.372 33.2 143.041 33.536 142.785 33.984C142.54 34.4213 142.417 34.944 142.417 35.552C142.417 36.16 142.54 36.6933 142.785 37.152C143.041 37.6107 143.372 37.9627 143.777 38.208C144.193 38.4427 144.63 38.56 145.089 38.56C145.558 38.56 145.996 38.4427 146.401 38.208C146.806 37.9733 147.132 37.632 147.377 37.184C147.633 36.7253 147.761 36.192 147.761 35.584ZM162.857 37.728H158.201L157.401 40H155.497L159.481 28.864H161.593L165.577 40H163.657L162.857 37.728ZM162.345 36.24L160.537 31.072L158.713 36.24H162.345ZM169.133 32.48C169.443 32.0747 169.864 31.7333 170.397 31.456C170.931 31.1787 171.533 31.04 172.205 31.04C172.973 31.04 173.672 31.232 174.301 31.616C174.941 31.9893 175.443 32.5173 175.805 33.2C176.168 33.8827 176.349 34.6667 176.349 35.552C176.349 36.4373 176.168 37.232 175.805 37.936C175.443 38.6293 174.941 39.1733 174.301 39.568C173.672 39.952 172.973 40.144 172.205 40.144C171.533 40.144 170.936 40.0107 170.413 39.744C169.891 39.4667 169.464 39.1253 169.133 38.72V44.192H167.309V31.184H169.133V32.48ZM174.493 35.552C174.493 34.944 174.365 34.4213 174.109 33.984C173.864 33.536 173.533 33.2 173.117 32.976C172.712 32.7413 172.275 32.624 171.805 32.624C171.347 32.624 170.909 32.7413 170.493 32.976C170.088 33.2107 169.757 33.552 169.501 34C169.256 34.448 169.133 34.976 169.133 35.584C169.133 36.192 169.256 36.7253 169.501 37.184C169.757 37.632 170.088 37.9733 170.493 38.208C170.909 38.4427 171.347 38.56 171.805 38.56C172.275 38.56 172.712 38.4427 173.117 38.208C173.533 37.9627 173.864 37.6107 174.109 37.152C174.365 36.6933 174.493 36.16 174.493 35.552ZM179.977 32.48C180.286 32.0747 180.708 31.7333 181.241 31.456C181.774 31.1787 182.377 31.04 183.049 31.04C183.817 31.04 184.516 31.232 185.145 31.616C185.785 31.9893 186.286 32.5173 186.649 33.2C187.012 33.8827 187.193 34.6667 187.193 35.552C187.193 36.4373 187.012 37.232 186.649 37.936C186.286 38.6293 185.785 39.1733 185.145 39.568C184.516 39.952 183.817 40.144 183.049 40.144C182.377 40.144 181.78 40.0107 181.257 39.744C180.734 39.4667 180.308 39.1253 179.977 38.72V44.192H178.153V31.184H179.977V32.48ZM185.337 35.552C185.337 34.944 185.209 34.4213 184.953 33.984C184.708 33.536 184.377 33.2 183.961 32.976C183.556 32.7413 183.118 32.624 182.649 32.624C182.19 32.624 181.753 32.7413 181.337 32.976C180.932 33.2107 180.601 33.552 180.345 34C180.1 34.448 179.977 34.976 179.977 35.584C179.977 36.192 180.1 36.7253 180.345 37.184C180.601 37.632 180.932 37.9733 181.337 38.208C181.753 38.4427 182.19 38.56 182.649 38.56C183.118 38.56 183.556 38.4427 183.961 38.208C184.377 37.9627 184.708 37.6107 184.953 37.152C185.209 36.6933 185.337 36.16 185.337 35.552Z" fill="white"/>
</svg>
