<svg width="23" height="25" viewBox="0 0 23 25" fill="none" xmlns="http://www.w3.org/2000/svg">
<path d="M12.278 3.28125C12.5206 2.3414 13.069 1.50894 13.8366 0.914915C14.6043 0.320887 15.5478 -0.00097238 16.5184 2.20677e-06H16.6278C16.8599 2.20677e-06 17.0824 0.0921895 17.2465 0.256284C17.4106 0.420378 17.5028 0.642938 17.5028 0.875002C17.5028 1.10707 17.4106 1.32963 17.2465 1.49372C17.0824 1.65781 16.8599 1.75 16.6278 1.75H16.5184C15.9364 1.74995 15.3709 1.94331 14.9108 2.29969C14.4507 2.65606 14.1221 3.15524 13.9766 3.71875C13.9185 3.94356 13.7736 4.13612 13.5736 4.25407C13.3736 4.37201 13.135 4.40567 12.9102 4.34766C12.6853 4.28964 12.4928 4.1447 12.3748 3.94471C12.2569 3.74472 12.2232 3.50606 12.2812 3.28125H12.278ZM22.6762 18.5489C22.6106 18.399 22.5046 18.2702 22.37 18.177C20.5139 16.9017 20.1278 14.7263 20.1278 13.125C20.1278 11.1923 21.6011 9.50907 22.4794 8.67672C22.5658 8.59495 22.6346 8.49643 22.6816 8.38717C22.7286 8.2779 22.7529 8.1602 22.7529 8.04125C22.7529 7.9223 22.7286 7.8046 22.6816 7.69534C22.6346 7.58608 22.5658 7.48755 22.4794 7.40578C21.0925 6.09656 18.7956 5.25 16.6278 5.25C15.0706 5.25139 13.5485 5.71296 12.2528 6.57672C10.7414 5.56321 8.92402 5.10804 7.1133 5.28949C5.30258 5.47094 3.61167 6.27767 2.3314 7.57094C1.56604 8.3523 0.965508 9.27952 0.565491 10.2975C0.165473 11.3155 -0.0258768 12.4035 0.00280773 13.4969C0.0457448 15.3424 0.456115 17.1609 1.20993 18.846C1.96375 20.5311 3.0459 22.049 4.39312 23.3111C5.20446 24.0777 6.27927 24.5033 7.39546 24.5H16.9855C17.5822 24.5011 18.1728 24.3797 18.7207 24.1432C19.2685 23.9067 19.762 23.5602 20.1705 23.1252C20.9271 22.3109 21.5816 21.4073 22.1195 20.4345C22.8873 19.0313 22.7889 18.8125 22.6762 18.5489Z" fill="white"/>
</svg>
