<svg width="237" height="68" viewBox="0 0 237 68" fill="none" xmlns="http://www.w3.org/2000/svg">
<rect x="0.5" y="0.5" width="236" height="67" rx="33.5" fill="#2D2D2D"/>
<rect x="0.5" y="0.5" width="236" height="67" rx="33.5" stroke="white"/>
<path d="M74.0241 23.2813C74.2667 22.3414 74.8151 21.5089 75.5827 20.9149C76.3504 20.3209 77.2939 19.999 78.2645 20H78.3739C78.606 20 78.8285 20.0922 78.9926 20.2563C79.1567 20.4204 79.2489 20.6429 79.2489 20.875C79.2489 21.1071 79.1567 21.3296 78.9926 21.4937C78.8285 21.6578 78.606 21.75 78.3739 21.75H78.2645C77.6825 21.75 77.117 21.9433 76.6569 22.2997C76.1968 22.6561 75.8681 23.1552 75.7227 23.7188C75.6646 23.9436 75.5197 24.1361 75.3197 24.2541C75.1197 24.372 74.8811 24.4057 74.6562 24.3477C74.4314 24.2896 74.2389 24.1447 74.1209 23.9447C74.003 23.7447 73.9693 23.5061 74.0273 23.2813H74.0241ZM84.4223 38.5489C84.3567 38.399 84.2507 38.2702 84.1161 38.177C82.26 36.9017 81.8739 34.7263 81.8739 33.125C81.8739 31.1923 83.3472 29.5091 84.2255 28.6767C84.3119 28.595 84.3807 28.4964 84.4277 28.3872C84.4747 28.2779 84.499 28.1602 84.499 28.0413C84.499 27.9223 84.4747 27.8046 84.4277 27.6953C84.3807 27.5861 84.3119 27.4876 84.2255 27.4058C82.8386 26.0966 80.5417 25.25 78.3739 25.25C76.8167 25.2514 75.2946 25.713 73.9989 26.5767C72.4875 25.5632 70.6701 25.108 68.8594 25.2895C67.0487 25.4709 65.3578 26.2777 64.0775 27.5709C63.3121 28.3523 62.7116 29.2795 62.3116 30.2975C61.9116 31.3155 61.7202 32.4035 61.7489 33.4969C61.7918 35.3424 62.2022 37.1609 62.956 38.846C63.7098 40.5311 64.792 42.049 66.1392 43.3111C66.9506 44.0777 68.0254 44.5033 69.1416 44.5H78.7316C79.3283 44.5011 79.9189 44.3797 80.4668 44.1432C81.0146 43.9067 81.5081 43.5602 81.9166 43.1252C82.6732 42.3109 83.3277 41.4073 83.8656 40.4345C84.6334 39.0313 84.535 38.8125 84.4223 38.5489Z" fill="white"/>
<path d="M105.99 37.728H101.334L100.534 40H98.6299L102.614 28.864H104.726L108.71 40H106.79L105.99 37.728ZM105.478 36.24L103.67 31.072L101.846 36.24H105.478ZM112.266 32.48C112.576 32.0747 112.997 31.7333 113.53 31.456C114.064 31.1787 114.666 31.04 115.338 31.04C116.106 31.04 116.805 31.232 117.434 31.616C118.074 31.9893 118.576 32.5173 118.938 33.2C119.301 33.8827 119.482 34.6667 119.482 35.552C119.482 36.4373 119.301 37.232 118.938 37.936C118.576 38.6293 118.074 39.1733 117.434 39.568C116.805 39.952 116.106 40.144 115.338 40.144C114.666 40.144 114.069 40.0107 113.546 39.744C113.024 39.4667 112.597 39.1253 112.266 38.72V44.192H110.442V31.184H112.266V32.48ZM117.626 35.552C117.626 34.944 117.498 34.4213 117.242 33.984C116.997 33.536 116.666 33.2 116.25 32.976C115.845 32.7413 115.408 32.624 114.938 32.624C114.48 32.624 114.042 32.7413 113.626 32.976C113.221 33.2107 112.89 33.552 112.634 34C112.389 34.448 112.266 34.976 112.266 35.584C112.266 36.192 112.389 36.7253 112.634 37.184C112.89 37.632 113.221 37.9733 113.626 38.208C114.042 38.4427 114.48 38.56 114.938 38.56C115.408 38.56 115.845 38.4427 116.25 38.208C116.666 37.9627 116.997 37.6107 117.242 37.152C117.498 36.6933 117.626 36.16 117.626 35.552ZM123.11 32.48C123.419 32.0747 123.841 31.7333 124.374 31.456C124.907 31.1787 125.51 31.04 126.182 31.04C126.95 31.04 127.649 31.232 128.278 31.616C128.918 31.9893 129.419 32.5173 129.782 33.2C130.145 33.8827 130.326 34.6667 130.326 35.552C130.326 36.4373 130.145 37.232 129.782 37.936C129.419 38.6293 128.918 39.1733 128.278 39.568C127.649 39.952 126.95 40.144 126.182 40.144C125.51 40.144 124.913 40.0107 124.39 39.744C123.867 39.4667 123.441 39.1253 123.11 38.72V44.192H121.286V31.184H123.11V32.48ZM128.47 35.552C128.47 34.944 128.342 34.4213 128.086 33.984C127.841 33.536 127.51 33.2 127.094 32.976C126.689 32.7413 126.251 32.624 125.782 32.624C125.323 32.624 124.886 32.7413 124.47 32.976C124.065 33.2107 123.734 33.552 123.478 34C123.233 34.448 123.11 34.976 123.11 35.584C123.11 36.192 123.233 36.7253 123.478 37.184C123.734 37.632 124.065 37.9733 124.47 38.208C124.886 38.4427 125.323 38.56 125.782 38.56C126.251 38.56 126.689 38.4427 127.094 38.208C127.51 37.9627 127.841 37.6107 128.086 37.152C128.342 36.6933 128.47 36.16 128.47 35.552ZM139.95 40.112C139.203 40.112 138.531 39.984 137.934 39.728C137.337 39.4613 136.867 39.088 136.526 38.608C136.185 38.128 136.014 37.568 136.014 36.928H137.966C138.009 37.408 138.195 37.8027 138.526 38.112C138.867 38.4213 139.342 38.576 139.95 38.576C140.579 38.576 141.07 38.4267 141.422 38.128C141.774 37.8187 141.95 37.424 141.95 36.944C141.95 36.5707 141.838 36.2667 141.614 36.032C141.401 35.7973 141.129 35.616 140.798 35.488C140.478 35.36 140.03 35.2213 139.454 35.072C138.729 34.88 138.137 34.688 137.678 34.496C137.23 34.2933 136.846 33.984 136.526 33.568C136.206 33.152 136.046 32.5973 136.046 31.904C136.046 31.264 136.206 30.704 136.526 30.224C136.846 29.744 137.294 29.376 137.87 29.12C138.446 28.864 139.113 28.736 139.87 28.736C140.947 28.736 141.827 29.008 142.51 29.552C143.203 30.0853 143.587 30.8213 143.662 31.76H141.646C141.614 31.3547 141.422 31.008 141.07 30.72C140.718 30.432 140.254 30.288 139.678 30.288C139.155 30.288 138.729 30.4213 138.398 30.688C138.067 30.9547 137.902 31.3387 137.902 31.84C137.902 32.1813 138.003 32.464 138.206 32.688C138.419 32.9013 138.686 33.072 139.006 33.2C139.326 33.328 139.763 33.4667 140.318 33.616C141.054 33.8187 141.651 34.0213 142.11 34.224C142.579 34.4267 142.974 34.7413 143.294 35.168C143.625 35.584 143.79 36.144 143.79 36.848C143.79 37.4133 143.635 37.9467 143.326 38.448C143.027 38.9493 142.585 39.3547 141.998 39.664C141.422 39.9627 140.739 40.112 139.95 40.112ZM148.07 32.672V37.552C148.07 37.8827 148.145 38.1227 148.294 38.272C148.454 38.4107 148.721 38.48 149.094 38.48H150.214V40H148.774C147.953 40 147.324 39.808 146.886 39.424C146.449 39.04 146.23 38.416 146.23 37.552V32.672H145.19V31.184H146.23V28.992H148.07V31.184H150.214V32.672H148.07ZM155.719 40.144C154.887 40.144 154.135 39.9573 153.463 39.584C152.791 39.2 152.263 38.6667 151.879 37.984C151.495 37.2907 151.303 36.4907 151.303 35.584C151.303 34.688 151.501 33.8933 151.895 33.2C152.29 32.5067 152.829 31.9733 153.511 31.6C154.194 31.2267 154.957 31.04 155.799 31.04C156.642 31.04 157.405 31.2267 158.087 31.6C158.77 31.9733 159.309 32.5067 159.703 33.2C160.098 33.8933 160.295 34.688 160.295 35.584C160.295 36.48 160.093 37.2747 159.687 37.968C159.282 38.6613 158.727 39.2 158.023 39.584C157.33 39.9573 156.562 40.144 155.719 40.144ZM155.719 38.56C156.189 38.56 156.626 38.448 157.031 38.224C157.447 38 157.783 37.664 158.039 37.216C158.295 36.768 158.423 36.224 158.423 35.584C158.423 34.944 158.301 34.4053 158.055 33.968C157.81 33.52 157.485 33.184 157.079 32.96C156.674 32.736 156.237 32.624 155.767 32.624C155.298 32.624 154.861 32.736 154.455 32.96C154.061 33.184 153.746 33.52 153.511 33.968C153.277 34.4053 153.159 34.944 153.159 35.584C153.159 36.5333 153.399 37.2693 153.879 37.792C154.37 38.304 154.983 38.56 155.719 38.56ZM163.922 32.464C164.189 32.016 164.541 31.6693 164.978 31.424C165.426 31.168 165.954 31.04 166.562 31.04V32.928H166.098C165.384 32.928 164.84 33.1093 164.466 33.472C164.104 33.8347 163.922 34.464 163.922 35.36V40H162.098V31.184H163.922V32.464ZM176.319 35.376C176.319 35.7067 176.298 36.0053 176.255 36.272H169.519C169.572 36.976 169.834 37.5413 170.303 37.968C170.772 38.3947 171.348 38.608 172.031 38.608C173.012 38.608 173.706 38.1973 174.111 37.376H176.079C175.812 38.1867 175.327 38.8533 174.623 39.376C173.93 39.888 173.066 40.144 172.031 40.144C171.188 40.144 170.431 39.9573 169.759 39.584C169.098 39.2 168.575 38.6667 168.191 37.984C167.818 37.2907 167.631 36.4907 167.631 35.584C167.631 34.6773 167.812 33.8827 168.175 33.2C168.548 32.5067 169.066 31.9733 169.727 31.6C170.399 31.2267 171.167 31.04 172.031 31.04C172.863 31.04 173.604 31.2213 174.255 31.584C174.906 31.9467 175.412 32.4587 175.775 33.12C176.138 33.7707 176.319 34.5227 176.319 35.376ZM174.415 34.8C174.404 34.128 174.164 33.5893 173.695 33.184C173.226 32.7787 172.644 32.576 171.951 32.576C171.322 32.576 170.783 32.7787 170.335 33.184C169.887 33.5787 169.62 34.1173 169.535 34.8H174.415Z" fill="white"/>
</svg>
