<svg width="119" height="19" viewBox="0 0 119 19" fill="none" xmlns="http://www.w3.org/2000/svg">
<path d="M17.3459 7.49122C17.3378 7.68478 17.2355 7.90582 17.0369 8.08039C16.242 8.77866 15.4467 9.47628 14.651 10.1732C14.2795 10.4993 13.9074 10.8247 13.5348 11.1497C13.4816 11.196 13.4681 11.237 13.4844 11.3088C13.7704 12.5586 14.0541 13.8088 14.3355 15.0596C14.3924 15.311 14.4485 15.5628 14.51 15.8133C14.5997 16.1843 14.4852 16.5509 14.196 16.7584C13.8779 16.9866 13.5401 17.0015 13.2038 16.802C12.1327 16.1653 11.063 15.526 9.9946 14.8842C9.74519 14.7352 9.49272 14.5896 9.24745 14.4351C9.1654 14.3834 9.10583 14.383 9.0216 14.4336C7.72238 15.2135 6.42031 15.9886 5.12262 16.7682C4.84702 16.9336 4.56553 16.9958 4.26091 16.8708C3.85787 16.7054 3.6473 16.2816 3.74746 15.8413C4.03069 14.5948 4.31437 13.3484 4.59848 12.102C4.65827 11.8402 4.71173 11.5763 4.77654 11.3165C4.7953 11.2414 4.78221 11.1971 4.72526 11.1476C4.23705 10.7229 3.75008 10.2968 3.26434 9.86928C2.58374 9.27182 1.90052 8.67851 1.22385 8.07668C0.9476 7.83141 0.842859 7.51828 0.95611 7.1602C1.06936 6.80212 1.32249 6.58652 1.69999 6.54768C2.36902 6.47916 3.03915 6.42177 3.70883 6.36046C4.37132 6.2998 5.03381 6.23957 5.69629 6.17978C5.91712 6.15992 6.13795 6.13766 6.359 6.12086C6.43013 6.11563 6.4681 6.08442 6.49472 6.01961C7.0948 4.60954 7.6959 3.20004 8.29801 1.79113C8.46429 1.40163 8.76128 1.18407 9.13878 1.19389C9.51628 1.20371 9.78861 1.3881 9.9383 1.73484C10.3457 2.67816 10.7479 3.62366 11.1518 4.56873C11.3573 5.0488 11.5633 5.53017 11.7654 6.01241C11.7964 6.0866 11.8407 6.11541 11.9181 6.12152C12.4506 6.16661 12.9828 6.21389 13.515 6.26335C14.2898 6.33376 15.0645 6.40475 15.8391 6.47633C16.0853 6.49815 16.3316 6.51997 16.5771 6.54746C17.0236 6.60027 17.3494 6.97276 17.3459 7.49122Z" fill="#FFB300"/>
<path d="M42.435 7.49272C42.4269 7.68627 42.3246 7.90732 42.126 8.08189C41.3311 8.78016 40.5358 9.47778 39.7401 10.1747C39.3686 10.5007 38.9965 10.8262 38.624 11.1512C38.5707 11.1975 38.5572 11.2385 38.5735 11.3103C38.8596 12.5601 39.1432 13.8103 39.4246 15.0611C39.4815 15.3125 39.5376 15.5643 39.5991 15.8148C39.6888 16.1858 39.5743 16.5524 39.2851 16.7599C38.967 16.9881 38.6292 17.003 38.2929 16.8035C37.2218 16.1668 36.1521 15.5275 35.0837 14.8857C34.8343 14.7366 34.5818 14.5911 34.3366 14.4366C34.2545 14.3849 34.1949 14.3845 34.1107 14.4351C32.8115 15.215 31.5094 15.99 30.2117 16.7697C29.9361 16.9351 29.6546 16.9973 29.35 16.8723C28.947 16.7069 28.7364 16.2831 28.8366 15.8428C29.1198 14.5963 29.4035 13.3499 29.6876 12.1035C29.7474 11.8417 29.8008 11.5778 29.8656 11.3179C29.8844 11.2429 29.8713 11.1986 29.8144 11.1491C29.3262 10.7244 28.8392 10.2983 28.3535 9.87078C27.6729 9.27332 26.9896 8.68 26.313 8.07818C26.0367 7.83291 25.932 7.51978 26.0452 7.16169C26.1585 6.80361 26.4116 6.58802 26.7891 6.54918C27.4581 6.48066 28.1283 6.42327 28.7979 6.36195C29.4604 6.30129 30.1229 6.24106 30.7854 6.18127C31.0062 6.16142 31.2271 6.13916 31.4481 6.12236C31.5192 6.11712 31.5572 6.08592 31.5838 6.02111C32.1839 4.61103 32.785 3.20154 33.3871 1.79263C33.5534 1.40312 33.8504 1.18557 34.2279 1.19539C34.6054 1.20521 34.8777 1.38959 35.0274 1.73633C35.4348 2.67965 35.837 3.62516 36.2409 4.57023C36.4464 5.05029 36.6524 5.53166 36.8545 6.01391C36.8855 6.0881 36.9298 6.1169 37.0072 6.12301C37.5397 6.16811 38.072 6.21539 38.6041 6.26485C39.3789 6.33526 40.1536 6.40625 40.9283 6.47782C41.1744 6.49964 41.4208 6.52146 41.6662 6.54896C42.1127 6.60177 42.4385 6.97425 42.435 7.49272Z" fill="#FFB300"/>
<path d="M67.5217 7.49382C67.5136 7.68737 67.4113 7.90842 67.2127 8.08298C66.4178 8.78126 65.6225 9.47888 64.8268 10.1758C64.4552 10.5018 64.0832 10.8273 63.7106 11.1523C63.6574 11.1986 63.6439 11.2396 63.6602 11.3114C63.9462 12.5612 64.2299 13.8114 64.5112 15.0622C64.5682 15.3136 64.6243 15.5654 64.6858 15.8159C64.7755 16.1869 64.6609 16.5535 64.3718 16.761C64.0537 16.9892 63.7159 17.0041 63.3796 16.8046C62.3085 16.1679 61.2387 15.5286 60.1704 14.8868C59.921 14.7377 59.6685 14.5922 59.4232 14.4377C59.3412 14.386 59.2816 14.3856 59.1974 14.4362C57.8982 15.2161 56.5961 15.9911 55.2984 16.7708C55.0228 16.9362 54.7413 16.9984 54.4367 16.8734C54.0337 16.708 53.8231 16.2842 53.9232 15.8439C54.2065 14.5974 54.4901 13.351 54.7743 12.1046C54.834 11.8427 54.8875 11.5789 54.9523 11.319C54.9711 11.244 54.958 11.1997 54.901 11.1501C54.4128 10.7255 53.9259 10.2994 53.4401 9.87187C52.7595 9.27441 52.0763 8.6811 51.3996 8.07928C51.1234 7.83401 51.0186 7.52088 51.1319 7.16279C51.2451 6.80471 51.4983 6.58912 51.8758 6.55028C52.5448 6.48176 53.2149 6.42437 53.8846 6.36305C54.5471 6.30239 55.2096 6.24216 55.8721 6.18237C56.0929 6.16252 56.3137 6.14026 56.5348 6.12346C56.6059 6.11822 56.6439 6.08702 56.6705 6.02221C57.2706 4.61213 57.8717 3.20264 58.4738 1.79373C58.6401 1.40422 58.9371 1.18667 59.3146 1.19649C59.6921 1.20631 59.9644 1.39069 60.1141 1.73743C60.5215 2.68075 60.9236 3.62626 61.3276 4.57133C61.5331 5.05139 61.7391 5.53276 61.9412 6.01501C61.9721 6.0892 62.0164 6.118 62.0939 6.12411C62.6263 6.16921 63.1586 6.21649 63.6908 6.26595C64.4656 6.33636 65.2403 6.40735 66.0149 6.47892C66.2611 6.50074 66.5074 6.52256 66.7529 6.55006C67.1994 6.60286 67.5252 6.97535 67.5217 7.49382Z" fill="#FFB300"/>
<path d="M92.6061 7.49272C92.5981 7.68627 92.4957 7.90732 92.2972 8.08189C91.5023 8.78016 90.707 9.47778 89.9112 10.1747C89.5397 10.5007 89.1677 10.8262 88.7951 11.1512C88.7419 11.1975 88.7283 11.2385 88.7447 11.3103C89.0307 12.5601 89.3144 13.8103 89.5957 15.0611C89.6527 15.3125 89.7087 15.5643 89.7703 15.8148C89.86 16.1858 89.7454 16.5524 89.4563 16.7599C89.1381 16.9881 88.8003 17.003 88.4641 16.8035C87.393 16.1668 86.3232 15.5275 85.2549 14.8857C85.0054 14.7366 84.753 14.5911 84.5077 14.4366C84.4257 14.3849 84.3661 14.3845 84.2819 14.4351C82.9826 15.215 81.6806 15.99 80.3829 16.7697C80.1073 16.9351 79.8258 16.9973 79.5212 16.8723C79.1181 16.7069 78.9076 16.2831 79.0077 15.8428C79.2909 14.5963 79.5746 13.3499 79.8587 12.1035C79.9185 11.8417 79.972 11.5778 80.0368 11.3179C80.0556 11.2429 80.0425 11.1986 79.9855 11.1491C79.4973 10.7244 79.0103 10.2983 78.5246 9.87078C77.844 9.27332 77.1608 8.68 76.4841 8.07818C76.2079 7.83291 76.1031 7.51978 76.2164 7.16169C76.3296 6.80361 76.5827 6.58802 76.9602 6.54918C77.6293 6.48066 78.2994 6.42327 78.9691 6.36195C79.6316 6.30129 80.2941 6.24106 80.9565 6.18127C81.1774 6.16142 81.3982 6.13916 81.6193 6.12236C81.6904 6.11712 81.7284 6.08592 81.755 6.02111C82.3551 4.61103 82.9562 3.20154 83.5583 1.79263C83.7245 1.40312 84.0215 1.18557 84.399 1.19539C84.7765 1.20521 85.0489 1.38959 85.1986 1.73633C85.606 2.67965 86.0081 3.62516 86.412 4.57023C86.6176 5.05029 86.8236 5.53166 87.0256 6.01391C87.0566 6.0881 87.1009 6.1169 87.1784 6.12301C87.7108 6.16811 88.2431 6.21539 88.7752 6.26485C89.55 6.33526 90.3248 6.40625 91.0994 6.47782C91.3455 6.49964 91.5919 6.52146 91.8374 6.54896C92.2838 6.60177 92.6096 6.97425 92.6061 7.49272Z" fill="#FFB300"/>
<path d="M117.692 7.49272C117.684 7.68627 117.582 7.90732 117.383 8.08189C116.588 8.78016 115.793 9.47778 114.997 10.1747C114.626 10.5007 114.254 10.8262 113.881 11.1512C113.828 11.1975 113.815 11.2385 113.831 11.3103C114.117 12.5601 114.401 13.8103 114.682 15.0611C114.739 15.3125 114.795 15.5643 114.856 15.8148C114.946 16.1858 114.832 16.5524 114.542 16.7599C114.224 16.9881 113.887 17.003 113.55 16.8035C112.479 16.1668 111.409 15.5275 110.341 14.8857C110.092 14.7366 109.839 14.5911 109.594 14.4366C109.512 14.3849 109.452 14.3845 109.368 14.4351C108.069 15.215 106.767 15.99 105.469 16.7697C105.193 16.9351 104.912 16.9973 104.607 16.8723C104.204 16.7069 103.994 16.2831 104.094 15.8428C104.377 14.5963 104.661 13.3499 104.945 12.1035C105.005 11.8417 105.058 11.5778 105.123 11.3179C105.142 11.2429 105.129 11.1986 105.072 11.1491C104.583 10.7244 104.097 10.2983 103.611 9.87078C102.93 9.27332 102.247 8.68 101.57 8.07818C101.294 7.83291 101.189 7.51978 101.303 7.16169C101.416 6.80361 101.669 6.58802 102.046 6.54918C102.715 6.48066 103.386 6.42327 104.055 6.36195C104.718 6.30129 105.38 6.24106 106.043 6.18127C106.264 6.16142 106.484 6.13916 106.705 6.12236C106.777 6.11712 106.815 6.08592 106.841 6.02111C107.441 4.61103 108.042 3.20154 108.644 1.79263C108.811 1.40312 109.108 1.18557 109.485 1.19539C109.863 1.20521 110.135 1.38959 110.285 1.73633C110.692 2.67965 111.094 3.62516 111.498 4.57023C111.704 5.05029 111.91 5.53166 112.112 6.01391C112.143 6.0881 112.187 6.1169 112.265 6.12301C112.797 6.16811 113.329 6.21539 113.861 6.26485C114.636 6.33526 115.411 6.40625 116.186 6.47782C116.432 6.49964 116.678 6.52146 116.924 6.54896C117.37 6.60177 117.696 6.97425 117.692 7.49272Z" fill="#FFB300"/>
</svg>
