<svg width="21" height="21" viewBox="0 0 21 21" fill="none" xmlns="http://www.w3.org/2000/svg">
<path d="M8.75 12.2499V17.898C8.75 18.1301 8.65781 18.3527 8.49372 18.5168C8.32962 18.6809 8.10706 18.773 7.875 18.773C7.82256 18.7727 7.77024 18.768 7.71859 18.7588L0.718594 17.4857C0.51698 17.4491 0.334617 17.3428 0.203296 17.1855C0.0719761 17.0282 2.96157e-05 16.8298 0 16.6249V12.2499C0 12.0179 0.0921872 11.7953 0.256282 11.6312C0.420376 11.4671 0.642936 11.3749 0.875 11.3749H7.875C8.10706 11.3749 8.32962 11.4671 8.49372 11.6312C8.65781 11.7953 8.75 12.0179 8.75 12.2499ZM8.43609 2.43023C8.33767 2.34805 8.22238 2.2885 8.09839 2.2558C7.97441 2.2231 7.84475 2.21806 7.71859 2.24102L0.718594 3.51414C0.51698 3.55077 0.334617 3.657 0.203296 3.8143C0.0719761 3.9716 2.96157e-05 4.17001 0 4.37492V8.74992C0 8.98199 0.0921872 9.20455 0.256282 9.36864C0.420376 9.53273 0.642936 9.62492 0.875 9.62492H7.875C8.10706 9.62492 8.32962 9.53273 8.49372 9.36864C8.65781 9.20455 8.75 8.98199 8.75 8.74992V3.1018C8.75002 2.97371 8.72192 2.84717 8.66768 2.73113C8.61344 2.61509 8.53438 2.51237 8.43609 2.43023ZM20.125 11.3749H11.375C11.1429 11.3749 10.9204 11.4671 10.7563 11.6312C10.5922 11.7953 10.5 12.0179 10.5 12.2499V18.5335C10.4998 18.7386 10.5716 18.9373 10.7029 19.0948C10.8343 19.2523 11.0168 19.3587 11.2186 19.3954L19.9686 20.9857C20.0202 20.9954 20.0725 21.0001 20.125 20.9999C20.3571 20.9999 20.5796 20.9077 20.7437 20.7436C20.9078 20.5795 21 20.357 21 20.1249V12.2499C21 12.0179 20.9078 11.7953 20.7437 11.6312C20.5796 11.4671 20.3571 11.3749 20.125 11.3749ZM20.6861 0.20336C20.5877 0.121174 20.4724 0.0616247 20.3484 0.0289267C20.2244 -0.00377123 20.0947 -0.00881865 19.9686 0.0141413L11.2186 1.60555C11.017 1.64218 10.8346 1.7484 10.7033 1.90571C10.572 2.06301 10.5 2.26141 10.5 2.46633V8.74992C10.5 8.98199 10.5922 9.20455 10.7563 9.36864C10.9204 9.53273 11.1429 9.62492 11.375 9.62492H20.125C20.3571 9.62492 20.5796 9.53273 20.7437 9.36864C20.9078 9.20455 21 8.98199 21 8.74992V0.874922C21 0.746831 20.9719 0.620296 20.9177 0.504256C20.8634 0.388215 20.7844 0.285499 20.6861 0.20336Z" fill="white"/>
</svg>
