<svg width="30" height="30" viewBox="0 0 30 30" fill="none" xmlns="http://www.w3.org/2000/svg">
<g opacity="0.5">
<path d="M15 16.3173L18.8413 20.1586C19.0144 20.3317 19.232 20.4202 19.494 20.4242C19.756 20.4282 19.9775 20.3397 20.1586 20.1586C20.3397 19.9775 20.4303 19.758 20.4303 19.5C20.4303 19.242 20.3397 19.0224 20.1586 18.8413L16.3173 15L20.1586 11.1586C20.3317 10.9855 20.4202 10.768 20.4242 10.506C20.4282 10.244 20.3397 10.0224 20.1586 9.84135C19.9775 9.66024 19.758 9.56969 19.5 9.56969C19.242 9.56969 19.0224 9.66024 18.8413 9.84135L15 13.6827L11.1586 9.84135C10.9855 9.66826 10.768 9.57972 10.506 9.57572C10.244 9.5717 10.0224 9.66024 9.84134 9.84135C9.66024 10.0224 9.56969 10.242 9.56969 10.5C9.56969 10.758 9.66024 10.9775 9.84134 11.1586L13.6827 15L9.84134 18.8413C9.66826 19.0144 9.57972 19.232 9.57572 19.494C9.5717 19.756 9.66024 19.9775 9.84134 20.1586C10.0224 20.3397 10.242 20.4303 10.5 20.4303C10.758 20.4303 10.9775 20.3397 11.1586 20.1586L15 16.3173ZM15.0021 26.8749C13.3596 26.8749 11.8159 26.5633 10.3707 25.9399C8.9255 25.3166 7.6684 24.4707 6.59938 23.4021C5.53033 22.3336 4.68401 21.077 4.06041 19.6325C3.4368 18.188 3.125 16.6445 3.125 15.0021C3.125 13.3596 3.43667 11.8159 4.06 10.3707C4.68333 8.9255 5.52927 7.6684 6.59781 6.59938C7.66638 5.53034 8.92293 4.68401 10.3675 4.06041C11.812 3.4368 13.3555 3.125 14.9979 3.125C16.6403 3.125 18.1841 3.43667 19.6293 4.06C21.0744 4.68333 22.3315 5.52927 23.4006 6.59781C24.4696 7.66638 25.3159 8.92293 25.9395 10.3675C26.5631 11.812 26.8749 13.3555 26.8749 14.9979C26.8749 16.6403 26.5633 18.1841 25.9399 19.6293C25.3166 21.0744 24.4707 22.3315 23.4021 23.4006C22.3336 24.4696 21.077 25.3159 19.6325 25.9395C18.188 26.5631 16.6445 26.8749 15.0021 26.8749Z" fill="#E61919"/>
</g>
</svg>
