<svg width="145" height="22" viewBox="0 0 145 22" fill="none" xmlns="http://www.w3.org/2000/svg">
<path fill-rule="evenodd" clip-rule="evenodd" d="M12.9807 0.764889L15.4763 5.83112C15.6684 6.2211 16.0401 6.49179 16.4695 6.55398L22.0502 7.36641C23.1321 7.52404 23.5643 8.85632 22.7815 9.62102L18.7433 13.5646C18.4326 13.8682 18.2905 14.3059 18.3639 14.7346L19.3173 20.3031C19.5019 21.3827 18.3709 22.206 17.403 21.6964L12.4115 19.0674C12.0273 18.8652 11.5682 18.8652 11.1836 19.0674L6.19245 21.6964C5.22459 22.206 4.09354 21.3827 4.27821 20.3031L5.23162 14.7346C5.30502 14.3059 5.1633 13.8682 4.85213 13.5646L0.813996 9.62102C0.0308092 8.85632 0.463005 7.52404 1.54526 7.36641L7.12595 6.55398C7.5558 6.49139 7.9271 6.2211 8.11918 5.83112L10.6148 0.764889C11.0989 -0.217691 12.497 -0.217691 12.9807 0.764889Z" fill="#FBB042"/>
<path fill-rule="evenodd" clip-rule="evenodd" d="M43.2739 0.764889L45.7695 5.83112C45.9616 6.2211 46.3333 6.49179 46.7627 6.55398L52.3434 7.36641C53.4253 7.52404 53.8575 8.85632 53.0747 9.62102L49.0365 13.5646C48.7258 13.8682 48.5836 14.3059 48.657 14.7346L49.6105 20.3031C49.7951 21.3827 48.6641 22.206 47.6962 21.6964L42.7047 19.0674C42.3205 18.8652 41.861 18.8652 41.4768 19.0674L36.4852 21.6964C35.5174 22.206 34.3863 21.3827 34.571 20.3031L35.5244 14.7346C35.5978 14.3059 35.4557 13.8682 35.1449 13.5646L31.1068 9.62102C30.324 8.85632 30.7558 7.52404 31.8381 7.36641L37.4187 6.55398C37.8486 6.49139 38.2199 6.2211 38.412 5.83112L40.9076 0.764889C41.3917 -0.217691 42.7898 -0.217691 43.2739 0.764889Z" fill="#FBB042"/>
<path fill-rule="evenodd" clip-rule="evenodd" d="M73.5588 0.764889L76.0548 5.83112C76.2469 6.2211 76.6186 6.49179 77.048 6.55398L82.6287 7.36641C83.7106 7.52404 84.1428 8.85632 83.36 9.62102L79.3219 13.5646C79.0111 13.8682 78.869 14.3059 78.9424 14.7346L79.8958 20.3031C80.0805 21.3827 78.9494 22.206 77.9816 21.6964L72.99 19.0674C72.6058 18.8652 72.1463 18.8652 71.7621 19.0674L66.7706 21.6964C65.8027 22.206 64.6717 21.3827 64.8563 20.3031L65.8097 14.7346C65.8831 14.3059 65.7414 13.8682 65.4303 13.5646L61.3921 9.62102C60.6089 8.85632 61.0411 7.52404 62.1234 7.36641L67.7041 6.55398C68.1339 6.49139 68.5052 6.2211 68.6973 5.83112L71.1929 0.764889C71.6766 -0.217691 73.0751 -0.217691 73.5588 0.764889Z" fill="#FBB042"/>
<path fill-rule="evenodd" clip-rule="evenodd" d="M103.848 0.764889L106.344 5.83112C106.536 6.2211 106.908 6.49179 107.337 6.55398L112.918 7.36641C114 7.52404 114.432 8.85632 113.649 9.62102L109.611 13.5646C109.3 13.8682 109.158 14.3059 109.231 14.7346L110.185 20.3031C110.37 21.3827 109.238 22.206 108.271 21.6964L103.279 19.0674C102.895 18.8652 102.435 18.8652 102.051 19.0674L97.0596 21.6964C96.0918 22.206 94.9607 21.3827 95.1454 20.3031L96.0988 14.7346C96.1722 14.3059 96.0301 13.8682 95.7193 13.5646L91.6812 9.62102C90.898 8.85632 91.3302 7.52404 92.4124 7.36641L97.9931 6.55398C98.423 6.49139 98.7943 6.2211 98.9864 5.83112L101.482 0.764889C101.966 -0.217691 103.365 -0.217691 103.848 0.764889Z" fill="#FBB042"/>
<path fill-rule="evenodd" clip-rule="evenodd" d="M134.137 0.764889L136.633 5.83112C136.825 6.2211 137.197 6.49179 137.626 6.55398L143.207 7.36641C144.289 7.52404 144.721 8.85632 143.938 9.62102L139.9 13.5646C139.589 13.8682 139.447 14.3059 139.52 14.7346L140.474 20.3031C140.658 21.3827 139.527 22.206 138.559 21.6964L133.568 19.0674C133.184 18.8652 132.724 18.8652 132.34 19.0674L127.349 21.6964C126.381 22.206 125.25 21.3827 125.434 20.3031L126.388 14.7346C126.461 14.3059 126.319 13.8682 126.008 13.5646L121.97 9.62102C121.187 8.85632 121.619 7.52404 122.701 7.36641L128.282 6.55398C128.712 6.49139 129.083 6.2211 129.275 5.83112L131.771 0.764889C132.255 -0.217691 133.653 -0.217691 134.137 0.764889Z" fill="#FBB042"/>
</svg>
