<svg width="30" height="30" viewBox="0 0 30 30" fill="none" xmlns="http://www.w3.org/2000/svg">
<path d="M13.2259 17.6827L10.3221 14.7788C10.149 14.6058 9.93146 14.5172 9.66944 14.5132C9.40742 14.5092 9.18586 14.5977 9.00478 14.7788C8.8237 14.9599 8.73316 15.1795 8.73316 15.4375C8.73316 15.6955 8.8237 15.915 9.00478 16.0961L12.4351 19.5264C12.661 19.7523 12.9246 19.8653 13.2259 19.8653C13.5272 19.8653 13.7908 19.7523 14.0168 19.5264L20.9711 12.5721C21.1442 12.399 21.2327 12.1815 21.2367 11.9194C21.2407 11.6574 21.1522 11.4359 20.9711 11.2548C20.79 11.0737 20.5705 10.9832 20.3125 10.9832C20.0545 10.9832 19.8349 11.0737 19.6538 11.2548L13.2259 17.6827ZM15.0021 26.8749C13.3596 26.8749 11.8159 26.5633 10.3707 25.9399C8.9255 25.3166 7.6684 24.4707 6.59938 23.4021C5.53033 22.3336 4.68401 21.077 4.06041 19.6325C3.4368 18.188 3.125 16.6445 3.125 15.0021C3.125 13.3596 3.43667 11.8159 4.06 10.3707C4.68333 8.9255 5.52927 7.6684 6.59781 6.59938C7.66638 5.53034 8.92293 4.68401 10.3675 4.06041C11.812 3.4368 13.3555 3.125 14.9979 3.125C16.6403 3.125 18.1841 3.43667 19.6293 4.06C21.0744 4.68333 22.3315 5.52927 23.4006 6.59781C24.4696 7.66638 25.3159 8.92293 25.9395 10.3675C26.5631 11.812 26.8749 13.3555 26.8749 14.9979C26.8749 16.6403 26.5633 18.1841 25.9399 19.6293C25.3166 21.0744 24.4707 22.3315 23.4021 23.4006C22.3336 24.4696 21.077 25.3159 19.6325 25.9395C18.188 26.5631 16.6445 26.8749 15.0021 26.8749Z" fill="#24BD3D"/>
</svg>
