<svg width="24" height="24" viewBox="0 0 24 24" fill="none" xmlns="http://www.w3.org/2000/svg">
<path d="M10.2259 14.6827L7.32206 11.7788C7.149 11.6058 6.93146 11.5172 6.66944 11.5132C6.40742 11.5092 6.18586 11.5977 6.00478 11.7788C5.8237 11.9599 5.73316 12.1795 5.73316 12.4375C5.73316 12.6955 5.8237 12.915 6.00478 13.0961L9.43506 16.5264C9.66102 16.7523 9.92465 16.8653 10.2259 16.8653C10.5272 16.8653 10.7908 16.7523 11.0168 16.5264L17.9711 9.57206C18.1442 9.399 18.2327 9.18146 18.2367 8.91944C18.2407 8.65742 18.1522 8.43587 17.9711 8.25478C17.79 8.0737 17.5705 7.98316 17.3125 7.98316C17.0545 7.98316 16.8349 8.0737 16.6538 8.25478L10.2259 14.6827ZM12.0021 23.8749C10.3596 23.8749 8.81586 23.5633 7.37069 22.9399C5.9255 22.3166 4.6684 21.4707 3.59938 20.4021C2.53033 19.3336 1.68401 18.077 1.06041 16.6325C0.436802 15.188 0.125 13.6445 0.125 12.0021C0.125 10.3596 0.436667 8.81586 1.06 7.37069C1.68333 5.9255 2.52927 4.6684 3.59781 3.59938C4.66638 2.53034 5.92293 1.68401 7.36747 1.06041C8.81199 0.436803 10.3555 0.125 11.9979 0.125C13.6403 0.125 15.1841 0.436668 16.6293 1.06C18.0744 1.68333 19.3315 2.52927 20.4006 3.59781C21.4696 4.66638 22.3159 5.92293 22.9395 7.36747C23.5631 8.81199 23.8749 10.3555 23.8749 11.9979C23.8749 13.6403 23.5633 15.1841 22.9399 16.6293C22.3166 18.0744 21.4707 19.3315 20.4021 20.4006C19.3336 21.4696 18.077 22.3159 16.6325 22.9395C15.188 23.5631 13.6445 23.8749 12.0021 23.8749Z" fill="#E64A19"/>
</svg>
