<svg width="33" height="33" viewBox="0 0 33 33" fill="none" xmlns="http://www.w3.org/2000/svg">
<path d="M16.5 16.225L14.255 17.9596C14.1263 18.0565 13.9998 18.0601 13.8756 17.9702C13.7513 17.8802 13.7121 17.7639 13.7579 17.6211L14.612 14.8129L12.338 13.0731C12.2234 12.9761 12.1912 12.8575 12.2415 12.7174C12.2917 12.5773 12.3882 12.5072 12.531 12.5072H15.3418L16.1959 9.74133C16.2417 9.59853 16.3431 9.52714 16.5 9.52714C16.6569 9.52714 16.7582 9.59853 16.804 9.74133L17.6581 12.5072H20.4478C20.5906 12.5072 20.6906 12.5773 20.7479 12.7174C20.8052 12.8575 20.7765 12.9761 20.662 13.0731L18.3668 14.8129L19.2209 17.6211C19.2667 17.7639 19.2275 17.8802 19.1032 17.9702C18.9789 18.0601 18.8524 18.0565 18.7238 17.9596L16.5 16.225ZM16.5 28.161L10.5611 30.041C10.1556 30.1838 9.78367 30.1287 9.44522 29.8757C9.10674 29.6228 8.9375 29.2892 8.9375 28.8749V20.7254C8.06667 19.8158 7.39063 18.7643 6.90938 17.5709C6.42813 16.3775 6.1875 15.1038 6.1875 13.75C6.1875 10.8731 7.18702 8.43509 9.18607 6.43607C11.1851 4.43702 13.6231 3.4375 16.5 3.4375C19.3769 3.4375 21.8148 4.43702 23.8139 6.43607C25.8129 8.43509 26.8124 10.8731 26.8124 13.75C26.8124 15.1038 26.5718 16.3775 26.0906 17.5709C25.6093 18.7643 24.9333 19.8158 24.0624 20.7254V28.8749C24.0624 29.2892 23.8932 29.6228 23.5547 29.8757C23.2163 30.1287 22.8443 30.1838 22.4389 30.041L16.5 28.161ZM16.5 22C18.7916 22 20.7395 21.1979 22.3437 19.5937C23.9479 17.9896 24.75 16.0416 24.75 13.75C24.75 11.4583 23.9479 9.51038 22.3437 7.90622C20.7395 6.30205 18.7916 5.49997 16.5 5.49997C14.2083 5.49997 12.2604 6.30205 10.6562 7.90622C9.05205 9.51038 8.24997 11.4583 8.24997 13.75C8.24997 16.0416 9.05205 17.9896 10.6562 19.5937C12.2604 21.1979 14.2083 22 16.5 22Z" fill="#FFD028"/>
</svg>
