<svg width="135" height="21" viewBox="0 0 135 21" fill="none" xmlns="http://www.w3.org/2000/svg">
<path fill-rule="evenodd" clip-rule="evenodd" d="M12.227 1.14828L14.5427 5.85679C14.7209 6.21924 15.0658 6.47081 15.4643 6.52861L20.6426 7.28367C21.6465 7.43018 22.0475 8.66838 21.3212 9.37909L17.5742 13.0443C17.2858 13.3264 17.1539 13.7332 17.2221 14.1316L18.1067 19.3069C18.2781 20.3102 17.2286 21.0755 16.3305 20.6018L11.6988 18.1585C11.3424 17.9705 10.9163 17.9705 10.5595 18.1585L5.92818 20.6018C5.03011 21.0755 3.9806 20.3102 4.15196 19.3069L5.03663 14.1316C5.10474 13.7332 4.97323 13.3264 4.6845 13.0443L0.937505 9.37909C0.210785 8.66838 0.61182 7.43018 1.61604 7.28367L6.79438 6.52861C7.19324 6.47044 7.53776 6.21924 7.716 5.85679L10.0317 1.14828C10.4809 0.235078 11.7782 0.235078 12.227 1.14828Z" fill="#E29E3B"/>
<path fill-rule="evenodd" clip-rule="evenodd" d="M40.3327 1.14828L42.6484 5.85679C42.8266 6.21924 43.1715 6.47081 43.57 6.52861L48.7483 7.28367C49.7522 7.43018 50.1532 8.66838 49.4269 9.37909L45.6799 13.0443C45.3915 13.3264 45.2596 13.7332 45.3277 14.1316L46.2124 19.3069C46.3838 20.3102 45.3342 21.0755 44.4362 20.6018L39.8045 18.1585C39.448 17.9705 39.0216 17.9705 38.6652 18.1585L34.0335 20.6018C33.1354 21.0755 32.0859 20.3102 32.2573 19.3069L33.1419 14.1316C33.21 13.7332 33.0782 13.3264 32.7898 13.0443L29.0428 9.37909C28.3165 8.66838 28.7171 7.43018 29.7214 7.28367L34.8997 6.52861C35.2986 6.47044 35.6431 6.21924 35.8213 5.85679L38.137 1.14828C38.5862 0.235078 39.8835 0.235078 40.3327 1.14828Z" fill="#E29E3B"/>
<path fill-rule="evenodd" clip-rule="evenodd" d="M68.438 1.14828L70.754 5.85679C70.9322 6.21924 71.2771 6.47081 71.6756 6.52861L76.8539 7.28367C77.8578 7.43018 78.2588 8.66838 77.5325 9.37909L73.7855 13.0443C73.4971 13.3264 73.3653 13.7332 73.4334 14.1316L74.318 19.3069C74.4894 20.3102 73.4399 21.0755 72.5418 20.6018L67.9101 18.1585C67.5537 17.9705 67.1273 17.9705 66.7708 18.1585L62.1391 20.6018C61.241 21.0755 60.1915 20.3102 60.3629 19.3069L61.2476 14.1316C61.3157 13.7332 61.1842 13.3264 60.8954 13.0443L57.1484 9.37909C56.4217 8.66838 56.8228 7.43018 57.827 7.28367L63.0053 6.52861C63.4042 6.47044 63.7487 6.21924 63.9269 5.85679L66.2426 1.14828C66.6914 0.235078 67.9891 0.235078 68.438 1.14828Z" fill="#E29E3B"/>
<path fill-rule="evenodd" clip-rule="evenodd" d="M96.5438 1.14828L98.8595 5.85679C99.0377 6.21924 99.3826 6.47081 99.7811 6.52861L104.959 7.28367C105.963 7.43018 106.364 8.66838 105.638 9.37909L101.891 13.0443C101.603 13.3264 101.471 13.7332 101.539 14.1316L102.424 19.3069C102.595 20.3102 101.545 21.0755 100.647 20.6018L96.0156 18.1585C95.6591 17.9705 95.2327 17.9705 94.8763 18.1585L90.2446 20.6018C89.3465 21.0755 88.297 20.3102 88.4684 19.3069L89.353 14.1316C89.4211 13.7332 89.2893 13.3264 89.0009 13.0443L85.2539 9.37909C84.5272 8.66838 84.9282 7.43018 85.9324 7.28367L91.1108 6.52861C91.5096 6.47044 91.8542 6.21924 92.0324 5.85679L94.3481 1.14828C94.7976 0.235078 96.0949 0.235078 96.5438 1.14828Z" fill="#E29E3B"/>
<path fill-rule="evenodd" clip-rule="evenodd" d="M124.649 1.14828L126.965 5.85679C127.143 6.21924 127.488 6.47081 127.886 6.52861L133.065 7.28367C134.069 7.43018 134.47 8.66838 133.743 9.37909L129.996 13.0443C129.708 13.3264 129.576 13.7332 129.644 14.1316L130.529 19.3069C130.7 20.3102 129.651 21.0755 128.753 20.6018L124.121 18.1585C123.764 17.9705 123.338 17.9705 122.982 18.1585L118.35 20.6018C117.452 21.0755 116.402 20.3102 116.574 19.3069L117.458 14.1316C117.526 13.7332 117.395 13.3264 117.106 13.0443L113.359 9.37909C112.633 8.66838 113.034 7.43018 114.038 7.28367L119.216 6.52861C119.615 6.47044 119.959 6.21924 120.138 5.85679L122.453 1.14828C122.903 0.235078 124.2 0.235078 124.649 1.14828Z" fill="#E29E3B"/>
</svg>
