<svg width="199" height="28" viewBox="0 0 199 28" fill="none" xmlns="http://www.w3.org/2000/svg">
<path d="M17.6934 9.91406L17.8701 10.3408L18.3311 10.377L26.9053 11.0645L20.373 16.6592L20.0225 16.96L20.1299 17.4102L22.125 25.7783L14.7842 21.2939L14.3896 21.0537L13.9951 21.2939L6.65332 25.7783L8.64941 17.4102L8.75684 16.96L8.40527 16.6592L1.87402 11.0645L10.4482 10.377L10.9082 10.3408L11.0859 9.91406L14.3896 1.96875L17.6934 9.91406Z" fill="#FFC400" stroke="#FFC300" stroke-width="1.5131"/>
<path d="M60.0615 9.91406L60.2383 10.3408L60.6992 10.377L69.2734 11.0645L62.7412 16.6592L62.3906 16.96L62.498 17.4102L64.4932 25.7783L57.1523 21.2939L56.7578 21.0537L56.3633 21.2939L49.0215 25.7783L51.0176 17.4102L51.125 16.96L50.7734 16.6592L44.2422 11.0645L52.8164 10.377L53.2764 10.3408L53.4541 9.91406L56.7578 1.96875L60.0615 9.91406Z" fill="#FFC400" stroke="#FFC300" stroke-width="1.5131"/>
<path d="M102.428 9.91406L102.605 10.3408L103.066 10.377L111.64 11.0645L105.108 16.6592L104.757 16.96L104.865 17.4102L106.86 25.7783L99.519 21.2939L99.1245 21.0537L98.73 21.2939L91.3882 25.7783L93.3843 17.4102L93.4917 16.96L93.1401 16.6592L86.6089 11.0645L95.1831 10.377L95.6431 10.3408L95.8208 9.91406L99.1245 1.96875L102.428 9.91406Z" fill="#FFC400" stroke="#FFC300" stroke-width="1.5131"/>
<path d="M144.792 9.91406L144.969 10.3408L145.43 10.377L154.004 11.0645L147.472 16.6592L147.122 16.96L147.229 17.4102L149.224 25.7783L141.883 21.2939L141.489 21.0537L141.094 21.2939L133.752 25.7783L135.749 17.4102L135.856 16.96L135.504 16.6592L128.973 11.0645L137.547 10.377L138.007 10.3408L138.185 9.91406L141.489 1.96875L144.792 9.91406Z" fill="#FFC400" stroke="#FFC300" stroke-width="1.5131"/>
<path d="M187.162 9.91406L187.338 10.3408L187.799 10.377L196.374 11.0645L189.841 16.6592L189.491 16.96L189.598 17.4102L191.593 25.7783L184.252 21.2939L183.858 21.0537L183.463 21.2939L176.122 25.7783L178.118 17.4102L178.225 16.96L177.874 16.6592L171.342 11.0645L179.917 10.377L180.376 10.3408L180.554 9.91406L183.858 1.96875L187.162 9.91406Z" fill="#FFC400" stroke="#FFC300" stroke-width="1.5131"/>
</svg>
