<svg width="41" height="33" viewBox="0 0 41 33" fill="none" xmlns="http://www.w3.org/2000/svg">
<path d="M20.2223 14V32.6667M20.2223 14C20.2223 8.13365 20.2223 5.20047 18.3999 3.37802C16.5774 1.55557 13.6443 1.55557 7.77789 1.55557H5.70381C3.74836 1.55557 2.77063 1.55557 2.16315 2.16305C1.55566 2.77054 1.55566 3.74826 1.55566 5.70372V24.3704C1.55566 26.3258 1.55566 27.3036 2.16315 27.9111C2.77063 28.5185 3.74836 28.5185 5.70381 28.5185H16.0742C18.3651 28.5185 20.2223 30.3757 20.2223 32.6667M20.2223 14C20.2223 8.13365 20.2223 5.20047 22.0448 3.37802C23.8672 1.55557 26.8004 1.55557 32.6668 1.55557H34.7408C36.6963 1.55557 37.674 1.55557 38.2815 2.16305C38.889 2.77054 38.889 3.74826 38.889 5.70372V24.3704C38.889 26.3258 38.889 27.3036 38.2815 27.9111C37.674 28.5185 36.6963 28.5185 34.7408 28.5185H24.3705C22.0795 28.5185 20.2223 30.3757 20.2223 32.6667" stroke="#A3A3A3" stroke-width="3.11111"/>
</svg>
