<svg width="51" height="26" viewBox="0 0 51 26" fill="none" xmlns="http://www.w3.org/2000/svg">
<rect width="50.8528" height="25.1818" rx="6.29545" fill="#0062FF"/>
<path d="M10.6023 15.3775H5.64463V13.7092L10.4292 6.59537H12.6641V13.4574H14.0018V15.3775H12.6641V17.3606H10.6023V15.3775ZM10.6023 13.4574V9.6644H10.4764L7.92673 13.4574H10.6023ZM16.5511 17.455C16.1734 17.455 15.8481 17.3239 15.5753 17.0616C15.313 16.7888 15.1819 16.4635 15.1819 16.0858C15.1819 15.708 15.313 15.388 15.5753 15.1257C15.8481 14.8634 16.1734 14.7322 16.5511 14.7322C16.9289 14.7322 17.2489 14.8634 17.5112 15.1257C17.784 15.388 17.9204 15.708 17.9204 16.0858C17.9204 16.4635 17.784 16.7888 17.5112 17.0616C17.2489 17.3239 16.9289 17.455 16.5511 17.455ZM19.1501 15.4877C19.4964 15.1414 20.1626 14.4752 21.1489 13.4889C22.1457 12.4921 22.7857 11.8416 23.069 11.5373C23.4467 11.1281 23.7038 10.7871 23.8402 10.5143C23.9871 10.2415 24.0606 9.93196 24.0606 9.58571C24.0606 9.21848 23.9242 8.90895 23.6514 8.65713C23.3785 8.40531 23.0166 8.2794 22.5654 8.2794C22.1247 8.2794 21.768 8.40531 21.4952 8.65713C21.2224 8.90895 21.0282 9.22372 20.9128 9.60145L19.0557 8.83026C19.1711 8.42105 19.3809 8.02759 19.6852 7.64986C20 7.26164 20.4039 6.94687 20.8971 6.70554C21.3902 6.46421 21.9568 6.34355 22.5969 6.34355C23.3103 6.34355 23.9346 6.4852 24.4698 6.76849C25.0049 7.0413 25.4193 7.41902 25.7131 7.90168C26.0069 8.37384 26.1538 8.9037 26.1538 9.49128C26.1538 10.6559 25.5872 11.7944 24.454 12.9066C23.9924 13.3577 23.1372 14.2076 21.8886 15.4562L21.9358 15.5507H26.2954V17.3606H19.1501V15.4877Z" fill="white"/>
<path d="M38.5493 5.50854L40.2067 10.4024H45.5699L41.2309 13.4269L42.8883 18.3207L38.5493 15.2962L34.2104 18.3207L35.8677 13.4269L31.5288 10.4024H36.892L38.5493 5.50854Z" fill="white"/>
</svg>
