<svg width="605" height="605" viewBox="0 0 605 605" fill="none" xmlns="http://www.w3.org/2000/svg">
<g filter="url(#filter0_d_90_854)">
<path d="M569.251 298.144C569.251 150.563 449.636 30.9253 302.084 30.9253C154.531 30.9253 34.916 150.563 34.916 298.144C34.916 445.725 154.531 565.363 302.084 565.363C449.636 565.363 569.251 445.725 569.251 298.144Z" fill="white"/>
<path d="M302.089 253.609V298.145M302.089 342.682H302.2M413.409 298.145C413.409 359.637 363.569 409.486 302.089 409.486C240.608 409.486 190.77 359.637 190.77 298.145C190.77 236.653 240.608 186.803 302.089 186.803C363.569 186.803 413.409 236.653 413.409 298.145Z" stroke="#E14919" stroke-width="24" stroke-linecap="round" stroke-linejoin="round"/>
</g>
<defs>
<filter id="filter0_d_90_854" x="0.000415802" y="5.31673e-05" width="604.167" height="604.269" filterUnits="userSpaceOnUse" color-interpolation-filters="sRGB">
<feFlood flood-opacity="0" result="BackgroundImageFix"/>
<feColorMatrix in="SourceAlpha" type="matrix" values="0 0 0 0 0 0 0 0 0 0 0 0 0 0 0 0 0 0 127 0" result="hardAlpha"/>
<feOffset dy="3.99036"/>
<feGaussianBlur stdDeviation="17.4578"/>
<feComposite in2="hardAlpha" operator="out"/>
<feColorMatrix type="matrix" values="0 0 0 0 0.809101 0 0 0 0 0.445005 0 0 0 0 0 0 0 0 0.92 0"/>
<feBlend mode="normal" in2="BackgroundImageFix" result="effect1_dropShadow_90_854"/>
<feBlend mode="normal" in="SourceGraphic" in2="effect1_dropShadow_90_854" result="shape"/>
</filter>
</defs>
</svg>
