<svg width="606" height="606" viewBox="0 0 606 606" fill="none" xmlns="http://www.w3.org/2000/svg">
<g filter="url(#filter0_d_90_858)">
<path d="M35.0008 298.864C35.0008 446.802 154.905 566.729 302.814 566.729C450.723 566.729 570.627 446.802 570.627 298.864C570.627 150.927 450.723 30.9999 302.814 30.9999C154.905 30.9999 35.0008 150.927 35.0008 298.864Z" fill="#CCECFF"/>
<path d="M302.813 343.508V298.864M302.813 254.22H302.702M191.225 298.864C191.225 237.224 241.184 187.254 302.813 187.254C364.442 187.254 414.402 237.224 414.402 298.864C414.402 360.504 364.442 410.474 302.813 410.474C241.184 410.474 191.225 360.504 191.225 298.864Z" stroke="#0373DC" stroke-width="24" stroke-linecap="round" stroke-linejoin="round"/>
</g>
<defs>
<filter id="filter0_d_90_858" x="0" y="0" width="605.627" height="605.729" filterUnits="userSpaceOnUse" color-interpolation-filters="sRGB">
<feFlood flood-opacity="0" result="BackgroundImageFix"/>
<feColorMatrix in="SourceAlpha" type="matrix" values="0 0 0 0 0 0 0 0 0 0 0 0 0 0 0 0 0 0 127 0" result="hardAlpha"/>
<feOffset dy="4"/>
<feGaussianBlur stdDeviation="17.5"/>
<feComposite in2="hardAlpha" operator="out"/>
<feColorMatrix type="matrix" values="0 0 0 0 0 0 0 0 0 0.471975 0 0 0 0 0.809101 0 0 0 0.92 0"/>
<feBlend mode="normal" in2="BackgroundImageFix" result="effect1_dropShadow_90_858"/>
<feBlend mode="normal" in="SourceGraphic" in2="effect1_dropShadow_90_858" result="shape"/>
</filter>
</defs>
</svg>
