<svg width="74" height="74" viewBox="0 0 74 74" fill="none" xmlns="http://www.w3.org/2000/svg">
<path d="M36.9991 55.2374C38.1052 55.2374 39.0327 54.8633 39.7816 54.1149C40.5299 53.366 40.9041 52.4385 40.9041 51.3325V37.3207C40.9041 36.2141 40.5299 35.2866 39.7816 34.5383C39.0327 33.79 38.1052 33.4158 36.9991 33.4158C35.8931 33.4158 34.9656 33.79 34.2167 34.5383C33.4684 35.2866 33.0942 36.2141 33.0942 37.3207V51.3325C33.0942 52.4385 33.4684 53.366 34.2167 54.1149C34.9656 54.8633 35.8931 55.2374 36.9991 55.2374ZM36.9991 26.6774C38.1357 26.6774 39.0885 26.293 39.8577 25.5244C40.6264 24.7552 41.0107 23.8023 41.0107 22.6658C41.0107 21.5293 40.6264 20.5764 39.8577 19.8072C39.0885 19.0386 38.1357 18.6543 36.9991 18.6543C35.8626 18.6543 34.9098 19.0386 34.1405 19.8072C33.3719 20.5764 32.9876 21.5293 32.9876 22.6658C32.9876 23.8023 33.3719 24.7552 34.1405 25.5244C34.9098 26.293 35.8626 26.6774 36.9991 26.6774ZM36.9991 73.5608C31.9281 73.5608 27.1701 72.6017 22.7249 70.6834C18.2792 68.7651 14.4122 66.1621 11.1239 62.8744C7.83619 59.5861 5.23319 55.7191 3.31492 51.2733C1.39664 46.8282 0.4375 42.0702 0.4375 36.9991C0.4375 31.9281 1.39664 27.1701 3.31492 22.7249C5.23319 18.2792 7.83619 14.4122 11.1239 11.1239C14.4122 7.83618 18.2792 5.23319 22.7249 3.31492C27.1701 1.39664 31.9281 0.4375 36.9991 0.4375C42.0702 0.4375 46.8282 1.39664 51.2734 3.31492C55.7191 5.23319 59.5861 7.83618 62.8744 11.1239C66.1621 14.4122 68.7651 18.2792 70.6834 22.7249C72.6017 27.1701 73.5608 31.9281 73.5608 36.9991C73.5608 42.0702 72.6017 46.8282 70.6834 51.2733C68.7651 55.7191 66.1621 59.5861 62.8744 62.8744C59.5861 66.1621 55.7191 68.7651 51.2734 70.6834C46.8282 72.6017 42.0702 73.5608 36.9991 73.5608Z" fill="url(#paint0_linear_248_227)"/>
<defs>
<linearGradient id="paint0_linear_248_227" x1="36.9991" y1="0.4375" x2="36.9991" y2="73.5608" gradientUnits="userSpaceOnUse">
<stop stop-color="#E64A19"/>
<stop offset="1" stop-color="#F48461"/>
</linearGradient>
</defs>
</svg>
