<svg width="23" height="23" viewBox="0 0 23 23" fill="none" xmlns="http://www.w3.org/2000/svg">
<path d="M6.28382 7.26543C6.28382 6.81959 6.63549 6.45816 7.0693 6.45816H15.4477C15.8815 6.45816 16.2332 6.81959 16.2332 7.26543C16.2332 7.71127 15.8815 8.0727 15.4477 8.0727H7.0693C6.63549 8.0727 6.28382 7.71127 6.28382 7.26543Z" fill="black"/>
<path d="M8.37842 11.5709C8.37842 11.125 8.73009 10.7636 9.1639 10.7636H13.3531C13.7869 10.7636 14.1386 11.125 14.1386 11.5709C14.1386 12.0167 13.7869 12.3781 13.3531 12.3781H9.1639C8.73009 12.3781 8.37842 12.0167 8.37842 11.5709Z" fill="black"/>
<path fill-rule="evenodd" clip-rule="evenodd" d="M9.12876 8.0989e-08H13.3883C14.8249 -4.92318e-06 15.9512 -8.8375e-06 16.8564 0.0760038C17.7782 0.153405 18.5397 0.313628 19.229 0.674568C20.3621 1.26794 21.2833 2.21474 21.8607 3.37929C22.2119 4.08768 22.3678 4.87031 22.4431 5.81766C22.517 6.748 22.517 7.90555 22.517 9.38201V10.6928C22.517 10.7461 22.517 10.7989 22.517 10.8509C22.5173 12.5178 22.5174 13.5345 22.2737 14.3887C21.6966 16.4114 20.1576 17.9932 18.1894 18.5863C17.3584 18.8367 16.3691 18.8365 14.7472 18.8363C14.6965 18.8363 14.6453 18.8363 14.5934 18.8363H14.0186L13.9554 18.8364C13.0472 18.8424 12.1625 19.1338 11.4201 19.6714L11.3686 19.7091L8.63439 21.7163C7.05872 22.873 4.98818 21.2025 5.70732 19.3548C5.80398 19.1064 5.62602 18.8363 5.36577 18.8363H4.73554C2.12018 18.8363 2.03651e-07 16.6573 2.03651e-07 13.9694L7.88026e-08 9.38203C-4.79028e-06 7.90556 -8.59892e-06 6.74801 0.0739521 5.81766C0.149264 4.87031 0.305162 4.08768 0.656358 3.37929C1.23371 2.21474 2.15495 1.26794 3.28807 0.674568C3.97733 0.313628 4.73883 0.153405 5.66061 0.0760039C6.56584 -8.8375e-06 7.69215 -4.92318e-06 9.12876 8.0989e-08ZM5.78853 1.68518C4.96391 1.75443 4.43215 1.88749 4.00126 2.11313C3.16375 2.55171 2.48283 3.25152 2.05609 4.11228C1.83654 4.55512 1.70706 5.10163 1.63969 5.94913C1.57157 6.80606 1.57095 7.89778 1.57095 9.41815V13.9694C1.57095 15.7656 2.98779 17.2218 4.73554 17.2218H5.36577C6.73742 17.2218 7.67533 18.6455 7.16592 19.9544C7.02947 20.305 7.42233 20.622 7.72129 20.4025L10.4555 18.3953L10.5152 18.3516C11.5196 17.6242 12.7166 17.23 13.9454 17.2219L14.0186 17.2218H14.5934C16.4177 17.2218 17.1614 17.2135 17.7474 17.0369C19.2021 16.5986 20.3397 15.4294 20.7662 13.9344C20.9381 13.3321 20.9461 12.5677 20.9461 10.6928V9.41815C20.9461 7.89778 20.9454 6.80606 20.8773 5.94913C20.81 5.10163 20.6805 4.55512 20.4609 4.11228C20.0342 3.25152 19.3533 2.55171 18.5158 2.11313C18.0849 1.88749 17.5531 1.75443 16.7285 1.68518C15.8947 1.61517 14.8324 1.61454 13.3531 1.61454H9.1639C7.68458 1.61454 6.62233 1.61517 5.78853 1.68518Z" fill="black"/>
<path d="M6.28382 7.26543C6.28382 6.81959 6.63549 6.45816 7.0693 6.45816H15.4477C15.8815 6.45816 16.2332 6.81959 16.2332 7.26543C16.2332 7.71127 15.8815 8.0727 15.4477 8.0727H7.0693C6.63549 8.0727 6.28382 7.71127 6.28382 7.26543Z" stroke="black"/>
<path d="M8.37842 11.5709C8.37842 11.125 8.73009 10.7636 9.1639 10.7636H13.3531C13.7869 10.7636 14.1386 11.125 14.1386 11.5709C14.1386 12.0167 13.7869 12.3781 13.3531 12.3781H9.1639C8.73009 12.3781 8.37842 12.0167 8.37842 11.5709Z" stroke="black"/>
<path fill-rule="evenodd" clip-rule="evenodd" d="M9.12876 8.0989e-08H13.3883C14.8249 -4.92318e-06 15.9512 -8.8375e-06 16.8564 0.0760038C17.7782 0.153405 18.5397 0.313628 19.229 0.674568C20.3621 1.26794 21.2833 2.21474 21.8607 3.37929C22.2119 4.08768 22.3678 4.87031 22.4431 5.81766C22.517 6.748 22.517 7.90555 22.517 9.38201V10.6928C22.517 10.7461 22.517 10.7989 22.517 10.8509C22.5173 12.5178 22.5174 13.5345 22.2737 14.3887C21.6966 16.4114 20.1576 17.9932 18.1894 18.5863C17.3584 18.8367 16.3691 18.8365 14.7472 18.8363C14.6965 18.8363 14.6453 18.8363 14.5934 18.8363H14.0186L13.9554 18.8364C13.0472 18.8424 12.1625 19.1338 11.4201 19.6714L11.3686 19.7091L8.63439 21.7163C7.05872 22.873 4.98818 21.2025 5.70732 19.3548C5.80398 19.1064 5.62602 18.8363 5.36577 18.8363H4.73554C2.12018 18.8363 2.03651e-07 16.6573 2.03651e-07 13.9694L7.88026e-08 9.38203C-4.79028e-06 7.90556 -8.59892e-06 6.74801 0.0739521 5.81766C0.149264 4.87031 0.305162 4.08768 0.656358 3.37929C1.23371 2.21474 2.15495 1.26794 3.28807 0.674568C3.97733 0.313628 4.73883 0.153405 5.66061 0.0760039C6.56584 -8.8375e-06 7.69215 -4.92318e-06 9.12876 8.0989e-08ZM5.78853 1.68518C4.96391 1.75443 4.43215 1.88749 4.00126 2.11313C3.16375 2.55171 2.48283 3.25152 2.05609 4.11228C1.83654 4.55512 1.70706 5.10163 1.63969 5.94913C1.57157 6.80606 1.57095 7.89778 1.57095 9.41815V13.9694C1.57095 15.7656 2.98779 17.2218 4.73554 17.2218H5.36577C6.73742 17.2218 7.67533 18.6455 7.16592 19.9544C7.02947 20.305 7.42233 20.622 7.72129 20.4025L10.4555 18.3953L10.5152 18.3516C11.5196 17.6242 12.7166 17.23 13.9454 17.2219L14.0186 17.2218H14.5934C16.4177 17.2218 17.1614 17.2135 17.7474 17.0369C19.2021 16.5986 20.3397 15.4294 20.7662 13.9344C20.9381 13.3321 20.9461 12.5677 20.9461 10.6928V9.41815C20.9461 7.89778 20.9454 6.80606 20.8773 5.94913C20.81 5.10163 20.6805 4.55512 20.4609 4.11228C20.0342 3.25152 19.3533 2.55171 18.5158 2.11313C18.0849 1.88749 17.5531 1.75443 16.7285 1.68518C15.8947 1.61517 14.8324 1.61454 13.3531 1.61454H9.1639C7.68458 1.61454 6.62233 1.61517 5.78853 1.68518Z" stroke="black"/>
</svg>
