<svg width="28" height="28" viewBox="0 0 28 28" fill="none" xmlns="http://www.w3.org/2000/svg">
<path d="M6.95127 23.8496C6.57872 23.8496 6.2644 23.7214 6.00832 23.4652C5.75223 23.2091 5.62419 22.8949 5.62419 22.5225C5.62419 22.1499 5.75223 21.8356 6.00832 21.5795C6.2644 21.3235 6.57872 21.1954 6.95127 21.1954H21.0487C21.4212 21.1954 21.7356 21.3235 21.9916 21.5795C22.2477 21.8356 22.3758 22.1499 22.3758 22.5225C22.3758 22.8949 22.2477 23.2091 21.9916 23.4652C21.7356 23.7214 21.4212 23.8496 21.0487 23.8496H6.95127ZM7.90736 19.4454C7.25966 19.4454 6.6878 19.2349 6.19177 18.814C5.69575 18.3932 5.39261 17.8616 5.28236 17.2191L4.1504 10.0129C4.12084 10.0129 4.08759 10.0166 4.05065 10.024C4.01371 10.0316 3.98046 10.0354 3.9509 10.0354C3.43212 10.0214 2.99336 9.82907 2.63461 9.45846C2.27566 9.08804 2.09619 8.64354 2.09619 8.12496C2.09619 7.59412 2.28189 7.14301 2.65327 6.77162C3.02486 6.40023 3.47597 6.21454 4.00661 6.21454C4.53725 6.21454 4.98836 6.40023 5.35994 6.77162C5.73133 7.14301 5.91702 7.59412 5.91702 8.12496C5.91702 8.24726 5.90594 8.36092 5.88377 8.46592C5.86161 8.57072 5.83341 8.66707 5.79919 8.75496L9.24961 10.2979L12.777 5.46379C12.5723 5.29423 12.4065 5.08229 12.2797 4.82796C12.153 4.57382 12.0896 4.30004 12.0896 4.00662C12.0896 3.47598 12.2753 3.02487 12.6466 2.65329C13.0182 2.2819 13.4693 2.09621 14 2.09621C14.5306 2.09621 14.9817 2.2819 15.3533 2.65329C15.7247 3.02487 15.9104 3.47598 15.9104 4.00662C15.9104 4.30004 15.847 4.57382 15.7202 4.82796C15.5935 5.08229 15.4277 5.29423 15.2229 5.46379L18.7504 10.2979L22.2008 8.75496C22.1666 8.66707 22.1384 8.57072 22.1162 8.46592C22.094 8.36092 22.0829 8.24726 22.0829 8.12496C22.0829 7.59412 22.2686 7.14301 22.64 6.77162C23.0116 6.40023 23.4627 6.21454 23.9934 6.21454C24.524 6.21454 24.9751 6.40023 25.3467 6.77162C25.7181 7.14301 25.9038 7.59412 25.9038 8.12496C25.9038 8.64354 25.7243 9.08804 25.3654 9.45846C25.0066 9.82907 24.5678 10.0214 24.0491 10.0354C24.0195 10.0354 23.9863 10.0316 23.9493 10.024C23.9124 10.0166 23.8791 10.0129 23.8496 10.0129L22.7176 17.2191C22.6074 17.8616 22.3042 18.3932 21.8082 18.814C21.3122 19.2349 20.7403 19.4454 20.0926 19.4454H7.90736Z" fill="#FFA600"/>
</svg>
