<svg width="42" height="42" viewBox="0 0 42 42" fill="none" xmlns="http://www.w3.org/2000/svg">
<rect width="41.1749" height="41.1749" rx="20.5875" fill="#34AA47" fill-opacity="0.33"/>
<path d="M13.8033 30.0041C13.0699 30.0041 12.4479 29.7487 11.9372 29.238C11.4265 28.7273 11.1711 28.1053 11.1711 27.3719V13.8031C11.1711 13.0697 11.4265 12.4477 11.9372 11.937C12.4479 11.4263 13.0699 11.171 13.8033 11.171H20.5877V13.8031H13.8033V27.3719H27.3721V20.5875H30.0042V27.3719C30.0042 28.1053 29.7489 28.7273 29.2382 29.238C28.7275 29.7487 28.1055 30.0041 27.3721 30.0041H13.8033ZM18.7382 24.2625L16.9126 22.4369L25.5463 13.8031H22.5742V11.171H30.0042V18.601H27.3721V15.6289L18.7382 24.2625Z" fill="url(#paint0_linear_7_511)"/>
<defs>
<linearGradient id="paint0_linear_7_511" x1="20.5877" y1="11.171" x2="20.5877" y2="30.0041" gradientUnits="userSpaceOnUse">
<stop stop-color="#3BB850"/>
<stop offset="1" stop-color="#0C651B"/>
</linearGradient>
</defs>
</svg>
