<svg width="42" height="42" viewBox="0 0 42 42" fill="none" xmlns="http://www.w3.org/2000/svg">
<rect width="41.1749" height="41.1749" rx="20.5875" fill="#BB16D0" fill-opacity="0.25"/>
<path d="M9.32349 31.331V12.447C9.32349 11.8768 9.52101 11.3942 9.91605 10.9992C10.3111 10.6041 10.7937 10.4066 11.3639 10.4066H28.7283C29.2985 10.4066 29.7811 10.6041 30.1762 10.9992C30.5712 11.3942 30.7687 11.8768 30.7687 12.447V25.2967C30.7687 25.8669 30.5712 26.3495 30.1762 26.7445C29.7811 27.1396 29.2985 27.3371 28.7283 27.3371H13.3174L9.32349 31.331ZM13.5561 23.1045H22.0213V21.4114H13.5561V23.1045ZM13.5561 19.7184H26.5361V18.0253H13.5561V19.7184ZM13.5561 16.3323H26.5361V14.6392H13.5561V16.3323Z" fill="url(#paint0_linear_7_518)"/>
<defs>
<linearGradient id="paint0_linear_7_518" x1="20.0461" y1="10.4066" x2="20.0461" y2="31.331" gradientUnits="userSpaceOnUse">
<stop stop-color="#DC15EE"/>
<stop offset="1" stop-color="#8515A1"/>
</linearGradient>
</defs>
</svg>
