<svg width="42" height="42" viewBox="0 0 42 42" fill="none" xmlns="http://www.w3.org/2000/svg">
<rect width="41.1749" height="41.1749" rx="20.5875" fill="#F1A236" fill-opacity="0.33"/>
<path d="M11.5806 28.8996V27.2069H13.621V18.7848C13.621 17.2669 14.0895 15.9248 15.0265 14.7585C15.9633 13.5921 17.1661 12.8462 18.6349 12.5205V11.8174C18.6349 11.4255 18.772 11.0924 19.0461 10.8179C19.3201 10.5436 19.6529 10.4065 20.0444 10.4065C20.436 10.4065 20.7693 10.5436 21.0441 10.8179C21.3192 11.0924 21.4567 11.4255 21.4567 11.8174V12.5205C22.9255 12.8462 24.1283 13.5921 25.0651 14.7585C26.0021 15.9248 26.4706 17.2669 26.4706 18.7848V27.2069H28.511V28.8996H11.5806ZM20.0438 32.0688C19.4823 32.0688 19.0022 31.869 18.6036 31.4694C18.2048 31.0699 18.0054 30.5895 18.0054 30.0283H22.0862C22.0862 30.5914 21.8862 31.0722 21.4863 31.4708C21.0864 31.8694 20.6055 32.0688 20.0438 32.0688Z" fill="url(#paint0_linear_7_497)"/>
<defs>
<linearGradient id="paint0_linear_7_497" x1="20.0458" y1="10.4065" x2="20.0458" y2="32.0688" gradientUnits="userSpaceOnUse">
<stop stop-color="#FFB147"/>
<stop offset="1" stop-color="#CC7A0B"/>
</linearGradient>
</defs>
</svg>
