<svg width="46" height="46" viewBox="0 0 46 46" fill="none" xmlns="http://www.w3.org/2000/svg">
<rect width="45.6226" height="45.6226" rx="22.8113" fill="#E34417" fill-opacity="0.14"/>
<path d="M17.4231 29.6177C17.7393 29.6177 18.0042 29.5107 18.2178 29.2968C18.4311 29.0828 18.5377 28.8177 18.5377 28.5014C18.5377 28.1852 18.4307 27.9203 18.2168 27.7067C18.0029 27.4934 17.7378 27.3868 17.4215 27.3868C17.1052 27.3868 16.8404 27.4938 16.6271 27.7077C16.4136 27.9216 16.3069 28.1867 16.3069 28.503C16.3069 28.8193 16.4138 29.0841 16.6278 29.2974C16.8419 29.5109 17.107 29.6177 17.4231 29.6177ZM17.4231 24.7193C17.7393 24.7193 18.0042 24.6124 18.2178 24.3984C18.4311 24.1845 18.5377 23.9194 18.5377 23.6031C18.5377 23.2868 18.4307 23.0221 18.2168 22.8088C18.0029 22.5954 17.7378 22.4888 17.4215 22.4888C17.1052 22.4888 16.8404 22.5958 16.6271 22.8097C16.4136 23.0236 16.3069 23.2887 16.3069 23.605C16.3069 23.9213 16.4138 24.1861 16.6278 24.3994C16.8419 24.6127 17.107 24.7193 17.4231 24.7193ZM17.4231 19.8213C17.7393 19.8213 18.0042 19.7144 18.2178 19.5004C18.4311 19.2865 18.5377 19.0214 18.5377 18.7051C18.5377 18.3889 18.4307 18.1241 18.2168 17.9108C18.0029 17.6972 17.7378 17.5905 17.4215 17.5905C17.1052 17.5905 16.8404 17.6975 16.6271 17.9114C16.4136 18.1253 16.3069 18.3904 16.3069 18.7067C16.3069 19.023 16.4138 19.2879 16.6278 19.5014C16.8419 19.7147 17.107 19.8213 17.4231 19.8213ZM22.1994 29.4477H27.4854C27.7534 29.4477 27.9779 29.3571 28.1591 29.1757C28.3404 28.9946 28.4311 28.7699 28.4311 28.5018C28.4311 28.2338 28.3404 28.0093 28.1591 27.8281C27.9779 27.6472 27.7534 27.5567 27.4854 27.5567H22.1994C21.9314 27.5567 21.7068 27.6473 21.5254 27.8284C21.3443 28.0098 21.2537 28.2345 21.2537 28.5027C21.2537 28.7706 21.3443 28.9952 21.5254 29.1763C21.7068 29.3573 21.9314 29.4477 22.1994 29.4477ZM22.1994 24.5498H27.4854C27.7534 24.5498 27.9779 24.4591 28.1591 24.2777C28.3404 24.0963 28.4311 23.8717 28.4311 23.6038C28.4311 23.3356 28.3404 23.1111 28.1591 22.9301C27.9779 22.749 27.7534 22.6584 27.4854 22.6584H22.1994C21.9314 22.6584 21.7068 22.7491 21.5254 22.9304C21.3443 23.1118 21.2537 23.3364 21.2537 23.6044C21.2537 23.8725 21.3443 24.0971 21.5254 24.278C21.7068 24.4592 21.9314 24.5498 22.1994 24.5498ZM22.1994 19.6514H27.4854C27.7534 19.6514 27.9779 19.5609 28.1591 19.3797C28.3404 19.1984 28.4311 18.9736 28.4311 18.7054C28.4311 18.4375 28.3404 18.213 28.1591 18.0318C27.9779 17.8509 27.7534 17.7604 27.4854 17.7604H22.1994C21.9314 17.7604 21.7068 17.8511 21.5254 18.0324C21.3443 18.2136 21.2537 18.4382 21.2537 18.7064C21.2537 18.9743 21.3443 19.1989 21.5254 19.38C21.7068 19.561 21.9314 19.6514 22.1994 19.6514ZM13.9549 34.3218C13.318 34.3218 12.7788 34.1011 12.3375 33.6598C11.8962 33.2185 11.6755 32.6793 11.6755 32.0424V15.1658C11.6755 14.5288 11.8962 13.9896 12.3375 13.5483C12.7788 13.107 13.318 12.8864 13.9549 12.8864H30.8316C31.4685 12.8864 32.0077 13.107 32.449 13.5483C32.8903 13.9896 33.111 14.5288 33.111 15.1658V32.0424C33.111 32.6793 32.8903 33.2185 32.449 33.6598C32.0077 34.1011 31.4685 34.3218 30.8316 34.3218H13.9549Z" fill="url(#paint0_linear_7_490)"/>
<defs>
<linearGradient id="paint0_linear_7_490" x1="22.3933" y1="12.8864" x2="22.3933" y2="34.3218" gradientUnits="userSpaceOnUse">
<stop stop-color="#E64A19"/>
<stop offset="1" stop-color="#BD0000"/>
</linearGradient>
</defs>
</svg>
