<svg width="46" height="46" viewBox="0 0 46 46" fill="none" xmlns="http://www.w3.org/2000/svg">
<rect width="45.6226" height="45.6226" rx="22.8113" fill="#1A73E1" fill-opacity="0.21"/>
<path d="M20.4365 28.7315L28.8444 20.3236L27.5266 19.0057L20.4365 26.0958L16.8722 22.5315L15.5544 23.8494L20.4365 28.7315ZM22.2136 35.2925C20.5703 35.2925 19.0257 34.9807 17.5798 34.3571C16.1339 33.7334 14.8762 32.8871 13.8067 31.818C12.7372 30.7489 11.8904 29.4918 11.2663 28.0465C10.6425 26.6012 10.3306 25.057 10.3306 23.4138C10.3306 21.7705 10.6424 20.2259 11.266 18.78C11.8897 17.3341 12.736 16.0763 13.8051 15.0069C14.8742 13.9374 16.1314 13.0906 17.5767 12.4665C19.022 11.8427 20.5662 11.5308 22.2093 11.5308C23.8526 11.5308 25.3972 11.8426 26.8431 12.4662C28.2891 13.0899 29.5468 13.9362 30.6163 15.0053C31.6857 16.0744 32.5325 17.3316 33.1566 18.7769C33.7804 20.2222 34.0924 21.7664 34.0924 23.4095C34.0924 25.0528 33.7805 26.5974 33.1569 28.0433C32.5332 29.4893 31.6869 30.747 30.6178 31.8164C29.5487 32.8859 28.2916 33.7327 26.8463 34.3568C25.401 34.9806 23.8568 35.2925 22.2136 35.2925Z" fill="url(#paint0_linear_7_504)"/>
<defs>
<linearGradient id="paint0_linear_7_504" x1="22.2115" y1="11.5308" x2="22.2115" y2="35.2925" gradientUnits="userSpaceOnUse">
<stop stop-color="#2180F8"/>
<stop offset="1" stop-color="#084CA0"/>
</linearGradient>
</defs>
</svg>
