<svg width="32" height="32" viewBox="0 0 32 32" fill="none" xmlns="http://www.w3.org/2000/svg">
<path fill-rule="evenodd" clip-rule="evenodd" d="M21.1507 3.02337C21.3127 2.44054 21.062 1.82171 20.54 1.51593C20.0181 1.21015 19.3557 1.29405 18.9265 1.72031L3.05984 17.4779C2.66716 17.8679 2.55621 18.4599 2.78103 18.9656C3.00585 19.4713 3.5197 19.7855 4.0723 19.7553L13.284 19.2508L10.5814 28.976C10.4195 29.5587 10.67 30.1774 11.1917 30.4832C11.7133 30.7891 12.3756 30.7056 12.8049 30.2798L28.9383 14.2797C29.3348 13.8865 29.4443 13.2878 29.2125 12.7796C28.9807 12.2715 28.4568 11.9617 27.8998 12.0034L18.4588 12.7102L21.1507 3.02337Z" fill="#141414" fill-opacity="0.5"/>
</svg>
