<svg width="48" height="48" viewBox="0 0 48 48" fill="none" xmlns="http://www.w3.org/2000/svg">
<path d="M12 44V4C12 2.343 13.343 1 15 1H33C34.657 1 36 2.343 36 4V44C36 45.657 34.657 47 33 47H15C13.343 47 12 45.657 12 44Z" fill="url(#paint0_linear_3657_10966)"/>
<path d="M13 44V4C13 2.895 13.895 2 15 2H33C34.105 2 35 2.895 35 4V44C35 45.105 34.105 46 33 46H15C13.895 46 13 45.105 13 44Z" fill="url(#paint1_linear_3657_10966)"/>
<rect x="17" y="27" width="4" height="5" rx="2" fill="#ECF1FC"/>
<rect x="22" y="21" width="4" height="11" rx="2" fill="#ECF1FC"/>
<rect x="27" y="16" width="4" height="16" rx="2" fill="#ECF1FC"/>
<path d="M27 4C26.814 4 21.186 4 21 4C20.448 4 20 4.448 20 5C20 5.552 20.448 6 21 6C21.186 6 26.814 6 27 6C27.552 6 28 5.552 28 5C28 4.448 27.552 4 27 4Z" fill="url(#paint2_linear_3657_10966)"/>
<defs>
<linearGradient id="paint0_linear_3657_10966" x1="19.423" y1="0.534" x2="28.475" y2="46.945" gradientUnits="userSpaceOnUse">
<stop stop-color="#889097"/>
<stop offset="0.331" stop-color="#848C94"/>
<stop offset="0.669" stop-color="#78828B"/>
<stop offset="1" stop-color="#64717C"/>
</linearGradient>
<linearGradient id="paint1_linear_3657_10966" x1="9" y1="57.5" x2="31" y2="10" gradientUnits="userSpaceOnUse">
<stop stop-color="#007CFF"/>
<stop offset="1" stop-color="#29AFEA"/>
</linearGradient>
<linearGradient id="paint2_linear_3657_10966" x1="24" y1="6.021" x2="24" y2="4.076" gradientUnits="userSpaceOnUse">
<stop stop-color="#6D7479"/>
<stop offset="1" stop-color="#323538"/>
</linearGradient>
</defs>
</svg>
