<svg width="32" height="32" viewBox="0 0 32 32" fill="none" xmlns="http://www.w3.org/2000/svg">
<path d="M15.9993 2.6665C8.63535 2.6665 2.66602 8.63584 2.66602 15.9998C2.66602 23.3638 8.63535 29.3332 15.9993 29.3332C23.3633 29.3332 29.3327 23.3638 29.3327 15.9998C29.3327 8.63584 23.3633 2.6665 15.9993 2.6665ZM19.4473 21.3332L15.0567 16.9425C14.806 16.6918 14.666 16.3532 14.666 15.9998V9.33317C14.666 8.59717 15.2633 7.99984 15.9993 7.99984C16.7353 7.99984 17.3327 8.59717 17.3327 9.33317V15.4478L21.3327 19.4478C21.8527 19.9678 21.8527 20.8132 21.3327 21.3332C20.8127 21.8532 19.9674 21.8532 19.4473 21.3332Z" fill="#FF9500"/>
</svg>
