<svg width="48" height="49" viewBox="0 0 48 49" fill="none" xmlns="http://www.w3.org/2000/svg">
<path d="M44 24.5C44 35.545 35.045 44.5 24 44.5C12.955 44.5 4 35.545 4 24.5C4 13.455 12.955 4.5 24 4.5C35.045 4.5 44 13.455 44 24.5Z" fill="url(#paint0_linear_3657_10973)"/>
<path opacity="0.05" d="M33.352 22.9401L21.916 15.3161C21.339 14.9311 20.602 14.8951 19.991 15.2231C19.38 15.5501 19 16.1831 19 16.8761V32.1241C19 32.8171 19.38 33.4511 19.991 33.7781C20.269 33.9271 20.572 34.0001 20.875 34.0001C21.239 34.0001 21.601 33.8941 21.915 33.6851L33.351 26.0611C33.874 25.7121 34.186 25.1291 34.186 24.5011C34.187 23.8721 33.874 23.2891 33.352 22.9401Z" fill="black"/>
<path opacity="0.07" d="M21.681 15.7366L32.471 22.9306C33.16 23.4256 33.624 23.8686 33.624 24.4436C33.624 25.0186 33.4 25.4196 32.909 25.7776C32.538 26.0476 21.864 33.1416 21.864 33.1416C20.963 33.7456 19.5 33.6176 19.5 31.6426V17.2436C19.5 15.2386 21.084 15.3386 21.681 15.7366Z" fill="black"/>
<path d="M20 32.0682V16.9332C20 16.1902 20.828 15.7462 21.447 16.1592L32.799 23.7272C33.352 24.0951 33.352 24.9071 32.799 25.2761L21.447 32.8442C20.828 33.2552 20 32.8122 20 32.0682Z" fill="white"/>
<defs>
<linearGradient id="paint0_linear_3657_10973" x1="24" y1="4.5" x2="24" y2="44.5" gradientUnits="userSpaceOnUse">
<stop stop-color="#FFA775"/>
<stop offset="0.443" stop-color="#FF961C"/>
<stop offset="1" stop-color="#DA5910"/>
</linearGradient>
</defs>
</svg>
