<svg width="348" height="348" viewBox="0 0 348 348" fill="none" xmlns="http://www.w3.org/2000/svg">
    <rect x="124.539" y="195.406" width="114.535" height="114.535" rx="10" transform="rotate(-9.24766 124.539 195.406)" fill="#8A9CFA"/>
    <path d="M219.048 212.94C218.882 212.752 218.704 212.611 218.483 212.493C216.724 211.556 207.861 207.155 197.523 207.704C197.502 207.705 197.424 207.714 197.406 207.717C197.207 207.749 197.053 207.895 196.997 208.08L196.631 209.278L196.629 209.278C196.605 209.352 196.6 209.433 196.613 209.516C196.65 209.74 196.823 209.909 197.034 209.947C197.047 209.949 197.135 209.953 197.167 209.955C206.191 210.661 212.097 213.64 217.436 217.12C208.511 214.201 199.731 211.535 185.565 213.842C171.398 216.148 163.919 221.463 156.379 227.062C160.339 222.068 164.994 217.369 173.328 213.836C173.357 213.823 173.44 213.792 173.452 213.786C173.64 213.684 173.751 213.469 173.714 213.244C173.701 213.162 173.67 213.086 173.624 213.024L173.622 213.024L172.894 212.004C172.783 211.846 172.593 211.757 172.392 211.79C172.373 211.793 172.295 211.81 172.277 211.815C162.299 214.574 155.289 221.559 153.919 223.005C153.746 223.188 153.624 223.377 153.524 223.609C152.456 226.126 146.07 242.575 148.802 270.161C148.831 270.457 148.98 270.743 149.209 270.93C160.276 280.016 173.884 279.087 176.768 278.767C177.11 278.729 177.411 278.525 177.57 278.216L179.603 274.268C179.762 273.958 179.589 273.588 179.25 273.523C173.417 272.386 166.716 269.849 160.387 264.518C167.802 268.496 178.6 272.12 194.628 269.51C210.656 266.9 219.747 260.038 225.515 253.914C221.203 260.978 215.654 265.507 210.483 268.438C210.183 268.607 210.136 269.013 210.384 269.256L213.566 272.355C213.816 272.598 214.164 272.698 214.501 272.624C217.339 272.009 230.537 268.576 238.151 256.449C238.308 256.199 238.358 255.88 238.293 255.59C232.134 228.563 220.86 214.988 219.048 212.94Z" fill="white"/>
    <path d="M206.314 252.201C210.216 251.565 212.779 247.36 212.037 242.807C211.296 238.255 207.532 235.08 203.63 235.715C199.728 236.35 197.165 240.556 197.907 245.108C198.648 249.661 202.412 252.836 206.314 252.201Z" fill="#8A9CFA"/>
    <path d="M178.052 256.802C181.954 256.167 184.517 251.961 183.776 247.409C183.034 242.857 179.27 239.681 175.368 240.316C171.466 240.952 168.904 245.157 169.645 249.71C170.386 254.262 174.15 257.438 178.052 256.802Z" fill="#8A9CFA"/>
    <g clip-path="url(#clip0_11648_20657)" filter="url(#filter0_d_11648_20657)">
        <rect x="52.4688" y="120.461" width="79.1757" height="79.1757" rx="10" transform="rotate(12.0053 52.4688 120.461)" fill="white"/>
        <path d="M75.5548 160.989C85.6226 160.037 88.9447 151.777 89.3826 143.829C89.3826 143.829 89.4769 143.386 89.7453 143.597C97.94 149.979 106.146 161.465 103.095 175.813C100.83 186.464 90.2458 194.263 77.8104 191.619C64.3264 188.751 58.8178 177.839 61.177 166.745C62.5925 160.089 68.5029 154.387 74.3755 152.544C74.3755 152.544 74.8246 152.64 74.7617 152.936C74.4472 154.415 74.2603 158.241 75.4357 160.809L75.5548 160.989Z" fill="url(#paint0_radial_11648_20657)"/>
    </g>
    <path fill-rule="evenodd" clip-rule="evenodd" d="M196.972 90.142L271.145 70.2675C278.816 68.2119 286.702 72.7645 288.757 80.4335L308.631 154.606C310.687 162.278 306.134 170.163 298.465 172.218L224.29 192.093C216.621 194.148 208.735 189.596 206.68 181.927L186.805 107.751C184.75 100.082 189.303 92.1969 196.972 90.142Z" fill="#212121"/>
    <path fill-rule="evenodd" clip-rule="evenodd" d="M259.894 117.618C265.212 119.611 271.183 120.021 277.087 118.439L274.044 107.079C272.925 107.379 271.781 107.561 270.626 107.622L273.021 116.563C267.116 118.145 261.148 117.732 255.828 115.742L262.038 138.919C265.145 150.513 258.258 162.433 246.659 165.541C242.331 166.701 237.956 166.47 234.014 165.123C238.873 167.998 244.839 168.991 250.724 167.414C262.324 164.306 269.21 152.387 266.104 140.792L259.894 117.618ZM260.927 105.061C257.981 103.182 255.62 100.364 254.34 96.891L253.949 95.4297L250.797 96.2743C252.801 100.585 256.545 103.725 260.927 105.061ZM238.968 154.262C237.246 152.932 236.01 151.075 235.45 148.973C234.029 143.668 237.179 138.217 242.486 136.795C243.474 136.53 244.497 136.417 245.521 136.464L242.41 124.853C241.268 124.998 240.14 125.23 239.033 125.551L241.455 134.588C240.431 134.541 239.408 134.654 238.417 134.919C233.11 136.341 229.96 141.793 231.381 147.097C232.39 150.849 235.409 153.521 238.968 154.262Z" fill="#EC407A"/>
    <path fill-rule="evenodd" clip-rule="evenodd" d="M255.827 115.743C261.144 117.736 267.115 118.146 273.02 116.563L270.624 107.623C267.14 107.804 263.761 106.864 260.925 105.059C256.543 103.723 252.803 100.585 250.798 96.2744L242.52 98.4925L254.675 143.855C256.072 149.148 252.926 154.58 247.63 155.999C244.51 156.835 241.339 156.092 238.966 154.26C235.407 153.519 232.388 150.847 231.383 147.097C229.962 141.793 233.111 136.342 238.419 134.92C239.435 134.647 240.458 134.543 241.456 134.588L239.036 125.554C227.703 128.843 221.032 140.604 224.099 152.051C225.63 157.766 229.301 162.334 234.019 165.125C237.962 166.473 242.336 166.703 246.664 165.543C258.263 162.435 265.15 150.516 262.043 138.922L255.827 115.743Z" fill="white"/>
    <path fill-rule="evenodd" clip-rule="evenodd" d="M270.624 107.625L269.976 105.207C267.004 106.009 263.87 105.957 260.925 105.058C263.811 106.904 267.202 107.801 270.624 107.625ZM250.795 96.2747C250.602 95.8619 250.43 95.4437 250.272 95.0154L249.881 93.5541L238.451 96.6167L250.606 141.982C252.006 147.274 248.857 152.707 243.562 154.126C242.007 154.543 240.441 154.568 238.965 154.259C241.338 156.091 244.509 156.835 247.63 155.999C252.926 154.58 256.072 149.147 254.675 143.855L242.52 98.4919L250.795 96.2747ZM239.032 125.554L238.342 122.98C237.353 123.106 236.373 123.298 235.407 123.557C223.804 126.666 216.921 138.585 220.027 150.179C221.975 157.449 227.388 162.864 234.013 165.126C229.295 162.335 225.624 157.767 224.093 152.052C221.026 140.605 227.699 128.843 239.032 125.554Z" fill="#81D4FA"/>
    <path d="M228 82.284C228 106.742 207.863 126.568 183 126.568C179.285 126.568 175.688 126.127 172.236 125.287C171.19 125.033 170.096 125.131 169.133 125.616L159.285 130.588C156.743 131.871 153.75 130.004 153.75 127.134V117.993C153.75 116.687 153.172 115.47 152.218 114.589C143.456 106.504 138 95.0242 138 82.284C138 57.8256 158.137 38 183 38C207.863 38 228 57.8256 228 82.284Z" fill="url(#paint1_radial_11648_20657)"/>
    <path d="M206.385 71.4689L193.559 80.9157C192.186 81.9455 190.318 81.9455 188.968 80.9381L180.025 74.2425C176.245 71.4443 170.889 72.4069 168.346 76.3468L165.623 80.5777L156.374 95.5314C155.024 97.6356 157.612 100.031 159.615 98.5311L172.441 89.0843C173.814 88.0545 175.682 88.0545 177.032 89.0619L185.975 95.7575C189.755 98.5557 195.111 97.5931 197.654 93.6532L200.377 89.4223L209.626 74.4686C210.976 72.3644 208.388 69.9691 206.385 71.4689Z" fill="white"/>
    <g clip-path="url(#clip1_11648_20657)">
        <rect x="223.742" y="154" width="90.632" height="90.632" rx="13" transform="rotate(18.1304 223.742 154)" fill="url(#paint2_linear_11648_20657)"/>
        <path d="M293.082 203.149C290.376 203.387 287.601 203.228 284.803 202.667C288.055 201.994 290.982 200.181 292.939 197.546C289.903 198.157 286.715 198.293 283.512 197.866C281.908 194.608 278.969 191.951 275.158 190.703C267.839 188.306 260.044 192.042 257.751 199.045C257.427 200.037 257.232 201.041 257.15 202.052C246.312 197.913 238.199 189.659 234.177 179.847C232.415 181.346 231.051 183.329 230.292 185.646C228.851 190.048 229.915 194.689 232.727 198.137C230.575 197.362 228.721 196.109 227.238 194.586C227.225 194.624 227.207 194.681 227.189 194.735C225.174 200.887 228.066 207.507 233.742 210.656C232.54 210.586 231.316 210.366 230.11 209.971C229.254 209.691 228.451 209.324 227.689 208.919C227.729 214.499 231.418 219.776 237.179 221.784C231.531 223.694 225.153 223.857 218.941 221.823C217.868 221.472 216.838 221.069 215.84 220.608C220.537 226.12 226.816 230.505 234.296 232.954C258.67 240.935 278.334 225.974 283.824 209.206C284.004 208.656 284.165 208.103 284.316 207.554C287.499 206.631 290.474 205.128 293.082 203.149Z" fill="white"/>
    </g>
    <g clip-path="url(#clip2_11648_20657)">
        <path d="M164.628 144.098L117.178 164.791C106.739 169.344 94.4743 164.528 89.9199 154.09L69.2266 106.64C64.6745 96.2007 69.4898 83.9364 79.9279 79.382L127.378 58.6887C137.817 54.1366 150.082 58.9518 154.636 69.39L175.329 116.84C179.885 127.281 175.067 139.546 164.628 144.098Z" fill="url(#paint3_radial_11648_20657)"/>
        <path d="M164.628 144.098L117.178 164.791C106.739 169.344 94.4743 164.528 89.9199 154.09L69.2266 106.64C64.6745 96.2007 69.4898 83.9364 79.9279 79.382L127.378 58.6887C137.817 54.1366 150.082 58.9518 154.636 69.39L175.329 116.84C179.885 127.281 175.067 139.546 164.628 144.098Z" fill="url(#paint4_radial_11648_20657)"/>
        <path d="M129.508 128.354C120.348 132.338 109.651 128.128 105.666 118.966C101.681 109.804 105.895 99.1088 115.054 95.1247C124.213 91.1406 134.91 95.3506 138.895 104.512C142.88 113.674 138.667 124.369 129.508 128.354ZM117.119 99.8717C110.575 102.718 107.567 110.357 110.413 116.901C113.26 123.445 120.899 126.453 127.443 123.607C133.986 120.76 136.994 113.121 134.148 106.577C131.302 100.033 123.662 97.0253 117.119 99.8717Z" fill="white"/>
        <path d="M133.888 89.7554C135.854 88.9002 136.755 86.6129 135.899 84.6466C135.044 82.6803 132.757 81.7797 130.791 82.635C128.824 83.4903 127.924 85.7776 128.779 87.7438C129.634 89.7101 131.922 90.6107 133.888 89.7554Z" fill="white"/>
        <path d="M149.943 136.402L121.461 148.79C112.302 152.775 101.605 148.565 97.6197 139.403L85.2308 110.921C81.2457 101.759 85.459 91.0638 94.6183 87.0798L123.1 74.6908C132.259 70.7068 142.956 74.9167 146.941 84.0784L159.33 112.56C163.316 121.722 159.102 132.417 149.943 136.402ZM96.6831 91.8267C90.1394 94.6731 87.1314 102.313 89.9778 108.856L102.367 137.338C105.213 143.882 112.852 146.89 119.396 144.043L147.878 131.655C154.422 128.808 157.43 121.169 154.583 114.625L142.195 86.1432C139.348 79.5995 131.709 76.5915 125.165 79.4378L96.6831 91.8267Z" fill="white"/>
    </g>
    <circle cx="117" cy="241" r="51" fill="#FF0000"/>
    <path d="M146.269 225.906C145.696 222.745 142.965 220.443 139.796 219.724C135.054 218.719 126.277 218 116.781 218C107.29 218 98.373 218.719 93.625 219.724C90.4615 220.443 87.725 222.599 87.1519 225.906C86.5731 229.5 86 234.531 86 241C86 247.469 86.5731 252.5 87.2924 256.094C87.8711 259.255 90.602 261.557 93.7655 262.276C98.8001 263.281 107.431 264 116.927 264C126.423 264 135.054 263.281 140.088 262.276C143.252 261.557 145.983 259.401 146.562 256.094C147.135 252.5 147.854 247.323 148 241C147.708 234.531 146.989 229.5 146.269 225.906ZM109.015 251.062V230.938L126.564 241L109.015 251.062Z" fill="white"/>
    <defs>
        <filter id="filter0_d_11648_20657" x="6.00006" y="94.4609" width="153.913" height="153.912" filterUnits="userSpaceOnUse" color-interpolation-filters="sRGB">
            <feFlood flood-opacity="0" result="BackgroundImageFix"/>
            <feColorMatrix in="SourceAlpha" type="matrix" values="0 0 0 0 0 0 0 0 0 0 0 0 0 0 0 0 0 0 127 0" result="hardAlpha"/>
            <feOffset dy="4"/>
            <feGaussianBlur stdDeviation="15"/>
            <feColorMatrix type="matrix" values="0 0 0 0 0 0 0 0 0 0 0 0 0 0 0 0 0 0 0.08 0"/>
            <feBlend mode="normal" in2="BackgroundImageFix" result="effect1_dropShadow_11648_20657"/>
            <feBlend mode="normal" in="SourceGraphic" in2="effect1_dropShadow_11648_20657" result="shape"/>
        </filter>
        <radialGradient id="paint0_radial_11648_20657" cx="0" cy="0" r="1" gradientUnits="userSpaceOnUse" gradientTransform="translate(79.2483 187.222) rotate(12.0053) scale(48.6955 48.0804)">
            <stop stop-color="#FE7356"/>
            <stop offset="1" stop-color="#FD297C"/>
        </radialGradient>
        <radialGradient id="paint1_radial_11648_20657" cx="0" cy="0" r="1" gradientUnits="userSpaceOnUse" gradientTransform="translate(153.946 126.518) scale(107.127 108.126)">
            <stop stop-color="#1292FF"/>
            <stop offset="0.079" stop-color="#2982FF"/>
            <stop offset="0.23" stop-color="#4E69FF"/>
            <stop offset="0.351" stop-color="#6559FF"/>
            <stop offset="0.428" stop-color="#6D53FF"/>
            <stop offset="0.754" stop-color="#DF47AA"/>
            <stop offset="0.946" stop-color="#FF6257"/>
        </radialGradient>
        <linearGradient id="paint2_linear_11648_20657" x1="269.058" y1="154" x2="269.058" y2="244.632" gradientUnits="userSpaceOnUse">
            <stop stop-color="#2F96FF"/>
            <stop offset="1" stop-color="#2F96FF"/>
        </linearGradient>
        <radialGradient id="paint3_radial_11648_20657" cx="0" cy="0" r="1" gradientUnits="userSpaceOnUse" gradientTransform="translate(129.934 159.316) rotate(-23.5079) scale(116.212)">
            <stop stop-color="#FFDD55"/>
            <stop offset="0.328" stop-color="#FF543F"/>
            <stop offset="0.348" stop-color="#FC5245"/>
            <stop offset="0.504" stop-color="#E64771"/>
            <stop offset="0.643" stop-color="#D53E91"/>
            <stop offset="0.761" stop-color="#CC39A4"/>
            <stop offset="0.841" stop-color="#C837AB"/>
        </radialGradient>
        <radialGradient id="paint4_radial_11648_20657" cx="0" cy="0" r="1" gradientUnits="userSpaceOnUse" gradientTransform="translate(74.2319 80.5367) rotate(-23.5079) scale(77.1651 51.4151)">
            <stop stop-color="#4168C9"/>
            <stop offset="0.999" stop-color="#4168C9" stop-opacity="0"/>
        </radialGradient>
        <clipPath id="clip0_11648_20657">
            <rect width="79.1757" height="79.1757" fill="white" transform="translate(52.4688 120.461) rotate(12.0053)"/>
        </clipPath>
        <clipPath id="clip1_11648_20657">
            <rect x="223.742" y="154" width="90.632" height="90.632" rx="24" transform="rotate(18.1304 223.742 154)" fill="white"/>
        </clipPath>
        <clipPath id="clip2_11648_20657">
            <rect width="124.239" height="124.239" fill="white" transform="translate(40.539 79.5547) rotate(-23.5079)"/>
        </clipPath>
    </defs>
</svg>