<svg width="344" height="230" viewBox="0 0 344 230" fill="none" xmlns="http://www.w3.org/2000/svg">
    <path d="M223.628 28.2815C171.217 23.9881 122.064 32.1837 77.8504 62.1902C52.9172 79.1115 25.82 110.29 33.7225 142.889C36.934 156.136 47.3994 166.779 59.5668 172.925C71.7346 179.071 85.5094 181.247 99.1005 182.3C126.939 184.454 154.988 182.229 182.53 177.64C216.461 171.987 250.739 162.284 277.961 141.255C299.532 124.593 317.93 97.4666 307.99 69.1961C295.975 35.0284 254.601 30.8188 223.628 28.2815Z" fill="white"/>
    <path d="M223.628 27.7591C199.202 25.7754 174.474 26.4166 150.402 31.2693C126.599 36.0677 103.764 45.079 83.2235 58.048C64.341 69.9702 46.6352 86.1462 37.358 106.844C32.9585 116.659 30.7939 127.466 32.2979 138.192C33.8288 149.11 39.4749 158.576 47.8032 165.72C57.02 173.625 68.5601 178.015 80.3509 180.378C93.6874 183.05 107.51 183.654 121.08 183.65C148.391 183.642 175.904 180.238 202.549 174.311C226.763 168.924 250.752 160.661 271.405 146.645C289.622 134.282 306.819 116.096 310.575 93.6C312.354 82.9462 310.607 71.9402 305.594 62.3665C301.522 54.5909 295.297 48.2205 287.925 43.5158C272.71 33.8059 254.046 30.7806 236.41 28.9232C232.156 28.4751 227.892 28.1089 223.628 27.7591C222.958 27.7042 222.962 28.7492 223.628 28.8039C241.154 30.2412 259.158 31.8968 275.639 38.4624C283.677 41.6645 291.293 46.1873 297.274 52.5052C303.981 59.5886 308.321 68.7772 309.744 78.4171C313.116 101.275 299.013 122.491 282.502 136.859C264.302 152.698 241.519 162.651 218.508 169.208C206.797 172.545 194.86 175.047 182.854 177.059C169.148 179.357 155.336 181.064 141.463 181.943C127.539 182.824 113.552 182.867 99.6362 181.818C86.8335 180.853 73.8117 178.944 62.0469 173.542C52.0948 168.972 43.1043 161.662 37.8072 151.953C32.5137 142.251 31.7582 130.516 34.099 119.85C36.4509 109.133 41.7781 99.2682 48.3481 90.5615C55.1281 81.5767 63.3418 73.6401 72.2891 66.8313C90.9922 52.5983 112.948 42.266 135.526 35.9222C158.321 29.5176 182.082 27.237 205.709 27.8331C211.69 27.984 217.665 28.3196 223.628 28.8039C224.298 28.8584 224.295 27.8133 223.628 27.7591Z" fill="#F0F5FF"/>
    <path d="M250.315 72.8166C248.53 66.8268 244.799 52.7632 257.084 83.4673C258.722 87.5598 253.951 90.645 253.951 90.645C253.951 90.645 246.557 82.073 250.315 72.8166Z" fill="#1C2E40"/>
    <path d="M220.806 118.695C219.319 118.106 217.618 118.614 216.673 119.905C214.608 122.734 211.515 129.673 210.926 146.15C210.028 171.312 204.86 176.03 204.86 176.03C204.86 176.03 197.223 190.183 203.288 194.676C209.354 199.169 221.775 199.394 225.899 189.509C230.022 179.624 228.9 160.977 228.9 160.977C228.9 160.977 235.876 124.66 220.806 118.695Z" fill="#2F96FF"/>
    <path d="M243.092 108.2C244.005 106.821 244.21 105.376 244.026 104.005C243.985 103.689 243.92 103.378 243.84 103.071C243.093 100.202 240.881 97.8257 240.406 97.3418C240.349 97.2824 240.317 97.2521 240.317 97.2521L240.696 96.7169L241.411 95.7038L248.768 85.2841L253.304 78.8612L254.19 77.6068C254.19 77.6068 254.607 79.8476 255.721 83.3908C257.064 87.6498 259.414 93.7906 263.262 100.176C265.135 103.283 239.758 113.234 243.092 108.2Z" fill="#FFA88D"/>
    <path d="M296.252 203.458H237.35L227.775 202.989C227.775 202.989 227.439 200.632 226.891 196.704C224.223 177.554 216.591 121.05 219.015 118.068C220.703 115.991 233.556 109.343 244.679 104.054C256.717 98.3273 270.395 96.9791 283.292 100.356C284.324 100.627 285.298 100.914 286.188 101.218L291.354 102.791C291.354 102.791 290.654 108.224 289.961 116.144C289.534 121.028 289.11 126.861 288.852 132.945C288.179 148.896 293.376 172.659 294.949 189.509C295.216 192.364 295.437 194.735 295.622 196.704C295.801 198.621 295.945 200.158 296.058 201.389C296.134 202.206 296.198 202.888 296.252 203.458Z" fill="#2F96FF"/>
    <path d="M239.526 138.183L242.906 167.346H254.977L259.225 138.183H239.526Z" fill="#B3C1F4"/>
    <path d="M260.094 139.438H238.463V138.393C238.463 136.891 239.681 135.672 241.184 135.672H257.375C258.877 135.672 260.094 136.891 260.094 138.393V139.438Z" fill="#1C2E40"/>
    <path d="M257.874 135.672H240.685V133.973C240.685 132.832 241.61 131.906 242.752 131.906H255.807C256.948 131.906 257.874 132.832 257.874 133.973V135.672Z" fill="#1C2E40"/>
    <path d="M277.195 152.984C277.195 152.984 269.787 153.114 265.969 150.194C262.149 147.273 261.251 140.758 258.779 140.758C258.507 140.758 258.236 140.773 257.964 140.787C254.175 140.987 250.378 141.443 246.629 142.011C245.062 142.248 243.495 142.447 241.946 142.788C240.694 143.064 237.951 143.469 237.358 144.855C237.159 145.319 237.403 146.02 237.689 146.406C237.802 146.558 237.942 146.688 238.093 146.803C238.428 147.057 238.818 147.238 239.227 147.326C239.534 147.393 240.891 147.423 240.724 147.993C240.611 148.382 239.774 148.304 239.477 148.301C238.132 148.286 236.137 148.261 234.995 149.063C233.958 149.791 233.752 150.991 234.832 151.801C236.057 152.72 237.545 152.306 238.916 152.753C239.249 152.862 239.153 153.213 238.842 153.268C238.077 153.404 237.292 153.349 236.515 153.371C235.569 153.399 233.529 153.652 233.836 155.05C234.032 155.939 235.139 156.704 235.983 156.874C236.959 157.071 237.967 156.947 238.962 156.983C239.038 157.102 239.018 157.274 238.917 157.373C238.839 157.448 238.728 157.478 238.623 157.504C238.125 157.629 237.628 157.653 237.398 158.177C237.211 158.604 237.35 159.028 237.639 159.374C238.471 160.371 240.412 160.296 241.602 160.385C244.083 160.57 246.572 160.622 249.055 160.755C250.061 160.809 251.072 160.863 252.069 160.998C252.515 161.058 253.268 161.082 253.612 161.426C254.736 162.55 256.982 163.674 261.026 164.123C265.07 164.572 275.578 172.197 275.578 172.197C275.578 172.197 282.805 155.997 277.195 152.984Z" fill="#FFA88D"/>
    <path d="M251.745 93.8769C251.719 93.9414 251.693 94.0047 251.666 94.0693C250.707 96.3675 249.383 98.4979 247.724 100.25C246.519 101.522 245.218 102.321 243.847 103.071C243.099 99.8936 240.883 97.2623 240.406 96.7265C240.48 96.4824 240.577 96.2579 240.696 96.0344C240.887 95.6781 241.131 95.3256 241.413 94.9124C241.529 94.742 241.652 94.5612 241.779 94.3649C243.812 91.2404 245.883 88.1468 247.831 84.9563C248.151 84.4307 248.47 83.904 248.785 83.3733C249.68 81.8691 250.544 80.3416 251.334 78.7716C252.002 77.443 252.463 76.0072 253.086 74.658C253.174 75.1926 252.808 75.2468 252.882 75.7801C253.716 81.7853 254.074 88.1531 251.745 93.8769Z" fill="#1C2E40"/>
    <path d="M230.047 96.3153C226.577 92.8575 224.225 89.5552 222.665 86.516C222.306 85.8176 221.989 85.1319 221.71 84.4616C221.698 84.4321 221.686 84.4038 221.674 84.3743C217.878 75.1772 221.198 68.8691 221.198 68.8691C228.744 56.0383 240.801 62.8781 247.747 70.578C250.73 73.883 252.77 77.3459 253.107 79.4798C254.233 86.5879 245.331 111.537 230.047 96.3153Z" fill="#FFA88D"/>
    <path d="M253.085 72.0582C252.646 71.4618 252.006 71.2637 251.081 71.9302C249.513 73.0589 249.671 74.671 247.155 73.7349C246.452 73.4734 245.839 73.0237 245.221 72.6007C241.454 70.0248 235.531 66.8605 231.243 69.8183C229.508 71.0156 228.109 72.6736 226.289 73.7377C224.432 74.8234 221.958 75.505 221.313 77.5571C221.095 78.2488 221.138 78.9972 220.967 79.7019C220.59 81.2565 219.074 82.4568 217.474 82.4675C215.046 82.4837 212.747 79.6072 211.511 77.7669C209.668 75.0251 208.254 71.7616 208.097 68.4254C207.852 63.1903 209.515 53.5103 220.025 50.8156C230.535 48.121 230.015 56.2844 236.038 50.4477C241.008 45.6322 246.355 52.4459 248.075 54.9778C248.406 55.4646 248.931 55.7787 249.514 55.8583C254.635 56.5579 254.556 64.9136 256.154 68.464C256.566 69.3791 257.112 70.2407 257.388 71.2056C258.323 74.4696 255.976 77.8798 256.429 81.2447C256.685 83.1356 255.479 82.361 254.37 81.8615C254.016 81.7018 253.567 81.4598 253.379 81.0986C253.195 80.7427 253.253 80.1953 253.198 79.7926C253.176 79.633 253.154 79.4722 253.161 79.3112C253.182 78.853 253.436 78.4438 253.607 78.0185C254.281 76.3511 254.183 73.5482 253.085 72.0582Z" fill="#1C2E40"/>
    <path d="M254.483 75.7394C254.469 77.4788 253.605 79.7328 251.929 80.5401C251.693 80.6537 251.434 80.7342 251.173 80.7209C250.787 80.7012 250.434 80.4777 250.176 80.1901C248.859 78.7223 248.108 76.6955 247.215 74.9469C246.466 73.4816 246.558 72.1079 247.308 70.6395C247.714 69.8449 248.312 69.063 249.175 68.8331C249.748 68.6801 250.371 68.7987 250.901 69.0678C251.43 69.3367 251.876 69.7463 252.274 70.1882C253.42 71.4644 254.215 73.0737 254.426 74.7763C254.466 75.0956 254.485 75.4175 254.483 75.7394Z" fill="#FFA88D"/>
    <path d="M244.01 104.395C244.01 104.395 255.311 111.13 262.582 98.9C262.582 98.9 252.915 98.5286 244.01 104.395Z" fill="#FFA88D"/>
    <path d="M237.896 78.7196C238.429 78.8035 237.744 78.7116 237.626 78.7033C237.285 78.6796 236.943 78.6762 236.603 78.692C235.646 78.7362 234.746 78.9829 233.951 79.5239C232.9 80.2375 231.959 78.5042 233.001 77.7961C234.563 76.7353 236.617 76.5391 238.447 76.8268C239.697 77.0233 239.134 78.9143 237.896 78.7196Z" fill="#1C2E40"/>
    <path d="M225.197 83.9414C225.677 83.6936 225.07 84.0262 224.97 84.0891C224.682 84.2714 224.405 84.4717 224.139 84.6861C223.51 85.1946 223.001 85.7955 222.665 86.5158C222.147 86.0526 221.762 85.4673 221.709 84.4614C221.708 84.4298 221.685 84.4036 221.674 84.3741C222.433 83.415 223.454 82.6433 224.521 82.0912C225.642 81.5083 226.311 83.365 225.197 83.9414Z" fill="#1C2E40"/>
    <path d="M236.791 81.7379C237.216 82.5407 237.177 83.3937 236.705 83.6434C236.233 83.8929 235.506 83.4446 235.082 82.6418C234.657 81.8392 234.696 80.986 235.168 80.7364C235.64 80.4868 236.367 80.9352 236.791 81.7379Z" fill="#1C2E40"/>
    <path d="M227.021 86.9543C227.445 87.7571 227.406 88.6102 226.934 88.8598C226.462 89.1094 225.735 88.6611 225.311 87.8583C224.887 87.0555 224.925 86.2024 225.398 85.9529C225.87 85.7032 226.596 86.1517 227.021 86.9543Z" fill="#1C2E40"/>
    <path d="M233.481 95.2955L239.877 91.6402C240.061 91.535 240.287 91.6855 240.258 91.8955C240.125 92.8745 240.165 94.557 238.51 96.0161C236.77 97.5518 234.189 96.499 233.423 95.8011C233.266 95.6573 233.295 95.4014 233.481 95.2955Z" fill="#FFF4F3"/>
    <path d="M313.371 181.646C295.556 183.284 283.429 177.451 277.456 173.513C274.607 171.635 273.157 170.188 273.157 170.188C274.51 169.415 275.438 168.173 276.059 166.701C276.356 165.997 276.584 165.241 276.755 164.457C277.886 159.263 276.527 152.89 276.527 152.89L289.333 154.687C284.165 146.15 278.422 104.001 290.091 102.791C292.639 102.526 296.265 106.422 300.106 112.606C301.296 114.522 302.508 116.658 303.714 118.958C305.259 121.905 306.795 125.121 308.27 128.488C318.166 151.083 325.282 180.551 313.371 181.646Z" fill="#2F96FF"/>
    <path d="M121.268 131.087C121.268 131.087 118.245 124.556 113.165 128.879C108.085 133.203 107.189 160.584 107.189 160.584L105.098 192.771L119.44 191.81C119.44 191.81 130.83 136.131 121.268 131.087Z" fill="#1C2E40"/>
    <path d="M119.691 118.453C117.864 122.66 115.836 128.25 116.022 131.979C116.239 136.303 119.883 152.851 115.167 152.518C110.454 152.184 92.958 116.444 92.958 116.444C92.958 116.444 103.905 114.021 106.607 104.763C107.11 103.044 107.972 102.236 109.042 102.06C113.737 101.29 122.448 112.673 122.448 112.673C122.448 112.673 121.132 115.132 119.691 118.453Z" fill="#FFA88D"/>
    <path d="M113.952 187.753C113.264 191.915 112.432 196.052 111.658 200.139C111.551 200.706 111.431 201.294 111.085 201.756C110.537 202.488 109.563 202.73 108.668 202.919C100.193 204.703 90.5529 203.903 81.8697 203.819C75.8817 203.761 68.6208 204.642 62.8309 202.959C53.983 200.385 57.2298 186.8 57.9227 179.942C59.2664 166.642 61.9105 153.351 66.6014 140.808C71.5003 127.709 79.2798 121.611 85.967 118.802C86.9724 118.379 87.953 118.031 88.8951 117.745C94.5419 116.029 98.8177 116.527 98.8177 116.527C102.535 117.362 105.269 120.113 107.354 124.26C107.552 124.654 107.745 125.061 107.932 125.481C112 134.606 113.419 149.496 115.146 165.515C115.945 172.916 115.173 180.375 113.952 187.753Z" fill="#F76F83"/>
    <path d="M117.108 127.399C117.108 127.399 124.134 128.76 126.552 136.843C130.491 150.016 121.348 181.124 123.028 188.808L124.71 196.492L113.663 198.414C113.663 198.414 120.924 164.954 119.906 141.982C119.375 129.968 117.108 127.399 117.108 127.399Z" fill="#F76F83"/>
    <path d="M325.44 201.874V204.797C325.44 205.578 324.618 206.212 323.603 206.212H21.5582C20.5437 206.212 19.7217 205.578 19.7217 204.797V201.874C19.7217 201.094 20.5437 200.461 21.5582 200.461H323.603C324.618 200.461 325.44 201.094 325.44 201.874Z" fill="#B3C1F4"/>
    <path d="M122.448 112.673C122.448 112.673 121.133 115.132 119.691 118.453C116.088 115.278 110.343 100.753 109.884 94.1893C114.579 93.4194 122.448 112.673 122.448 112.673Z" fill="#1C2E40"/>
    <path d="M138.864 75.5814C138.864 75.5814 149.209 80.0053 147.734 91.8088C146.259 103.612 129.477 110.606 129.477 110.606L138.864 75.5814Z" fill="#1C2E40"/>
    <path d="M142.559 79.2174C142.92 79.6 143.268 79.995 143.6 80.4029C143.681 80.5023 143.761 80.6024 143.84 80.7032C143.864 80.7341 143.956 80.853 143.888 80.7645C143.932 80.821 143.975 80.8776 144.017 80.9345C144.177 81.145 144.331 81.3586 144.482 81.5751C145.081 82.4341 145.615 83.3378 146.077 84.2776C146.19 84.5073 146.298 84.739 146.402 84.9729C146.431 85.0378 146.46 85.1028 146.488 85.1681C146.499 85.1939 146.512 85.22 146.521 85.2464C146.483 85.1423 146.508 85.2149 146.517 85.2371C146.572 85.3681 146.625 85.4995 146.678 85.6316C146.863 86.106 147.031 86.588 147.178 87.0761C147.328 87.5764 147.457 88.0832 147.563 88.5948C147.615 88.8434 147.661 89.093 147.701 89.3435C147.721 89.4684 147.744 89.5942 147.757 89.7199C147.743 89.5814 147.764 89.7763 147.768 89.8094C147.778 89.8863 147.787 89.9633 147.795 90.0404C147.905 91.0478 147.924 92.0674 147.838 93.0774C147.827 93.1911 147.816 93.3046 147.803 93.4181C147.798 93.4686 147.792 93.519 147.787 93.5694C147.782 93.6009 147.778 93.6323 147.774 93.6638C147.772 93.6827 147.77 93.7016 147.767 93.7204C147.776 93.6484 147.778 93.6328 147.773 93.6735C147.739 93.9062 147.703 94.1382 147.659 94.3692C147.573 94.8253 147.465 95.2774 147.336 95.7234C147.207 96.1696 147.058 96.6098 146.888 97.042C146.845 97.1483 146.796 97.2529 146.758 97.3603C146.805 97.2297 146.752 97.3749 146.737 97.4088C146.709 97.473 146.681 97.537 146.651 97.6007C146.555 97.8149 146.453 98.0268 146.346 98.2363C146.135 98.6486 145.906 99.0511 145.657 99.4416C145.532 99.639 145.401 99.8334 145.266 100.024C145.204 100.112 145.141 100.199 145.076 100.285C145.043 100.331 145.009 100.376 144.974 100.421C144.917 100.497 144.979 100.416 144.988 100.404C144.965 100.434 144.942 100.464 144.918 100.493C144.347 101.219 143.701 101.888 142.992 102.479C142.909 102.547 142.827 102.614 142.743 102.68C142.718 102.699 142.693 102.719 142.669 102.738C142.606 102.787 142.773 102.66 142.673 102.735C142.622 102.773 142.572 102.81 142.521 102.848C142.34 102.982 142.154 103.11 141.966 103.234C141.577 103.488 141.172 103.72 140.757 103.927C140.552 104.028 140.346 104.122 140.136 104.211C139.88 104.321 139.804 104.718 139.946 104.938C140.118 105.205 140.398 105.246 140.672 105.129C142.436 104.378 144.007 103.186 145.26 101.74C146.543 100.26 147.517 98.5329 148.148 96.6795C148.796 94.7813 149.05 92.7567 148.921 90.7567C148.779 88.5814 148.216 86.4663 147.337 84.4756C146.465 82.4991 145.266 80.6711 143.841 79.0487C143.668 78.8513 143.491 78.6572 143.31 78.466C143.119 78.2635 142.749 78.2588 142.559 78.466C142.36 78.6832 142.355 79.0013 142.559 79.2174Z" fill="#1C2E40"/>
    <path d="M144.439 92.6007C144.718 103.775 137.26 114.428 131.714 116.373C126.161 118.321 119.308 111.762 116.319 108.478C115.906 108.025 115.136 106.961 114.388 105.774C114.291 105.619 114.193 105.463 114.097 105.304C113.822 104.853 113.558 104.393 113.322 103.949C112.767 102.899 112.376 101.941 112.407 101.403C112.412 101.308 112.419 101.212 112.425 101.118C112.521 99.5697 112.654 98.0959 112.823 96.6929C116 70.2776 131.57 69.2281 139.598 79.0627C140.199 79.7983 140.758 80.5955 141.266 81.448C142.602 83.689 143.753 86.9414 144.15 89.4212C144.319 90.4729 144.413 91.5357 144.439 92.6007Z" fill="#FFA88D"/>
    <path d="M141.896 88.9849C138.195 92.6875 129.637 99.4514 117.187 98.5417C111.425 98.1197 117.474 132.94 93.3065 123.681C83.7199 120.007 75.8322 130.003 70.8709 136.702C66.1249 143.11 61.5297 151.787 55.8551 157.284C52.494 160.54 48.5023 160.26 44.6214 156.85C38.2589 151.26 37.6869 139.197 42.5819 132.566C46.8961 126.722 56.8688 126.727 57.8441 118.34C58.1666 115.564 57.099 112.75 57.5147 109.986C58.3546 104.401 64.6513 101.458 70.2422 100.658C75.8331 99.8568 81.9223 100.082 86.5643 96.8644C92.6978 92.6137 93.7476 84.6104 97.6319 78.724C100.868 73.8194 105.071 70.0148 110.629 67.9643C121.859 63.8216 136.034 66.8587 141.573 78.2814C142.35 79.8872 142.979 81.6686 143.429 83.6332C143.871 85.5646 143.297 87.5841 141.896 88.9849Z" fill="#1C2E40"/>
    <path d="M135.924 112.651C135.144 111.706 133.204 109.074 132.325 107.875C132.129 107.607 131.712 107.676 131.613 107.993C131.275 109.066 130.856 111.103 131.924 112.526C133.059 114.037 134.923 113.546 135.784 113.206C136.007 113.118 136.077 112.836 135.924 112.651Z" fill="#FFF4F3"/>
    <path d="M139.302 101.471C138.95 102.41 138.217 103.004 137.664 102.797C137.112 102.591 136.948 101.661 137.3 100.721C137.652 99.7817 138.384 99.1876 138.938 99.3944C139.49 99.6013 139.653 100.531 139.302 101.471Z" fill="#1C2E40"/>
    <path d="M142.137 102.861C142.137 102.861 141.486 107.012 141.543 110.256C141.569 111.69 137.551 110.208 137.551 110.208" fill="#FFA88D"/>
    <path d="M101.905 183.883C103.37 183.92 104.837 183.861 106.296 183.707C107.786 183.549 109.268 183.3 110.726 182.951C111.531 182.759 112.328 182.537 113.117 182.285C113.381 182.202 113.579 181.912 113.488 181.632C113.402 181.367 113.118 181.171 112.835 181.261C111.45 181.702 110.04 182.053 108.611 182.311C108.252 182.376 107.893 182.435 107.532 182.489C107.441 182.502 107.351 182.515 107.261 182.527C107.219 182.533 107.178 182.541 107.136 182.545C107.14 182.545 107.235 182.531 107.172 182.54C107.145 182.544 107.117 182.547 107.089 182.551C106.909 182.574 106.727 182.596 106.546 182.617C105.821 182.699 105.094 182.758 104.365 182.793C103.546 182.833 102.725 182.841 101.905 182.821C101.627 182.814 101.361 183.07 101.373 183.353C101.387 183.646 101.607 183.876 101.905 183.883Z" fill="#1C2E40"/>
    <path d="M106.178 70.0018C103.038 71.3123 100.185 73.2501 97.8269 75.7056C96.6466 76.9343 95.589 78.2887 94.6876 79.7345C93.7662 81.2124 93.042 82.7965 92.3357 84.3852C90.9544 87.4915 89.5554 90.6682 86.8463 92.8581C84.3545 94.8722 81.1844 95.8278 78.092 96.447C74.9285 97.0805 71.6992 97.3153 68.5389 97.9568C65.6337 98.5466 62.7245 99.4975 60.1974 101.075C57.8051 102.569 55.7902 104.695 54.9258 107.426C54.3977 109.093 54.3761 110.862 54.4436 112.595C54.5118 114.348 54.6995 116.149 54.4054 117.891C54.175 119.257 53.6625 120.507 52.6435 121.424C51.7436 122.235 50.6391 122.813 49.5608 123.348C47.2731 124.482 44.6846 125.359 42.773 127.113C42.3779 127.474 42.0255 127.889 41.7474 128.349C41.392 128.935 42.3104 129.47 42.6647 128.885C43.207 127.99 44.1186 127.323 45.0306 126.776C46.1545 126.101 47.3533 125.559 48.5402 125.006C49.7172 124.458 50.904 123.91 52.003 123.214C52.9736 122.6 53.9184 121.849 54.5013 120.839C56.3246 117.685 55.3437 113.883 55.4948 110.449C55.5613 108.939 55.8939 107.466 56.6243 106.136C57.2725 104.955 58.1702 103.944 59.2036 103.086C61.409 101.255 64.1789 100.154 66.9233 99.4247C69.9718 98.6146 73.1256 98.3524 76.2323 97.8539C79.4086 97.3443 82.6335 96.6334 85.4681 95.0521C86.8656 94.2724 88.1516 93.27 89.2058 92.0631C90.3433 90.7611 91.2188 89.2635 91.9753 87.7153C92.7383 86.1542 93.3928 84.5431 94.1418 82.9755C94.882 81.4265 95.7387 79.9441 96.7712 78.5703C98.7708 75.9097 101.361 73.6861 104.275 72.0842C104.984 71.6945 105.714 71.338 106.46 71.0263C106.725 70.9159 106.914 70.6746 106.831 70.3729C106.762 70.1231 106.444 69.8906 106.178 70.0018Z" fill="#1C2E40"/>
    <path d="M136.804 97.8567C136.667 97.9155 136.8 97.8592 136.83 97.8477C136.869 97.8321 136.91 97.8172 136.95 97.8031C137.019 97.7787 137.088 97.756 137.159 97.7352C137.311 97.6902 137.466 97.6536 137.622 97.6254C137.651 97.6201 137.74 97.59 137.766 97.602C137.743 97.6049 137.72 97.6079 137.697 97.6109C137.722 97.6078 137.746 97.6049 137.77 97.6022C137.843 97.5939 137.916 97.5876 137.989 97.5829C138.154 97.5726 138.319 97.5713 138.484 97.579C138.563 97.5828 138.643 97.5885 138.721 97.5964C138.757 97.6001 138.795 97.6075 138.83 97.6087C138.679 97.6036 138.815 97.607 138.852 97.6131C139.01 97.6386 139.165 97.6722 139.317 97.7141C139.47 97.7561 139.621 97.8064 139.768 97.8649C139.898 97.9158 139.695 97.8292 139.793 97.8749C139.827 97.8903 139.86 97.9049 139.894 97.9206C139.971 97.9572 140.047 97.9965 140.122 98.0375C140.366 98.1706 140.712 98.1056 140.848 97.8468C140.98 97.5984 140.918 97.2622 140.659 97.1201C139.988 96.7544 139.245 96.5522 138.484 96.5166C137.718 96.4807 136.968 96.638 136.268 96.9394C136.154 96.9882 136.055 97.1436 136.024 97.2569C135.989 97.384 136.004 97.5534 136.077 97.6662C136.15 97.7797 136.26 97.8795 136.395 97.9104C136.543 97.9442 136.665 97.9165 136.804 97.8567Z" fill="#1C2E40"/>
    <path d="M118.418 185.861C119.432 185.465 120.459 185.006 121.548 185C122.341 184.994 123.115 185.233 123.873 185.468C125.552 185.989 127.23 186.51 128.91 187.032C130.125 187.41 131.345 187.788 132.507 188.308C134.406 189.158 136.12 190.37 137.771 191.638C139.14 192.689 140.477 193.783 141.78 194.915C142.2 195.279 142.649 195.717 142.654 196.271C142.66 196.827 141.874 197.303 141.538 196.861C141.363 197.7 140.438 198.216 139.583 198.192C138.727 198.168 137.941 197.73 137.232 197.249C135.483 196.062 133.922 194.515 131.921 193.83C130.441 193.324 128.84 193.336 127.275 193.353C129.645 194.556 131.967 195.849 134.238 197.231C134.445 197.359 134.661 197.494 134.786 197.704C135.06 198.167 134.742 198.801 134.259 199.041C133.778 199.281 133.207 199.227 132.677 199.128C129.306 198.496 126.246 196.291 122.818 196.384C121.626 196.416 120.464 196.729 119.295 196.961C117.878 197.242 116.438 197.406 115.002 197.568C112.553 197.845 109.976 198.106 107.707 197.144C106.892 196.799 106.131 196.301 105.266 196.115C103.358 195.707 101.491 196.892 99.5514 197.092C99.2371 194.14 98.9226 191.187 98.6083 188.234C103.73 187.64 108.909 188.333 113.971 187.212C115.485 186.876 116.973 186.425 118.418 185.861Z" fill="#FFA88D"/>
    <path d="M141.04 196.717C139.875 195.945 138.709 195.174 137.544 194.401C136.377 193.629 135.212 192.856 134.046 192.084C133.492 191.717 132.941 191.341 132.374 190.994C132.1 190.825 131.821 190.665 131.534 190.519C131.393 190.448 131.251 190.381 131.107 190.318C131.092 190.312 131.024 190.284 131.082 190.307C131.136 190.328 131.083 190.307 131.073 190.303C131.037 190.289 131.001 190.274 130.965 190.26C130.89 190.23 130.814 190.201 130.738 190.174C130.16 189.969 129.56 189.835 128.954 189.742C128.879 189.73 128.805 189.719 128.73 189.708C128.713 189.706 128.698 189.704 128.682 189.702C128.63 189.695 128.72 189.707 128.721 189.707C128.677 189.703 128.634 189.696 128.591 189.69C128.435 189.671 128.279 189.653 128.122 189.637C127.814 189.605 127.505 189.578 127.196 189.552C125.941 189.446 124.665 189.354 123.452 188.987C123.308 188.943 123.165 188.895 123.023 188.843C122.803 188.764 122.631 188.535 122.71 188.293C122.78 188.077 123.025 187.893 123.261 187.979C123.839 188.189 124.439 188.329 125.046 188.427C125.12 188.439 125.195 188.45 125.27 188.461C125.308 188.467 125.345 188.472 125.383 188.477C125.435 188.484 125.345 188.472 125.344 188.472C125.371 188.475 125.398 188.479 125.425 188.482C125.581 188.503 125.737 188.521 125.894 188.538C126.202 188.57 126.512 188.598 126.821 188.624C128.081 188.731 129.36 188.819 130.577 189.181C131.21 189.368 131.815 189.638 132.389 189.962C132.956 190.28 133.496 190.645 134.038 191.005C135.209 191.781 136.379 192.556 137.551 193.333C138.722 194.108 139.892 194.884 141.063 195.659C141.207 195.754 141.35 195.849 141.492 195.944C141.688 196.073 141.79 196.345 141.654 196.557C141.528 196.752 141.25 196.856 141.04 196.717Z" fill="#1C2E40"/>
    <path d="M121.571 185.69C122.815 184.938 124.376 184.908 125.799 185.198C127.222 185.487 128.568 186.067 129.962 186.477C130.825 186.731 131.715 186.923 132.516 187.335C133.284 187.73 133.938 188.311 134.584 188.887C136.035 190.182 137.486 191.476 138.938 192.772C136.547 191.457 134.236 190.268 131.844 188.954C131.112 188.551 130.381 188.149 129.625 187.795C127.076 186.603 124.368 186.006 121.571 185.69Z" fill="#F7B889"/>
    <path d="M127 193.602C125.497 193.382 124.013 193.045 122.564 192.593C122.155 192.464 121.75 192.328 121.348 192.183C121.128 192.103 120.956 191.874 121.034 191.632C121.105 191.415 121.35 191.233 121.585 191.319C123.013 191.835 124.481 192.238 125.973 192.524C126.393 192.605 126.815 192.676 127.238 192.738C127.342 192.753 127.456 192.858 127.506 192.944C127.563 193.04 127.585 193.182 127.551 193.289C127.516 193.397 127.449 193.502 127.346 193.557C127.231 193.617 127.126 193.62 127 193.602Z" fill="#1C2E40"/>
    <path d="M134.895 190.016C134.241 189.641 133.564 189.303 132.873 189.001C132.788 188.963 132.702 188.926 132.616 188.889C132.596 188.881 132.539 188.854 132.633 188.895C132.612 188.887 132.592 188.879 132.571 188.87C132.52 188.85 132.47 188.829 132.419 188.808C132.246 188.737 132.072 188.668 131.897 188.6C131.547 188.467 131.195 188.34 130.84 188.219C129.403 187.732 127.932 187.348 126.455 187.005C125.624 186.812 124.79 186.63 123.956 186.45C123.727 186.401 123.572 186.12 123.644 185.898C123.722 185.658 123.949 185.533 124.194 185.586C125.69 185.91 127.186 186.235 128.664 186.63C130.158 187.029 131.629 187.505 133.054 188.108C133.84 188.442 134.607 188.817 135.347 189.243C135.551 189.359 135.639 189.653 135.509 189.855C135.376 190.061 135.112 190.141 134.895 190.016Z" fill="#1C2E40"/>
    <path d="M102.901 187.379C102.901 187.379 102.551 189.662 101.882 191.683C101.881 191.683 101.881 191.684 101.881 191.684C100.63 195.462 98.2616 200.804 94.9762 200.335C89.933 199.614 50.7908 203.936 40.9452 198.893C31.0996 193.851 48.1498 167.675 64.2382 144.143C80.3275 120.609 90.1731 123.011 90.1731 123.011C90.4602 123.022 90.7435 123.049 91.0223 123.09C96.3489 123.865 100.115 129.889 97.3777 141.981C94.4958 154.709 64.9332 183.805 69.0413 184.246C75.7655 184.966 102.901 187.379 102.901 187.379Z" fill="#F76F83"/>
    <path d="M91.7826 152.761C90.1383 155.277 88.3324 157.689 86.4811 160.035C84.6038 162.412 82.6692 164.744 80.769 167.103C79.8506 168.244 78.9677 169.417 78.0161 170.529C77.0862 171.616 76.1048 172.657 75.1445 173.719C74.1801 174.783 73.236 175.868 72.3867 177.028C71.6794 177.995 71.0151 179.022 70.5935 180.149C70.3342 180.841 70.179 181.653 70.4226 182.373C70.6494 183.042 71.1544 183.539 71.7592 183.885C72.4674 184.289 73.2718 184.525 74.0578 184.723C75.0542 184.976 76.0654 185.167 77.0722 185.372C79.0016 185.765 80.9122 186.244 82.8454 186.621C84.3741 186.919 85.9131 187.159 87.4602 187.338C89.1397 187.532 90.8265 187.655 92.5135 187.76C94.8868 187.907 97.2619 188.024 99.6365 188.149C100.376 188.188 101.117 188.227 101.857 188.268C102.134 188.282 102.4 188.012 102.388 187.736C102.374 187.436 102.154 187.221 101.857 187.205C99.2505 187.065 96.6437 186.936 94.0379 186.787C92.2489 186.686 90.4594 186.576 88.6755 186.404C88.297 186.367 87.9187 186.328 87.5409 186.284C87.3537 186.263 87.1666 186.241 86.9797 186.217C86.7987 186.195 86.6008 186.191 86.424 186.146C86.4315 186.148 86.5608 186.165 86.4704 186.153C86.4493 186.15 86.4281 186.146 86.4071 186.143C86.365 186.138 86.3227 186.132 86.2806 186.127C86.1859 186.113 86.0911 186.099 85.9964 186.086C85.8116 186.059 85.6271 186.032 85.4427 186.003C85.0738 185.945 84.7056 185.885 84.3379 185.82C82.6333 185.522 80.9458 185.143 79.2595 184.756C78.1562 184.502 77.0449 184.288 75.9367 184.058C75.0448 183.873 74.1471 183.684 73.2825 183.394C73.1923 183.363 73.1024 183.332 73.0133 183.298C72.9675 183.282 72.9219 183.264 72.8764 183.246C72.8525 183.237 72.7104 183.181 72.7928 183.214C72.8796 183.248 72.7321 183.187 72.7141 183.179C72.6773 183.162 72.6407 183.145 72.6043 183.128C72.5251 183.09 72.4467 183.05 72.3698 183.009C72.2332 182.935 72.1037 182.851 71.9761 182.763C71.8656 182.686 72.0575 182.834 71.9706 182.76C71.945 182.738 71.9185 182.717 71.893 182.695C71.8372 182.646 71.7835 182.596 71.7326 182.542C71.7077 182.516 71.6835 182.49 71.6599 182.461C71.6221 182.418 71.594 182.343 71.6682 182.477C71.6349 182.417 71.5859 182.362 71.5501 182.303C71.5182 182.249 71.4907 182.194 71.4632 182.137C71.4084 182.026 71.4968 182.236 71.4712 182.157C71.4591 182.12 71.4442 182.083 71.4325 182.045C71.4124 181.98 71.396 181.913 71.383 181.845C71.379 181.824 71.3598 181.696 71.3748 181.806C71.3899 181.916 71.3721 181.763 71.3703 181.737C71.3653 181.662 71.3643 181.586 71.3666 181.511C71.3677 181.471 71.3561 181.277 71.3864 181.255C71.387 181.255 71.3628 181.401 71.3796 181.308C71.3831 181.289 71.3858 181.269 71.3892 181.249C71.3962 181.208 71.404 181.168 71.4123 181.127C71.4322 181.03 71.4561 180.935 71.4829 180.84C71.5415 180.633 71.6187 180.434 71.696 180.234C71.7231 180.163 71.6571 180.319 71.6892 180.249C71.7007 180.225 71.711 180.199 71.7221 180.174C71.7478 180.117 71.7741 180.06 71.8011 180.002C71.8583 179.881 71.9183 179.762 71.9804 179.644C72.1111 179.395 72.2513 179.151 72.3977 178.911C73.119 177.73 73.9229 176.721 74.8208 175.68C75.747 174.608 76.7192 173.577 77.6691 172.525C78.6117 171.482 79.4942 170.398 80.3676 169.297C82.2289 166.949 84.1423 164.644 86.0189 162.308C87.9049 159.962 89.7575 157.584 91.4765 155.111C91.8928 154.512 92.3009 153.907 92.7 153.296C92.857 153.056 92.7483 152.71 92.5094 152.57C92.2508 152.419 91.9399 152.519 91.7826 152.761Z" fill="#1C2E40"/>
    <path d="M57.6035 186.775C57.7458 186.63 57.8939 186.491 58.0484 186.359C58.1186 186.3 58.1902 186.241 58.2624 186.184C58.3329 186.129 58.24 186.204 58.2319 186.208C58.2544 186.197 58.2765 186.174 58.2965 186.159C58.3398 186.128 58.3833 186.095 58.4272 186.064C58.7468 185.838 59.0852 185.64 59.4362 185.467C59.5181 185.426 59.6006 185.387 59.6838 185.349C59.7278 185.329 59.7722 185.31 59.8166 185.29C59.8453 185.278 59.9096 185.254 59.7788 185.306C59.8088 185.295 59.8386 185.281 59.8686 185.27C60.049 185.196 60.232 185.129 60.4167 185.067C60.7963 184.94 61.1835 184.836 61.5746 184.751C61.7701 184.708 61.9667 184.669 62.1639 184.635C62.2576 184.619 62.3515 184.604 62.4456 184.589C62.4955 184.582 62.5454 184.574 62.5955 184.567C62.6233 184.563 62.6511 184.559 62.6788 184.556C62.784 184.54 62.5577 184.57 62.6715 184.557C63.0762 184.506 63.4818 184.465 63.8887 184.438C64.7092 184.383 65.5319 184.37 66.354 184.373C66.5603 184.374 66.7666 184.375 66.9729 184.378C67.0236 184.378 67.0738 184.38 67.1244 184.384C67.2342 184.389 67.0939 184.38 67.0952 184.378C67.0897 184.386 67.234 184.4 67.1381 184.384C67.074 184.372 67.1271 184.384 67.1535 184.396C67.2126 184.422 67.0542 184.302 67.118 184.369C67.1554 184.408 67.1187 184.395 67.0826 184.316C67.0838 184.319 67.1217 184.374 67.1179 184.376C67.1129 184.379 67.0673 184.239 67.0882 184.315C67.1093 184.391 67.0757 184.243 67.0822 184.243C67.0891 184.243 67.0826 184.344 67.0826 184.352C67.0823 184.418 67.1152 184.206 67.0877 184.3C67.0828 184.317 67.0794 184.335 67.0746 184.352C67.0696 184.369 67.0629 184.387 67.058 184.404C67.0309 184.501 67.1159 184.29 67.0686 184.383C67.0275 184.463 66.9825 184.538 66.9326 184.614C66.9061 184.654 66.8843 184.64 66.9605 184.579C66.9469 184.59 66.9322 184.613 66.9216 184.625C66.889 184.664 66.8546 184.7 66.8186 184.735C66.7874 184.765 66.7521 184.792 66.7208 184.821C66.6706 184.87 66.8338 184.738 66.7434 184.804C66.7259 184.817 66.7087 184.83 66.6912 184.843C66.6124 184.902 66.5329 184.958 66.4528 185.014C66.2866 185.132 66.1179 185.245 65.9484 185.357C65.6129 185.579 65.2741 185.796 64.9438 186.026C64.255 186.506 63.603 187.04 63.1287 187.74C63.0186 187.904 62.921 188.075 62.8398 188.254C62.7318 188.492 62.6365 188.751 62.6641 189.018C62.7032 189.396 62.9136 189.713 63.2828 189.838C63.5271 189.919 63.8036 189.884 64.0382 189.787C64.284 189.687 64.4969 189.548 64.7199 189.405C64.9426 189.262 65.1653 189.119 65.3881 188.976C65.8398 188.688 66.2915 188.398 66.743 188.108C67.6403 187.534 68.5375 186.958 69.4346 186.383C69.6574 186.241 69.8801 186.098 70.1028 185.956C70.3365 185.805 70.4532 185.476 70.2933 185.228C70.1427 184.994 69.8168 184.878 69.5666 185.038C67.7598 186.195 65.9532 187.353 64.1465 188.512C64.0466 188.575 63.9477 188.641 63.8465 188.703C63.8048 188.728 63.7622 188.752 63.7187 188.774C63.6998 188.785 63.6762 188.792 63.659 188.803C63.7604 188.738 63.7145 188.782 63.664 188.798C63.6295 188.81 63.571 188.812 63.5416 188.83C63.6019 188.792 63.6575 188.818 63.578 188.82C63.5302 188.822 63.4762 188.797 63.6193 188.83C63.5767 188.819 63.5609 188.795 63.6663 188.855C63.6183 188.827 63.6558 188.831 63.7008 188.89C63.7008 188.89 63.6622 188.848 63.6572 188.847C63.7075 188.915 63.7189 188.926 63.6912 188.879C63.7019 188.902 63.7126 188.926 63.7232 188.95C63.6974 188.87 63.728 188.991 63.7246 189.004C63.7303 188.984 63.7216 188.948 63.7222 188.926C63.7247 188.838 63.7519 188.914 63.7149 188.956C63.7212 188.949 63.7274 188.897 63.7286 188.892C63.7391 188.849 63.7543 188.809 63.7676 188.767C63.8011 188.661 63.7248 188.857 63.7572 188.79C63.7714 188.761 63.7844 188.732 63.7986 188.702C63.8826 188.531 63.9809 188.368 64.0909 188.212C64.1182 188.174 64.1474 188.136 64.1748 188.098C64.0838 188.226 64.164 188.113 64.1894 188.082C64.2563 188.001 64.3262 187.923 64.3985 187.847C64.5298 187.708 64.6692 187.577 64.8137 187.452C64.887 187.389 64.9614 187.328 65.0371 187.268C65.0675 187.244 65.1824 187.161 65.0572 187.251C65.1011 187.219 65.1438 187.186 65.1873 187.153C65.3457 187.037 65.5071 186.924 65.6702 186.813C66.008 186.584 66.3523 186.365 66.6908 186.137C66.8542 186.027 67.0161 185.915 67.175 185.799C67.351 185.67 67.5302 185.543 67.6729 185.377C67.9792 185.02 68.2456 184.528 68.1155 184.044C68.0452 183.782 67.8593 183.551 67.6114 183.438C67.3435 183.316 67.0615 183.316 66.7731 183.313C65.0942 183.297 63.4057 183.332 61.7496 183.634C60.1261 183.93 58.5492 184.536 57.2847 185.619C57.1346 185.747 56.9908 185.883 56.8522 186.023C56.6572 186.221 56.6395 186.579 56.8522 186.775C57.0628 186.968 57.3954 186.987 57.6035 186.775Z" fill="#1C2E40"/>
    <path d="M153.14 196.961H109.866C108.66 196.961 107.682 197.939 107.682 199.145C107.682 200.351 108.66 201.329 109.866 201.329H153.14C154.346 201.329 155.324 200.351 155.324 199.145C155.324 197.939 154.346 196.961 153.14 196.961Z" fill="#1C2E40"/>
    <path d="M214.075 201.329H148.363C146.586 201.329 145.327 199.593 145.881 197.905L160.83 152.236C161.182 151.162 162.182 150.437 163.312 150.437H229.025C230.802 150.437 232.06 152.173 231.507 153.86L216.557 199.53C216.206 200.604 215.205 201.329 214.075 201.329Z" fill="#1C2E40"/>
    <path d="M216.841 201.329H150.175C148.706 201.329 147.667 199.895 148.123 198.499L163.37 151.923C163.66 151.036 164.487 150.437 165.421 150.437H232.087C233.555 150.437 234.596 151.871 234.139 153.267L218.892 199.842C218.602 200.729 217.774 201.329 216.841 201.329Z" fill="#1C2E40"/>
    <path d="M187.929 175.625C187.929 178.119 189.951 180.141 192.446 180.141C194.94 180.141 196.961 178.119 196.961 175.625C196.961 173.131 194.94 171.108 192.446 171.108C189.951 171.108 187.929 173.131 187.929 175.625Z" fill="#FFFEFB"/>
    <path d="M229.668 83.9747C229.89 84.2759 230.086 84.5949 230.256 84.9281C230.342 85.0936 230.419 85.2625 230.493 85.4328C230.516 85.4849 230.486 85.4157 230.484 85.41C230.491 85.4292 230.499 85.4482 230.507 85.4673C230.524 85.5121 230.543 85.557 230.56 85.6019C230.595 85.6922 230.629 85.7829 230.662 85.874C230.914 86.5804 231.094 87.31 231.262 88.0402C231.434 88.7858 231.594 89.5349 231.8 90.2719C231.903 90.6372 232.017 90.9999 232.15 91.355C232.31 91.779 232.542 92.2072 233.019 92.3264C233.533 92.4548 234.116 92.2007 234.581 91.9999C235.031 91.8058 235.435 91.5427 235.816 91.2369C236.018 91.0741 235.998 90.7048 235.816 90.5376C235.601 90.34 235.332 90.3639 235.116 90.5376C235.095 90.554 235.01 90.6179 235.074 90.5711C235.038 90.5975 235.001 90.6247 234.965 90.6507C234.878 90.7114 234.791 90.7694 234.701 90.8243C234.542 90.9225 234.376 91.0116 234.205 91.0907C234.186 91.0994 234.082 91.1463 234.121 91.1297C234.17 91.1083 234.101 91.1376 234.096 91.1395C234.075 91.1478 234.054 91.1561 234.033 91.1643C233.935 91.2023 233.836 91.2371 233.736 91.2686C233.649 91.2956 233.563 91.3205 233.476 91.3422C233.433 91.3531 233.389 91.3607 233.345 91.3707C233.289 91.3838 233.358 91.3679 233.367 91.3679C233.338 91.3679 233.309 91.3703 233.279 91.3707C233.178 91.3722 233.338 91.3673 233.24 91.361C233.251 91.3618 233.304 91.4009 233.268 91.3711C233.265 91.3689 233.221 91.3438 233.221 91.3423C233.228 91.3324 233.287 91.4091 233.252 91.3616C233.243 91.3482 233.185 91.295 233.23 91.3435C233.272 91.3865 233.234 91.3468 233.225 91.3341C233.213 91.3127 233.199 91.2918 233.187 91.27C233.168 91.2369 233.151 91.2026 233.134 91.1685C233.092 91.0826 233.158 91.2356 233.125 91.1468C233.094 91.0628 233.063 90.979 233.032 90.8946C232.912 90.5562 232.808 90.2123 232.714 89.866C232.336 88.4726 232.115 87.0353 231.635 85.6698C231.363 84.8933 231.012 84.1399 230.522 83.4755C230.37 83.2679 230.086 83.1428 229.846 83.2981C229.64 83.4306 229.505 83.752 229.668 83.9747Z" fill="#1C2E40"/>
    <path d="M248.557 72.8671C248.58 73.033 248.56 72.8673 248.558 72.8325C248.555 72.785 248.553 72.7374 248.553 72.6897C248.552 72.5896 248.557 72.4895 248.566 72.3899C248.569 72.3614 248.574 72.3328 248.576 72.3042C248.581 72.2349 248.56 72.4008 248.573 72.332C248.582 72.2798 248.59 72.2274 248.601 72.1754C248.622 72.07 248.649 71.9654 248.679 71.8624C248.695 71.8107 248.711 71.7593 248.73 71.7085C248.742 71.6721 248.789 71.5968 248.787 71.5575C248.787 71.5686 248.74 71.661 248.78 71.5773C248.789 71.5559 248.8 71.5343 248.81 71.513C248.835 71.4603 248.862 71.4083 248.891 71.3572C248.928 71.2909 248.992 71.1371 249.058 71.0989C249.053 71.102 248.983 71.1886 249.043 71.1204C249.057 71.104 249.071 71.0869 249.085 71.0705C249.121 71.0303 249.158 70.9915 249.198 70.9548C249.217 70.9375 249.241 70.9216 249.257 70.9024C249.298 70.855 249.177 70.9517 249.231 70.9216C249.278 70.8953 249.321 70.8595 249.369 70.8333C249.379 70.8272 249.43 70.7963 249.437 70.7987C249.42 70.7927 249.355 70.8272 249.424 70.8057C249.484 70.7869 249.543 70.7724 249.605 70.7573C249.72 70.7284 249.527 70.7588 249.601 70.7572C249.626 70.7565 249.651 70.7533 249.676 70.7525C249.733 70.7504 249.79 70.7516 249.846 70.7557C249.857 70.7565 249.919 70.7587 249.921 70.7631C249.918 70.7569 249.827 70.746 249.904 70.7627C249.967 70.7763 250.031 70.7894 250.093 70.8072C250.15 70.8235 250.206 70.8419 250.261 70.8625C250.287 70.8719 250.371 70.9075 250.272 70.864C250.296 70.8746 250.32 70.8855 250.344 70.8966C250.45 70.9468 250.554 71.0039 250.653 71.0669C250.702 71.0977 250.75 71.13 250.797 71.1636C250.82 71.1801 250.891 71.2347 250.803 71.1654C250.822 71.1806 250.842 71.196 250.861 71.2118C250.951 71.2866 251.036 71.3677 251.117 71.4529C251.167 71.5052 251.215 71.559 251.261 71.6142C251.259 71.6112 251.349 71.721 251.304 71.6653C251.265 71.6169 251.337 71.7094 251.343 71.7189C251.428 71.8359 251.506 71.9577 251.578 72.0831C251.654 72.2152 251.722 72.3512 251.784 72.4902C251.789 72.5029 251.826 72.5871 251.802 72.5311C251.78 72.4779 251.829 72.5994 251.834 72.6132C251.863 72.6875 251.89 72.7626 251.916 72.8379C251.998 73.0825 252.26 73.269 252.523 73.1834C252.766 73.1048 252.958 72.8374 252.869 72.5752C252.467 71.391 251.691 70.3074 250.469 69.8887C249.911 69.6982 249.238 69.7046 248.745 70.0583C248.282 70.3895 247.99 70.8686 247.794 71.3948C247.589 71.9489 247.524 72.546 247.603 73.13C247.639 73.3873 247.98 73.5501 248.212 73.4755C248.494 73.384 248.594 73.1429 248.557 72.8671Z" fill="#1C2E40"/>
    <path d="M276.187 153.554C277.463 153.493 278.759 153.384 280.036 153.475C280.455 153.506 280.871 153.562 281.286 153.616C281.482 153.641 281.677 153.666 281.873 153.691C282.001 153.708 282.129 153.726 282.257 153.742C282.293 153.748 282.33 153.752 282.366 153.757C282.425 153.765 282.384 153.759 282.372 153.758C282.454 153.768 282.536 153.78 282.619 153.791C283.166 153.865 283.714 153.944 284.262 154.024C286.44 154.343 288.614 154.706 290.778 155.111C292.943 155.518 295.1 155.966 297.246 156.458C299.393 156.95 301.53 157.485 303.656 158.062C303.923 158.134 304.19 158.207 304.455 158.281C304.705 158.35 305.005 158.196 305.064 157.936C305.124 157.674 304.986 157.401 304.719 157.327C302.587 156.737 300.444 156.19 298.291 155.685C296.137 155.181 293.974 154.72 291.801 154.302C289.63 153.884 287.449 153.51 285.262 153.179C284.144 153.011 283.022 152.853 281.9 152.706C281.374 152.637 280.849 152.562 280.32 152.51C279.209 152.403 278.084 152.478 276.972 152.528C276.71 152.54 276.449 152.552 276.187 152.564C275.929 152.577 275.68 152.783 275.693 153.058C275.704 153.316 275.911 153.566 276.187 153.554Z" fill="#286BAF"/>
    <path d="M294.036 154.113C293.894 153.944 293.755 153.774 293.617 153.602C293.553 153.523 293.49 153.442 293.426 153.362C293.399 153.327 293.372 153.292 293.345 153.258C293.327 153.235 293.308 153.212 293.291 153.189C293.234 153.117 293.308 153.212 293.274 153.167C293.018 152.831 292.765 152.492 292.519 152.147C292.026 151.452 291.558 150.74 291.114 150.014C290.225 148.559 289.434 147.045 288.718 145.497C288.537 145.105 288.361 144.711 288.189 144.315C288.148 144.22 288.108 144.126 288.067 144.031C288.047 143.984 288.028 143.938 288.007 143.891C288 143.874 287.97 143.803 288.006 143.886C287.994 143.859 287.983 143.832 287.971 143.805C287.886 143.603 287.802 143.399 287.719 143.195C287.395 142.398 287.086 141.593 286.792 140.784C286.2 139.159 285.662 137.515 285.154 135.862C284.646 134.212 284.168 132.551 283.695 130.891C283.637 130.685 283.579 130.48 283.521 130.276C283.45 130.026 283.168 129.847 282.912 129.93C282.659 130.012 282.491 130.271 282.567 130.538C283.043 132.212 283.52 133.886 284.026 135.552C284.531 137.221 285.065 138.883 285.651 140.527C286.24 142.18 286.884 143.815 287.6 145.417C288.304 146.988 289.082 148.526 289.957 150.009C290.845 151.514 291.837 152.957 292.932 154.319C293.066 154.485 293.2 154.648 293.337 154.812C293.502 155.011 293.866 154.997 294.036 154.812C294.23 154.599 294.213 154.325 294.036 154.113Z" fill="#286BAF"/>
    <path d="M263.405 166.164C264.372 166.418 265.322 166.734 266.253 167.099C266.363 167.142 266.472 167.186 266.582 167.229C266.639 167.253 266.696 167.276 266.754 167.3C266.78 167.311 266.806 167.322 266.831 167.333C266.843 167.338 266.973 167.392 266.866 167.347C267.096 167.444 267.324 167.544 267.552 167.646C268 167.85 268.446 168.061 268.885 168.282C270.682 169.184 272.405 170.222 274.099 171.3C275.806 172.387 277.487 173.515 279.194 174.601C280.886 175.677 282.607 176.712 284.4 177.61C286.193 178.507 288.062 179.27 290.002 179.783C290.245 179.848 290.488 179.907 290.732 179.964C290.984 180.022 291.279 179.887 291.34 179.619C291.398 179.366 291.264 179.072 290.995 179.01C290.022 178.786 289.065 178.499 288.127 178.158C287.893 178.074 287.661 177.985 287.429 177.894C287.321 177.851 287.211 177.808 287.103 177.763C287.046 177.74 286.988 177.716 286.93 177.692C286.905 177.682 286.88 177.671 286.854 177.66C286.756 177.619 286.927 177.691 286.819 177.645C286.368 177.452 285.921 177.251 285.478 177.04C283.672 176.174 281.942 175.16 280.247 174.097C278.532 173.021 276.852 171.894 275.15 170.8C273.459 169.711 271.744 168.654 269.96 167.724C268.179 166.793 266.322 165.985 264.393 165.412C264.152 165.342 263.911 165.274 263.668 165.21C263.418 165.145 263.12 165.294 263.059 165.555C263.001 165.815 263.138 166.093 263.405 166.164Z" fill="#286BAF"/>
    <path d="M218.946 119.779C218.496 122.7 218.459 125.659 218.704 128.602C218.949 131.548 219.451 134.469 220.046 137.363C220.382 138.99 220.747 140.611 221.114 142.231C221.17 142.483 221.476 142.656 221.722 142.576C221.986 142.49 222.128 142.238 222.067 141.968C221.423 139.122 220.784 136.274 220.305 133.396C220.06 131.926 219.882 130.639 219.742 129.155C219.607 127.717 219.531 126.273 219.54 124.829C219.544 124.024 219.574 123.219 219.633 122.417C219.663 122.007 219.701 121.597 219.747 121.188C219.769 120.987 219.795 120.787 219.82 120.587C219.833 120.491 219.804 120.704 219.827 120.543C219.835 120.485 219.843 120.426 219.852 120.368C219.866 120.259 219.883 120.15 219.899 120.042C219.939 119.787 219.835 119.498 219.554 119.434C219.318 119.38 218.988 119.506 218.946 119.779Z" fill="#286BAF"/>
    <path d="M281.757 115.793C281.694 114.819 281.712 113.841 281.812 112.87C281.824 112.751 281.838 112.632 281.852 112.515C281.858 112.458 281.866 112.403 281.873 112.347C281.871 112.366 281.859 112.449 281.872 112.353C281.878 112.311 281.884 112.27 281.891 112.229C281.925 111.992 281.964 111.757 282.009 111.522C282.097 111.046 282.206 110.574 282.332 110.106C282.459 109.639 282.604 109.176 282.767 108.719C282.85 108.488 282.937 108.258 283.029 108.03C283.05 107.978 283.072 107.926 283.093 107.874C283.102 107.851 283.14 107.763 283.1 107.856C283.11 107.83 283.122 107.805 283.133 107.779C283.182 107.662 283.233 107.546 283.286 107.432C283.686 106.55 284.156 105.698 284.691 104.891C284.842 104.663 284.998 104.438 285.16 104.218C285.239 104.11 285.319 104.003 285.4 103.897C285.457 103.823 285.411 103.883 285.4 103.898C285.426 103.864 285.452 103.831 285.478 103.798C285.522 103.743 285.565 103.688 285.609 103.634C285.953 103.208 286.319 102.799 286.702 102.408C286.883 102.223 286.9 101.89 286.702 101.708C286.506 101.529 286.195 101.511 286.002 101.708C284.599 103.142 283.436 104.815 282.574 106.627C281.695 108.475 281.121 110.442 280.868 112.473C280.731 113.574 280.696 114.686 280.768 115.793C280.785 116.051 280.984 116.3 281.263 116.287C281.517 116.276 281.775 116.069 281.757 115.793Z" fill="#286BAF"/>
    <path d="M240.091 180.874C241.302 182.292 242.61 183.628 243.993 184.881C245.395 186.149 246.875 187.335 248.404 188.447C249.913 189.545 251.475 190.568 253.073 191.534C254.683 192.506 256.332 193.417 258.002 194.282C259.665 195.145 261.353 195.961 263.053 196.746C263.266 196.844 263.479 196.941 263.692 197.039C263.776 196.731 263.859 196.424 263.942 196.117C263.115 196.04 262.288 195.948 261.464 195.841C261.423 195.836 261.381 195.83 261.339 195.825C261.336 195.824 261.173 195.802 261.271 195.816C261.172 195.802 261.071 195.789 260.971 195.775C260.756 195.745 260.54 195.714 260.323 195.681C259.908 195.619 259.494 195.553 259.079 195.483C257.457 195.21 255.845 194.878 254.247 194.487C253.349 194.268 252.457 194.03 251.57 193.775C251.321 193.703 251.02 193.861 250.961 194.12C250.901 194.384 251.04 194.651 251.306 194.728C254.502 195.648 257.763 196.332 261.058 196.776C262.017 196.905 262.978 197.017 263.942 197.105C264.148 197.125 264.374 196.94 264.419 196.743C264.465 196.543 264.394 196.277 264.191 196.184C262.488 195.407 260.797 194.601 259.129 193.752C257.458 192.9 255.81 192.006 254.196 191.052C252.588 190.102 251.014 189.094 249.49 188.014C249.115 187.749 248.744 187.479 248.375 187.203C248.187 187.065 248.002 186.924 247.816 186.782C247.77 186.747 247.723 186.711 247.677 186.676C247.664 186.665 247.603 186.619 247.673 186.673C247.65 186.655 247.627 186.637 247.604 186.62C247.513 186.548 247.421 186.476 247.329 186.404C246.597 185.827 245.88 185.232 245.181 184.617C243.792 183.394 242.475 182.091 241.25 180.705C241.095 180.53 240.942 180.352 240.79 180.174C240.621 179.977 240.262 179.989 240.091 180.174C239.898 180.385 239.911 180.663 240.091 180.874Z" fill="#286BAF"/>
    <path d="M232.017 186.844C233.376 188.118 234.783 189.341 236.234 190.512C237.703 191.698 239.217 192.833 240.77 193.908C241.635 194.507 242.512 195.087 243.4 195.649C243.619 195.787 243.955 195.701 244.077 195.471C244.206 195.227 244.133 194.942 243.9 194.794C242.338 193.807 240.813 192.763 239.328 191.664C238.95 191.384 238.575 191.101 238.203 190.814C238.185 190.801 238.072 190.714 238.132 190.761C238.094 190.732 238.057 190.702 238.019 190.673C237.918 190.594 237.818 190.516 237.718 190.438C237.536 190.295 237.355 190.151 237.175 190.007C236.454 189.43 235.743 188.84 235.043 188.236C234.253 187.555 233.477 186.857 232.716 186.144C232.528 185.967 232.202 185.943 232.017 186.144C231.841 186.336 231.815 186.654 232.017 186.844Z" fill="#286BAF"/>
    <path d="M239.076 157.636C242.389 157.874 245.705 158.077 249.022 158.247C249.955 158.295 250.889 158.34 251.822 158.382C252.081 158.394 252.328 158.147 252.316 157.888C252.304 157.61 252.1 157.406 251.822 157.393C248.503 157.242 245.186 157.057 241.872 156.84C240.939 156.778 240.007 156.714 239.076 156.648C238.817 156.629 238.57 156.888 238.581 157.142C238.594 157.425 238.798 157.616 239.076 157.636Z" fill="#1C2E40"/>
    <path d="M238.544 153.166C240.313 153.39 242.09 153.551 243.869 153.644C245.649 153.739 247.432 153.768 249.215 153.732C250.226 153.711 251.236 153.669 252.245 153.606C252.502 153.59 252.753 153.39 252.74 153.112C252.729 152.857 252.522 152.6 252.245 152.618C250.466 152.727 248.683 152.774 246.9 152.753C245.119 152.733 243.337 152.648 241.561 152.497C240.553 152.411 239.548 152.304 238.544 152.177C238.287 152.144 238.039 152.427 238.05 152.671C238.064 152.967 238.268 153.131 238.544 153.166Z" fill="#1C2E40"/>
    <path d="M240.039 148.6C243.401 148.841 246.774 148.924 250.143 148.85C251.093 148.83 252.043 148.795 252.993 148.749C253.25 148.737 253.499 148.531 253.487 148.255C253.475 147.998 253.269 147.748 252.993 147.761C249.627 147.924 246.252 147.93 242.885 147.778C241.937 147.735 240.987 147.679 240.039 147.611C239.781 147.593 239.533 147.852 239.544 148.106C239.558 148.39 239.762 148.58 240.039 148.6Z" fill="#1C2E40"/>
    <path d="M189.124 74.8103C187.126 74.8103 185.173 75.3909 183.511 76.4788C181.85 77.5666 180.555 79.1129 179.79 80.9219C179.026 82.731 178.826 84.7216 179.215 86.6421C179.605 88.5625 180.567 90.3266 181.98 91.7112C183.393 93.0958 185.193 94.0387 187.153 94.4207C189.113 94.8027 191.144 94.6066 192.99 93.8573C194.836 93.108 196.413 91.839 197.524 90.2109C198.634 88.5828 199.226 86.6687 199.226 84.7106C199.226 82.0849 198.162 79.5667 196.267 77.71C194.373 75.8533 191.803 74.8103 189.124 74.8103Z" fill="#5AC8FA"/>
    <path d="M186.705 89.0333C186.705 89.1073 186.675 89.1782 186.622 89.2305C186.568 89.2828 186.496 89.3122 186.421 89.3122H184.144C184.068 89.3122 183.996 89.2828 183.943 89.2305C183.889 89.1782 183.859 89.1073 183.859 89.0333V83.7345C183.859 83.6606 183.889 83.5897 183.943 83.5374C183.996 83.4851 184.068 83.4557 184.144 83.4557H186.421C186.496 83.4557 186.568 83.4851 186.622 83.5374C186.675 83.5897 186.705 83.6606 186.705 83.7345V89.0333ZM194.389 84.8501C194.389 85.072 194.299 85.2848 194.139 85.4417C193.978 85.5986 193.761 85.6867 193.535 85.6867V85.7008C193.696 85.7329 193.84 85.8185 193.944 85.943C194.047 86.0674 194.104 86.2232 194.104 86.3839C194.104 86.5446 194.047 86.7004 193.944 86.8249C193.84 86.9494 193.696 87.0349 193.535 87.0671V87.36C193.686 87.36 193.831 87.4188 193.937 87.5234C194.044 87.628 194.104 87.7699 194.104 87.9178C194.104 88.0657 194.044 88.2076 193.937 88.3122C193.831 88.4168 193.686 88.4755 193.535 88.4755H187.843C187.768 88.4755 187.696 88.4462 187.642 88.3939C187.589 88.3416 187.559 88.2706 187.559 88.1967V83.7345C187.559 82.3401 189.835 80.388 189.835 80.388V79.7081C189.835 79.5013 189.912 79.3017 190.052 79.147C190.192 78.9924 190.385 78.8935 190.595 78.869C190.804 78.8446 191.016 78.8964 191.189 79.0146C191.362 79.1327 191.485 79.309 191.534 79.5101C191.537 79.5236 191.54 79.5374 191.543 79.5513C191.827 80.9457 190.852 82.3478 190.852 82.3478H192.604C192.629 82.3455 192.655 82.3401 192.681 82.3401H193.535C193.761 82.3401 193.978 82.4283 194.139 82.5852C194.299 82.7421 194.389 82.9549 194.389 83.1768C194.389 83.3987 194.299 83.6115 194.139 83.7684C193.978 83.9253 193.761 84.0134 193.535 84.0134C193.761 84.0134 193.978 84.1016 194.139 84.2585C194.299 84.4154 194.389 84.6282 194.389 84.8501Z" fill="white"/>
    <path d="M176.699 120.253C175.268 120.253 173.869 120.675 172.68 121.466C171.49 122.258 170.563 123.382 170.016 124.698C169.468 126.014 169.325 127.462 169.604 128.859C169.883 130.256 170.572 131.539 171.584 132.546C172.595 133.553 173.884 134.239 175.287 134.517C176.691 134.795 178.145 134.652 179.467 134.107C180.789 133.562 181.918 132.639 182.713 131.455C183.508 130.271 183.932 128.878 183.932 127.454C183.932 125.544 183.17 123.712 181.814 122.362C180.457 121.011 178.617 120.253 176.699 120.253Z" fill="#5AC8FA"/>
    <path d="M174.966 130.598C174.966 130.652 174.945 130.704 174.907 130.742C174.868 130.78 174.817 130.801 174.763 130.801H173.132C173.078 130.801 173.027 130.78 172.988 130.742C172.95 130.704 172.929 130.652 172.929 130.598V126.744C172.929 126.69 172.95 126.639 172.988 126.601C173.027 126.563 173.078 126.541 173.132 126.541H174.763C174.817 126.541 174.868 126.563 174.907 126.601C174.945 126.639 174.966 126.69 174.966 126.744V130.598ZM180.468 127.555C180.468 127.717 180.404 127.872 180.289 127.986C180.174 128.1 180.019 128.164 179.857 128.164V128.174C179.972 128.198 180.075 128.26 180.149 128.35C180.224 128.441 180.264 128.554 180.264 128.671C180.264 128.788 180.224 128.901 180.149 128.992C180.075 129.082 179.972 129.145 179.857 129.168V129.381C179.965 129.381 180.068 129.424 180.145 129.5C180.221 129.576 180.264 129.679 180.264 129.787C180.264 129.894 180.221 129.998 180.145 130.074C180.068 130.15 179.965 130.193 179.857 130.193H175.781C175.727 130.193 175.676 130.171 175.637 130.133C175.599 130.095 175.578 130.044 175.578 129.99V126.744C175.578 125.73 177.208 124.31 177.208 124.31V123.815C177.208 123.665 177.263 123.52 177.363 123.407C177.463 123.295 177.602 123.223 177.752 123.205C177.902 123.187 178.053 123.225 178.177 123.311C178.301 123.397 178.389 123.525 178.424 123.671C178.426 123.681 178.428 123.691 178.43 123.701C178.634 124.715 177.935 125.735 177.935 125.735H179.19C179.208 125.734 179.226 125.73 179.245 125.73H179.857C180.019 125.73 180.174 125.794 180.289 125.908C180.404 126.022 180.468 126.177 180.468 126.338C180.468 126.5 180.404 126.654 180.289 126.769C180.174 126.883 180.019 126.947 179.857 126.947C180.019 126.947 180.174 127.011 180.289 127.125C180.404 127.239 180.468 127.394 180.468 127.555Z" fill="white"/>
    <path d="M192.489 142.557C192.39 142.648 192.26 142.698 192.124 142.698C191.989 142.698 191.859 142.648 191.76 142.557L191.479 142.31C189.186 140.253 187.862 138.916 187.862 137.25C187.862 135.891 188.742 134.84 190.122 134.84C190.504 134.843 190.881 134.926 191.227 135.085C191.573 135.243 191.879 135.474 192.125 135.76C192.371 135.474 192.677 135.243 193.023 135.085C193.369 134.926 193.745 134.843 194.127 134.84C195.508 134.84 196.386 135.887 196.386 137.25C196.386 138.913 195.062 140.249 192.769 142.31L192.489 142.557Z" fill="#FF6584"/>
    <path d="M176.079 113.833C175.892 114.003 175.645 114.097 175.389 114.097C175.134 114.097 174.887 114.003 174.7 113.833L174.171 113.367C169.84 109.5 167.339 106.988 167.339 103.855C167.339 101.3 169.001 99.3253 171.606 99.3253C172.328 99.3293 173.04 99.486 173.694 99.7844C174.347 100.083 174.927 100.516 175.391 101.054C175.855 100.516 176.433 100.083 177.086 99.7845C177.739 99.486 178.451 99.3293 179.173 99.3253C181.781 99.3253 183.44 101.293 183.44 103.855C183.44 106.981 180.939 109.494 176.608 113.367L176.079 113.833Z" fill="#FF6584"/>
    <path d="M176.757 69.4333C176.515 69.6571 176.196 69.7816 175.865 69.7816C175.534 69.7816 175.216 69.6571 174.973 69.4333L174.289 68.8189C168.684 63.7174 165.447 60.403 165.447 56.2708C165.447 52.9001 167.598 50.2953 170.969 50.2953C171.904 50.3005 172.825 50.5072 173.671 50.9009C174.517 51.2947 175.266 51.8661 175.868 52.5755C176.468 51.8662 177.216 51.2948 178.061 50.901C178.907 50.5073 179.828 50.3006 180.761 50.2953C184.137 50.2953 186.283 52.8914 186.283 56.2708C186.283 60.3943 183.047 63.7088 177.442 68.8189L176.757 69.4333Z" fill="#FF6584"/>
</svg>
