<svg width="420" height="280" viewBox="0 0 420 280" fill="none" xmlns="http://www.w3.org/2000/svg">
<path d="M273.033 34.1229C209.043 28.8809 149.032 38.8872 95.0497 75.5231C64.6081 96.1829 31.5243 134.25 41.1726 174.05C45.0936 190.224 57.8712 203.219 72.7267 210.723C87.5827 218.227 104.401 220.883 120.995 222.168C154.983 224.799 189.229 222.082 222.856 216.479C264.283 209.577 306.135 197.731 339.371 172.056C365.707 151.713 388.171 118.593 376.034 84.0768C361.365 42.3604 310.85 37.2209 273.033 34.1229Z" fill="white"/>
<path d="M273.033 33.4851C243.21 31.0631 213.02 31.8459 183.629 37.7707C154.567 43.6292 126.687 54.6314 101.609 70.4657C78.5547 85.0219 56.9371 104.772 45.6103 130.042C40.2388 142.026 37.5959 155.22 39.4322 168.316C41.3014 181.646 48.1948 193.204 58.3632 201.926C69.6162 211.577 83.7058 216.938 98.1017 219.822C114.385 223.085 131.261 223.822 147.83 223.817C181.174 223.808 214.765 219.651 247.297 212.414C276.861 205.838 306.149 195.749 331.366 178.636C353.607 163.542 374.603 141.339 379.19 113.872C381.361 100.865 379.228 87.4271 373.107 75.7382C368.136 66.2448 360.535 58.4669 351.535 52.7229C332.959 40.8678 310.171 37.1741 288.639 34.9063C283.445 34.3592 278.24 33.9121 273.033 33.4851C272.214 33.418 272.22 34.6939 273.033 34.7607C294.431 36.5156 316.412 38.5369 336.534 46.5531C346.348 50.4626 355.647 55.9846 362.95 63.6984C371.138 72.3467 376.437 83.5652 378.174 95.3349C382.291 123.243 365.073 149.146 344.914 166.689C322.693 186.027 294.877 198.179 266.782 206.184C252.483 210.258 237.909 213.313 223.251 215.77C206.516 218.576 189.653 220.66 172.715 221.733C155.715 222.809 138.638 222.861 121.648 221.58C106.016 220.402 90.1177 218.072 75.7537 211.476C63.6029 205.897 52.6261 196.971 46.1587 185.117C39.6957 173.272 38.7734 158.944 41.6313 145.922C44.5028 132.837 51.0069 120.793 59.0284 110.162C67.3064 99.1926 77.3347 89.5025 88.2588 81.1894C111.094 63.812 137.901 51.197 165.467 43.4517C193.298 35.632 222.308 32.8476 251.155 33.5754C258.458 33.7596 265.753 34.1694 273.033 34.7607C273.851 34.8272 273.847 33.5513 273.033 33.4851Z" fill="#F0F5FF"/>
<path d="M305.616 88.497C303.437 81.1839 298.882 64.0133 313.881 101.501C315.88 106.497 310.055 110.264 310.055 110.264C310.055 110.264 301.028 99.7984 305.616 88.497Z" fill="#1C2E40"/>
<path d="M269.589 144.511C267.773 143.792 265.696 144.412 264.543 145.989C262.022 149.442 258.245 157.914 257.526 178.031C256.429 208.752 250.12 214.513 250.12 214.513C250.12 214.513 240.795 231.792 248.201 237.279C255.607 242.765 270.772 243.04 275.807 230.97C280.841 218.901 279.471 196.134 279.471 196.134C279.471 196.134 287.988 151.794 269.589 144.511Z" fill="#2F96FF"/>
<path d="M296.798 131.698C297.913 130.014 298.162 128.25 297.938 126.576C297.888 126.19 297.809 125.81 297.711 125.436C296.799 121.933 294.099 119.032 293.518 118.441C293.448 118.368 293.41 118.331 293.41 118.331L293.872 117.678L294.745 116.441L303.728 103.719L309.266 95.8773L310.348 94.3457C310.348 94.3457 310.857 97.0816 312.217 101.408C313.856 106.608 316.725 114.105 321.424 121.901C323.711 125.695 292.727 137.844 296.798 131.698Z" fill="#FFA88D"/>
<path d="M361.703 248.001H289.787L278.097 247.428C278.097 247.428 277.686 244.55 277.018 239.755C273.76 216.373 264.442 147.386 267.401 143.745C269.462 141.21 285.155 133.092 298.736 126.635C313.433 119.643 330.133 117.997 345.879 122.12C347.139 122.451 348.329 122.801 349.415 123.173L355.722 125.093C355.722 125.093 354.868 131.727 354.022 141.397C353.5 147.36 352.982 154.481 352.668 161.909C351.846 181.385 358.191 210.398 360.112 230.97C360.438 234.456 360.708 237.35 360.933 239.755C361.152 242.095 361.327 243.971 361.466 245.474C361.559 246.472 361.637 247.304 361.703 248.001Z" fill="#2F96FF"/>
<path d="M292.444 168.306L296.571 203.911H311.309L316.495 168.306H292.444Z" fill="#B3C1F4"/>
<path d="M317.557 169.838H291.146V168.561C291.146 166.727 292.634 165.239 294.468 165.239H314.236C316.07 165.239 317.557 166.727 317.557 168.561V169.838Z" fill="#1C2E40"/>
<path d="M314.846 165.239H293.858V163.164C293.858 161.771 294.989 160.641 296.382 160.641H312.322C313.715 160.641 314.846 161.771 314.846 163.164V165.239Z" fill="#1C2E40"/>
<path d="M338.435 186.376C338.435 186.376 329.391 186.535 324.729 182.97C320.066 179.404 318.969 171.449 315.951 171.449C315.619 171.449 315.288 171.467 314.956 171.485C310.329 171.729 305.694 172.285 301.116 172.979C299.203 173.268 297.29 173.511 295.399 173.927C293.87 174.264 290.521 174.76 289.798 176.451C289.555 177.017 289.852 177.874 290.201 178.345C290.34 178.531 290.51 178.69 290.695 178.83C291.104 179.14 291.58 179.36 292.08 179.469C292.454 179.55 294.111 179.587 293.907 180.282C293.769 180.758 292.747 180.662 292.384 180.659C290.742 180.641 288.306 180.61 286.912 181.589C285.646 182.477 285.394 183.942 286.713 184.931C288.209 186.054 290.026 185.549 291.699 186.094C292.106 186.227 291.989 186.656 291.609 186.723C290.675 186.889 289.716 186.821 288.768 186.849C287.612 186.882 285.122 187.192 285.497 188.898C285.736 189.984 287.088 190.918 288.119 191.126C289.31 191.366 290.541 191.215 291.755 191.259C291.848 191.404 291.824 191.614 291.7 191.735C291.605 191.827 291.47 191.862 291.342 191.894C290.733 192.047 290.127 192.076 289.846 192.716C289.618 193.238 289.788 193.755 290.14 194.178C291.156 195.396 293.526 195.304 294.979 195.412C298.008 195.639 301.047 195.701 304.079 195.864C305.307 195.93 306.54 195.996 307.758 196.16C308.303 196.234 309.222 196.264 309.642 196.684C311.014 198.056 313.757 199.428 318.694 199.976C323.632 200.525 336.461 209.833 336.461 209.833C336.461 209.833 345.285 190.055 338.435 186.376Z" fill="#FFA88D"/>
<path d="M307.362 114.21C307.33 114.289 307.298 114.366 307.265 114.445C306.094 117.251 304.478 119.852 302.453 121.991C300.982 123.544 299.393 124.52 297.72 125.436C296.806 121.556 294.1 118.343 293.519 117.689C293.609 117.391 293.727 117.117 293.872 116.844C294.105 116.409 294.403 115.979 294.748 115.474C294.889 115.266 295.039 115.046 295.195 114.806C297.677 110.991 300.205 107.214 302.583 103.319C302.974 102.677 303.363 102.034 303.749 101.386C304.841 99.5493 305.896 97.6844 306.861 95.7676C307.676 94.1455 308.239 92.3924 309 90.7451C309.107 91.3978 308.66 91.464 308.751 92.1151C309.769 99.447 310.205 107.222 307.362 114.21Z" fill="#1C2E40"/>
<path d="M280.871 117.187C276.634 112.966 273.763 108.934 271.859 105.223C271.42 104.37 271.033 103.533 270.692 102.715C270.678 102.679 270.662 102.644 270.648 102.608C266.013 91.3792 270.067 83.6774 270.067 83.6774C279.28 68.0119 294.002 76.3628 302.482 85.7639C306.123 89.799 308.614 94.027 309.026 96.6324C310.401 105.311 299.532 135.772 280.871 117.187Z" fill="#FFA88D"/>
<path d="M308.999 87.571C308.463 86.8429 307.682 86.6011 306.551 87.4147C304.637 88.7928 304.831 90.7611 301.758 89.6182C300.901 89.2989 300.152 88.7498 299.397 88.2335C294.798 85.0884 287.566 81.2251 282.331 84.8363C280.212 86.2982 278.504 88.3224 276.282 89.6216C274.015 90.9472 270.995 91.7794 270.207 94.2848C269.941 95.1294 269.994 96.0431 269.785 96.9035C269.324 98.8016 267.474 100.267 265.52 100.28C262.556 100.3 259.749 96.7879 258.24 94.541C255.99 91.1935 254.263 87.2089 254.072 83.1357C253.773 76.7439 255.803 64.9254 268.634 61.6354C281.467 58.3454 280.832 68.3124 288.186 61.1861C294.253 55.3067 300.782 63.6258 302.882 66.7171C303.286 67.3115 303.927 67.695 304.639 67.7921C310.891 68.6463 310.795 78.848 312.746 83.1828C313.249 84.3001 313.915 85.352 314.253 86.5301C315.394 90.5152 312.528 94.6788 313.082 98.7872C313.394 101.096 311.921 100.15 310.568 99.5403C310.135 99.3453 309.587 99.0497 309.358 98.6087C309.133 98.1742 309.204 97.5059 309.136 97.0143C309.11 96.8194 309.083 96.623 309.092 96.4265C309.117 95.867 309.428 95.3675 309.637 94.8482C310.459 92.8124 310.339 89.3903 308.999 87.571Z" fill="#1C2E40"/>
<path d="M310.704 92.0659C310.688 94.1896 309.633 96.9416 307.586 97.9272C307.299 98.066 306.983 98.1642 306.664 98.148C306.193 98.124 305.761 97.8511 305.447 97.5C303.838 95.7079 302.922 93.2333 301.831 91.0984C300.917 89.3093 301.029 87.6321 301.944 85.8394C302.441 84.8692 303.171 83.9145 304.224 83.6339C304.924 83.447 305.685 83.5919 306.331 83.9204C306.978 84.2487 307.523 84.7488 308.008 85.2883C309.408 86.8465 310.377 88.8113 310.636 90.8901C310.684 91.2799 310.707 91.6729 310.704 92.0659Z" fill="#FFA88D"/>
<path d="M297.919 127.051C297.919 127.051 311.717 135.275 320.594 120.343C320.594 120.343 308.792 119.889 297.919 127.051Z" fill="#FFA88D"/>
<path d="M290.454 95.7042C291.104 95.8067 290.268 95.6944 290.125 95.6844C289.708 95.6554 289.291 95.6513 288.875 95.6705C287.706 95.7245 286.608 96.0257 285.637 96.6863C284.354 97.5575 283.205 95.4413 284.477 94.5767C286.384 93.2816 288.892 93.042 291.126 93.3932C292.652 93.6331 291.965 95.942 290.454 95.7042Z" fill="#1C2E40"/>
<path d="M274.949 102.08C275.535 101.778 274.794 102.184 274.672 102.26C274.321 102.483 273.982 102.728 273.657 102.989C272.889 103.61 272.268 104.344 271.858 105.223C271.225 104.658 270.756 103.943 270.691 102.715C270.689 102.676 270.661 102.644 270.647 102.608C271.574 101.437 272.821 100.495 274.123 99.8212C275.493 99.1095 276.309 101.376 274.949 102.08Z" fill="#1C2E40"/>
<path d="M289.105 99.3896C289.623 100.37 289.576 101.411 288.999 101.716C288.423 102.021 287.536 101.473 287.018 100.493C286.5 99.5132 286.547 98.4716 287.123 98.1668C287.7 97.8621 288.587 98.4095 289.105 99.3896Z" fill="#1C2E40"/>
<path d="M277.175 105.758C277.693 106.738 277.646 107.78 277.07 108.085C276.493 108.389 275.606 107.842 275.088 106.862C274.57 105.882 274.617 104.84 275.194 104.536C275.77 104.231 276.657 104.778 277.175 105.758Z" fill="#1C2E40"/>
<path d="M285.063 115.942L292.872 111.48C293.097 111.351 293.372 111.535 293.338 111.791C293.175 112.986 293.223 115.041 291.204 116.822C289.079 118.697 285.928 117.412 284.993 116.56C284.8 116.384 284.836 116.072 285.063 115.942Z" fill="#FFF4F3"/>
<path d="M382.603 221.37C360.852 223.37 346.046 216.249 338.754 211.441C335.275 209.147 333.505 207.381 333.505 207.381C335.157 206.438 336.29 204.92 337.048 203.123C337.411 202.264 337.688 201.34 337.897 200.383C339.278 194.042 337.62 186.261 337.62 186.261L353.254 188.455C346.945 178.032 339.932 126.571 354.18 125.094C357.291 124.771 361.717 129.527 366.407 137.078C367.861 139.417 369.34 142.025 370.812 144.832C372.699 148.43 374.575 152.357 376.375 156.468C388.457 184.055 397.145 220.033 382.603 221.37Z" fill="#2F96FF"/>
<path d="M148.059 159.641C148.059 159.641 144.368 151.667 138.166 156.945C131.964 162.224 130.869 195.655 130.869 195.655L128.316 234.953L145.828 233.78C145.828 233.78 159.734 165.8 148.059 159.641Z" fill="#1C2E40"/>
<path d="M146.133 144.216C143.903 149.352 141.426 156.177 141.654 160.73C141.919 166.009 146.368 186.214 140.61 185.806C134.855 185.399 113.494 141.762 113.494 141.762C113.494 141.762 126.86 138.805 130.159 127.502C130.772 125.403 131.825 124.416 133.132 124.201C138.864 123.261 149.499 137.159 149.499 137.159C149.499 137.159 147.893 140.161 146.133 144.216Z" fill="#FFA88D"/>
<path d="M139.127 228.826C138.287 233.908 137.271 238.958 136.327 243.949C136.196 244.641 136.049 245.359 135.627 245.923C134.957 246.817 133.769 247.113 132.675 247.343C122.328 249.521 110.558 248.544 99.9569 248.441C92.646 248.371 83.7809 249.447 76.7118 247.391C65.9092 244.249 69.8732 227.663 70.7192 219.289C72.3599 203.051 75.5881 186.823 81.3153 171.51C87.2966 155.517 96.7948 148.071 104.959 144.641C106.187 144.126 107.384 143.701 108.534 143.351C115.429 141.256 120.649 141.864 120.649 141.864C125.188 142.884 128.526 146.243 131.072 151.305C131.313 151.787 131.549 152.284 131.777 152.797C136.744 163.937 138.476 182.117 140.585 201.675C141.56 210.711 140.618 219.818 139.127 228.826Z" fill="#F76F83"/>
<path d="M142.981 155.139C142.981 155.139 151.559 156.8 154.51 166.668C159.32 182.752 148.157 220.732 150.209 230.114L152.261 239.496L138.774 241.842C138.774 241.842 147.639 200.99 146.397 172.943C145.748 158.275 142.981 155.139 142.981 155.139Z" fill="#F76F83"/>
<path d="M397.339 246.068V249.636C397.339 250.59 396.335 251.363 395.096 251.363H26.3204C25.0818 251.363 24.0781 250.59 24.0781 249.636V246.068C24.0781 245.114 25.0818 244.342 26.3204 244.342H395.096C396.335 244.342 397.339 245.114 397.339 246.068Z" fill="#B3C1F4"/>
<path d="M149.499 137.159C149.499 137.159 147.893 140.162 146.133 144.217C141.734 140.34 134.72 122.606 134.159 114.592C139.892 113.652 149.499 137.159 149.499 137.159Z" fill="#1C2E40"/>
<path d="M169.543 91.8726C169.543 91.8726 182.173 97.2739 180.373 111.685C178.572 126.096 158.082 134.635 158.082 134.635L169.543 91.8726Z" fill="#1C2E40"/>
<path d="M174.054 96.312C174.495 96.7791 174.92 97.2615 175.326 97.7595C175.424 97.8808 175.522 98.003 175.618 98.1261C175.648 98.1639 175.76 98.3089 175.677 98.2009C175.73 98.2699 175.783 98.339 175.835 98.4085C176.029 98.6656 176.218 98.9263 176.402 99.1906C177.133 100.239 177.786 101.343 178.35 102.49C178.487 102.771 178.619 103.054 178.747 103.339C178.782 103.418 178.817 103.498 178.851 103.577C178.865 103.609 178.88 103.641 178.892 103.673C178.845 103.546 178.875 103.635 178.887 103.662C178.954 103.822 179.019 103.982 179.083 104.143C179.309 104.723 179.514 105.311 179.694 105.907C179.877 106.518 180.035 107.137 180.163 107.761C180.227 108.065 180.283 108.369 180.333 108.675C180.357 108.828 180.385 108.981 180.401 109.135C180.383 108.966 180.409 109.204 180.414 109.244C180.427 109.338 180.437 109.432 180.447 109.526C180.582 110.756 180.605 112.001 180.499 113.234C180.487 113.373 180.473 113.512 180.457 113.65C180.451 113.712 180.443 113.773 180.437 113.835C180.432 113.873 180.427 113.912 180.422 113.95C180.419 113.973 180.417 113.996 180.413 114.019C180.424 113.931 180.427 113.912 180.42 113.962C180.378 114.246 180.335 114.529 180.282 114.811C180.176 115.368 180.044 115.92 179.887 116.465C179.729 117.01 179.547 117.547 179.34 118.075C179.288 118.204 179.228 118.332 179.181 118.463C179.238 118.304 179.173 118.481 179.155 118.523C179.121 118.601 179.087 118.679 179.051 118.757C178.933 119.018 178.809 119.277 178.678 119.533C178.421 120.036 178.141 120.528 177.837 121.004C177.684 121.245 177.524 121.483 177.359 121.716C177.283 121.823 177.207 121.929 177.128 122.034C177.087 122.09 177.045 122.145 177.003 122.201C176.933 122.293 177.009 122.194 177.02 122.179C176.992 122.216 176.964 122.252 176.934 122.289C176.237 123.174 175.449 123.991 174.582 124.712C174.482 124.796 174.381 124.878 174.279 124.958C174.249 124.982 174.218 125.005 174.189 125.029C174.111 125.089 174.315 124.934 174.193 125.025C174.132 125.071 174.071 125.118 174.008 125.163C173.787 125.326 173.56 125.484 173.33 125.634C172.855 125.945 172.361 126.228 171.854 126.48C171.604 126.604 171.352 126.719 171.096 126.828C170.783 126.961 170.69 127.447 170.863 127.715C171.073 128.041 171.416 128.091 171.751 127.948C173.904 127.032 175.822 125.576 177.352 123.811C178.919 122.003 180.107 119.895 180.879 117.632C181.669 115.314 181.979 112.843 181.822 110.401C181.649 107.745 180.961 105.162 179.888 102.732C178.823 100.319 177.359 98.0868 175.62 96.1061C175.408 95.865 175.192 95.6281 174.972 95.3947C174.738 95.1474 174.286 95.1416 174.054 95.3947C173.811 95.6598 173.805 96.0482 174.054 96.312Z" fill="#1C2E40"/>
<path d="M176.349 112.652C176.69 126.295 167.584 139.301 160.813 141.676C154.033 144.055 145.666 136.047 142.017 132.038C141.512 131.484 140.572 130.185 139.659 128.736C139.54 128.547 139.421 128.356 139.304 128.162C138.968 127.611 138.646 127.049 138.358 126.507C137.68 125.226 137.202 124.056 137.24 123.4C137.247 123.283 137.254 123.166 137.262 123.051C137.379 121.161 137.542 119.361 137.748 117.648C141.628 85.3972 160.637 84.1158 170.438 96.1231C171.173 97.0213 171.855 97.9947 172.475 99.0355C174.106 101.772 175.511 105.743 175.996 108.77C176.202 110.054 176.317 111.352 176.349 112.652Z" fill="#FFA88D"/>
<path d="M173.244 108.238C168.725 112.758 158.276 121.017 143.076 119.906C136.04 119.391 143.426 161.904 113.92 150.599C102.215 146.113 92.5847 158.318 86.5273 166.497C80.7327 174.32 75.1223 184.915 68.194 191.626C64.0904 195.602 59.2167 195.259 54.4785 191.096C46.7103 184.272 46.0119 169.543 51.9884 161.447C57.2557 154.312 69.4316 154.318 70.6224 144.078C71.0162 140.689 69.7128 137.254 70.2202 133.878C71.2458 127.059 78.9336 123.467 85.7597 122.489C92.5857 121.512 100.02 121.786 105.688 117.858C113.176 112.668 114.458 102.897 119.201 95.71C123.152 89.7218 128.283 85.0766 135.069 82.5731C148.78 77.5152 166.087 81.2233 172.849 95.1696C173.798 97.1301 174.566 99.305 175.116 101.704C175.655 104.062 174.954 106.528 173.244 108.238Z" fill="#1C2E40"/>
<path d="M165.954 137.133C165.002 135.979 162.633 132.765 161.56 131.301C161.321 130.974 160.812 131.058 160.691 131.445C160.277 132.756 159.766 135.243 161.07 136.98C162.456 138.824 164.732 138.225 165.783 137.81C166.056 137.703 166.141 137.358 165.954 137.133Z" fill="#FFF4F3"/>
<path d="M170.077 123.481C169.648 124.629 168.752 125.354 168.077 125.101C167.403 124.849 167.203 123.714 167.633 122.567C168.062 121.419 168.957 120.694 169.633 120.947C170.307 121.199 170.506 122.334 170.077 123.481Z" fill="#1C2E40"/>
<path d="M173.538 125.179C173.538 125.179 172.743 130.247 172.813 134.208C172.845 135.959 167.938 134.149 167.938 134.149" fill="#FFA88D"/>
<path d="M124.418 224.102C126.207 224.147 127.998 224.075 129.779 223.887C131.599 223.694 133.407 223.389 135.188 222.964C136.17 222.729 137.144 222.458 138.107 222.151C138.429 222.049 138.671 221.695 138.561 221.353C138.455 221.03 138.109 220.79 137.763 220.9C136.072 221.438 134.35 221.867 132.606 222.183C132.168 222.262 131.729 222.334 131.288 222.399C131.178 222.416 131.067 222.431 130.957 222.446C130.906 222.454 130.855 222.463 130.805 222.468C130.81 222.468 130.925 222.451 130.849 222.462C130.816 222.467 130.782 222.47 130.747 222.476C130.527 222.504 130.306 222.53 130.084 222.556C129.2 222.656 128.311 222.728 127.422 222.771C126.422 222.819 125.419 222.829 124.418 222.805C124.078 222.796 123.754 223.109 123.769 223.454C123.785 223.812 124.054 224.093 124.418 224.102Z" fill="#1C2E40"/>
<path d="M129.635 85.0603C125.802 86.6603 122.319 89.0262 119.439 92.0242C117.998 93.5244 116.707 95.1779 115.606 96.9432C114.481 98.7477 113.597 100.682 112.735 102.621C111.048 106.414 109.34 110.292 106.033 112.966C102.99 115.425 99.1201 116.592 95.3444 117.348C91.482 118.122 87.5393 118.408 83.6807 119.191C80.1336 119.911 76.5817 121.072 73.4964 122.999C70.5755 124.822 68.1154 127.419 67.0601 130.752C66.4153 132.788 66.3889 134.948 66.4713 137.064C66.5547 139.204 66.7837 141.402 66.4247 143.53C66.1434 145.198 65.5176 146.724 64.2735 147.844C63.1748 148.834 61.8263 149.539 60.5098 150.192C57.7167 151.576 54.5563 152.648 52.2223 154.789C51.74 155.23 51.3097 155.737 50.9701 156.298C50.5362 157.014 51.6575 157.666 52.0901 156.952C52.7522 155.86 53.8652 155.046 54.9787 154.378C56.3509 153.553 57.8146 152.891 59.2637 152.217C60.7007 151.547 62.1497 150.879 63.4916 150.029C64.6766 149.279 65.8301 148.362 66.5418 147.13C68.7679 143.278 67.5703 138.637 67.7548 134.443C67.836 132.6 68.242 130.802 69.1338 129.178C69.9252 127.736 71.0213 126.502 72.2829 125.454C74.9757 123.218 78.3574 121.874 81.7081 120.984C85.4302 119.994 89.2807 119.674 93.0738 119.066C96.9518 118.444 100.889 117.576 104.35 115.645C106.056 114.693 107.626 113.469 108.914 111.996C110.302 110.406 111.371 108.577 112.295 106.687C113.226 104.781 114.026 102.814 114.94 100.9C115.844 99.009 116.89 97.1992 118.15 95.5218C120.592 92.2734 123.754 89.5586 127.312 87.6027C128.178 87.1269 129.069 86.6916 129.98 86.3111C130.303 86.1763 130.534 85.8817 130.433 85.5134C130.349 85.2084 129.961 84.9245 129.635 85.0603Z" fill="#1C2E40"/>
<path d="M167.028 119.069C166.861 119.141 167.023 119.072 167.06 119.058C167.108 119.039 167.158 119.021 167.206 119.004C167.29 118.974 167.375 118.946 167.462 118.921C167.648 118.866 167.836 118.821 168.027 118.787C168.063 118.78 168.171 118.743 168.203 118.758C168.175 118.762 168.147 118.765 168.119 118.769C168.149 118.765 168.178 118.762 168.208 118.758C168.297 118.748 168.386 118.741 168.475 118.735C168.676 118.722 168.878 118.721 169.08 118.73C169.176 118.735 169.273 118.742 169.368 118.751C169.413 118.756 169.459 118.765 169.502 118.766C169.318 118.76 169.483 118.764 169.529 118.772C169.721 118.803 169.911 118.844 170.096 118.895C170.284 118.946 170.468 119.008 170.648 119.079C170.805 119.141 170.558 119.036 170.678 119.091C170.719 119.11 170.76 119.128 170.8 119.147C170.894 119.192 170.987 119.24 171.079 119.29C171.377 119.452 171.799 119.373 171.966 119.057C172.126 118.754 172.051 118.343 171.734 118.17C170.916 117.723 170.009 117.476 169.08 117.433C168.144 117.389 167.229 117.581 166.374 117.949C166.235 118.009 166.114 118.198 166.076 118.337C166.033 118.492 166.052 118.699 166.141 118.836C166.23 118.975 166.364 119.097 166.529 119.135C166.71 119.176 166.859 119.142 167.028 119.069Z" fill="#1C2E40"/>
<path d="M144.58 226.516C145.818 226.033 147.072 225.473 148.402 225.465C149.37 225.459 150.314 225.75 151.24 226.036C153.29 226.673 155.339 227.309 157.39 227.947C158.874 228.407 160.363 228.869 161.782 229.505C164.101 230.542 166.193 232.022 168.209 233.57C169.88 234.853 171.512 236.189 173.103 237.571C173.616 238.015 174.164 238.55 174.17 239.227C174.178 239.905 173.218 240.487 172.807 239.947C172.594 240.971 171.465 241.601 170.421 241.571C169.376 241.542 168.416 241.007 167.551 240.421C165.415 238.971 163.509 237.082 161.066 236.246C159.259 235.629 157.304 235.643 155.394 235.663C158.287 237.132 161.122 238.711 163.894 240.399C164.148 240.554 164.411 240.72 164.564 240.976C164.899 241.541 164.51 242.316 163.921 242.609C163.333 242.901 162.636 242.835 161.989 242.714C157.873 241.943 154.138 239.251 149.952 239.364C148.497 239.404 147.078 239.786 145.651 240.069C143.92 240.412 142.163 240.612 140.409 240.81C137.419 241.149 134.273 241.467 131.502 240.292C130.507 239.871 129.578 239.263 128.522 239.036C126.193 238.538 123.913 239.984 121.545 240.229C121.161 236.624 120.777 233.02 120.394 229.414C126.647 228.689 132.97 229.535 139.15 228.166C140.999 227.756 142.816 227.205 144.58 226.516Z" fill="#FFA88D"/>
<path d="M172.199 239.772C170.777 238.829 169.354 237.887 167.931 236.944C166.507 236.001 165.084 235.057 163.661 234.114C162.984 233.666 162.312 233.207 161.619 232.783C161.285 232.577 160.943 232.382 160.593 232.204C160.422 232.117 160.247 232.035 160.072 231.958C160.054 231.951 159.971 231.916 160.041 231.944C160.107 231.971 160.042 231.944 160.031 231.941C159.986 231.923 159.943 231.905 159.899 231.887C159.807 231.851 159.714 231.816 159.621 231.783C158.916 231.532 158.183 231.369 157.443 231.255C157.352 231.241 157.261 231.227 157.17 231.214C157.149 231.211 157.13 231.209 157.111 231.206C157.048 231.197 157.157 231.213 157.158 231.213C157.105 231.207 157.053 231.199 157.001 231.192C156.81 231.168 156.619 231.146 156.428 231.127C156.051 231.088 155.674 231.055 155.296 231.023C153.764 230.893 152.206 230.781 150.726 230.333C150.55 230.28 150.375 230.221 150.202 230.157C149.933 230.061 149.723 229.782 149.82 229.485C149.905 229.222 150.204 228.998 150.493 229.102C151.198 229.359 151.931 229.53 152.672 229.65C152.762 229.664 152.854 229.678 152.946 229.692C152.991 229.698 153.037 229.704 153.083 229.711C153.147 229.72 153.037 229.704 153.036 229.704C153.069 229.708 153.102 229.713 153.134 229.717C153.325 229.743 153.516 229.764 153.707 229.785C154.083 229.824 154.461 229.858 154.839 229.89C156.377 230.021 157.939 230.128 159.425 230.57C160.198 230.799 160.936 231.129 161.637 231.523C162.329 231.913 162.989 232.358 163.651 232.797C165.08 233.744 166.509 234.691 167.94 235.639C169.369 236.586 170.798 237.533 172.227 238.48C172.403 238.596 172.577 238.711 172.752 238.827C172.991 238.985 173.115 239.317 172.949 239.576C172.795 239.814 172.455 239.941 172.199 239.772Z" fill="#1C2E40"/>
<path d="M148.429 226.307C149.947 225.39 151.854 225.353 153.591 225.706C155.328 226.06 156.971 226.768 158.673 227.268C159.727 227.579 160.814 227.813 161.791 228.316C162.729 228.798 163.528 229.508 164.316 230.211C166.088 231.791 167.859 233.372 169.632 234.954C166.713 233.349 163.891 231.897 160.971 230.292C160.078 229.801 159.185 229.31 158.262 228.878C155.15 227.422 151.843 226.693 148.429 226.307Z" fill="#F7B889"/>
<path d="M155.057 235.967C153.223 235.698 151.411 235.287 149.642 234.735C149.143 234.578 148.648 234.412 148.157 234.235C147.888 234.137 147.678 233.858 147.773 233.562C147.86 233.297 148.159 233.075 148.447 233.18C150.19 233.81 151.982 234.302 153.804 234.651C154.317 234.75 154.832 234.837 155.349 234.912C155.475 234.931 155.615 235.06 155.676 235.164C155.745 235.281 155.773 235.454 155.731 235.585C155.687 235.718 155.606 235.845 155.48 235.912C155.34 235.986 155.211 235.99 155.057 235.967Z" fill="#1C2E40"/>
<path d="M164.696 231.589C163.898 231.131 163.072 230.718 162.228 230.349C162.124 230.303 162.019 230.258 161.914 230.213C161.889 230.203 161.819 230.17 161.934 230.221C161.908 230.211 161.884 230.2 161.859 230.19C161.796 230.165 161.735 230.139 161.673 230.114C161.462 230.027 161.249 229.943 161.035 229.861C160.609 229.698 160.179 229.542 159.745 229.395C157.991 228.8 156.195 228.332 154.392 227.913C153.377 227.677 152.359 227.455 151.341 227.235C151.061 227.175 150.871 226.833 150.959 226.562C151.055 226.268 151.332 226.115 151.631 226.18C153.458 226.576 155.284 226.973 157.089 227.455C158.912 227.943 160.708 228.523 162.448 229.26C163.408 229.667 164.344 230.125 165.248 230.645C165.498 230.787 165.604 231.146 165.445 231.393C165.284 231.644 164.962 231.742 164.696 231.589Z" fill="#1C2E40"/>
<path d="M125.633 228.37C125.633 228.37 125.206 231.157 124.389 233.624C124.388 233.624 124.388 233.625 124.388 233.625C122.861 238.239 119.969 244.76 115.958 244.188C109.801 243.308 62.0109 248.585 49.9901 242.427C37.9693 236.271 58.7864 204.313 78.4293 175.581C98.0732 146.848 110.094 149.781 110.094 149.781C110.445 149.795 110.79 149.828 111.131 149.877C117.634 150.823 122.233 158.178 118.89 172.942C115.372 188.482 79.2778 224.006 84.2935 224.544C92.5033 225.424 125.633 228.37 125.633 228.37Z" fill="#F76F83"/>
<path d="M112.06 186.103C110.052 189.176 107.847 192.121 105.587 194.985C103.295 197.888 100.933 200.735 98.613 203.615C97.4917 205.007 96.4137 206.439 95.2519 207.797C94.1166 209.125 92.9183 210.396 91.7459 211.692C90.5684 212.991 89.4158 214.316 88.3788 215.733C87.5152 216.912 86.7041 218.167 86.1894 219.543C85.8729 220.388 85.6834 221.378 85.9808 222.258C86.2576 223.075 86.8743 223.682 87.6127 224.105C88.4773 224.597 89.4594 224.886 90.4191 225.128C91.6357 225.436 92.8702 225.669 94.0994 225.919C96.4551 226.399 98.7879 226.985 101.148 227.444C103.015 227.808 104.894 228.101 106.783 228.32C108.833 228.557 110.893 228.707 112.952 228.835C115.85 229.015 118.75 229.157 121.649 229.31C122.552 229.358 123.456 229.405 124.359 229.455C124.699 229.473 125.023 229.143 125.008 228.806C124.992 228.439 124.723 228.177 124.359 228.158C121.178 227.986 117.995 227.829 114.813 227.648C112.629 227.524 110.444 227.389 108.266 227.179C107.804 227.135 107.342 227.087 106.881 227.033C106.652 227.008 106.424 226.981 106.196 226.952C105.975 226.925 105.733 226.92 105.517 226.865C105.526 226.868 105.684 226.888 105.574 226.873C105.548 226.869 105.522 226.865 105.497 226.861C105.445 226.855 105.394 226.847 105.342 226.841C105.227 226.824 105.111 226.808 104.995 226.791C104.77 226.758 104.544 226.725 104.319 226.689C103.869 226.619 103.419 226.546 102.97 226.467C100.889 226.103 98.8289 225.639 96.77 225.167C95.4229 224.858 94.0661 224.596 92.713 224.316C91.6241 224.089 90.5281 223.859 89.4725 223.505C89.3623 223.467 89.2526 223.429 89.1438 223.388C89.0879 223.368 89.0322 223.346 88.9767 223.324C88.9475 223.313 88.7739 223.244 88.8746 223.285C88.9806 223.327 88.8005 223.252 88.7785 223.242C88.7336 223.221 88.6889 223.201 88.6445 223.179C88.5478 223.133 88.4521 223.085 88.3581 223.034C88.1914 222.944 88.0332 222.842 87.8774 222.734C87.7425 222.64 87.9768 222.82 87.8708 222.73C87.8395 222.703 87.8072 222.678 87.776 222.651C87.7079 222.591 87.6424 222.53 87.5801 222.464C87.5498 222.432 87.5202 222.4 87.4914 222.366C87.4452 222.313 87.411 222.221 87.5016 222.385C87.4609 222.311 87.4011 222.245 87.3574 222.173C87.3185 222.106 87.2849 222.039 87.2513 221.97C87.1843 221.834 87.2922 222.091 87.2611 221.994C87.2463 221.949 87.2281 221.904 87.2138 221.858C87.1893 221.778 87.1692 221.697 87.1534 221.614C87.1484 221.588 87.125 221.432 87.1433 221.565C87.1618 221.7 87.14 221.513 87.1379 221.481C87.1317 221.39 87.1305 221.297 87.1333 221.205C87.1347 221.157 87.1205 220.92 87.1575 220.893C87.1582 220.893 87.1287 221.072 87.1492 220.958C87.1535 220.934 87.1568 220.91 87.1609 220.886C87.1694 220.836 87.179 220.787 87.1891 220.737C87.2135 220.619 87.2426 220.503 87.2753 220.387C87.3468 220.134 87.4411 219.891 87.5355 219.646C87.5685 219.56 87.488 219.751 87.5272 219.665C87.5412 219.636 87.5538 219.604 87.5674 219.574C87.5987 219.504 87.6309 219.434 87.6639 219.364C87.7336 219.216 87.8069 219.07 87.8828 218.926C88.0423 218.622 88.2134 218.324 88.3923 218.031C89.2729 216.589 90.2544 215.357 91.3507 214.087C92.4815 212.777 93.6685 211.519 94.8282 210.234C95.9791 208.96 97.0566 207.638 98.1229 206.293C100.395 203.427 102.732 200.613 105.023 197.76C107.325 194.895 109.587 191.992 111.686 188.973C112.194 188.242 112.693 187.503 113.18 186.758C113.372 186.464 113.239 186.041 112.947 185.871C112.631 185.686 112.252 185.808 112.06 186.103Z" fill="#1C2E40"/>
<path d="M70.3287 227.632C70.5024 227.455 70.6832 227.286 70.8719 227.124C70.9575 227.052 71.045 226.98 71.1332 226.91C71.2192 226.843 71.1058 226.934 71.0959 226.94C71.1234 226.927 71.1503 226.899 71.1748 226.88C71.2276 226.842 71.2808 226.802 71.3344 226.764C71.7246 226.488 72.1377 226.246 72.5662 226.035C72.6663 225.985 72.767 225.938 72.8685 225.891C72.9224 225.867 72.9764 225.844 73.0307 225.82C73.0658 225.804 73.1443 225.775 72.9846 225.839C73.0212 225.825 73.0575 225.808 73.0942 225.794C73.3145 225.704 73.5378 225.622 73.7634 225.547C74.2269 225.392 74.6996 225.265 75.1771 225.16C75.4158 225.108 75.6558 225.061 75.8966 225.019C76.011 225 76.1257 224.981 76.2405 224.963C76.3014 224.954 76.3624 224.945 76.4235 224.936C76.4575 224.931 76.4915 224.926 76.5253 224.922C76.6537 224.903 76.3774 224.94 76.5164 224.924C77.0105 224.861 77.5057 224.812 78.0024 224.778C79.0042 224.711 80.0086 224.696 81.0124 224.7C81.2643 224.701 81.5162 224.702 81.7681 224.706C81.8299 224.706 81.8913 224.708 81.953 224.712C82.0871 224.719 81.9158 224.708 81.9174 224.706C81.9106 224.715 82.0869 224.733 81.9698 224.712C81.8915 224.698 81.9563 224.712 81.9885 224.728C82.0607 224.759 81.8673 224.613 81.9452 224.694C81.9909 224.742 81.9461 224.726 81.902 224.63C81.9035 224.633 81.9497 224.701 81.9451 224.703C81.939 224.707 81.8834 224.535 81.9088 224.628C81.9345 224.721 81.8936 224.54 81.9014 224.54C81.91 224.54 81.902 224.664 81.902 224.674C81.9016 224.754 81.9418 224.496 81.9082 224.61C81.9022 224.631 81.8981 224.652 81.8923 224.674C81.8862 224.694 81.8779 224.716 81.8719 224.738C81.8388 224.856 81.9427 224.598 81.8849 224.711C81.8348 224.809 81.7798 224.901 81.7188 224.994C81.6865 225.042 81.6599 225.025 81.7529 224.95C81.7364 224.964 81.7184 224.992 81.7054 225.008C81.6656 225.055 81.6236 225.099 81.5797 225.141C81.5415 225.178 81.4985 225.211 81.4603 225.247C81.399 225.307 81.5983 225.145 81.4878 225.225C81.4664 225.242 81.4454 225.257 81.4242 225.274C81.328 225.345 81.2308 225.414 81.1331 225.482C80.9301 225.626 80.7242 225.764 80.5172 225.901C80.1075 226.172 79.6939 226.437 79.2907 226.718C78.4497 227.304 77.6536 227.955 77.0745 228.81C76.9401 229.01 76.821 229.219 76.7218 229.438C76.59 229.728 76.4736 230.045 76.5074 230.371C76.5551 230.832 76.8119 231.22 77.2627 231.371C77.5609 231.47 77.8986 231.428 78.185 231.31C78.4851 231.188 78.7451 231.017 79.0173 230.843C79.2892 230.669 79.5612 230.494 79.8331 230.32C80.3846 229.967 80.9361 229.614 81.4874 229.26C82.5829 228.558 83.6783 227.856 84.7736 227.153C85.0456 226.98 85.3176 226.806 85.5894 226.632C85.8748 226.448 86.0173 226.046 85.8221 225.743C85.6382 225.458 85.2403 225.316 84.9347 225.512C82.7288 226.924 80.5231 228.338 78.3172 229.752C78.1953 229.83 78.0745 229.91 77.9509 229.986C77.9 230.017 77.8481 230.046 77.7949 230.073C77.7718 230.086 77.7431 230.095 77.7221 230.109C77.8458 230.028 77.7898 230.082 77.7282 230.102C77.686 230.116 77.6145 230.119 77.5786 230.14C77.6523 230.095 77.7202 230.126 77.6232 230.129C77.5648 230.132 77.4988 230.101 77.6736 230.14C77.6215 230.128 77.6023 230.098 77.731 230.171C77.6723 230.138 77.7181 230.142 77.7731 230.214C77.7731 230.214 77.7259 230.163 77.7198 230.162C77.7812 230.245 77.7951 230.259 77.7614 230.2C77.7744 230.23 77.7875 230.259 77.8005 230.288C77.7689 230.19 77.8063 230.338 77.8021 230.353C77.8091 230.329 77.7984 230.286 77.7992 230.259C77.8022 230.151 77.8355 230.244 77.7903 230.294C77.7979 230.287 77.8056 230.223 77.807 230.217C77.8198 230.165 77.8384 230.115 77.8546 230.064C77.8955 229.934 77.8024 230.174 77.842 230.092C77.8593 230.056 77.8752 230.021 77.8925 229.985C77.9951 229.776 78.1151 229.577 78.2494 229.387C78.2827 229.34 78.3183 229.294 78.3518 229.247C78.2407 229.404 78.3386 229.266 78.3696 229.228C78.4513 229.129 78.5366 229.033 78.6249 228.94C78.7852 228.771 78.9555 228.611 79.1319 228.459C79.2213 228.382 79.3122 228.308 79.4046 228.234C79.4416 228.205 79.582 228.103 79.4292 228.214C79.4828 228.174 79.5348 228.133 79.588 228.094C79.7813 227.951 79.9785 227.814 80.1775 227.679C80.59 227.399 81.0104 227.132 81.4237 226.853C81.6231 226.719 81.8208 226.582 82.0148 226.441C82.2297 226.283 82.4485 226.128 82.6227 225.925C82.9966 225.49 83.3219 224.889 83.1631 224.297C83.0773 223.978 82.8503 223.695 82.5476 223.558C82.2205 223.409 81.8762 223.409 81.5241 223.405C79.4744 223.386 77.4128 223.428 75.3908 223.797C73.4085 224.159 71.4833 224.898 69.9395 226.22C69.7562 226.377 69.5806 226.542 69.4114 226.714C69.1733 226.956 69.1516 227.393 69.4114 227.632C69.6685 227.867 70.0746 227.89 70.3287 227.632Z" fill="#1C2E40"/>
<path d="M186.973 240.069H134.138C132.665 240.069 131.472 241.263 131.472 242.736C131.472 244.208 132.665 245.402 134.138 245.402H186.973C188.445 245.402 189.639 244.208 189.639 242.736C189.639 241.263 188.445 240.069 186.973 240.069Z" fill="#1C2E40"/>
<path d="M261.37 245.402H181.14C178.97 245.402 177.433 243.283 178.109 241.222L196.361 185.463C196.79 184.152 198.012 183.267 199.392 183.267H279.622C281.792 183.267 283.328 185.386 282.652 187.446L264.4 243.206C263.971 244.517 262.749 245.402 261.37 245.402Z" fill="#1C2E40"/>
<path d="M264.748 245.402H183.353C181.56 245.402 180.291 243.651 180.848 241.947L199.463 185.082C199.817 183.998 200.828 183.267 201.968 183.267H283.363C285.155 183.267 286.425 185.018 285.868 186.722L267.253 243.586C266.898 244.669 265.887 245.402 264.748 245.402Z" fill="#1C2E40"/>
<path d="M229.447 214.02C229.447 217.064 231.916 219.533 234.962 219.533C238.008 219.533 240.475 217.064 240.475 214.02C240.475 210.974 238.008 208.505 234.962 208.505C231.916 208.505 229.447 210.974 229.447 214.02Z" fill="#FFFEFB"/>
<path d="M280.408 102.12C280.679 102.488 280.919 102.878 281.126 103.284C281.23 103.486 281.325 103.693 281.415 103.901C281.443 103.964 281.406 103.88 281.403 103.873C281.412 103.896 281.423 103.919 281.431 103.943C281.453 103.997 281.476 104.052 281.496 104.107C281.54 104.217 281.58 104.328 281.621 104.439C281.929 105.302 282.149 106.193 282.354 107.084C282.564 107.994 282.759 108.909 283.011 109.809C283.137 110.255 283.276 110.698 283.439 111.131C283.633 111.649 283.917 112.172 284.499 112.317C285.126 112.474 285.839 112.164 286.407 111.919C286.955 111.682 287.449 111.36 287.913 110.987C288.16 110.788 288.136 110.337 287.913 110.133C287.651 109.892 287.323 109.921 287.059 110.133C287.034 110.153 286.93 110.231 287.009 110.174C286.964 110.206 286.919 110.24 286.875 110.271C286.769 110.345 286.662 110.416 286.553 110.483C286.358 110.603 286.156 110.712 285.947 110.808C285.924 110.819 285.797 110.876 285.844 110.856C285.904 110.83 285.82 110.866 285.813 110.868C285.788 110.878 285.763 110.888 285.737 110.898C285.617 110.945 285.497 110.987 285.374 111.026C285.269 111.059 285.163 111.089 285.057 111.116C285.004 111.129 284.951 111.138 284.897 111.15C284.828 111.166 284.912 111.147 284.924 111.147C284.888 111.147 284.853 111.15 284.817 111.15C284.693 111.152 284.888 111.146 284.769 111.138C284.783 111.14 284.847 111.187 284.803 111.151C284.799 111.148 284.746 111.117 284.746 111.116C284.755 111.104 284.826 111.197 284.784 111.139C284.772 111.123 284.701 111.058 284.757 111.117C284.808 111.17 284.761 111.121 284.751 111.106C284.735 111.08 284.719 111.054 284.704 111.027C284.681 110.987 284.66 110.945 284.64 110.904C284.588 110.799 284.669 110.985 284.629 110.877C284.59 110.774 284.552 110.672 284.515 110.569C284.369 110.156 284.242 109.736 284.127 109.313C283.665 107.612 283.395 105.857 282.81 104.19C282.478 103.242 282.049 102.322 281.451 101.511C281.265 101.257 280.919 101.105 280.625 101.294C280.374 101.456 280.208 101.848 280.408 102.12Z" fill="#1C2E40"/>
<path d="M303.47 88.5592C303.498 88.7617 303.474 88.5595 303.471 88.517C303.468 88.4589 303.465 88.4008 303.465 88.3426C303.464 88.2204 303.47 88.0981 303.482 87.9766C303.485 87.9417 303.491 87.9068 303.493 87.8719C303.499 87.7873 303.474 87.9898 303.489 87.9058C303.501 87.8422 303.511 87.7781 303.524 87.7146C303.549 87.586 303.582 87.4583 303.619 87.3326C303.638 87.2694 303.659 87.2067 303.681 87.1446C303.697 87.1002 303.754 87.0083 303.751 86.9603C303.751 86.9738 303.694 87.0867 303.743 86.9845C303.754 86.9582 303.767 86.9319 303.779 86.9059C303.81 86.8415 303.843 86.778 303.877 86.7157C303.923 86.6347 304.001 86.447 304.082 86.4003C304.076 86.4041 303.991 86.5099 304.063 86.4266C304.081 86.4065 304.098 86.3856 304.115 86.3657C304.159 86.3165 304.205 86.2692 304.253 86.2244C304.276 86.2033 304.305 86.1838 304.325 86.1604C304.375 86.1026 304.227 86.2206 304.294 86.1838C304.351 86.1517 304.403 86.1081 304.462 86.076C304.474 86.0686 304.537 86.0308 304.544 86.0337C304.524 86.0265 304.445 86.0686 304.529 86.0424C304.602 86.0194 304.674 86.0017 304.749 85.9832C304.891 85.948 304.655 85.9851 304.745 85.9831C304.776 85.9823 304.807 85.9784 304.837 85.9774C304.906 85.9748 304.976 85.9763 305.045 85.9813C305.057 85.9823 305.134 85.985 305.136 85.9903C305.132 85.9827 305.02 85.9695 305.115 85.9898C305.192 86.0065 305.27 86.0224 305.346 86.0442C305.415 86.064 305.484 86.0866 305.551 86.1116C305.583 86.1232 305.685 86.1666 305.564 86.1135C305.593 86.1265 305.622 86.1398 305.652 86.1534C305.781 86.2146 305.909 86.2843 306.03 86.3612C306.089 86.3989 306.148 86.4383 306.205 86.4793C306.233 86.4994 306.32 86.5661 306.213 86.4815C306.236 86.5001 306.26 86.5189 306.283 86.5381C306.394 86.6295 306.497 86.7285 306.596 86.8325C306.657 86.8964 306.716 86.9621 306.772 87.0295C306.769 87.0258 306.879 87.1599 306.824 87.0919C306.777 87.0327 306.865 87.1457 306.872 87.1573C306.975 87.3001 307.071 87.4489 307.159 87.602C307.251 87.7633 307.334 87.9293 307.411 88.099C307.417 88.1145 307.461 88.2174 307.432 88.1489C307.405 88.084 307.465 88.2324 307.472 88.2492C307.507 88.3399 307.539 88.4316 307.571 88.5236C307.671 88.8222 307.991 89.0498 308.313 88.9454C308.609 88.8494 308.844 88.5229 308.735 88.2027C308.244 86.7569 307.297 85.4339 305.804 84.9228C305.123 84.6901 304.301 84.698 303.699 85.1298C303.134 85.5342 302.778 86.1191 302.539 86.7616C302.288 87.4381 302.209 88.1671 302.306 88.8802C302.349 89.1943 302.766 89.3931 303.049 89.302C303.394 89.1902 303.516 88.8958 303.47 88.5592Z" fill="#1C2E40"/>
<path d="M337.203 187.071C338.761 186.998 340.343 186.864 341.902 186.976C342.414 187.013 342.922 187.082 343.43 187.148C343.669 187.178 343.907 187.209 344.146 187.239C344.301 187.26 344.458 187.281 344.615 187.302C344.659 187.308 344.704 187.313 344.748 187.32C344.819 187.33 344.77 187.322 344.755 187.321C344.855 187.334 344.956 187.348 345.056 187.362C345.724 187.452 346.394 187.547 347.062 187.645C349.722 188.035 352.376 188.478 355.018 188.973C357.661 189.469 360.295 190.016 362.915 190.617C365.537 191.218 368.146 191.871 370.741 192.576C371.067 192.664 371.393 192.753 371.717 192.843C372.021 192.927 372.388 192.739 372.461 192.422C372.533 192.102 372.365 191.769 372.039 191.679C369.437 190.958 366.82 190.29 364.19 189.674C361.561 189.058 358.92 188.496 356.268 187.985C353.617 187.475 350.954 187.018 348.284 186.614C346.918 186.408 345.549 186.216 344.179 186.037C343.537 185.953 342.895 185.861 342.25 185.797C340.893 185.666 339.52 185.758 338.162 185.819C337.842 185.834 337.523 185.848 337.203 185.864C336.889 185.879 336.585 186.131 336.6 186.467C336.614 186.781 336.866 187.087 337.203 187.071Z" fill="#286BAF"/>
<path d="M358.997 187.754C358.824 187.548 358.653 187.34 358.485 187.13C358.407 187.034 358.33 186.936 358.252 186.838C358.219 186.794 358.186 186.752 358.153 186.71C358.131 186.682 358.108 186.654 358.087 186.626C358.018 186.539 358.108 186.654 358.066 186.6C357.753 186.19 357.445 185.775 357.145 185.354C356.543 184.506 355.971 183.637 355.429 182.75C354.344 180.973 353.378 179.125 352.503 177.235C352.283 176.756 352.068 176.275 351.858 175.792C351.808 175.676 351.759 175.561 351.709 175.446C351.685 175.388 351.661 175.331 351.635 175.274C351.628 175.253 351.591 175.167 351.634 175.269C351.62 175.236 351.606 175.202 351.592 175.169C351.488 174.922 351.386 174.673 351.284 174.425C350.888 173.451 350.511 172.469 350.153 171.481C349.43 169.497 348.773 167.49 348.152 165.471C347.532 163.456 346.949 161.429 346.371 159.402C346.3 159.151 346.23 158.9 346.159 158.651C346.072 158.346 345.727 158.128 345.415 158.229C345.106 158.329 344.901 158.646 344.994 158.971C345.575 161.015 346.157 163.059 346.775 165.093C347.392 167.131 348.044 169.16 348.759 171.167C349.478 173.185 350.265 175.181 351.139 177.137C351.998 179.055 352.949 180.934 354.017 182.743C355.101 184.581 356.311 186.343 357.649 188.006C357.812 188.208 357.976 188.408 358.143 188.608C358.345 188.851 358.789 188.833 358.997 188.608C359.233 188.348 359.213 188.014 358.997 187.754Z" fill="#286BAF"/>
<path d="M321.599 202.468C322.779 202.778 323.94 203.164 325.076 203.609C325.21 203.661 325.343 203.715 325.477 203.768C325.547 203.798 325.617 203.826 325.687 203.855C325.719 203.868 325.751 203.882 325.781 203.894C325.796 203.901 325.954 203.967 325.824 203.912C326.104 204.03 326.383 204.153 326.662 204.277C327.209 204.526 327.753 204.784 328.29 205.054C330.483 206.155 332.586 207.422 334.655 208.738C336.739 210.066 338.791 211.443 340.876 212.769C342.941 214.082 345.043 215.346 347.232 216.442C349.421 217.538 351.703 218.47 354.071 219.096C354.368 219.175 354.664 219.247 354.962 219.316C355.27 219.387 355.63 219.222 355.706 218.895C355.776 218.587 355.613 218.228 355.284 218.151C354.096 217.878 352.927 217.528 351.782 217.112C351.497 217.008 351.213 216.9 350.93 216.79C350.798 216.736 350.664 216.684 350.532 216.629C350.462 216.601 350.392 216.572 350.321 216.543C350.29 216.53 350.26 216.517 350.228 216.503C350.108 216.454 350.317 216.541 350.186 216.485C349.635 216.25 349.089 216.004 348.548 215.746C346.343 214.69 344.231 213.451 342.161 212.153C340.068 210.84 338.016 209.464 335.939 208.127C333.873 206.799 331.78 205.508 329.602 204.372C327.427 203.235 325.16 202.249 322.804 201.55C322.51 201.463 322.216 201.381 321.92 201.303C321.614 201.223 321.25 201.405 321.176 201.724C321.105 202.041 321.272 202.381 321.599 202.468Z" fill="#286BAF"/>
<path d="M267.317 145.836C266.769 149.402 266.723 153.015 267.022 156.608C267.321 160.205 267.935 163.771 268.661 167.304C269.071 169.291 269.517 171.27 269.965 173.248C270.033 173.556 270.406 173.767 270.707 173.669C271.03 173.565 271.203 173.257 271.128 172.927C270.343 169.452 269.562 165.975 268.977 162.461C268.678 160.667 268.46 159.095 268.29 157.283C268.124 155.528 268.033 153.765 268.043 152.001C268.048 151.018 268.085 150.036 268.156 149.057C268.193 148.556 268.24 148.055 268.296 147.556C268.323 147.311 268.355 147.066 268.385 146.822C268.4 146.705 268.365 146.965 268.393 146.769C268.403 146.697 268.413 146.626 268.423 146.555C268.441 146.421 268.462 146.289 268.482 146.156C268.53 145.846 268.403 145.492 268.061 145.414C267.772 145.348 267.37 145.502 267.317 145.836Z" fill="#286BAF"/>
<path d="M344.005 140.968C343.928 139.779 343.951 138.584 344.072 137.399C344.087 137.254 344.103 137.109 344.121 136.965C344.129 136.897 344.138 136.829 344.147 136.76C344.144 136.783 344.13 136.885 344.145 136.768C344.153 136.717 344.161 136.666 344.168 136.617C344.21 136.328 344.257 136.04 344.312 135.754C344.42 135.172 344.553 134.595 344.707 134.024C344.862 133.454 345.039 132.889 345.239 132.331C345.339 132.049 345.446 131.769 345.558 131.49C345.584 131.426 345.61 131.363 345.636 131.299C345.647 131.271 345.693 131.164 345.645 131.277C345.657 131.246 345.671 131.215 345.685 131.183C345.745 131.041 345.808 130.899 345.871 130.759C346.36 129.683 346.934 128.643 347.587 127.658C347.771 127.379 347.962 127.105 348.16 126.835C348.256 126.704 348.354 126.574 348.452 126.444C348.522 126.353 348.466 126.426 348.452 126.444C348.484 126.404 348.516 126.363 348.548 126.323C348.601 126.256 348.655 126.189 348.708 126.122C349.128 125.602 349.575 125.103 350.042 124.625C350.263 124.399 350.284 123.994 350.042 123.771C349.803 123.552 349.423 123.53 349.188 123.771C347.475 125.522 346.055 127.565 345.002 129.777C343.929 132.033 343.229 134.435 342.92 136.914C342.752 138.258 342.71 139.616 342.798 140.968C342.818 141.282 343.061 141.587 343.402 141.571C343.711 141.557 344.027 141.305 344.005 140.968Z" fill="#286BAF"/>
<path d="M293.133 220.428C294.612 222.16 296.21 223.79 297.898 225.32C299.61 226.869 301.416 228.316 303.283 229.674C305.126 231.014 307.033 232.264 308.984 233.443C310.95 234.63 312.962 235.742 315.001 236.799C317.033 237.851 319.093 238.848 321.169 239.806C321.429 239.926 321.69 240.044 321.949 240.164C322.051 239.788 322.153 239.413 322.255 239.039C321.244 238.945 320.235 238.833 319.229 238.701C319.178 238.695 319.128 238.689 319.077 238.682C319.073 238.681 318.873 238.654 318.993 238.671C318.872 238.654 318.75 238.638 318.627 238.621C318.364 238.584 318.1 238.546 317.836 238.507C317.329 238.43 316.824 238.35 316.317 238.265C314.337 237.931 312.368 237.525 310.417 237.048C309.321 236.781 308.232 236.491 307.149 236.179C306.844 236.091 306.478 236.285 306.405 236.6C306.332 236.922 306.502 237.249 306.827 237.342C310.729 238.466 314.71 239.301 318.733 239.843C319.904 240.001 321.077 240.137 322.255 240.245C322.505 240.269 322.782 240.043 322.836 239.802C322.892 239.559 322.806 239.233 322.559 239.12C320.479 238.172 318.415 237.188 316.378 236.151C314.338 235.111 312.326 234.019 310.355 232.855C308.392 231.695 306.47 230.464 304.61 229.146C304.151 228.821 303.698 228.492 303.248 228.156C303.019 227.986 302.792 227.815 302.566 227.641C302.51 227.598 302.452 227.555 302.396 227.512C302.38 227.499 302.306 227.442 302.391 227.508C302.363 227.486 302.335 227.465 302.307 227.443C302.195 227.355 302.083 227.267 301.971 227.179C301.078 226.476 300.202 225.749 299.348 224.998C297.653 223.505 296.044 221.914 294.549 220.221C294.36 220.008 294.173 219.791 293.987 219.574C293.781 219.333 293.342 219.347 293.133 219.574C292.898 219.831 292.914 220.171 293.133 220.428Z" fill="#286BAF"/>
<path d="M283.276 227.716C284.936 229.271 286.653 230.765 288.424 232.195C290.219 233.643 292.067 235.029 293.963 236.341C295.019 237.072 296.09 237.781 297.174 238.467C297.441 238.635 297.851 238.53 298 238.249C298.158 237.951 298.069 237.604 297.784 237.423C295.877 236.218 294.015 234.942 292.202 233.601C291.741 233.26 291.283 232.914 290.828 232.564C290.807 232.547 290.669 232.442 290.742 232.499C290.696 232.463 290.65 232.426 290.604 232.391C290.481 232.295 290.359 232.2 290.237 232.104C290.014 231.93 289.794 231.754 289.573 231.579C288.693 230.874 287.825 230.153 286.971 229.416C286.006 228.584 285.059 227.732 284.13 226.862C283.9 226.646 283.501 226.616 283.276 226.862C283.061 227.096 283.029 227.484 283.276 227.716Z" fill="#286BAF"/>
<path d="M291.894 192.055C295.94 192.346 299.988 192.594 304.038 192.801C305.177 192.86 306.318 192.914 307.457 192.967C307.772 192.981 308.074 192.679 308.06 192.363C308.045 192.024 307.795 191.774 307.457 191.759C303.404 191.574 299.355 191.349 295.309 191.083C294.169 191.008 293.032 190.93 291.894 190.849C291.578 190.826 291.277 191.142 291.291 191.452C291.306 191.798 291.555 192.031 291.894 192.055Z" fill="#1C2E40"/>
<path d="M291.245 186.599C293.405 186.872 295.574 187.068 297.746 187.183C299.92 187.299 302.097 187.334 304.273 187.29C305.508 187.264 306.741 187.213 307.973 187.136C308.287 187.117 308.593 186.872 308.577 186.532C308.563 186.222 308.311 185.908 307.973 185.929C305.802 186.063 303.624 186.12 301.448 186.095C299.272 186.07 297.097 185.966 294.929 185.782C293.698 185.677 292.471 185.546 291.245 185.391C290.931 185.351 290.628 185.696 290.642 185.994C290.659 186.356 290.908 186.555 291.245 186.599Z" fill="#1C2E40"/>
<path d="M293.071 181.023C297.175 181.317 301.293 181.419 305.406 181.329C306.567 181.303 307.726 181.261 308.886 181.205C309.2 181.19 309.504 180.939 309.489 180.602C309.475 180.288 309.223 179.982 308.886 179.999C304.776 180.197 300.656 180.205 296.545 180.019C295.387 179.967 294.228 179.898 293.071 179.816C292.755 179.794 292.452 180.11 292.466 180.42C292.483 180.766 292.732 180.999 293.071 181.023Z" fill="#1C2E40"/>
<path d="M230.908 90.9312C228.468 90.9312 226.083 91.6401 224.055 92.9683C222.027 94.2965 220.446 96.1843 219.512 98.393C218.579 100.602 218.334 103.032 218.81 105.377C219.286 107.722 220.461 109.876 222.186 111.566C223.911 113.256 226.109 114.408 228.501 114.874C230.894 115.341 233.374 115.101 235.628 114.186C237.881 113.271 239.808 111.722 241.163 109.734C242.518 107.746 243.242 105.409 243.242 103.019C243.242 99.8129 241.942 96.7384 239.629 94.4715C237.316 92.2047 234.179 90.9312 230.908 90.9312Z" fill="#5AC8FA"/>
<path d="M227.954 108.296C227.954 108.387 227.917 108.473 227.852 108.537C227.787 108.601 227.699 108.637 227.606 108.637H224.827C224.735 108.637 224.646 108.601 224.581 108.537C224.516 108.473 224.479 108.387 224.479 108.296V101.827C224.479 101.737 224.516 101.65 224.581 101.586C224.646 101.522 224.735 101.487 224.827 101.487H227.606C227.699 101.487 227.787 101.522 227.852 101.586C227.917 101.65 227.954 101.737 227.954 101.827V108.296ZM237.335 103.189C237.335 103.46 237.225 103.72 237.03 103.911C236.834 104.103 236.569 104.211 236.293 104.211V104.228C236.489 104.267 236.665 104.371 236.792 104.523C236.918 104.675 236.987 104.866 236.987 105.062C236.987 105.258 236.918 105.448 236.792 105.6C236.665 105.752 236.489 105.857 236.293 105.896V106.253C236.477 106.253 236.654 106.325 236.784 106.453C236.914 106.581 236.987 106.754 236.987 106.934C236.987 107.115 236.914 107.288 236.784 107.416C236.654 107.544 236.477 107.615 236.293 107.615H229.344C229.252 107.615 229.163 107.58 229.098 107.516C229.033 107.452 228.996 107.365 228.996 107.275V101.827C228.996 100.125 231.776 97.7411 231.776 97.7411V96.911C231.776 96.6586 231.87 96.4149 232.041 96.226C232.212 96.0372 232.447 95.9164 232.703 95.8866C232.959 95.8568 233.217 95.92 233.428 96.0643C233.64 96.2085 233.79 96.4238 233.85 96.6692C233.853 96.6858 233.857 96.7026 233.86 96.7196C234.208 98.4221 233.016 100.134 233.016 100.134H235.155C235.187 100.131 235.218 100.125 235.25 100.125H236.293C236.569 100.125 236.834 100.232 237.03 100.424C237.225 100.615 237.335 100.875 237.335 101.146C237.335 101.417 237.225 101.677 237.03 101.868C236.834 102.06 236.569 102.168 236.293 102.168C236.569 102.168 236.834 102.275 237.03 102.467C237.225 102.658 237.335 102.918 237.335 103.189Z" fill="white"/>
<path d="M215.737 146.413C213.99 146.413 212.283 146.929 210.83 147.895C209.378 148.861 208.246 150.234 207.578 151.841C206.909 153.447 206.734 155.215 207.075 156.921C207.416 158.627 208.257 160.193 209.492 161.423C210.727 162.653 212.301 163.49 214.014 163.829C215.727 164.168 217.503 163.994 219.117 163.329C220.731 162.663 222.11 161.536 223.08 160.09C224.051 158.645 224.569 156.945 224.569 155.206C224.569 152.874 223.638 150.637 221.982 148.988C220.326 147.339 218.079 146.413 215.737 146.413Z" fill="#5AC8FA"/>
<path d="M213.623 159.044C213.623 159.11 213.596 159.173 213.55 159.219C213.503 159.265 213.44 159.292 213.374 159.292H211.384C211.318 159.292 211.254 159.265 211.208 159.219C211.161 159.173 211.135 159.11 211.135 159.044V154.338C211.135 154.272 211.161 154.209 211.208 154.163C211.254 154.116 211.318 154.09 211.384 154.09H213.374C213.44 154.09 213.503 154.116 213.55 154.163C213.596 154.209 213.623 154.272 213.623 154.338V159.044ZM220.34 155.329C220.34 155.526 220.261 155.715 220.121 155.854C219.981 155.993 219.791 156.072 219.593 156.072V156.084C219.734 156.113 219.86 156.189 219.951 156.299C220.041 156.41 220.091 156.548 220.091 156.691C220.091 156.834 220.041 156.972 219.951 157.083C219.86 157.193 219.734 157.269 219.593 157.298V157.558C219.725 157.558 219.852 157.61 219.945 157.703C220.039 157.796 220.091 157.922 220.091 158.053C220.091 158.185 220.039 158.311 219.945 158.403C219.852 158.496 219.725 158.549 219.593 158.549H214.618C214.552 158.549 214.488 158.522 214.442 158.476C214.395 158.43 214.369 158.367 214.369 158.301V154.338C214.369 153.1 216.359 151.366 216.359 151.366V150.762C216.359 150.579 216.426 150.401 216.549 150.264C216.671 150.127 216.84 150.039 217.023 150.017C217.206 149.995 217.391 150.041 217.542 150.146C217.694 150.251 217.801 150.408 217.844 150.586C217.847 150.598 217.849 150.611 217.852 150.623C218.101 151.861 217.248 153.106 217.248 153.106H218.779C218.802 153.104 218.824 153.1 218.847 153.1H219.593C219.791 153.1 219.981 153.178 220.121 153.317C220.261 153.457 220.34 153.646 220.34 153.843C220.34 154.04 220.261 154.229 220.121 154.368C219.981 154.507 219.791 154.586 219.593 154.586C219.791 154.586 219.981 154.664 220.121 154.803C220.261 154.943 220.34 155.132 220.34 155.329Z" fill="white"/>
<path d="M235.016 173.645C234.895 173.756 234.736 173.817 234.571 173.817C234.405 173.817 234.246 173.756 234.125 173.645L233.783 173.343C230.984 170.832 229.367 169.2 229.367 167.165C229.367 165.506 230.441 164.224 232.125 164.224C232.592 164.226 233.052 164.328 233.475 164.522C233.897 164.716 234.272 164.997 234.572 165.346C234.872 164.997 235.246 164.716 235.668 164.522C236.09 164.328 236.55 164.226 237.016 164.224C238.702 164.224 239.774 165.502 239.774 167.165C239.774 169.196 238.158 170.827 235.358 173.343L235.016 173.645Z" fill="#FF6584"/>
<path d="M214.98 138.575C214.752 138.783 214.451 138.898 214.138 138.898C213.826 138.898 213.525 138.783 213.297 138.575L212.651 138.007C207.363 133.285 204.31 130.217 204.31 126.393C204.31 123.273 206.338 120.862 209.519 120.862C210.401 120.867 211.271 121.058 212.068 121.423C212.866 121.787 213.573 122.316 214.141 122.973C214.707 122.316 215.413 121.787 216.21 121.423C217.008 121.059 217.877 120.867 218.758 120.862C221.943 120.862 223.967 123.265 223.967 126.393C223.967 130.209 220.914 133.277 215.626 138.007L214.98 138.575Z" fill="#FF6584"/>
<path d="M215.809 84.3662C215.513 84.6395 215.124 84.7915 214.72 84.7915C214.316 84.7915 213.926 84.6395 213.631 84.3662L212.795 83.616C205.951 77.3875 202 73.3408 202 68.2957C202 64.1803 204.625 61 208.742 61C209.883 61.0065 211.008 61.2588 212.041 61.7395C213.074 62.2202 213.988 62.9178 214.722 63.7841C215.455 62.918 216.369 62.2204 217.401 61.7396C218.433 61.2589 219.558 61.0065 220.698 61C224.819 61 227.439 64.1697 227.439 68.2957C227.439 73.3303 223.488 77.3769 216.645 83.616L215.809 84.3662Z" fill="#FF6584"/>
</svg>
