<svg width="75" height="75" viewBox="0 0 75 75" fill="none" xmlns="http://www.w3.org/2000/svg">
    <path d="M37.998 26.4583L6.28017 14.1228L11.4798 27.0143L37.998 38.0231L64.5162 27.0143L69.7158 14.1228L37.998 26.4583Z" fill="white"/>
    <path d="M61.2492 10.3468L37.9986 0.998856L14.7481 10.3468L21.4519 15.0006L37.9986 8.92292L54.5453 15.0006L61.2492 10.3468Z" fill="white"/>
    <path d="M37.9999 48.2744L17.9188 39.2504L21.2495 48.8296L37.9977 56.2116L54.7442 48.8304L58.0822 39.5611L37.9999 48.2744Z" fill="white"/>
    <path d="M37.9852 67.8162L27.4455 62.7387L24.768 69.3771L37.9849 75.0002L51.2278 69.3773L48.5504 62.739L37.9852 67.8162Z" fill="white"/>
    <path d="M75.0008 37.0845L70.4516 26.128L65.7714 33.4218L67.3136 37.0924L59.149 58.0848L54.1137 60.5817L56.7781 67.1876L64.5192 63.9888L75.0008 37.0845Z" fill="white"/>
    <path d="M0.99884 37.0838L5.54763 25.8059L10.2176 33.4145L8.98439 37.0835L16.8507 58.0866L21.884 60.5825L19.2227 67.1806L10.8656 63.9929L0.99884 37.0838Z" fill="white"/>
</svg>