<svg width="375" height="281" viewBox="0 0 375 281" fill="none" xmlns="http://www.w3.org/2000/svg">
<g clip-path="url(#clip0_3657_11120)">
<path fill-rule="evenodd" clip-rule="evenodd" d="M237.367 80.5132C238.896 80.3945 240.441 80.334 242 80.334C243.559 80.334 245.104 80.3945 246.633 80.5132C247.183 80.556 247.595 81.0371 247.552 81.5877C247.509 82.1383 247.028 82.55 246.478 82.5072C245 82.3925 243.507 82.334 242 82.334C240.493 82.334 239 82.3925 237.522 82.5072C236.972 82.55 236.491 82.1383 236.448 81.5877C236.405 81.0371 236.817 80.556 237.367 80.5132ZM229.427 82.6916C229.555 83.2287 229.224 83.7683 228.687 83.8968C225.757 84.5978 222.916 85.5249 220.181 86.6588C219.671 86.8703 219.086 86.6283 218.875 86.1181C218.663 85.6079 218.905 85.0229 219.415 84.8113C222.246 83.6374 225.188 82.6774 228.222 81.9517C228.759 81.8232 229.298 82.1545 229.427 82.6916ZM254.573 82.6916C254.702 82.1545 255.241 81.8232 255.778 81.9517C258.812 82.6774 261.754 83.6374 264.585 84.8113C265.095 85.0229 265.337 85.608 265.125 86.1181C264.914 86.6283 264.329 86.8703 263.819 86.6588C261.084 85.5249 258.243 84.5978 255.313 83.8968C254.776 83.7683 254.445 83.2287 254.573 82.6916ZM212.544 89.3501C212.833 89.8207 212.685 90.4365 212.215 90.7255C209.664 92.2919 207.246 94.0534 204.981 95.9895C204.562 96.3483 203.93 96.299 203.571 95.8792C203.213 95.4594 203.262 94.8281 203.682 94.4693C206.025 92.4657 208.528 90.6425 211.168 89.0212C211.639 88.7322 212.255 88.8795 212.544 89.3501ZM198.545 100.905C198.965 101.264 199.014 101.896 198.655 102.315C196.719 104.58 194.958 106.998 193.392 109.549C193.103 110.019 192.487 110.167 192.016 109.878C191.545 109.589 191.398 108.973 191.687 108.502C193.309 105.862 195.132 103.359 197.135 101.016C197.494 100.596 198.125 100.547 198.545 100.905ZM188.784 116.209C189.294 116.42 189.536 117.005 189.325 117.515C188.191 120.25 187.264 123.091 186.563 126.021C186.434 126.558 185.895 126.889 185.358 126.761C184.82 126.632 184.489 126.093 184.618 125.556C185.343 122.522 186.303 119.58 187.477 116.749C187.689 116.239 188.274 115.997 188.784 116.209ZM295.216 116.209C295.726 115.997 296.311 116.239 296.523 116.749C297.697 119.58 298.657 122.522 299.382 125.556C299.511 126.093 299.18 126.632 298.642 126.761C298.105 126.889 297.566 126.558 297.437 126.021C296.736 123.091 295.809 120.25 294.675 117.515C294.464 117.005 294.706 116.42 295.216 116.209ZM184.254 133.782C184.804 133.825 185.216 134.306 185.173 134.856C185.058 136.334 185 137.827 185 139.334C185 140.841 185.058 142.334 185.173 143.812C185.216 144.362 184.804 144.843 184.254 144.886C183.703 144.929 183.222 144.517 183.179 143.967C183.06 142.438 183 140.893 183 139.334C183 137.775 183.06 136.23 183.179 134.701C183.222 134.151 183.703 133.739 184.254 133.782ZM299.746 133.782C300.297 133.739 300.778 134.151 300.821 134.701C300.94 136.23 301 137.775 301 139.334C301 140.893 300.94 142.438 300.821 143.967C300.778 144.517 300.297 144.929 299.746 144.886C299.196 144.843 298.784 144.362 298.827 143.812C298.942 142.334 299 140.841 299 139.334C299 137.827 298.942 136.334 298.827 134.856C298.784 134.306 299.196 133.825 299.746 133.782ZM185.358 151.907C185.895 151.779 186.434 152.11 186.563 152.647C187.264 155.577 188.191 158.418 189.325 161.153C189.536 161.663 189.294 162.248 188.784 162.459C188.274 162.671 187.689 162.429 187.477 161.919C186.303 159.088 185.343 156.146 184.618 153.112C184.489 152.575 184.82 152.036 185.358 151.907ZM298.642 151.907C299.18 152.036 299.511 152.575 299.382 153.112C298.657 156.146 297.697 159.088 296.523 161.919C296.311 162.429 295.726 162.671 295.216 162.459C294.706 162.248 294.464 161.663 294.675 161.153C295.809 158.418 296.736 155.577 297.437 152.647C297.566 152.11 298.105 151.779 298.642 151.907ZM192.016 168.79C192.487 168.501 193.103 168.649 193.392 169.119C194.958 171.67 196.719 174.088 198.655 176.353C199.014 176.772 198.965 177.404 198.545 177.763C198.125 178.121 197.494 178.072 197.135 177.652C195.132 175.309 193.309 172.806 191.687 170.166C191.398 169.695 191.545 169.079 192.016 168.79ZM291.984 168.79C292.455 169.079 292.602 169.695 292.313 170.166C290.691 172.806 288.868 175.309 286.865 177.652C286.506 178.072 285.875 178.121 285.455 177.763C285.035 177.404 284.986 176.772 285.345 176.353C287.281 174.088 289.042 171.67 290.608 169.119C290.897 168.649 291.513 168.501 291.984 168.79ZM203.571 182.789C203.93 182.369 204.562 182.32 204.981 182.678C207.246 184.615 209.664 186.376 212.215 187.942C212.685 188.231 212.833 188.847 212.544 189.318C212.255 189.789 211.639 189.936 211.168 189.647C208.528 188.025 206.025 186.202 203.682 184.199C203.262 183.84 203.213 183.209 203.571 182.789ZM280.429 182.789C280.787 183.209 280.738 183.84 280.318 184.199C277.975 186.202 275.472 188.025 272.832 189.647C272.361 189.936 271.745 189.789 271.456 189.318C271.167 188.847 271.315 188.231 271.785 187.942C274.336 186.376 276.754 184.615 279.019 182.678C279.438 182.32 280.07 182.369 280.429 182.789ZM218.875 192.55C219.086 192.04 219.671 191.798 220.181 192.009C222.916 193.143 225.757 194.07 228.687 194.771C229.224 194.9 229.555 195.439 229.427 195.976C229.298 196.513 228.759 196.845 228.222 196.716C225.188 195.991 222.246 195.031 219.415 193.857C218.905 193.645 218.663 193.06 218.875 192.55ZM265.125 192.55C265.337 193.06 265.095 193.645 264.585 193.857C261.754 195.031 258.812 195.991 255.778 196.716C255.241 196.845 254.702 196.513 254.573 195.976C254.445 195.439 254.776 194.9 255.313 194.771C258.243 194.07 261.084 193.143 263.819 192.009C264.329 191.798 264.914 192.04 265.125 192.55ZM236.448 197.08C236.491 196.53 236.972 196.118 237.522 196.161C239 196.276 240.493 196.334 242 196.334C243.507 196.334 245 196.276 246.478 196.161C247.028 196.118 247.509 196.53 247.552 197.08C247.595 197.631 247.183 198.112 246.633 198.155C245.104 198.274 243.559 198.334 242 198.334C240.441 198.334 238.896 198.274 237.367 198.155C236.817 198.112 236.405 197.631 236.448 197.08Z" fill="#2F96FF"/>
<path d="M242.001 106C237.58 106 233.341 107.756 230.216 110.882C227.09 114.008 225.334 118.247 225.334 122.667C225.334 127.087 227.09 131.327 230.216 134.452C233.341 137.578 237.58 139.334 242.001 139.334C246.421 139.334 250.66 137.578 253.786 134.452C256.911 131.327 258.667 127.087 258.667 122.667C258.667 118.247 256.911 114.008 253.786 110.882C250.66 107.756 246.421 106 242.001 106ZM262.036 146H221.966C218.309 146 215.334 148.975 215.334 152.632V155.167C215.334 160.687 218.476 165.46 224.179 168.605C228.924 171.225 235.254 172.667 242.001 172.667C254.844 172.667 268.667 167.19 268.667 155.167V152.632C268.667 148.975 265.692 146 262.036 146Z" fill="#2F96FF"/>
<path fill-rule="evenodd" clip-rule="evenodd" d="M-74.0013 0C-78.4216 0 -82.6608 1.75595 -85.7864 4.88155C-88.912 8.00716 -90.668 12.2464 -90.668 16.6667C-90.668 21.0869 -88.912 25.3262 -85.7864 28.4518C-82.6608 31.5774 -78.4216 33.3333 -74.0013 33.3333C-69.581 33.3333 -65.3418 31.5774 -62.2162 28.4518C-59.0906 25.3262 -57.3346 21.0869 -57.3346 16.6667C-57.3346 12.2464 -59.0906 8.00716 -62.2162 4.88155C-65.3418 1.75595 -69.581 0 -74.0013 0ZM-94.0363 40C-97.693 40 -100.668 42.975 -100.668 46.6317V49.1667C-100.668 54.6867 -97.5263 59.46 -91.823 62.605C-87.078 65.225 -80.748 66.6667 -74.0013 66.6667C-61.158 66.6667 -47.3346 61.19 -47.3346 49.1667V46.6317C-47.3346 42.975 -50.3096 40 -53.9663 40H-94.0363ZM133.999 0C129.578 0 125.339 1.75595 122.214 4.88155C119.088 8.00716 117.332 12.2464 117.332 16.6667C117.332 21.0869 119.088 25.3262 122.214 28.4518C125.339 31.5774 129.578 33.3333 133.999 33.3333C138.419 33.3333 142.658 31.5774 145.784 28.4518C148.909 25.3262 150.665 21.0869 150.665 16.6667C150.665 12.2464 148.909 8.00716 145.784 4.88155C142.658 1.75595 138.419 0 133.999 0ZM154.034 40H113.964C110.307 40 107.332 42.975 107.332 46.6317V49.1667C107.332 54.6867 110.474 59.46 116.177 62.605C120.922 65.225 127.252 66.6667 133.999 66.6667C146.842 66.6667 160.665 61.19 160.665 49.1667V46.6317C160.665 42.975 157.69 40 154.034 40ZM241.999 0C237.578 0 233.339 1.75595 230.214 4.88155C227.088 8.00716 225.332 12.2464 225.332 16.6667C225.332 21.0869 227.088 25.3262 230.214 28.4518C233.339 31.5774 237.578 33.3333 241.999 33.3333C246.419 33.3333 250.658 31.5774 253.784 28.4518C256.909 25.3262 258.665 21.0869 258.665 16.6667C258.665 12.2464 256.909 8.00716 253.784 4.88155C250.658 1.75595 246.419 0 241.999 0ZM221.964 40C218.307 40 215.332 42.975 215.332 46.6317V49.1667C215.332 54.6867 218.474 59.46 224.177 62.605C228.922 65.225 235.252 66.6667 241.999 66.6667C254.842 66.6667 268.665 61.19 268.665 49.1667V46.6317C268.665 42.975 265.69 40 262.034 40H221.964ZM122.214 110.882C125.339 107.756 129.578 106 133.999 106C138.419 106 142.658 107.756 145.784 110.882C148.909 114.007 150.665 118.246 150.665 122.667C150.665 127.087 148.909 131.326 145.784 134.452C142.658 137.577 138.419 139.333 133.999 139.333C129.578 139.333 125.339 137.577 122.214 134.452C119.088 131.326 117.332 127.087 117.332 122.667C117.332 118.246 119.088 114.007 122.214 110.882ZM113.964 146H154.034C157.69 146 160.665 148.975 160.665 152.632V155.167C160.665 167.19 146.842 172.667 133.999 172.667C127.252 172.667 120.922 171.225 116.177 168.605C110.474 165.46 107.332 160.687 107.332 155.167V152.632C107.332 148.975 110.307 146 113.964 146ZM133.999 214.334C129.578 214.334 125.339 216.09 122.214 219.216C119.088 222.341 117.332 226.58 117.332 231.001C117.332 235.421 119.088 239.66 122.214 242.786C125.339 245.911 129.578 247.667 133.999 247.667C138.419 247.667 142.658 245.911 145.784 242.786C148.909 239.66 150.665 235.421 150.665 231.001C150.665 226.58 148.909 222.341 145.784 219.216C142.658 216.09 138.419 214.334 133.999 214.334ZM154.034 254.334H113.964C110.307 254.334 107.332 257.309 107.332 260.966V263.501C107.332 269.021 110.474 273.794 116.177 276.939C120.922 279.559 127.252 281.001 133.999 281.001C146.842 281.001 160.665 275.524 160.665 263.501V260.966C160.665 257.309 157.69 254.334 154.034 254.334ZM229.882 219.216C233.007 216.09 237.246 214.334 241.667 214.334C246.087 214.334 250.326 216.09 253.452 219.216C256.577 222.341 258.333 226.58 258.333 231.001C258.333 235.421 256.577 239.66 253.452 242.786C250.326 245.911 246.087 247.667 241.667 247.667C237.246 247.667 233.007 245.911 229.882 242.786C226.756 239.66 225 235.421 225 231.001C225 226.58 226.756 222.341 229.882 219.216ZM215 260.966C215 257.309 217.975 254.334 221.632 254.334H261.702C265.358 254.334 268.333 257.309 268.333 260.966V263.501C268.333 275.524 254.51 281.001 241.667 281.001C234.92 281.001 228.59 279.559 223.845 276.939C218.142 273.794 215 269.021 215 263.501V260.966ZM22.2136 4.88155C25.3392 1.75595 29.5784 0 33.9987 0C38.419 0 42.6582 1.75595 45.7838 4.88155C48.9094 8.00716 50.6654 12.2464 50.6654 16.6667C50.6654 21.0869 48.9094 25.3262 45.7838 28.4518C42.6582 31.5774 38.419 33.3333 33.9987 33.3333C29.5784 33.3333 25.3392 31.5774 22.2136 28.4518C19.088 25.3262 17.332 21.0869 17.332 16.6667C17.332 12.2464 19.088 8.00716 22.2136 4.88155ZM13.9637 40H54.0337C57.6904 40 60.6654 42.975 60.6654 46.6317V49.1667C60.6654 61.19 46.842 66.6667 33.9987 66.6667C27.252 66.6667 20.922 65.225 16.177 62.605C10.4737 59.46 7.33203 54.6867 7.33203 49.1667V46.6317C7.33203 42.975 10.307 40 13.9637 40ZM-74.0013 106C-78.4216 106 -82.6608 107.756 -85.7864 110.882C-88.912 114.007 -90.668 118.246 -90.668 122.667C-90.668 127.087 -88.912 131.326 -85.7864 134.452C-82.6608 137.577 -78.4216 139.333 -74.0013 139.333C-69.581 139.333 -65.3418 137.577 -62.2162 134.452C-59.0906 131.326 -57.3346 127.087 -57.3346 122.667C-57.3346 118.246 -59.0906 114.007 -62.2162 110.882C-65.3418 107.756 -69.581 106 -74.0013 106ZM-94.0363 146C-97.693 146 -100.668 148.975 -100.668 152.632V155.167C-100.668 160.687 -97.5263 165.46 -91.823 168.605C-87.078 171.225 -80.748 172.667 -74.0013 172.667C-61.158 172.667 -47.3346 167.19 -47.3346 155.167V152.632C-47.3346 148.975 -50.3096 146 -53.9663 146H-94.0363ZM-85.7864 219.216C-82.6608 216.09 -78.4216 214.334 -74.0013 214.334C-69.581 214.334 -65.3418 216.09 -62.2162 219.216C-59.0906 222.341 -57.3346 226.58 -57.3346 231.001C-57.3346 235.421 -59.0906 239.66 -62.2162 242.786C-65.3418 245.911 -69.581 247.667 -74.0013 247.667C-78.4216 247.667 -82.6608 245.911 -85.7864 242.786C-88.912 239.66 -90.668 235.421 -90.668 231.001C-90.668 226.58 -88.912 222.341 -85.7864 219.216ZM-94.0363 254.334H-53.9663C-50.3096 254.334 -47.3346 257.309 -47.3346 260.966V263.501C-47.3346 275.524 -61.158 281.001 -74.0013 281.001C-80.748 281.001 -87.078 279.559 -91.823 276.939C-97.5263 273.794 -100.668 269.021 -100.668 263.501V260.966C-100.668 257.309 -97.693 254.334 -94.0363 254.334ZM33.9987 106C29.5784 106 25.3392 107.756 22.2136 110.882C19.088 114.007 17.332 118.246 17.332 122.667C17.332 127.087 19.088 131.326 22.2136 134.452C25.3392 137.577 29.5784 139.333 33.9987 139.333C38.419 139.333 42.6582 137.577 45.7838 134.452C48.9094 131.326 50.6654 127.087 50.6654 122.667C50.6654 118.246 48.9094 114.007 45.7838 110.882C42.6582 107.756 38.419 106 33.9987 106ZM54.0337 146H13.9637C10.307 146 7.33203 148.975 7.33203 152.632V155.167C7.33203 160.687 10.4737 165.46 16.177 168.605C20.922 171.225 27.252 172.667 33.9987 172.667C46.842 172.667 60.6654 167.19 60.6654 155.167V152.632C60.6654 148.975 57.6904 146 54.0337 146ZM22.2136 219.216C25.3392 216.09 29.5784 214.334 33.9987 214.334C38.419 214.334 42.6582 216.09 45.7838 219.216C48.9094 222.341 50.6654 226.58 50.6654 231.001C50.6654 235.421 48.9094 239.66 45.7838 242.786C42.6582 245.911 38.419 247.667 33.9987 247.667C29.5784 247.667 25.3392 245.911 22.2136 242.786C19.088 239.66 17.332 235.421 17.332 231.001C17.332 226.58 19.088 222.341 22.2136 219.216ZM13.9637 254.334H54.0337C57.6904 254.334 60.6654 257.309 60.6654 260.966V263.501C60.6654 275.524 46.842 281.001 33.9987 281.001C27.252 281.001 20.922 279.559 16.177 276.939C10.4737 273.794 7.33203 269.021 7.33203 263.501V260.966C7.33203 257.309 10.307 254.334 13.9637 254.334ZM341.999 0C337.578 0 333.339 1.75595 330.214 4.88155C327.088 8.00716 325.332 12.2464 325.332 16.6667C325.332 21.0869 327.088 25.3262 330.214 28.4518C333.339 31.5774 337.578 33.3333 341.999 33.3333C346.419 33.3333 350.658 31.5774 353.784 28.4518C356.909 25.3262 358.665 21.0869 358.665 16.6667C358.665 12.2464 356.909 8.00716 353.784 4.88155C350.658 1.75595 346.419 0 341.999 0ZM321.964 40C318.307 40 315.332 42.975 315.332 46.6317V49.1667C315.332 54.6867 318.474 59.46 324.177 62.605C328.922 65.225 335.252 66.6667 341.999 66.6667C354.842 66.6667 368.665 61.19 368.665 49.1667V46.6317C368.665 42.975 365.69 40 362.034 40H321.964ZM438.214 4.88155C441.339 1.75595 445.578 0 449.999 0C454.419 0 458.658 1.75595 461.784 4.88155C464.909 8.00716 466.665 12.2464 466.665 16.6667C466.665 21.0869 464.909 25.3262 461.784 28.4518C458.658 31.5774 454.419 33.3333 449.999 33.3333C445.578 33.3333 441.339 31.5774 438.214 28.4518C435.088 25.3262 433.332 21.0869 433.332 16.6667C433.332 12.2464 435.088 8.00716 438.214 4.88155ZM429.964 40H470.034C473.69 40 476.665 42.975 476.665 46.6317V49.1667C476.665 61.19 462.842 66.6667 449.999 66.6667C443.252 66.6667 436.922 65.225 432.177 62.605C426.474 59.46 423.332 54.6867 423.332 49.1667V46.6317C423.332 42.975 426.307 40 429.964 40ZM341.999 106C337.578 106 333.339 107.756 330.214 110.882C327.088 114.007 325.332 118.246 325.332 122.667C325.332 127.087 327.088 131.326 330.214 134.452C333.339 137.577 337.578 139.333 341.999 139.333C346.419 139.333 350.658 137.577 353.784 134.452C356.909 131.326 358.665 127.087 358.665 122.667C358.665 118.246 356.909 114.007 353.784 110.882C350.658 107.756 346.419 106 341.999 106ZM321.964 146C318.307 146 315.332 148.975 315.332 152.632V155.167C315.332 160.687 318.474 165.46 324.177 168.605C328.922 171.225 335.252 172.667 341.999 172.667C354.842 172.667 368.665 167.19 368.665 155.167V152.632C368.665 148.975 365.69 146 362.034 146H321.964ZM330.214 219.216C333.339 216.09 337.578 214.334 341.999 214.334C346.419 214.334 350.658 216.09 353.784 219.216C356.909 222.341 358.665 226.58 358.665 231.001C358.665 235.421 356.909 239.66 353.784 242.786C350.658 245.911 346.419 247.667 341.999 247.667C337.578 247.667 333.339 245.911 330.214 242.786C327.088 239.66 325.332 235.421 325.332 231.001C325.332 226.58 327.088 222.341 330.214 219.216ZM315.332 260.966C315.332 257.309 318.307 254.334 321.964 254.334H362.034C365.69 254.334 368.665 257.309 368.665 260.966V263.501C368.665 275.524 354.842 281.001 341.999 281.001C335.252 281.001 328.922 279.559 324.177 276.939C318.474 273.794 315.332 269.021 315.332 263.501V260.966ZM449.999 106C445.578 106 441.339 107.756 438.214 110.882C435.088 114.007 433.332 118.246 433.332 122.667C433.332 127.087 435.088 131.326 438.214 134.452C441.339 137.577 445.578 139.333 449.999 139.333C454.419 139.333 458.658 137.577 461.784 134.452C464.909 131.326 466.665 127.087 466.665 122.667C466.665 118.246 464.909 114.007 461.784 110.882C458.658 107.756 454.419 106 449.999 106ZM470.034 146H429.964C426.307 146 423.332 148.975 423.332 152.632V155.167C423.332 160.687 426.474 165.46 432.177 168.605C436.922 171.225 443.252 172.667 449.999 172.667C462.842 172.667 476.665 167.19 476.665 155.167V152.632C476.665 148.975 473.69 146 470.034 146ZM438.214 219.216C441.339 216.09 445.578 214.334 449.999 214.334C454.419 214.334 458.658 216.09 461.784 219.216C464.909 222.341 466.665 226.58 466.665 231.001C466.665 235.421 464.909 239.66 461.784 242.786C458.658 245.911 454.419 247.667 449.999 247.667C445.578 247.667 441.339 245.911 438.214 242.786C435.088 239.66 433.332 235.421 433.332 231.001C433.332 226.58 435.088 222.341 438.214 219.216ZM429.964 254.334H470.034C473.69 254.334 476.665 257.309 476.665 260.966V263.501C476.665 275.524 462.842 281.001 449.999 281.001C443.252 281.001 436.922 279.559 432.177 276.939C426.474 273.794 423.332 269.021 423.332 263.501V260.966C423.332 257.309 426.307 254.334 429.964 254.334Z" fill="url(#paint0_linear_3657_11120)"/>
<path d="M307 105C307 116.045 298.045 125 287 125C275.955 125 267 116.045 267 105C267 93.955 275.955 85 287 85C298.045 85 307 93.955 307 105Z" fill="url(#paint1_linear_3657_11120)"/>
<path opacity="0.05" d="M296.352 103.44L284.916 95.8161C284.339 95.4311 283.602 95.3951 282.991 95.7231C282.38 96.0501 282 96.6831 282 97.3761V112.624C282 113.317 282.38 113.951 282.991 114.278C283.269 114.427 283.572 114.5 283.875 114.5C284.239 114.5 284.601 114.394 284.915 114.185L296.351 106.561C296.874 106.212 297.186 105.629 297.186 105.001C297.187 104.372 296.874 103.789 296.352 103.44Z" fill="black"/>
<path opacity="0.07" d="M284.681 96.2371L295.471 103.431C296.16 103.926 296.624 104.369 296.624 104.944C296.624 105.519 296.4 105.92 295.909 106.278C295.538 106.548 284.864 113.642 284.864 113.642C283.963 114.246 282.5 114.118 282.5 112.143V97.7441C282.5 95.7391 284.084 95.8391 284.681 96.2371Z" fill="black"/>
<path d="M283 112.568V97.4332C283 96.6902 283.828 96.2462 284.447 96.6592L295.799 104.227C296.352 104.595 296.352 105.407 295.799 105.776L284.447 113.344C283.828 113.755 283 113.312 283 112.568Z" fill="white"/>
</g>
<defs>
<linearGradient id="paint0_linear_3657_11120" x1="187.999" y1="0" x2="187.999" y2="281.001" gradientUnits="userSpaceOnUse">
<stop stop-color="#5AC8FA"/>
<stop offset="1" stop-color="#5AC8FA" stop-opacity="0.1"/>
</linearGradient>
<linearGradient id="paint1_linear_3657_11120" x1="287" y1="85" x2="287" y2="125" gradientUnits="userSpaceOnUse">
<stop stop-color="#FFA775"/>
<stop offset="0.443" stop-color="#FF961C"/>
<stop offset="1" stop-color="#DA5910"/>
</linearGradient>
<clipPath id="clip0_3657_11120">
<rect width="375" height="281" fill="white"/>
</clipPath>
</defs>
</svg>
