<svg width="65" height="15" viewBox="0 0 65 15" fill="none" xmlns="http://www.w3.org/2000/svg">
    <path d="M57.151 10.6838L59.6217 12.2366C60.0741 12.5212 60.6278 12.1005 60.5087 11.5685L59.8539 8.6485L62.0388 6.68121C62.4376 6.3224 62.2233 5.64189 61.6994 5.59858L58.8239 5.34494L57.6987 2.58579C57.4963 2.08469 56.8057 2.08469 56.6033 2.58579L55.4781 5.33875L52.6025 5.5924C52.0786 5.6357 51.8643 6.31621 52.2632 6.67502L54.4481 8.64231L53.7932 11.5623C53.6742 12.0943 54.2278 12.515 54.6803 12.2304L57.151 10.6838Z" fill="#FF9500"/>
    <path d="M44.649 10.6838L47.1197 12.2366C47.5722 12.5212 48.1258 12.1005 48.0068 11.5685L47.3519 8.6485L49.5368 6.68121C49.9357 6.3224 49.7214 5.64189 49.1975 5.59858L46.322 5.34494L45.1967 2.58579C44.9943 2.08469 44.3037 2.08469 44.1013 2.58579L42.9761 5.33875L40.1006 5.5924C39.5767 5.6357 39.3624 6.31621 39.7612 6.67502L41.9462 8.64231L41.2913 11.5623C41.1722 12.0943 41.7259 12.515 42.1783 12.2304L44.649 10.6838Z" fill="#FF9500"/>
    <path d="M32.1471 10.6838L34.6178 12.2366C35.0702 12.5212 35.6239 12.1005 35.5048 11.5685L34.8499 8.6485L37.0349 6.68121C37.4337 6.3224 37.2194 5.64189 36.6955 5.59858L33.82 5.34494L32.6948 2.58579C32.4924 2.08469 31.8018 2.08469 31.5994 2.58579L30.4742 5.33875L27.5986 5.5924C27.0747 5.6357 26.8604 6.31621 27.2593 6.67502L29.4442 8.64231L28.7893 11.5623C28.6703 12.0943 29.2239 12.515 29.6764 12.2304L32.1471 10.6838Z" fill="#FF9500"/>
    <path d="M19.6471 10.6838L22.1178 12.2366C22.5702 12.5212 23.1239 12.1005 23.0048 11.5685L22.3499 8.6485L24.5349 6.68121C24.9337 6.3224 24.7194 5.64189 24.1955 5.59858L21.32 5.34494L20.1948 2.58579C19.9924 2.08469 19.3018 2.08469 19.0994 2.58579L17.9742 5.33875L15.0986 5.5924C14.5747 5.6357 14.3604 6.31621 14.7593 6.67502L16.9442 8.64231L16.2893 11.5623C16.1703 12.0943 16.7239 12.515 17.1764 12.2304L19.6471 10.6838Z" fill="#FF9500"/>
    <path d="M7.14317 10.6838L9.61385 12.2366C10.0663 12.5212 10.62 12.1005 10.5009 11.5685L9.84604 8.6485L12.031 6.68121C12.4298 6.3224 12.2155 5.64189 11.6916 5.59858L8.81609 5.34494L7.69089 2.58579C7.48847 2.08469 6.79787 2.08469 6.59545 2.58579L5.47025 5.33875L2.59473 5.5924C2.07083 5.6357 1.85651 6.31621 2.25539 6.67502L4.4403 8.64231L3.78542 11.5623C3.66636 12.0943 4.22003 12.515 4.67249 12.2304L7.14317 10.6838Z" fill="#FF9500"/>
</svg>