<svg width="234" height="197" viewBox="0 0 234 197" fill="none" xmlns="http://www.w3.org/2000/svg">
<path d="M135.547 162.448H147.179V162.331H135.547V162.448Z" fill="#1B1B1B" fill-opacity="0.15"/>
<path d="M75.7061 165.303H97.599V165.186H75.7061V165.303Z" fill="#1B1B1B" fill-opacity="0.15"/>
<path d="M19.6853 156.334H67.3103V38.1665H19.6853V156.334Z" fill="#D1D8EA"/>
<path d="M35.0746 93.8965H25.3625C24.6771 93.8965 24.1162 93.3347 24.1162 92.6479C24.1162 91.9616 24.6771 91.3998 25.3625 91.3998H35.0746C35.7601 91.3998 36.321 91.9616 36.321 92.6479C36.321 93.3347 35.7601 93.8965 35.0746 93.8965Z" fill="white"/>
<path d="M98.9431 156.796H107.263V120.656H98.9431V156.796Z" fill="#1B1B1B" fill-opacity="0.15"/>
<path d="M64.6348 159.086H105.666V156.796H64.6348V159.086Z" fill="#1B1B1B" fill-opacity="0.15"/>
<path d="M63.0371 156.796H98.943V120.656H63.0371V156.796Z" fill="#1B1B1B" fill-opacity="0.15"/>
<path d="M66.3086 136.957H95.6724V125.104H66.3086V136.957Z" fill="#1B1B1B" fill-opacity="0.15"/>
<path d="M66.3086 152.348H95.6724V140.495H66.3086V152.348Z" fill="#1B1B1B" fill-opacity="0.15"/>
<path d="M77.6933 126.104H84.2862C84.7326 126.104 85.0977 125.738 85.0977 125.291C85.0977 124.844 84.7326 124.478 84.2862 124.478H77.6933C77.2469 124.478 76.8818 124.844 76.8818 125.291C76.8818 125.738 77.2469 126.104 77.6933 126.104Z" fill="#1B1B1B" fill-opacity="0.15"/>
<path d="M77.6933 141.494H84.2862C84.7326 141.494 85.0977 141.128 85.0977 140.681C85.0977 140.235 84.7326 139.869 84.2862 139.869H77.6933C77.2469 139.869 76.8818 140.235 76.8818 140.681C76.8818 141.128 77.2469 141.494 77.6933 141.494Z" fill="#1B1B1B" fill-opacity="0.15"/>
<path d="M83.7261 119.944C83.3872 119.944 83.1105 119.667 83.1105 119.328V100.548C83.1105 100.209 83.3872 99.9318 83.7261 99.9318C84.0649 99.9318 84.3421 100.209 84.3421 100.548V119.328C84.3421 119.667 84.0649 119.944 83.7261 119.944Z" fill="#1B1B1B" fill-opacity="0.15"/>
<path d="M77.9534 120.673H89.4986V119.216H77.9534V120.673Z" fill="#1B1B1B" fill-opacity="0.15"/>
<path d="M86.9245 108.712C86.7553 108.712 86.6169 108.573 86.6169 108.403V99.0137C86.6169 98.8442 86.7553 98.7056 86.9245 98.7056C87.0942 98.7056 87.2325 98.8442 87.2325 99.0137V108.403C87.2325 108.573 87.0942 108.712 86.9245 108.712Z" fill="#1B1B1B" fill-opacity="0.15"/>
<path d="M74.7499 102.262C74.7499 102.262 74.978 93.424 83.7267 93.424C92.4749 93.424 92.703 102.262 92.703 102.262H74.7499Z" fill="#1B1B1B" fill-opacity="0.15"/>
<path d="M150.494 114.766V114.769C150.743 114.769 150.993 114.774 151.247 114.792C156.56 115.155 160.857 119.481 161.196 124.805C161.273 126.021 161.148 127.196 160.851 128.301C159.627 132.854 159.169 137.579 159.169 142.293V156.032C159.169 157.028 158.363 157.836 157.368 157.836H150.494H143.619H113.827V114.766H150.494Z" fill="#1B1B1B" fill-opacity="0.15"/>
<path d="M103.103 125.507C103.103 119.325 108.316 114.364 114.58 114.792C119.893 115.155 124.19 119.481 124.529 124.805C124.606 126.021 124.481 127.196 124.184 128.301C122.96 132.854 122.502 137.579 122.502 142.293V156.032C122.502 157.028 121.696 157.836 120.701 157.836H106.952C105.958 157.836 105.151 157.028 105.151 156.032V141.487C105.151 137.064 104.67 132.639 103.491 128.377C103.238 127.464 103.103 126.501 103.103 125.507Z" fill="#1B1B1B" fill-opacity="0.15"/>
<path d="M128.605 157.836H167.687V131.685H128.605V157.836Z" fill="#D1D8EA"/>
<path d="M155.795 89.3583H191.872C196.355 89.3583 199.989 92.9977 199.989 97.4873V137.598H147.679V97.4873C147.679 92.9977 151.313 89.3583 155.795 89.3583Z" fill="#D1D8EA"/>
<path d="M145.185 89.3583H182.043C186.31 89.3583 189.769 92.8227 189.769 97.0959V137.598H137.459V97.0959C137.459 92.8227 140.918 89.3583 145.185 89.3583Z" fill="#1B1B1B" fill-opacity="0.15"/>
<path d="M145.185 89.3583H182.044C186.311 89.3583 189.77 92.8227 189.77 97.0959V137.598H137.46V97.0959C137.46 92.8227 140.919 89.3583 145.185 89.3583Z" fill="#D1D8EA"/>
<path d="M145.185 89.3583H182.044C186.311 89.3583 189.77 92.8227 189.77 97.0959V137.598H137.46V97.0959C137.46 92.8227 140.919 89.3583 145.185 89.3583Z" fill="white" fill-opacity="0.2"/>
<path d="M145.185 89.3583H182.044C186.311 89.3583 189.77 92.8227 189.77 97.0959V137.598H137.46V97.0959C137.46 92.8227 140.919 89.3583 145.185 89.3583Z" fill="white" fill-opacity="0.2"/>
<path d="M129.107 129.298H165.129C165.518 129.298 165.833 129.613 165.833 130.002V139.243C165.833 139.632 165.518 139.947 165.129 139.947H129.107C127.806 139.947 126.751 138.891 126.751 137.588V131.657C126.751 130.354 127.806 129.298 129.107 129.298Z" fill="#D1D8EA"/>
<path d="M129.106 129.298H165.128C165.517 129.298 165.832 129.613 165.832 130.002V139.243C165.832 139.632 165.517 139.947 165.128 139.947H129.106C127.805 139.947 126.75 138.891 126.75 137.588V131.657C126.75 130.354 127.805 129.298 129.106 129.298Z" fill="#D1D8EA"/>
<path d="M203.843 114.766V114.769C204.092 114.769 204.342 114.774 204.595 114.792C209.909 115.155 214.206 119.481 214.544 124.805C214.622 126.021 214.496 127.196 214.199 128.301C212.975 132.854 212.518 137.579 212.518 142.293V156.032C212.518 157.028 211.712 157.836 210.717 157.836H203.843H196.968H167.176V114.766H203.843Z" fill="#D1D8EA"/>
<path d="M156.452 125.507C156.452 119.325 161.666 114.364 167.929 114.792C173.243 115.155 177.54 119.481 177.878 124.805C177.956 126.021 177.831 127.196 177.533 128.301C176.31 132.854 175.852 137.579 175.852 142.293V156.032C175.852 157.028 175.046 157.836 174.051 157.836H160.302C159.307 157.836 158.501 157.028 158.501 156.032V141.487C158.501 137.064 158.02 132.639 156.84 128.377C156.587 127.464 156.452 126.501 156.452 125.507Z" fill="white" fill-opacity="0.2"/>
<path d="M156.452 125.507C156.452 119.325 161.666 114.364 167.929 114.792C173.243 115.155 177.54 119.481 177.878 124.805C177.956 126.021 177.831 127.196 177.533 128.301C176.31 132.854 175.852 137.579 175.852 142.293V156.032C175.852 157.028 175.046 157.836 174.051 157.836H160.302C159.307 157.836 158.501 157.028 158.501 156.032V141.487C158.501 137.064 158.02 132.639 156.84 128.377C156.587 127.464 156.452 126.501 156.452 125.507Z" fill="white" fill-opacity="0.2"/>
<path d="M114.593 159.143H203.077C203.798 159.143 204.383 158.557 204.383 157.835H113.287C113.287 158.557 113.872 159.143 114.593 159.143Z" fill="#D1D8EA"/>
<path d="M114.593 159.143H203.077C203.798 159.143 204.383 158.557 204.383 157.835H113.287C113.287 158.557 113.872 159.143 114.593 159.143Z" fill="#1B1B1B" fill-opacity="0.15"/>
<path d="M199.843 174.985C199.843 177.913 159.268 180.286 109.216 180.286C59.1633 180.286 18.5879 177.913 18.5879 174.985C18.5879 172.057 59.1633 169.684 109.216 169.684C159.268 169.684 199.843 172.057 199.843 174.985Z" fill="#D1D8EA"/>
<path d="M140.298 26.6081H32.5491L39.642 173.58H147.391L140.298 26.6081Z" fill="#2F96FF"/>
<path d="M141.295 26.6081H33.546L40.6394 173.58H148.388L141.295 26.6081Z" fill="#2F96FF"/>
<path d="M45.2593 166.938L41.2091 86.1383C43.2321 113.078 46.2516 140.027 50.2649 166.931L45.2593 166.938ZM125.742 166.831C131.724 162.675 137.728 158.519 143.756 154.361L129.721 166.825L125.742 166.831ZM139.921 96.5897C139.437 90.868 138.997 85.143 138.603 79.4217L138.788 79.52L139.921 96.5897ZM137.726 63.5125L137.618 63.4558C137.494 61.175 137.377 58.8965 137.268 56.6162L137.726 63.5125ZM38.4727 31.5518C38.4728 31.5537 38.4727 31.5523 38.4728 31.5551L38.4727 31.5518Z" fill="#5AC8FA"/>
<path d="M136.35 31.5512C137.364 71.9017 140.622 112.358 146.117 152.734C138.421 158.037 130.763 163.338 123.144 168.638C98.9359 168.638 74.7287 168.638 50.521 168.638C43.6392 122.987 39.6194 77.2016 38.4727 31.5512C71.0982 31.5512 103.724 31.5512 136.35 31.5512Z" fill="white"/>
<path d="M146.117 152.734C138.421 158.037 130.763 163.338 123.144 168.638C124.811 161.617 126.546 154.593 128.348 147.567C134.267 149.29 140.19 151.012 146.117 152.734Z" fill="#1B1B1B" fill-opacity="0.15"/>
<path d="M66.3284 42.3678C60.3319 42.3678 54.3349 42.3678 48.3379 42.3678C48.5482 48.3705 48.8081 54.3755 49.1175 60.3818C55.1145 60.3818 61.1115 60.3818 67.1085 60.3818C66.7991 54.3759 66.5392 48.3714 66.3284 42.3678ZM64.8158 43.9366C64.9967 48.8943 65.2113 53.853 65.46 58.8131C60.509 58.8131 55.5577 58.8131 50.6067 58.8131C50.3581 53.853 50.1431 48.8948 49.9626 43.9366C54.9136 43.9366 59.8645 43.9366 64.8158 43.9366Z" fill="#2F96FF"/>
<path d="M125.49 49.5215C108.535 49.5215 91.579 49.5215 74.6234 49.5215C74.5762 48.4007 74.5318 47.2804 74.4883 46.1602C91.4444 46.1597 108.4 46.1597 125.356 46.1602C125.399 47.2804 125.444 48.4007 125.49 49.5215Z" fill="#1B1B1B" fill-opacity="0.15"/>
<path d="M114.744 56.5898C101.476 56.5898 88.2084 56.5898 74.9406 56.5898C74.8864 55.4691 74.8345 54.3479 74.7841 53.2276C88.0518 53.2276 101.32 53.2276 114.588 53.2276C114.638 54.3479 114.691 55.4691 114.744 56.5898Z" fill="#1B1B1B" fill-opacity="0.15"/>
<path d="M67.7389 71.5055C61.7419 71.5055 55.7449 71.5055 49.7479 71.5055C50.1186 77.5129 50.5393 83.5221 51.009 89.5312C57.006 89.5312 63.003 89.5312 69 89.5312C68.5303 83.5221 68.1096 77.5129 67.7389 71.5055ZM66.268 73.0753C66.5811 78.0367 66.9284 82.9991 67.3094 87.9611C62.3584 87.9611 57.4071 87.9611 52.4562 87.9611C52.0752 82.9987 51.7279 78.0367 51.4147 73.0753C56.3657 73.0748 61.3166 73.0748 66.268 73.0753Z" fill="#2F96FF"/>
<path d="M94.9115 78.6631C88.6822 78.6631 82.4533 78.6631 76.2245 78.6631C76.1478 77.5419 76.073 76.4206 76.0001 75.2989C82.229 75.2989 88.4578 75.2989 94.6871 75.2989C94.76 76.4206 94.8348 77.5419 94.9115 78.6631Z" fill="#1B1B1B" fill-opacity="0.15"/>
<path d="M112.611 78.6631C108.03 78.6631 103.448 78.6631 98.866 78.6631C98.7893 77.5419 98.7145 76.4206 98.6416 75.2989C103.223 75.2989 107.805 75.2989 112.387 75.2989C112.46 76.4206 112.535 77.5419 112.611 78.6631Z" fill="#1B1B1B" fill-opacity="0.15"/>
<path d="M121.242 85.7363C106.404 85.7363 91.567 85.7363 76.7293 85.7363C76.6456 84.6151 76.5638 83.4934 76.4834 82.3722C91.3207 82.3722 106.158 82.3722 120.996 82.3722C121.076 83.4934 121.158 84.6146 121.242 85.7363Z" fill="#1B1B1B" fill-opacity="0.15"/>
<path d="M69.927 100.657C63.9305 100.657 57.9335 100.657 51.9365 100.657C52.4675 106.667 53.048 112.676 53.6781 118.685C59.6751 118.685 65.6721 118.685 71.6691 118.685C71.0386 112.676 70.4585 106.667 69.927 100.657ZM68.4986 102.228C68.9441 107.19 69.4236 112.153 69.9369 117.115C64.9855 117.115 60.0346 117.115 55.0837 117.115C54.5704 112.152 54.0909 107.191 53.6449 102.228C58.5963 102.228 63.5472 102.228 68.4986 102.228Z" fill="#2F96FF"/>
<path d="M129.829 111.526C112.873 111.526 95.9173 111.526 78.9617 111.526C79.072 112.648 79.1837 113.769 79.2973 114.891C96.2534 114.891 113.209 114.891 130.165 114.891C130.051 113.769 129.939 112.648 129.829 111.526Z" fill="#1B1B1B" fill-opacity="0.15"/>
<path d="M118.093 104.453C104.825 104.454 91.5568 104.454 78.2891 104.453C78.3919 105.574 78.4966 106.696 78.6032 107.817C91.8709 107.817 105.139 107.817 118.407 107.817C118.3 106.696 118.196 105.574 118.093 104.453Z" fill="#1B1B1B" fill-opacity="0.15"/>
<path d="M72.8918 129.809C66.8948 129.809 60.8978 129.809 54.9012 129.809C55.5921 135.817 56.333 141.823 57.1234 147.829C63.1204 147.829 69.1174 147.829 75.1144 147.829C74.3239 141.824 73.5831 135.817 72.8918 129.809ZM71.5049 131.379C72.0831 136.34 72.6945 141.3 73.34 146.26C68.3891 146.26 63.4377 146.26 58.4868 146.26C57.8413 141.3 57.2295 136.34 56.6517 131.379C61.6031 131.379 66.554 131.379 71.5049 131.379Z" fill="#2F96FF"/>
<path d="M132.627 136.967C115.671 136.967 98.7149 136.967 81.7592 136.967C81.6227 135.846 81.4881 134.725 81.3553 133.604C98.311 133.604 115.267 133.604 132.222 133.604C132.356 134.725 132.49 135.846 132.627 136.967Z" fill="#1B1B1B" fill-opacity="0.15"/>
<path d="M105.797 144.037C98.0786 144.037 90.3597 144.037 82.6416 144.037C82.4977 142.916 82.356 141.795 82.2158 140.674C89.9348 140.674 97.6533 140.674 105.372 140.674C105.512 141.795 105.654 142.916 105.797 144.037Z" fill="#1B1B1B" fill-opacity="0.15"/>
<path d="M119.627 144.037C116.294 144.037 112.961 144.037 109.628 144.037C109.484 142.916 109.342 141.795 109.202 140.674C112.535 140.674 115.868 140.674 119.201 140.674C119.341 141.795 119.483 142.916 119.627 144.037Z" fill="#1B1B1B" fill-opacity="0.15"/>
<path d="M58.2518 56.6895C58.0321 56.3393 57.8124 55.9896 57.5932 55.6389C56.1563 53.3464 53.2172 51.2982 52.2062 50.7018C52.4572 50.2542 52.7082 49.8062 52.9592 49.3587C54.1553 50.0646 56.5882 51.8104 58.2265 53.8852C60.4889 50.7973 63.8314 47.612 68.4126 44.1819C68.7356 44.6046 69.059 45.0269 69.382 45.4496C64.4909 49.1138 61.0689 52.4728 58.9109 55.7021C58.6912 56.0312 58.471 56.3603 58.2518 56.6895Z" fill="#2F96FF"/>
<path d="M60.0442 85.8369C59.8147 85.4867 59.5861 85.1361 59.3576 84.7854C57.8604 82.4915 54.8661 80.4415 53.8387 79.8455C54.0776 79.3975 54.3164 78.9495 54.5558 78.5015C55.7725 79.2088 58.2507 80.9555 59.9442 83.0313C62.1233 79.941 65.3817 76.7562 69.8708 73.3209C70.205 73.7436 70.5397 74.1668 70.8743 74.59C66.0823 78.2613 62.7473 81.6161 60.6771 84.8486C60.4658 85.1782 60.2546 85.5069 60.0442 85.8369Z" fill="#2F96FF"/>
<path d="M62.6211 115.061C62.3831 114.71 62.1448 114.36 61.9064 114.01C60.3485 111.716 57.2986 109.667 56.2557 109.069C56.4824 108.621 56.7096 108.173 56.9372 107.725C58.1722 108.433 60.6967 110.179 62.4463 112.255C64.544 109.165 67.7159 105.979 72.1134 102.544C72.4589 102.967 72.8047 103.39 73.1506 103.813C68.4563 107.483 65.2115 110.841 63.2278 114.073C63.0254 114.402 62.8235 114.731 62.6211 115.061Z" fill="#2F96FF"/>
<path d="M109.743 160.575C106.985 160.574 105.395 159.554 103.994 158.655C102.654 157.793 101.389 156.983 99.0593 156.982C96.7296 156.982 95.6924 157.794 94.5959 158.655C93.4498 159.554 92.1503 160.576 89.3939 160.575C86.638 160.574 85.0455 159.554 83.6461 158.655C82.3051 157.793 81.0426 156.983 78.712 156.982C76.3819 156.982 75.3452 157.794 74.2495 158.655C73.1034 159.554 71.8049 160.576 69.0486 160.575C66.2908 160.574 64.702 159.554 63.3007 158.655C61.9597 157.793 60.6953 156.983 58.3666 156.982C58.3035 156.532 58.2413 156.083 58.1787 155.634C60.9351 155.635 62.5215 156.653 63.9214 157.554C65.2601 158.413 66.5264 159.229 68.856 159.227C71.1851 159.228 72.22 158.413 73.318 157.554C74.465 156.654 75.7663 155.634 78.5241 155.634C81.2805 155.635 82.865 156.653 84.2668 157.554C85.605 158.413 86.8727 159.229 89.2018 159.227C91.5319 159.228 92.5659 158.413 93.6648 157.554C94.8109 156.654 96.1145 155.634 98.8714 155.634C101.628 155.635 103.214 156.653 104.615 157.554C105.953 158.413 107.22 159.229 109.55 159.227C109.614 159.677 109.679 160.125 109.743 160.575Z" fill="#1B1B1B" fill-opacity="0.15"/>
<path d="M113.696 30.2459C112.119 26.0503 108.469 23.2686 104.539 23.2686H96.5395C95.3457 23.2686 94.2281 22.5373 93.7565 21.417C92.631 18.7415 89.9671 16.8352 86.9481 16.8352C83.929 16.8352 81.4493 18.7415 80.5818 21.417C80.2186 22.5373 79.1716 23.2686 77.9778 23.2686H69.9784C66.0488 23.2686 62.6665 26.0503 61.4947 30.2459L61.0264 31.9219H87.6763H114.326L113.696 30.2459Z" fill="#1C2E40"/>
<path d="M113.985 33.5664H61.5274C60.6239 33.5664 59.8489 32.8258 59.8054 31.9213C59.7615 31.0164 60.4649 30.2762 61.3685 30.2762H113.826C114.729 30.2762 115.504 31.0164 115.548 31.9213C115.592 32.8258 114.888 33.5664 113.985 33.5664Z" fill="#2F96FF"/>
<path d="M113.984 33.5664H61.5273C60.6238 33.5664 59.8488 32.8258 59.8053 31.9213C59.8039 31.8946 59.8035 31.8684 59.8035 31.8422C59.803 30.9733 60.4915 30.2762 61.3684 30.2762H113.826C114.729 30.2762 115.504 31.0164 115.548 31.9213C115.549 31.9475 115.55 31.9738 115.55 32.0004C115.55 32.8689 114.862 33.5664 113.984 33.5664Z" fill="#2F96FF"/>
<path d="M161.059 172.174H157.635L157.294 164.231H160.719L161.059 172.174Z" fill="#F9A8B3"/>
<path d="M181.622 172.174H178.198L176.477 164.231H179.901L181.622 172.174Z" fill="#F9A8B3"/>
<path d="M177.954 171.776H181.801C181.941 171.776 182.063 171.874 182.093 172.011L182.769 175.059C182.84 175.376 182.591 175.675 182.268 175.669C180.925 175.646 180.272 175.567 178.58 175.567C177.539 175.567 175.395 175.676 173.957 175.676C172.552 175.676 172.332 174.252 172.92 174.123C175.559 173.545 176.553 172.747 177.398 171.987C177.55 171.85 177.749 171.776 177.954 171.776Z" fill="#1C2E40"/>
<path d="M157.658 171.776H161.398C161.538 171.776 161.659 171.874 161.689 172.011L162.366 175.059C162.436 175.375 162.197 175.675 161.873 175.669C160.524 175.646 158.574 175.567 156.879 175.567C154.896 175.567 153.184 175.676 150.859 175.676C149.453 175.676 149.062 174.252 149.651 174.123C152.33 173.536 154.518 173.473 156.833 172.043C157.084 171.888 157.362 171.776 157.658 171.776Z" fill="#1C2E40"/>
<path d="M164.351 47.032C163.86 49.5413 163.616 52.6512 165.368 54.3257C165.368 54.3257 164.362 56.8711 159.706 56.8711C155.452 56.8711 157.582 54.3257 157.582 54.3257C160.376 53.6577 160.23 50.1971 159.743 48.2477L164.351 47.032Z" fill="#F9A8B3"/>
<path d="M156.264 54.6749C156.361 54.0509 157.451 53.329 158.698 53.0561C159.945 52.7831 164.716 52.1783 166.177 52.7831C167.637 53.3875 165.923 55.1777 165.923 55.1777L156.264 54.6749Z" fill="#2F96FF"/>
<path d="M156.329 54.4717C156.598 53.9015 157.586 53.3008 158.698 53.0569C159.556 52.8692 162.082 52.5242 164.05 52.5242C164.944 52.5242 165.721 52.5953 166.177 52.784C166.614 52.9647 166.766 53.2512 166.766 53.5639C166.766 53.8406 166.647 54.1379 166.498 54.4015C166.123 54.3701 165.745 54.3439 165.368 54.3261C164.06 54.2629 162.423 54.2114 160.875 54.2114C159.654 54.2114 158.489 54.2432 157.582 54.3261C157.157 54.3649 156.737 54.415 156.329 54.4717Z" fill="#2F96FF"/>
<path d="M160.896 168.326H160.894L160.883 168.065H160.885L160.896 168.326ZM160.88 167.948H160.878L160.86 167.533H160.862L160.88 167.948Z" fill="#1B1B1B" fill-opacity="0.35"/>
<path d="M160.885 168.065H160.884L160.879 167.948H160.881L160.885 168.065Z" fill="#1B1B1B" fill-opacity="0.35"/>
<path d="M160.895 168.326H157.47L157.437 167.533H160.861L160.879 167.948L160.884 168.065L160.895 168.326Z" fill="#F9A8B3"/>
<path d="M180.792 168.326H180.789L180.617 167.533H180.62L180.792 168.326Z" fill="#1B1B1B" fill-opacity="0.35"/>
<path d="M180.789 168.326H177.365L177.193 167.533H180.617L180.789 168.326Z" fill="#F9A8B3"/>
<path d="M172.481 57.4147L168.354 60.1857C168.354 60.1857 174.281 70.7406 173.784 72.432C173.107 74.7339 172.162 79.7703 170.877 82.325C171.044 82.8756 171.899 84.1349 172.376 84.3535C175.64 81.8606 178.956 74.0462 178.831 71.8679C178.547 66.9004 172.481 57.4147 172.481 57.4147Z" fill="#F9A8B3"/>
<path d="M170.878 82.3256L167.62 82.0728L169.334 85.6832C169.334 85.6832 172.189 85.8096 172.666 83.6238L170.878 82.3256Z" fill="#F9A8B3"/>
<path d="M187.051 99.928L186.774 100.446L184.921 103.953L119.215 69.1535L121.338 65.1293L187.051 99.928Z" fill="#2F96FF"/>
<path d="M191.301 91.8886L189.945 94.4564L189.177 95.9062L123.464 61.1081L125.586 57.0839L191.301 91.8886Z" fill="#2F96FF"/>
<path d="M189.177 95.9058L187.051 99.9277L121.337 65.131L123.464 61.1096L189.177 95.9058Z" fill="#2F96FF"/>
<path d="M176.812 89.3574H176.811L170.563 86.049C170.563 86.0485 170.563 86.0485 170.563 86.0481L176.812 89.3574Z" fill="#1B1B1B" fill-opacity="0.35"/>
<path d="M189.177 95.9062L176.811 89.3582H176.811L189.177 95.9062Z" fill="#1B1B1B" fill-opacity="0.35"/>
<path d="M150.749 75.5586L148.582 74.4107H148.585L150.749 75.5572C150.749 75.5581 150.749 75.5577 150.749 75.5586Z" fill="#1B1B1B" fill-opacity="0.35"/>
<path d="M148.585 74.4102H148.582L146.878 73.508C146.878 73.5076 146.878 73.5076 146.879 73.5071L148.585 74.4102Z" fill="#1B1B1B" fill-opacity="0.35"/>
<path d="M141.239 70.5215L138.08 68.8488V68.8469L141.241 70.521C141.24 70.521 141.24 70.5215 141.239 70.5215Z" fill="#5AC8FA"/>
<path d="M138.08 68.8496L137.92 68.7649V68.763L138.08 68.8477V68.8496Z" fill="#2F96FF"/>
<path d="M137.92 68.7646L123.464 61.1099L122.378 63.1623L122.745 62.468L123.464 61.108L137.92 68.7628V68.7646Z" fill="#1B1B1B" fill-opacity="0.35"/>
<path d="M187.051 99.9277L171.219 91.5436C170.929 89.1167 170.698 87.1856 170.563 86.0494L176.811 89.3578L189.177 95.9058L187.051 99.9277ZM151.426 81.0626L140.709 75.3872C143.488 74.9556 145.993 74.1967 146.853 73.5277C146.862 73.5212 146.87 73.5146 146.879 73.5081L148.583 74.4102L150.75 75.5581C150.904 77.287 151.125 79.1236 151.426 81.0626ZM135.365 72.5577L121.338 65.1291L122.378 63.1619L123.464 61.1096L137.92 68.7643L138.08 68.849L141.239 70.5217C139.425 71.2141 137.224 72.0652 135.365 72.5577Z" fill="#2F96FF"/>
<path d="M187.051 99.9277L171.219 91.5436C170.929 89.1167 170.698 87.1856 170.563 86.0494L176.811 89.3578L189.177 95.9058L187.051 99.9277ZM151.426 81.0626L140.709 75.3872C143.488 74.9556 145.993 74.1967 146.853 73.5277C146.862 73.5212 146.87 73.5146 146.879 73.5081L148.583 74.4102L150.75 75.5581C150.904 77.287 151.125 79.1236 151.426 81.0626ZM135.365 72.5577L121.338 65.1291L122.378 63.1619L123.464 61.1096L137.92 68.7643L138.08 68.849L141.239 70.5217C139.425 71.2141 137.224 72.0652 135.365 72.5577Z" fill="#1B1B1B" fill-opacity="0.15"/>
<path d="M116.382 57.6173L114.471 61.2384L119.214 69.1562L125.587 57.0859L116.382 57.6173Z" fill="#1B1B1B" fill-opacity="0.15"/>
<path d="M119.215 69.1533L121.338 65.1319L121.337 65.131L119.215 69.1533" fill="#1B1B1B" fill-opacity="0.15"/>
<path d="M121.337 65.1303L121.341 65.1288L121.338 65.1272L121.339 65.1318" fill="#1B1B1B" fill-opacity="0.15"/>
<path d="M121.338 65.1289L122.378 63.1618L121.339 65.1299" fill="#2F96FF"/>
<path d="M112.437 57.8447L114.47 61.2383L116.382 57.6171L112.437 57.8447Z" fill="#2F96FF"/>
<path d="M164.972 83.7164L166.684 86.9102L169.334 85.6827L167.62 82.0723L164.972 83.7164Z" fill="#F9A8B3"/>
<path d="M171.501 55.101C174.74 55.5729 178.451 66.8184 178.451 66.8184L171.646 70.668C171.646 70.668 168.649 65.3198 167.171 61.348C165.622 57.1866 168.025 54.5949 171.501 55.101Z" fill="#1C2E40"/>
<path d="M170.737 68.9961C170.533 68.6108 170.304 68.1721 170.06 67.6946C170.06 67.6932 170.061 67.6904 170.061 67.689C170.305 68.1656 170.534 68.6057 170.739 68.9928C170.739 68.9937 170.738 68.9952 170.737 68.9961Z" fill="#1B1B1B" fill-opacity="0.35"/>
<path d="M170.739 68.9932C170.534 68.606 170.305 68.1659 170.061 67.6894C170.153 65.3421 170.332 62.881 170.642 60.3815C171.839 62.7724 172.059 66.6533 170.739 68.9932Z" fill="#1C2E40"/>
<path d="M152.314 55.2782C152.314 55.2782 148.272 65.6356 152.112 84.9248C157.631 84.9248 167.743 84.9248 170.429 84.9248C170.555 82.1089 168.788 68.371 171.501 55.1012C171.501 55.1012 168.36 54.4701 165.369 54.3259C163.028 54.2127 159.639 54.1382 157.582 54.3259C154.869 54.5741 152.314 55.2782 152.314 55.2782Z" fill="#1C2E40"/>
<path d="M155.137 60.0928L150.518 58.2604C150.518 58.2604 145.2 69.1365 143.527 69.6852C141.25 70.4323 136.572 72.5091 133.743 72.8986C133.385 73.3485 132.834 74.7684 132.925 75.2857C136.827 76.5633 145.133 74.8667 146.854 73.5282C150.777 70.4768 155.137 60.0928 155.137 60.0928Z" fill="#F9A8B3"/>
<path d="M151.564 71.1826L150.475 70.6588C150.463 70.1424 150.457 69.6387 150.457 69.148C153.046 65.0723 155.136 60.0926 155.136 60.0926L151.422 58.6193C151.589 57.8052 151.754 57.1371 151.896 56.6184C152.095 56.5852 152.293 56.5688 152.488 56.5688C153.8 56.5688 154.991 57.3239 155.654 58.8567C156.958 61.8664 151.564 71.1826 151.564 71.1826Z" fill="#1C2E40"/>
<path d="M150.457 69.1475C150.454 64.4786 150.945 60.9487 151.422 58.6187L155.136 60.092C155.136 60.092 153.046 65.0717 150.457 69.1475Z" fill="#F9A8B3"/>
<path d="M156.381 57.6255C157.535 60.6942 151.688 69.7314 151.688 69.7314L144.839 66.0059C144.839 66.0059 146.436 61.4981 148.797 57.9757C151.221 54.3592 155.115 54.2572 156.381 57.6255Z" fill="#1C2E40"/>
<path d="M133.892 72.888L129.812 73.7718L131.88 77.5498C131.88 77.5498 133.136 77.0358 134.94 75.3134L133.892 72.888Z" fill="#F9A8B3"/>
<path d="M127.891 74.6098L129.518 76.8654L131.881 77.5498L129.813 73.7718L127.891 74.6098Z" fill="#F9A8B3"/>
<path d="M156.603 43.4227C156.588 43.6989 156.428 43.9142 156.248 43.9039C156.068 43.8936 155.935 43.6614 155.951 43.3848C155.966 43.1085 156.125 42.8932 156.306 42.9035C156.486 42.9143 156.619 43.1465 156.603 43.4227Z" fill="#1C2E40"/>
<path d="M156.847 43.4446C156.847 43.4446 156.128 45.0017 155.394 45.7306C155.855 46.2151 156.696 46.0546 156.696 46.0546L156.847 43.4446Z" fill="#F9A8B3"/>
<path d="M156.25 42.4647L156.182 42.4399C156.106 42.3912 156.085 42.291 156.133 42.2152C156.62 41.46 157.369 41.4483 157.401 41.4479C157.488 41.4441 157.563 41.5195 157.563 41.6099C157.564 41.6993 157.492 41.7718 157.403 41.7732C157.378 41.7732 156.794 41.7887 156.406 42.3917C156.371 42.4455 156.31 42.4717 156.25 42.4647Z" fill="#1C2E40"/>
<path d="M165.895 43.1809C165.492 46.5609 165.427 48.5599 163.616 50.2022C160.893 52.6726 156.801 50.8777 156.189 47.4448C155.637 44.355 156.389 39.3467 159.782 38.188C163.124 37.0467 166.299 39.8008 165.895 43.1809Z" fill="#F9A8B3"/>
<path d="M159.094 43.8434C157.912 44.0775 156.024 41.4479 157.563 39.2138C156.783 38.8234 154.238 40.358 153.277 38.9278C152.316 37.4971 154.978 36.7298 154.472 35.5201C156.277 35.8909 153.303 38.146 155.017 37.9255C156.731 37.705 158.711 34.5295 160.646 35.8324C164.035 38.1146 168.65 34.3109 166.766 39.0706C169.078 38.6024 170.656 41.3397 168.455 43.232C164.069 47.0034 166.766 47.4973 163.989 47.6921C162.576 47.7918 159.339 46.1191 159.094 43.8434Z" fill="#1C2E40"/>
<path d="M160.849 44.715C160.5 45.4467 159.847 45.9495 159.216 46.162C158.268 46.4818 157.742 45.6447 157.962 44.7211C158.16 43.8896 158.892 42.7211 159.865 42.8016C160.823 42.8812 161.246 43.8779 160.849 44.715Z" fill="#F9A8B3"/>
<path d="M158.609 84.924C158.609 84.924 162.496 111.137 164.629 120.957C166.966 131.712 175.768 167.533 175.768 167.533H182.041C182.041 167.533 176.237 132.58 174.903 121.932C173.456 110.376 170.429 84.924 170.429 84.924H158.609Z" fill="#2F96FF"/>
<path d="M182.041 167.533H175.768C175.768 167.533 166.966 131.712 164.629 120.957C164.399 119.9 164.149 118.651 163.886 117.265C163.934 117.519 163.982 117.768 164.029 118.011C164.079 117.842 164.126 117.663 164.172 117.475C164.356 116.723 164.512 115.827 164.641 114.83C165.442 108.611 165.153 98.4606 163.626 94.8414C163.92 89.1004 164.152 84.924 164.152 84.924H158.609H170.429C170.429 84.924 173.456 110.376 174.903 121.932C176.237 132.58 182.041 167.533 182.041 167.533Z" fill="#2F96FF"/>
<path d="M163.538 115.399C163.309 114.156 163.075 112.834 162.837 111.464C162.837 111.463 162.837 111.461 162.837 111.46C163.075 112.833 163.31 114.155 163.538 115.399C163.538 115.399 163.538 115.399 163.538 115.399Z" fill="#1B1B1B" fill-opacity="0.35"/>
<path d="M163.886 117.266C163.772 116.668 163.655 116.044 163.537 115.399C163.537 115.399 163.537 115.399 163.537 115.399C163.656 116.044 163.772 116.668 163.886 117.266Z" fill="#1B1B1B" fill-opacity="0.35"/>
<path d="M164.03 118.012C163.983 117.768 163.934 117.519 163.886 117.266C163.553 115.514 163.199 113.543 162.837 111.46C163.074 105.873 163.374 99.7786 163.626 94.842C165.154 98.4613 165.443 108.612 164.642 114.831C164.513 115.828 164.356 116.724 164.173 117.476C164.127 117.664 164.079 117.843 164.03 118.012Z" fill="#2F96FF"/>
<path d="M164.03 118.012C163.983 117.768 163.934 117.519 163.886 117.266C163.553 115.514 163.199 113.543 162.837 111.46C163.074 105.873 163.374 99.7786 163.626 94.842C165.154 98.4613 165.443 108.612 164.642 114.831C164.513 115.828 164.356 116.724 164.173 117.476C164.127 117.664 164.079 117.843 164.03 118.012Z" fill="#1B1B1B" fill-opacity="0.15"/>
<path d="M152.112 84.924C152.112 84.924 151.64 110.57 152.013 121.03C152.4 131.91 156.194 167.533 156.194 167.533H161.996C161.996 167.533 162.208 132.545 162.467 121.86C162.748 110.211 164.152 84.924 164.152 84.924H152.112Z" fill="#2F96FF"/>
<path d="M161.996 167.533H156.194C156.194 167.533 152.4 131.91 152.013 121.03C151.907 118.067 151.869 113.887 151.869 109.416C151.869 98.1006 152.112 84.924 152.112 84.924H164.152C164.152 84.924 163.92 89.1004 163.626 94.8414C163.373 99.778 163.074 105.872 162.837 111.46C162.837 111.461 162.837 111.462 162.837 111.463C162.773 112.942 162.715 114.382 162.663 115.759C162.578 118.016 162.509 120.095 162.467 121.86C162.296 128.934 162.145 146.662 162.062 157.835C162.059 158.282 162.055 158.717 162.053 159.142C162.052 159.181 162.052 159.221 162.052 159.26C162.04 160.905 162.03 162.375 162.021 163.601C162.021 163.641 162.021 163.678 162.02 163.718C162.005 166.096 161.996 167.533 161.996 167.533Z" fill="#2F96FF"/>
<path d="M162.378 165.754V167.652H155.691L155.41 165.52L162.378 165.754Z" fill="#1C2E40"/>
<path d="M182.041 165.897L182.353 167.652H175.459L174.849 165.637L182.041 165.897Z" fill="#1C2E40"/>
<path d="M176.313 171.666C176.27 171.666 176.235 171.672 176.207 171.686C176.185 171.698 176.16 171.718 176.157 171.781C176.148 171.911 176.184 172.007 176.266 172.076C176.453 172.235 176.901 172.255 177.482 172.138C177.096 171.914 176.575 171.666 176.313 171.666ZM176.822 172.375C176.561 172.375 176.317 172.331 176.162 172.201C176.039 172.097 175.983 171.953 175.995 171.771C176.003 171.636 176.074 171.572 176.133 171.541C176.508 171.347 177.616 172.026 177.742 172.105L177.778 172.187L177.718 172.252C177.48 172.31 177.138 172.375 176.822 172.375Z" fill="#2F96FF"/>
<path d="M177.007 170.864L176.971 170.867C176.865 170.879 176.856 170.929 176.852 170.949C176.809 171.175 177.245 171.743 177.598 172.01C177.558 171.721 177.449 171.144 177.193 170.935C177.135 170.888 177.074 170.864 177.007 170.864ZM177.698 172.255L177.66 172.245C177.305 172.052 176.62 171.301 176.693 170.918C176.706 170.849 176.756 170.729 176.951 170.706C177.078 170.69 177.193 170.725 177.296 170.81C177.694 171.135 177.776 172.125 177.779 172.167L177.742 172.241L177.698 172.255Z" fill="#2F96FF"/>
<path d="M155.614 171.666C155.551 171.666 155.499 171.675 155.462 171.696C155.43 171.714 155.414 171.74 155.412 171.782C155.403 171.892 155.435 171.978 155.509 172.044C155.72 172.231 156.284 172.263 157.04 172.137C156.566 171.911 155.938 171.666 155.614 171.666ZM156.234 172.376C155.893 172.376 155.579 172.323 155.402 172.165C155.289 172.065 155.238 171.932 155.25 171.77C155.257 171.673 155.304 171.598 155.383 171.554C155.799 171.32 157.176 172.021 157.332 172.101L157.375 172.185L157.31 172.253C157.02 172.311 156.611 172.376 156.234 172.376Z" fill="#2F96FF"/>
<path d="M156.459 170.864L156.41 170.867C156.264 170.882 156.255 170.939 156.251 170.958C156.214 171.191 156.771 171.774 157.192 172.028C157.148 171.758 157.026 171.205 156.74 170.97C156.654 170.899 156.562 170.864 156.459 170.864ZM157.294 172.255L157.261 172.248C156.848 172.062 156.029 171.32 156.092 170.932C156.106 170.841 156.171 170.728 156.393 170.706C156.556 170.685 156.71 170.735 156.844 170.845C157.279 171.203 157.371 172.127 157.375 172.166L157.341 172.239L157.294 172.255Z" fill="#2F96FF"/>
</svg>
