<svg width="137" height="50" viewBox="0 0 137 50" fill="none" xmlns="http://www.w3.org/2000/svg">
    <rect x="0.5" y="0.5" width="136" height="49" rx="7.5" stroke="white"/>
    <g clip-path="url(#clip0_7602_1630)">
        <g clip-path="url(#clip1_7602_1630)">
            <g clip-path="url(#clip2_7602_1630)">
                <path d="M31.3267 24.3598C31.3267 21.4561 33.7137 19.9407 33.8392 19.9407C32.458 17.9217 30.3219 17.6688 29.568 17.6688C27.8093 17.5428 26.0507 18.6793 25.1714 18.6793C24.292 18.6793 22.7843 17.6688 21.402 17.6688C19.5179 17.6688 17.6338 18.8053 16.629 20.5725C14.6183 24.1069 16.1261 29.4084 18.1367 32.3111C19.1415 33.7005 20.2718 35.3407 21.7795 35.2148C23.2872 35.2148 23.7891 34.3312 25.5478 34.3312C27.3064 34.3312 27.8093 35.2148 29.3171 35.2148C30.9503 35.2148 31.9551 33.8264 32.8344 32.3111C33.9647 30.6709 34.4676 29.1555 34.4676 29.0296C34.4676 29.0296 31.4521 27.8942 31.3267 24.3598ZM28.4377 15.7756C29.1905 14.7651 29.8189 13.3767 29.568 11.9883C28.4377 11.9883 26.93 12.746 26.1762 13.7555C25.4223 14.6391 24.7949 16.0275 24.9194 17.2899C26.3016 17.4169 27.6839 16.6592 28.4377 15.7756ZM50.0446 31.6793H45.0195L43.7628 35.2137H41.6277L46.4018 21.9598H48.6623L53.4364 35.2137H51.1749L50.0446 31.6793ZM45.5214 30.0391H49.5417L47.5321 24.2317L45.5225 30.0391H45.5214ZM63.612 30.4169C63.612 33.4465 61.9788 35.3397 59.5918 35.3397C58.2106 35.3397 57.0803 34.709 56.5774 33.6995V38.4952H54.5678V25.6201H56.4519V27.2603C56.9538 26.2508 58.2106 25.4931 59.4673 25.4931C61.9788 25.4931 63.612 27.3873 63.612 30.4169ZM61.6024 30.4169C61.6024 28.5227 60.5976 27.1344 59.0899 27.1344C57.5822 27.1344 56.5774 28.3968 56.5774 30.4169C56.5774 32.3111 57.5822 33.6984 59.0899 33.6984C60.5976 33.6984 61.6024 32.31 61.6024 30.4169ZM74.165 30.4169C74.165 33.4465 72.5308 35.3397 70.1448 35.3397C68.7625 35.3397 67.6323 34.709 67.1293 33.6995V38.4952H65.1197V25.6201H67.0039V27.2603C67.5057 26.2508 68.7625 25.4931 70.0193 25.4931C72.6573 25.4931 74.165 27.3873 74.165 30.4169ZM72.1544 30.4169C72.1544 28.5227 71.1496 27.1344 69.6419 27.1344C68.1341 27.1344 67.1293 28.3968 67.1293 30.4169C67.1293 32.3111 68.1341 33.6984 69.6419 33.6984C71.1496 33.6984 72.1544 32.31 72.1544 30.4169ZM81.1997 31.5534C81.3251 32.8148 82.5809 33.6984 84.3395 33.6984C85.9738 33.6984 87.2285 32.8148 87.2285 31.6793C87.2285 30.6698 86.4757 30.0391 84.8425 29.6592L83.0838 29.2815C80.6967 28.6497 79.5665 27.5143 79.5665 25.7471C79.5665 23.4741 81.5761 21.8338 84.3395 21.8338C87.104 21.8338 88.9882 23.3481 89.1136 25.746H87.104C86.9775 24.4846 85.8473 23.601 84.3395 23.601C82.8318 23.601 81.7015 24.3577 81.7015 25.6201C81.7015 26.5037 82.4554 27.1354 84.0886 27.5143L85.5963 27.892C88.3598 28.5238 89.3646 29.6592 89.3646 31.5534C89.3646 34.0772 87.355 35.5926 84.2141 35.5926C81.3251 35.5926 79.3155 34.0772 79.189 31.6793H81.1997V31.5524V31.5534ZM93.5103 23.2222V25.4942H95.3944V27.0106H93.5103V32.3122C93.5103 33.1958 93.8867 33.5746 94.6406 33.5746H95.269V35.0889C95.018 35.0889 94.6406 35.2159 94.1387 35.2159C92.2546 35.2159 91.3752 34.4582 91.3752 32.564V27.0106H89.993V25.4952H91.3742V23.2222H93.5103ZM96.4003 30.4169C96.4003 27.3873 98.1589 25.4942 100.922 25.4942C103.686 25.4942 105.446 27.3873 105.446 30.4169C105.446 33.4465 103.686 35.3397 100.922 35.3397C98.1589 35.3397 96.4003 33.4455 96.4003 30.4169ZM103.56 30.4169C103.56 28.2709 102.556 27.1344 101.048 27.1344C99.4147 27.1344 98.5353 28.3968 98.5353 30.4169C98.5353 32.5629 99.5401 33.6984 101.048 33.6984C102.556 33.6984 103.56 32.436 103.56 30.4169ZM107.203 25.6201H109.087V27.2603C109.339 26.1249 110.219 25.4931 111.349 25.4931C111.6 25.4931 111.852 25.4931 111.977 25.6201V27.5143C111.851 27.3873 111.474 27.3873 111.098 27.3873C109.841 27.3873 109.087 28.2709 109.087 29.6592V35.3397H107.078V25.6201H107.203ZM121.147 32.436C120.896 34.2032 119.137 35.3397 117.002 35.3397C114.238 35.3397 112.479 33.4455 112.479 30.4169C112.479 27.3873 114.238 25.3672 116.876 25.3672C119.514 25.3672 121.147 27.2614 121.147 30.164V30.7957H114.363V30.9217C114.363 32.5619 115.369 33.6984 117.002 33.6984C118.133 33.6984 119.012 33.1936 119.263 32.31H121.147V32.436ZM114.49 29.5333H119.263C119.263 28.018 118.258 27.1344 116.876 27.1344C115.62 27.0074 114.615 28.018 114.49 29.5333ZM45.2705 11.9873C47.1557 11.9873 48.2859 13.1227 48.2859 15.1428C48.2859 17.1629 47.1557 18.2984 45.2705 18.2984H43.01V11.9873H45.2705ZM43.8893 17.4159H45.145C46.5262 17.4159 47.2811 16.5312 47.2811 15.1428C47.2811 13.7545 46.5273 12.8709 45.145 12.8709H43.8893V17.4148V17.4159ZM49.2907 16.0264C49.2907 14.5132 50.1701 13.5026 51.5523 13.5026C52.9335 13.5026 53.8139 14.3862 53.8139 16.0264C53.8139 17.5418 52.9346 18.5513 51.5523 18.5513C50.1711 18.4243 49.2907 17.5418 49.2907 16.0264ZM52.8081 16.0264C52.8081 15.0169 52.3062 14.3862 51.5523 14.3862C50.673 14.3862 50.2955 15.0169 50.2955 16.0264C50.2955 17.037 50.7985 17.6677 51.5523 17.6677C52.4317 17.6677 52.8081 17.037 52.8081 16.0275V16.0264ZM59.8438 18.4254H58.839L57.8331 14.891H57.7076L56.7028 18.4254H55.698L54.4423 13.6286H55.4471L56.3264 17.2899H56.4519L57.4567 13.6286H58.336L59.3408 17.2899H59.4673L60.3456 13.6286H61.3515L59.8438 18.4254ZM62.2298 13.5026H63.1101V14.2592H63.2356C63.4865 13.7545 63.9895 13.3756 64.6168 13.3756C65.6216 13.3756 66.2511 14.0074 66.2511 15.1428V18.2984H65.2452V15.3958C65.2452 14.6381 64.8688 14.2592 64.2404 14.2592C63.612 14.2592 63.1101 14.764 63.1101 15.5217V18.2984H62.1043V13.5026H62.2298ZM67.7577 11.7344H68.7625V18.4243H67.7577V11.7344ZM70.0193 16.0264C70.0193 14.5132 70.8986 13.5026 72.2798 13.5026C73.6611 13.5026 74.5414 14.3862 74.5414 16.0264C74.5414 17.5418 73.6621 18.5513 72.2798 18.5513C70.8986 18.4243 70.0193 17.5418 70.0193 16.0264ZM73.6621 16.0264C73.6621 15.0169 73.1592 14.3862 72.4053 14.3862C71.526 14.3862 71.1496 15.0169 71.1496 16.0264C71.1496 17.037 71.6515 17.6677 72.4053 17.6677C73.1592 17.6677 73.6621 17.037 73.6621 16.0275V16.0264ZM75.5462 17.037C75.5462 16.1534 76.1746 15.6487 77.3049 15.6487L78.5606 15.5217V15.1428C78.5606 14.6381 78.1842 14.3862 77.5558 14.3862C77.054 14.3862 76.6765 14.6381 76.551 14.891H75.6728C75.7993 14.0074 76.5521 13.5026 77.6824 13.5026C78.9391 13.5026 79.5675 14.1333 79.5675 15.1428V18.4254H78.6882V17.7936H78.5617C78.3107 18.2995 77.8089 18.5513 77.1805 18.5513C76.3011 18.4243 75.5462 17.9206 75.5462 17.037ZM78.6872 16.6582V16.2793L77.5558 16.4063C76.9285 16.4063 76.551 16.6582 76.551 17.037C76.551 17.4159 76.9285 17.6677 77.4304 17.6677C78.0588 17.6677 78.6872 17.1629 78.6872 16.6582ZM80.8233 16.0264C80.8233 14.5111 81.5771 13.5016 82.8329 13.5016C83.4613 13.5016 84.0886 13.7534 84.3406 14.3852H84.4661V11.7344H85.4709V18.4243H84.5915V17.6667H84.465C84.2151 18.1714 83.5867 18.5502 82.9583 18.5502C81.5771 18.4243 80.8233 17.5407 80.8233 16.0264ZM81.8281 16.0264C81.8281 17.036 82.3299 17.6667 83.0838 17.6667C83.8377 17.6667 84.3406 17.036 84.3406 16.0264C84.3406 15.0159 83.8377 14.3852 83.0838 14.3852C82.3299 14.3852 81.8281 14.891 81.8281 16.0264ZM89.2391 16.0264C89.2391 14.5132 90.1184 13.5026 91.5007 13.5026C92.8819 13.5026 93.7623 14.3862 93.7623 16.0264C93.7623 17.5418 92.883 18.5513 91.5007 18.5513C89.993 18.4243 89.2391 17.5418 89.2391 16.0264ZM92.7564 16.0264C92.7564 15.0169 92.2546 14.3862 91.5007 14.3862C90.6214 14.3862 90.2439 15.0169 90.2439 16.0264C90.2439 17.037 90.7468 17.6677 91.5007 17.6677C92.2546 17.6677 92.7564 17.037 92.7564 16.0275V16.0264ZM95.018 13.5026H95.8974V14.2592H96.0239C96.2748 13.7545 96.7767 13.3756 97.4051 13.3756C98.4099 13.3756 99.0383 14.0074 99.0383 15.1428V18.2984H98.0335V15.3958C98.0335 14.6381 97.656 14.2592 97.0276 14.2592C96.4003 14.2592 95.8974 14.764 95.8974 15.5217V18.2984H94.8926V13.5026H95.018ZM104.314 12.3661V13.6286H105.319V14.3862H104.314V16.9111C104.314 17.4159 104.566 17.6677 104.943 17.6677H105.319V18.4254H104.817C103.812 18.4254 103.309 18.0465 103.309 17.1629V14.5132H102.681V13.7555H103.435V12.4931H104.314V12.3661ZM106.702 11.7344H107.581V14.3852H107.707C107.958 13.8804 108.46 13.5016 109.215 13.5016C110.219 13.5016 110.847 14.1323 110.847 15.2688V18.4243H109.842V15.5206C109.842 14.764 109.465 14.3852 108.837 14.3852C108.084 14.3852 107.581 14.8899 107.581 15.6476V18.4243H106.576V11.7344H106.702ZM116.248 17.036C115.998 17.9196 115.244 18.4254 114.239 18.4254C112.857 18.4254 111.977 17.5418 111.977 15.9005C111.977 14.3852 112.857 13.3756 114.239 13.3756C115.62 13.3756 116.374 14.2592 116.374 15.7746V16.1534H112.982C112.982 17.037 113.485 17.5418 114.239 17.5418C114.866 17.5418 115.244 17.2889 115.369 16.91H116.248V17.036ZM112.982 15.5227H115.369C115.369 14.764 114.866 14.2592 114.239 14.2592C113.485 14.2592 112.982 14.7651 112.982 15.5227Z" fill="white"/>
            </g>
        </g>
    </g>
    <defs>
        <clipPath id="clip0_7602_1630">
            <rect width="106.753" height="28.5714" fill="white" transform="translate(15.1233 10.7148)"/>
        </clipPath>
        <clipPath id="clip1_7602_1630">
            <rect width="106.753" height="28.5714" fill="white" transform="translate(15.1233 10.7148)"/>
        </clipPath>
        <clipPath id="clip2_7602_1630">
            <rect width="106.49" height="28.5714" fill="white" transform="translate(15.2554 10.7148)"/>
        </clipPath>
    </defs>
</svg>