<svg width="151" height="50" viewBox="0 0 151 50" fill="none" xmlns="http://www.w3.org/2000/svg">
    <rect x="0.5" y="0.5" width="150" height="49" rx="7.5" stroke="white"/>
    <g clip-path="url(#clip0_7602_1635)">
        <g clip-path="url(#clip1_7602_1635)">
            <g clip-path="url(#clip2_7602_1635)">
                <path d="M54.7658 14.5574C54.7658 15.4505 54.5133 16.0883 54.0092 16.5989C53.3775 17.2367 52.62 17.4929 51.7368 17.4929C50.8526 17.4929 50.096 17.2367 49.4652 16.5989C48.8335 15.9611 48.5811 15.1952 48.5811 14.3021C48.5811 13.4081 48.8335 12.6431 49.4652 12.0044C50.096 11.3666 50.8535 11.1113 51.7368 11.1113C52.115 11.1113 52.6209 11.2394 52.9992 11.3666C53.3775 11.4938 53.7558 11.7491 54.0083 12.0044L53.5033 12.515C53.125 12.0044 52.4942 11.75 51.8625 11.75C51.2318 11.75 50.601 12.0044 50.2218 12.3878C49.7177 12.8984 49.4652 13.4081 49.4652 14.174C49.4652 14.9399 49.7177 15.4505 50.2218 15.9611C50.7268 16.4717 51.2318 16.5989 51.8625 16.5989C52.4942 16.5989 53.125 16.3436 53.63 15.9611C53.8825 15.7058 54.135 15.1952 54.135 14.6846H51.8616V13.9196H54.7648L54.7658 14.5574ZM59.4364 12.0044H56.659V13.9196H59.1839V14.6846H56.659V16.5998H59.4364V17.3648H55.9024V11.2394H59.4364V12.0044ZM62.7179 17.4929H61.9604V12.0044H60.193V11.2394H64.3587V12.0044H62.7179V17.4929ZM67.5135 17.492V11.3666H68.2709V17.492H67.5135ZM71.8049 17.4929H71.0474V12.0044H69.28V11.2394H73.4457V12.0044H71.6782V17.492L71.8049 17.4929ZM81.3969 16.5998C80.7661 17.2376 80.0087 17.4929 79.1254 17.4929C78.2412 17.4929 77.4846 17.2376 76.8539 16.5989C76.2222 15.9611 75.9697 15.1961 75.9697 14.3021C75.9697 13.409 76.2222 12.6431 76.8539 12.0053C77.4846 11.3675 78.2421 11.1113 79.1254 11.1113C80.0096 11.1113 80.7661 11.3675 81.3969 12.0053C82.0286 12.6431 82.2811 13.409 82.2811 14.3021C82.4069 15.3233 82.0286 16.0892 81.3969 16.5998ZM77.4846 16.0892C77.9896 16.5998 78.4946 16.727 79.1254 16.727C79.7562 16.727 80.3878 16.4717 80.7661 16.0892C81.2711 15.5786 81.3969 15.068 81.3969 14.3021C81.3969 13.5371 81.1444 13.0265 80.7661 12.5159C80.2611 12.0053 79.7562 11.8781 79.1254 11.8781C78.4946 11.8781 77.8629 12.1334 77.4846 12.5159C76.9796 13.0265 76.8539 13.5371 76.8539 14.3021C76.8539 15.068 77.1054 15.7067 77.4846 16.0892ZM83.4168 17.492V11.3666H84.4259L87.4549 16.2164V11.4947H88.2124V17.6201H87.3282L84.1743 12.515V17.492H83.4159H83.4168Z" fill="white"/>
                <path d="M17.0274 11.752C16.775 12.0073 16.5225 12.645 16.5225 13.2828V36.1261C16.5225 36.7639 16.775 37.2745 17.0274 37.5298L29.7751 24.6404L17.0274 11.752ZM33.9399 29.1086L29.6484 24.7695L33.9399 20.4312L38.9879 23.3658C40.3771 24.1317 40.3771 25.5354 38.9879 26.3013L33.9399 29.1086ZM33.939 29.1096L29.6475 24.7704L16.9007 37.6598C17.4057 38.1704 18.1623 38.2976 19.0465 37.787L33.939 29.1096Z" stroke="white" stroke-width="1.06735" stroke-miterlimit="10" stroke-linecap="round" stroke-linejoin="round"/>
                <path d="M33.9401 20.3023L19.0476 11.7521C18.1634 11.2415 17.4068 11.2415 16.9019 11.7521L29.6486 24.6406L33.9401 20.3023Z" stroke="white" stroke-width="1.06735" stroke-miterlimit="10" stroke-linecap="round" stroke-linejoin="round"/>
                <path d="M75.8434 26.4289C73.4461 26.4289 71.4261 28.2151 71.4261 30.7672C71.4261 33.3202 73.3194 35.1063 75.8434 35.1063C78.2416 35.1063 80.2616 33.1921 80.2616 30.7672C80.2616 28.3432 78.2416 26.4289 75.8434 26.4289ZM75.8434 33.5745C74.5818 33.5745 73.4461 32.4262 73.4461 30.8953C73.4461 29.3635 74.5818 28.2151 75.8434 28.2151C77.1058 28.2151 78.2416 29.2363 78.2416 30.8953C78.3683 32.4262 77.2307 33.5745 75.8434 33.5745ZM66.3781 26.4289C63.9799 26.4289 61.9608 28.216 61.9608 30.7681C61.9608 33.3211 63.8541 35.1073 66.3781 35.1073C68.7754 35.1073 70.7954 33.193 70.7954 30.7681C70.6687 28.3441 68.7763 26.4289 66.3781 26.4289ZM66.3781 33.5755C65.1156 33.5755 63.9799 32.4271 63.9799 30.8962C63.9799 29.3644 65.1156 28.216 66.3772 28.216C67.6397 28.216 68.7763 29.2372 68.7763 30.8962C68.7763 32.4271 67.6397 33.5755 66.3781 33.5755ZM55.0187 27.8335V29.7469H59.4359C59.3101 30.7681 58.9318 31.534 58.4269 32.0446C57.7952 32.6824 56.7861 33.4483 55.0187 33.4483C52.3689 33.4483 50.2231 31.2787 50.2231 28.4713C50.2231 25.7911 52.3689 23.4944 55.0187 23.4944C56.5336 23.4944 57.5436 24.1322 58.3002 24.7699L59.5626 23.4944C58.4269 22.4732 57.0377 21.5801 54.8929 21.5801C51.2322 21.5801 48.0774 24.6428 48.0774 28.3432C48.0774 32.0446 51.2322 35.1073 54.8929 35.1073C56.9119 35.1073 58.4269 34.4695 59.5626 33.193C60.8251 31.9165 61.2034 30.2575 61.2034 28.8538C61.2034 28.4713 61.2034 27.9607 61.0767 27.7054H55.0187V27.8335ZM101.339 29.2372C100.96 28.216 99.8238 26.4289 97.6781 26.4289C95.4066 26.4289 93.64 28.216 93.64 30.7681C93.6353 31.3392 93.743 31.9055 93.957 32.4341C94.1709 32.9626 94.4867 33.4428 94.8861 33.8467C95.2854 34.2506 95.7603 34.57 96.283 34.7865C96.8057 35.0029 97.3658 35.1119 97.9306 35.1073C99.9505 35.1073 101.086 33.8308 101.591 33.193L100.076 32.1718C99.5713 32.9377 98.9405 33.4483 97.9306 33.4483C96.9206 33.4483 96.2898 32.9377 95.7848 32.1718L101.591 29.7478L101.339 29.2372ZM95.4066 30.7681C95.4066 29.1091 96.669 28.2151 97.6781 28.2151C98.4356 28.2151 99.0663 28.5985 99.3188 29.1091L95.4066 30.7681ZM90.6101 34.9801H92.5033V22.0888H90.6101V34.9773V34.9801ZM87.5811 27.4501C87.077 26.9395 86.3196 26.4289 85.1838 26.4289C83.0381 26.4289 81.0181 28.3432 81.0181 30.8962C81.0181 33.3202 83.0381 35.2345 85.1838 35.2345C86.1929 35.2345 87.077 34.7239 87.4553 34.2142H87.5811V34.852C87.5811 36.511 86.6978 37.405 85.3096 37.405C84.1738 37.405 83.4163 36.511 83.1639 35.8732L81.5231 36.511C82.0281 37.6593 83.2906 39.0639 85.3096 39.0639C87.5811 39.0639 89.4753 37.7875 89.4753 34.4695V26.557H87.7069V27.451L87.5811 27.4501ZM85.3096 33.5755C84.0471 33.5755 82.9123 32.4271 82.9123 30.8962C82.9123 29.3644 84.0471 28.216 85.3096 28.216C86.572 28.216 87.5811 29.3644 87.5811 30.8962C87.7078 32.4271 86.6978 33.5755 85.3096 33.5755ZM110.173 22.0907H105.629V34.9792H107.523V30.1303H110.173C112.319 30.1303 114.338 28.5985 114.338 26.1745C114.338 23.6216 112.319 22.0907 110.173 22.0907ZM110.299 28.3432H107.649V23.8759H110.299C111.688 23.8759 112.572 25.0243 112.572 26.0455C112.445 27.0667 111.688 28.3423 110.299 28.3423V28.3432ZM122.037 26.4289C120.649 26.4289 119.26 27.0676 118.63 28.3432L120.27 29.1091C120.649 28.3441 121.28 28.2151 122.037 28.2151C123.047 28.2151 124.057 28.8538 124.057 29.8741V30.0031C123.678 29.7478 122.921 29.4925 122.037 29.4925C120.27 29.4925 118.377 30.5128 118.377 32.4271C118.377 34.2142 119.892 35.2345 121.533 35.2345C122.794 35.2345 123.552 34.5967 123.93 33.9589H124.057V34.9792H125.95V30.0022C125.95 27.7054 124.183 26.4289 122.037 26.4289ZM121.784 33.5755C121.154 33.5755 120.27 33.3202 120.27 32.4271C120.27 31.4059 121.406 31.0234 122.289 31.0234C123.173 31.0234 123.552 31.1515 124.057 31.4068C123.93 32.6824 122.921 33.5755 121.784 33.5755ZM132.639 26.8123L130.493 32.4271H130.367L128.095 26.8123H126.076L129.484 34.5967L127.591 38.9358H129.61L134.784 26.8123H132.639ZM115.474 34.9792H117.367V22.0898H115.474V34.9792Z" fill="white"/>
            </g>
        </g>
    </g>
    <defs>
        <clipPath id="clip0_7602_1635">
            <rect width="120.977" height="28.5714" fill="white" transform="translate(15.0117 10.7148)"/>
        </clipPath>
        <clipPath id="clip1_7602_1635">
            <rect width="120.977" height="28.5714" fill="white" transform="translate(15.0117 10.7148)"/>
        </clipPath>
        <clipPath id="clip2_7602_1635">
            <rect width="120.321" height="28.5714" fill="white" transform="translate(15.3359 10.7148)"/>
        </clipPath>
    </defs>
</svg>
