<svg width="20" height="20" viewBox="0 0 20 20" fill="none" xmlns="http://www.w3.org/2000/svg">
<path d="M19.5 10C19.5 15.2467 15.2467 19.5 10 19.5C4.75329 19.5 0.5 15.2467 0.5 10C0.5 4.75329 4.75329 0.5 10 0.5C15.2467 0.5 19.5 4.75329 19.5 10Z" fill="#E14919"/>
<path d="M10.527 3.48954L5.96466 9.73402C5.77156 9.99831 5.96032 10.37 6.28764 10.37H7.83335C8.06066 10.37 8.24228 10.5592 8.23302 10.7863L8.04677 15.3532C8.03133 15.7318 8.50199 15.9177 8.7494 15.6307L13.93 9.62118C14.1535 9.36193 13.9693 8.96 13.6271 8.96H11.65C11.4291 8.96 11.25 8.78091 11.25 8.56V3.72551C11.25 3.33857 10.7553 3.1771 10.527 3.48954Z" fill="white"/>
<path d="M19.5 10C19.5 15.2467 15.2467 19.5 10 19.5C4.75329 19.5 0.5 15.2467 0.5 10C0.5 4.75329 4.75329 0.5 10 0.5C15.2467 0.5 19.5 4.75329 19.5 10Z" stroke="white"/>
<path d="M10.527 3.48954L5.96466 9.73402C5.77156 9.99831 5.96032 10.37 6.28764 10.37H7.83335C8.06066 10.37 8.24228 10.5592 8.23302 10.7863L8.04677 15.3532C8.03133 15.7318 8.50199 15.9177 8.7494 15.6307L13.93 9.62118C14.1535 9.36193 13.9693 8.96 13.6271 8.96H11.65C11.4291 8.96 11.25 8.78091 11.25 8.56V3.72551C11.25 3.33857 10.7553 3.1771 10.527 3.48954Z" stroke="white"/>
</svg>
