<svg width="24" height="25" viewBox="0 0 24 25" fill="none" xmlns="http://www.w3.org/2000/svg">
<path d="M10.8773 16.7437H12.2433V11.6653H10.8773V16.7437ZM11.4976 10.1915C11.7145 10.1915 11.8964 10.1201 12.0432 9.97732C12.1899 9.83455 12.2633 9.65764 12.2633 9.4466C12.2633 9.21993 12.1899 9.03215 12.0432 8.88324C11.8965 8.73433 11.7147 8.65987 11.4979 8.65987C11.2772 8.65987 11.0944 8.73433 10.9493 8.88324C10.8042 9.03215 10.7317 9.21909 10.7317 9.44409C10.7317 9.65722 10.8051 9.83507 10.9519 9.97764C11.0987 10.1202 11.2806 10.1915 11.4976 10.1915ZM11.5037 21C10.3288 21 9.22615 20.7776 8.1958 20.3328C7.16546 19.8879 6.26432 19.2795 5.49239 18.5076C4.72046 17.7357 4.11207 16.8342 3.66724 15.8033C3.22241 14.7724 3 13.6689 3 12.4927C3 11.3166 3.22241 10.2128 3.66724 9.18147C4.11207 8.15008 4.72019 7.25181 5.49159 6.48668C6.26301 5.72155 7.1643 5.11583 8.19547 4.6695C9.22665 4.22317 10.3304 4 11.5068 4C12.6833 4 13.7874 4.22304 14.8191 4.66912C15.8509 5.11519 16.7492 5.72056 17.5141 6.48525C18.279 7.24994 18.8845 8.14916 19.3307 9.18289C19.7769 10.2166 20 11.3213 20 12.4969C20 13.6724 19.7768 14.7752 19.3305 15.8055C18.8842 16.8358 18.2784 17.7354 17.5133 18.5044C16.7482 19.2733 15.849 19.8815 14.8159 20.3289C13.7827 20.7763 12.6787 21 11.5037 21ZM11.508 19.574C13.4691 19.574 15.1362 18.885 16.5093 17.507C17.8824 16.129 18.569 14.4574 18.569 12.492C18.569 10.5309 17.8837 8.8638 16.5132 7.49069C15.1427 6.11759 13.47 5.43105 11.495 5.43105C9.53915 5.43105 7.87204 6.11629 6.49364 7.48678C5.11523 8.85726 4.42602 10.53 4.42602 12.505C4.42602 14.4608 5.11501 16.128 6.49299 17.5064C7.87097 18.8848 9.54262 19.574 11.508 19.574Z" fill="white"/>
</svg>
