<svg width="137" height="40" viewBox="0 0 137 40" fill="none" xmlns="http://www.w3.org/2000/svg">
<path d="M136.202 35.0046C136.202 37.1131 134.459 38.8211 132.302 38.8211H4.66616C2.51057 38.8211 0.760864 37.1131 0.760864 35.0046V4.56863C0.760864 2.46104 2.51057 0.74707 4.66616 0.74707H132.301C134.459 0.74707 136.201 2.46104 136.201 4.56863L136.202 35.0046Z" fill="black"/>
<path d="M131.89 0.792813C134.239 0.792813 136.15 2.65618 136.15 4.94613V34.6215C136.15 36.9114 134.239 38.7748 131.89 38.7748H5.07271C2.72405 38.7748 0.812902 36.9114 0.812902 34.6215V4.94613C0.812902 2.65618 2.72405 0.792813 5.07271 0.792813H131.89ZM131.89 0.000234403H5.07271C2.28399 0.000234403 0 2.22712 0 4.94613V34.6215C0 37.3405 2.28399 39.5674 5.07271 39.5674H131.89C134.679 39.5674 136.963 37.3405 136.963 34.6215V4.94613C136.963 2.22712 134.679 0.000234403 131.89 0.000234403Z" fill="#A6A6A6"/>
<path d="M30.5661 19.5696C30.5367 16.3815 33.2435 14.8304 33.3673 14.7582C31.8343 12.5791 29.4582 12.2813 28.6233 12.2576C26.6277 12.0528 24.6919 13.4219 23.6753 13.4219C22.6385 13.4219 21.073 12.2774 19.3859 12.311C17.2147 12.3437 15.1836 13.5692 14.0696 15.4724C11.7707 19.353 13.4853 25.0556 15.6878 28.1923C16.7896 29.7285 18.0771 31.4437 19.7622 31.3834C21.4109 31.3171 22.0267 30.3586 24.0162 30.3586C25.9875 30.3586 26.5658 31.3834 28.2844 31.3448C30.0538 31.3171 31.1677 29.8017 32.231 28.2516C33.5042 26.4909 34.0156 24.7569 34.0358 24.6678C33.9942 24.654 30.5996 23.3908 30.5661 19.5696Z" fill="white"/>
<path d="M27.3196 10.1942C28.2063 9.11299 28.813 7.64208 28.6446 6.14941C27.3612 6.20481 25.7562 7.01495 24.8319 8.07238C24.0142 9.00418 23.2837 10.5315 23.4724 11.9678C24.9141 12.0726 26.3943 11.2585 27.3196 10.1942Z" fill="white"/>
<path d="M54.4252 31.163H52.1212L50.8591 27.2963H46.4722L45.27 31.163H43.0269L47.3732 17.999H50.0576L54.4252 31.163ZM50.4787 25.6741L49.3373 22.2367C49.2166 21.8855 48.9903 21.0586 48.6565 19.7568H48.616C48.4831 20.3167 48.269 21.1436 47.9748 22.2367L46.8537 25.6741H50.4787Z" fill="white"/>
<path d="M65.6022 26.3008C65.6022 27.9151 65.1548 29.1912 64.26 30.1279C63.4585 30.9618 62.4632 31.3782 61.2752 31.3782C59.9928 31.3782 59.0716 30.9292 58.5105 30.031H58.47V35.0313H56.307V24.7962C56.307 23.7813 56.2796 22.7397 56.2268 21.6714H58.1291L58.2498 23.176H58.2904C59.0117 22.0424 60.1064 21.4766 61.5755 21.4766C62.7239 21.4766 63.6827 21.9187 64.4497 22.804C65.2187 23.6903 65.6022 24.8556 65.6022 26.3008ZM63.3986 26.3779C63.3986 25.4541 63.1856 24.6924 62.7574 24.0929C62.2897 23.4678 61.6617 23.1552 60.8744 23.1552C60.3408 23.1552 59.8558 23.3293 59.4226 23.6725C58.9884 24.0188 58.7043 24.4708 58.5714 25.0307C58.5045 25.2918 58.471 25.5055 58.471 25.6736V27.2563C58.471 27.9468 58.6881 28.5294 59.1223 29.0052C59.5565 29.481 60.1206 29.7184 60.8146 29.7184C61.6292 29.7184 62.2633 29.4118 62.7168 28.8004C63.1713 28.1881 63.3986 27.381 63.3986 26.3779Z" fill="white"/>
<path d="M76.8 26.3008C76.8 27.9151 76.3526 29.1912 75.4568 30.1279C74.6563 30.9618 73.661 31.3782 72.473 31.3782C71.1906 31.3782 70.2694 30.9292 69.7094 30.031H69.6688V35.0313H67.5058V24.7962C67.5058 23.7813 67.4784 22.7397 67.4257 21.6714H69.3279L69.4487 23.176H69.4892C70.2096 22.0424 71.3043 21.4766 72.7743 21.4766C73.9218 21.4766 74.8805 21.9187 75.6495 22.804C76.4155 23.6903 76.8 24.8556 76.8 26.3008ZM74.5964 26.3779C74.5964 25.4541 74.3824 24.6924 73.9542 24.0929C73.4865 23.4678 72.8606 23.1552 72.0723 23.1552C71.5376 23.1552 71.0537 23.3293 70.6194 23.6725C70.1852 24.0188 69.9022 24.4708 69.7692 25.0307C69.7033 25.2918 69.6688 25.5055 69.6688 25.6736V27.2563C69.6688 27.9468 69.8859 28.5294 70.3181 29.0052C70.7523 29.48 71.3164 29.7184 72.0124 29.7184C72.8271 29.7184 73.4612 29.4118 73.9147 28.8004C74.3692 28.1881 74.5964 27.381 74.5964 26.3779Z" fill="white"/>
<path d="M89.3197 27.4719C89.3197 28.5917 88.921 29.5027 88.1205 30.206C87.2409 30.9746 86.0163 31.3584 84.4428 31.3584C82.9899 31.3584 81.8252 31.0854 80.9436 30.5384L81.4448 28.7806C82.3944 29.3405 83.4363 29.6214 84.5716 29.6214C85.3863 29.6214 86.0204 29.4414 86.4759 29.0833C86.9294 28.7252 87.1556 28.2445 87.1556 27.645C87.1556 27.1109 86.969 26.6608 86.5946 26.2958C86.2223 25.9308 85.6004 25.5915 84.7319 25.2779C82.368 24.4183 81.1871 23.1591 81.1871 21.5032C81.1871 20.421 81.601 19.5337 82.4299 18.8433C83.2557 18.1519 84.3575 17.8066 85.7353 17.8066C86.9639 17.8066 87.9845 18.0154 88.7992 18.4318L88.2585 20.151C87.4975 19.7474 86.6372 19.5456 85.6744 19.5456C84.9135 19.5456 84.319 19.7286 83.8929 20.0926C83.5327 20.4181 83.3521 20.8147 83.3521 21.2846C83.3521 21.8049 83.5581 22.2352 83.972 22.5735C84.3322 22.8861 84.9866 23.2244 85.9362 23.5894C87.0978 24.0454 87.9511 24.5786 88.4999 25.1899C89.0468 25.7992 89.3197 26.5619 89.3197 27.4719Z" fill="white"/>
<path d="M96.4708 23.2535H94.0867V27.8621C94.0867 29.0342 94.5067 29.6198 95.3488 29.6198C95.7353 29.6198 96.0559 29.5872 96.3095 29.5219L96.3694 31.1234C95.9433 31.2787 95.3823 31.3568 94.6873 31.3568C93.833 31.3568 93.1655 31.1026 92.6836 30.5952C92.2037 30.0867 91.9622 29.2341 91.9622 28.0362V23.2515H90.5419V21.6688H91.9622V19.9308L94.0867 19.3057V21.6688H96.4708V23.2535Z" fill="white"/>
<path d="M107.228 26.3394C107.228 27.7984 106.8 28.9963 105.946 29.933C105.05 30.8975 103.861 31.3782 102.378 31.3782C100.95 31.3782 99.8127 30.9163 98.9645 29.9924C98.1163 29.0685 97.6923 27.9023 97.6923 26.4966C97.6923 25.0257 98.1285 23.8209 99.0041 22.8842C99.8776 21.9464 101.056 21.4775 102.539 21.4775C103.967 21.4775 105.117 21.9395 105.984 22.8644C106.814 23.7616 107.228 24.9199 107.228 26.3394ZM104.984 26.4076C104.984 25.5322 104.792 24.7814 104.403 24.1552C103.95 23.3975 103.302 23.0197 102.462 23.0197C101.592 23.0197 100.932 23.3985 100.478 24.1552C100.09 24.7824 99.8979 25.545 99.8979 26.4472C99.8979 27.3226 100.09 28.0734 100.478 28.6985C100.946 29.4563 101.599 29.8341 102.442 29.8341C103.268 29.8341 103.916 29.4483 104.384 28.6788C104.783 28.0407 104.984 27.282 104.984 26.4076Z" fill="white"/>
<path d="M114.259 23.5261C114.045 23.4876 113.817 23.4678 113.577 23.4678C112.816 23.4678 112.228 23.7477 111.814 24.3086C111.454 24.8032 111.273 25.4283 111.273 26.1831V31.1636H109.111L109.131 24.6607C109.131 23.5667 109.104 22.5706 109.05 21.6724H110.934L111.013 23.4886H111.073C111.301 22.8644 111.662 22.3619 112.155 21.985C112.637 21.6457 113.157 21.4766 113.718 21.4766C113.918 21.4766 114.099 21.4904 114.259 21.5151V23.5261Z" fill="white"/>
<path d="M123.932 25.9686C123.932 26.3465 123.907 26.665 123.853 26.9252H117.364C117.39 27.8629 117.703 28.5801 118.306 29.0747C118.852 29.5168 119.56 29.7384 120.428 29.7384C121.389 29.7384 122.265 29.589 123.054 29.2893L123.393 30.7533C122.471 31.145 121.384 31.3399 120.129 31.3399C118.619 31.3399 117.434 30.9066 116.572 30.0411C115.711 29.1756 115.28 28.0133 115.28 26.5552C115.28 25.1239 115.681 23.9319 116.484 22.9813C117.324 21.9664 118.459 21.459 119.887 21.459C121.29 21.459 122.353 21.9664 123.074 22.9813C123.645 23.7875 123.932 24.7846 123.932 25.9686ZM121.87 25.4216C121.884 24.7965 121.743 24.2564 121.45 23.8004C121.075 23.2138 120.5 22.921 119.726 22.921C119.019 22.921 118.444 23.2069 118.004 23.7806C117.644 24.2366 117.43 24.7836 117.364 25.4206H121.87V25.4216Z" fill="white"/>
<path d="M49.7629 9.90123C49.7629 11.0655 49.4048 11.9419 48.6896 12.5305C48.0271 13.0735 47.0856 13.3456 45.8661 13.3456C45.2614 13.3456 44.744 13.3198 44.3108 13.2684V6.90699C44.8759 6.81796 45.4846 6.77246 46.142 6.77246C47.3037 6.77246 48.1792 7.01877 48.7697 7.51138C49.4312 8.06828 49.7629 8.86457 49.7629 9.90123ZM48.6419 9.92992C48.6419 9.17518 48.4369 8.59651 48.0271 8.19292C47.6172 7.79033 47.0186 7.58853 46.2303 7.58853C45.8955 7.58853 45.6104 7.6103 45.374 7.6558V12.4919C45.5049 12.5117 45.7443 12.5206 46.0923 12.5206C46.906 12.5206 47.534 12.3 47.9763 11.8588C48.4187 11.4176 48.6419 10.7747 48.6419 9.92992Z" fill="white"/>
<path d="M55.7071 10.9181C55.7071 11.6353 55.4971 12.2229 55.0771 12.6838C54.6368 13.1576 54.0534 13.3941 53.3249 13.3941C52.6229 13.3941 52.0639 13.1675 51.6469 12.7125C51.2309 12.2585 51.0229 11.6858 51.0229 10.9953C51.0229 10.2732 51.237 9.68069 51.6672 9.22072C52.0973 8.76075 52.6756 8.53027 53.4041 8.53027C54.1061 8.53027 54.6702 8.7568 55.0974 9.21083C55.5032 9.652 55.7071 10.2218 55.7071 10.9181ZM54.6043 10.9518C54.6043 10.5215 54.5089 10.1525 54.3192 9.84489C54.096 9.47296 53.7785 9.28699 53.3655 9.28699C52.9384 9.28699 52.6138 9.47296 52.3906 9.84489C52.1998 10.1525 52.1055 10.5274 52.1055 10.9706C52.1055 11.4009 52.2008 11.7698 52.3906 12.0775C52.6209 12.4494 52.9415 12.6354 53.3554 12.6354C53.7612 12.6354 54.0798 12.4464 54.3091 12.0676C54.5059 11.754 54.6043 11.3821 54.6043 10.9518Z" fill="white"/>
<path d="M63.6777 8.625L62.1813 13.288H61.2073L60.5874 11.2631C60.4302 10.7577 60.3024 10.2552 60.2029 9.75662H60.1836C60.0913 10.269 59.9635 10.7705 59.7991 11.2631L59.1407 13.288H58.1556L56.7484 8.625H57.8411L58.3818 10.8417C58.5127 11.366 58.6202 11.8655 58.7065 12.3384H58.7258C58.8049 11.9486 58.9358 11.4521 59.1204 10.8516L59.7991 8.62599H60.6656L61.3159 10.8042C61.4731 11.3354 61.601 11.8468 61.6994 12.3394H61.7288C61.8008 11.8596 61.9094 11.3482 62.0535 10.8042L62.6338 8.62599H63.6777V8.625Z" fill="white"/>
<path d="M69.1895 13.2883H68.1263V10.6175C68.1263 9.79448 67.8057 9.38298 67.1625 9.38298C66.8469 9.38298 66.5923 9.49575 66.3945 9.72227C66.1987 9.94879 66.0992 10.2159 66.0992 10.5215V13.2873H65.036V9.9577C65.036 9.54818 65.0228 9.10404 64.9974 8.62329H65.9318L65.9815 9.35232H66.011C66.1347 9.1258 66.3194 8.93884 66.5619 8.78948C66.85 8.61538 67.1726 8.52734 67.5257 8.52734C67.9721 8.52734 68.3434 8.66781 68.6386 8.94972C69.0059 9.29495 69.1895 9.81031 69.1895 10.4948V13.2883Z" fill="white"/>
<path d="M72.1214 13.2879H71.0592V6.48535H72.1214V13.2879Z" fill="white"/>
<path d="M78.3813 10.9181C78.3813 11.6353 78.1713 12.2229 77.7513 12.6838C77.3109 13.1576 76.7266 13.3941 75.9991 13.3941C75.2961 13.3941 74.737 13.1675 74.3211 12.7125C73.9051 12.2585 73.6971 11.6858 73.6971 10.9953C73.6971 10.2732 73.9112 9.68069 74.3414 9.22072C74.7715 8.76075 75.3498 8.53027 76.0773 8.53027C76.7803 8.53027 77.3434 8.7568 77.7715 9.21083C78.1774 9.652 78.3813 10.2218 78.3813 10.9181ZM77.2775 10.9518C77.2775 10.5215 77.1821 10.1525 76.9924 9.84489C76.7702 9.47296 76.4516 9.28699 76.0397 9.28699C75.6116 9.28699 75.2869 9.47296 75.0647 9.84489C74.874 10.1525 74.7797 10.5274 74.7797 10.9706C74.7797 11.4009 74.875 11.7698 75.0647 12.0775C75.295 12.4494 75.6156 12.6354 76.0296 12.6354C76.4354 12.6354 76.7529 12.4464 76.9822 12.0676C77.1801 11.754 77.2775 11.3821 77.2775 10.9518Z" fill="white"/>
<path d="M83.5269 13.2882H82.5722L82.493 12.7511H82.4636C82.1369 13.1794 81.6713 13.3941 81.0666 13.3941C80.6151 13.3941 80.2499 13.2526 79.975 12.9717C79.7254 12.7165 79.6006 12.399 79.6006 12.0221C79.6006 11.4523 79.8441 11.0181 80.3341 10.7173C80.8231 10.4166 81.511 10.2692 82.3967 10.2762V10.1891C82.3967 9.57485 82.0659 9.2682 81.4034 9.2682C80.9317 9.2682 80.5157 9.38393 80.1566 9.61342L79.9405 8.93287C80.3848 8.6648 80.9337 8.53027 81.581 8.53027C82.8309 8.53027 83.4579 9.17324 83.4579 10.4592V12.1764C83.4579 12.6423 83.4812 13.0132 83.5269 13.2882ZM82.423 11.6858V10.9666C81.2502 10.9468 80.6638 11.2604 80.6638 11.9063C80.6638 12.1497 80.7308 12.3317 80.8677 12.4534C81.0047 12.575 81.1792 12.6354 81.3872 12.6354C81.6205 12.6354 81.8387 12.5632 82.0375 12.4197C82.2374 12.2753 82.3601 12.0923 82.4058 11.8678C82.417 11.8173 82.423 11.756 82.423 11.6858Z" fill="white"/>
<path d="M89.5686 13.2879H88.6251L88.5754 12.5391H88.5459C88.2446 13.1089 87.7313 13.3938 87.0099 13.3938C86.4337 13.3938 85.9538 13.1732 85.5733 12.732C85.1929 12.2908 85.0032 11.7181 85.0032 11.0148C85.0032 10.2601 85.2091 9.64874 85.6231 9.18185C86.0238 8.74661 86.5148 8.52899 87.0992 8.52899C87.7414 8.52899 88.1909 8.73969 88.4465 9.16207H88.4668V6.48535H89.5311V12.0317C89.5311 12.4857 89.5432 12.9041 89.5686 13.2879ZM88.4668 11.3214V10.544C88.4668 10.4094 88.4567 10.3006 88.4374 10.2175C88.3775 9.96825 88.2487 9.75854 88.0529 9.58939C87.855 9.42024 87.6166 9.33518 87.3417 9.33518C86.945 9.33518 86.6346 9.4885 86.4063 9.79613C86.18 10.1038 86.0654 10.4965 86.0654 10.9762C86.0654 11.4372 86.1739 11.8111 86.3921 12.0989C86.6224 12.4056 86.9328 12.5589 87.3214 12.5589C87.6704 12.5589 87.9494 12.4313 88.1614 12.1751C88.3664 11.9387 88.4668 11.6538 88.4668 11.3214Z" fill="white"/>
<path d="M98.6619 10.9181C98.6619 11.6353 98.4519 12.2229 98.0319 12.6838C97.5916 13.1576 97.0092 13.3941 96.2798 13.3941C95.5787 13.3941 95.0197 13.1675 94.6017 12.7125C94.1858 12.2585 93.9778 11.6858 93.9778 10.9953C93.9778 10.2732 94.1919 9.68069 94.622 9.22072C95.0522 8.76075 95.6305 8.53027 96.3599 8.53027C97.061 8.53027 97.6261 8.7568 98.0522 9.21083C98.458 9.652 98.6619 10.2218 98.6619 10.9181ZM97.5601 10.9518C97.5601 10.5215 97.4648 10.1525 97.275 9.84489C97.0508 9.47296 96.7343 9.28699 96.3204 9.28699C95.8943 9.28699 95.5696 9.47296 95.3454 9.84489C95.1547 10.1525 95.0603 10.5274 95.0603 10.9706C95.0603 11.4009 95.1557 11.7698 95.3454 12.0775C95.5757 12.4494 95.8963 12.6354 96.3102 12.6354C96.716 12.6354 97.0356 12.4464 97.2649 12.0676C97.4607 11.754 97.5601 11.3821 97.5601 10.9518Z" fill="white"/>
<path d="M104.379 13.2883H103.316V10.6175C103.316 9.79448 102.996 9.38298 102.352 9.38298C102.036 9.38298 101.781 9.49575 101.585 9.72227C101.388 9.94879 101.289 10.2159 101.289 10.5215V13.2873H100.225V9.9577C100.225 9.54818 100.213 9.10404 100.188 8.62329H101.121L101.171 9.35232H101.2C101.325 9.1258 101.51 8.93884 101.751 8.78948C102.04 8.61538 102.362 8.52734 102.716 8.52734C103.161 8.52734 103.533 8.66781 103.828 8.94972C104.196 9.29495 104.379 9.81031 104.379 10.4948V13.2883Z" fill="white"/>
<path d="M111.534 9.40167H110.364V11.6669C110.364 12.2426 110.572 12.5304 110.984 12.5304C111.174 12.5304 111.333 12.5146 111.457 12.482L111.485 13.2684C111.275 13.3455 110.999 13.3841 110.659 13.3841C110.239 13.3841 109.912 13.2595 109.676 13.0102C109.438 12.7609 109.321 12.3415 109.321 11.7529V9.40167H108.622V8.62516H109.321V7.77051L110.363 7.46387V8.62417H111.533V9.40167H111.534Z" fill="white"/>
<path d="M117.163 13.2879H116.099V10.6369C116.099 9.80108 115.778 9.38266 115.136 9.38266C114.643 9.38266 114.306 9.62501 114.121 10.1097C114.09 10.2116 114.072 10.3362 114.072 10.4826V13.2869H113.01V6.48535H114.072V9.29561H114.092C114.427 8.7842 114.907 8.52899 115.529 8.52899C115.969 8.52899 116.333 8.66946 116.622 8.95137C116.982 9.30253 117.163 9.82482 117.163 10.5153V13.2879Z" fill="white"/>
<path d="M122.97 10.7353C122.97 10.9212 122.955 11.0775 122.93 11.2051H119.741C119.756 11.6661 119.908 12.0173 120.203 12.2606C120.473 12.4782 120.821 12.587 121.247 12.587C121.719 12.587 122.149 12.5138 122.536 12.3664L122.703 13.0866C122.249 13.2785 121.716 13.3744 121.098 13.3744C120.357 13.3744 119.774 13.1617 119.352 12.7364C118.928 12.311 118.718 11.7403 118.718 11.0241C118.718 10.3208 118.913 9.73522 119.308 9.26833C119.72 8.76978 120.277 8.52051 120.98 8.52051C121.668 8.52051 122.19 8.76978 122.543 9.26833C122.829 9.664 122.97 10.1536 122.97 10.7353ZM121.955 10.4672C121.963 10.1596 121.893 9.89448 121.749 9.67092C121.564 9.38307 121.283 9.23865 120.903 9.23865C120.556 9.23865 120.273 9.37911 120.057 9.66103C119.88 9.88557 119.776 10.1536 119.741 10.4672H121.955Z" fill="white"/>
</svg>
