<svg width="137" height="40" viewBox="0 0 137 40" fill="none" xmlns="http://www.w3.org/2000/svg">
<path d="M131.934 39.5674H5.29084C2.50595 39.5674 0.225098 37.3405 0.225098 34.6215V4.94613C0.225098 2.22712 2.50595 0.000236766 5.29084 0.000236766H131.934C134.719 0.000236766 137 2.22712 137 4.94613V34.6215C137 37.3405 134.719 39.5674 131.934 39.5674Z" fill="black"/>
<path d="M131.934 0.792815C134.28 0.792815 136.188 2.65618 136.188 4.94613V34.6215C136.188 36.9114 134.28 38.7748 131.934 38.7748H5.29084C2.9454 38.7748 1.03688 36.9114 1.03688 34.6215V4.94613C1.03688 2.65618 2.9454 0.792815 5.29084 0.792815H131.934ZM131.934 0.000236766H5.29084C2.50595 0.000236766 0.225098 2.22712 0.225098 4.94613V34.6215C0.225098 37.3405 2.50595 39.5674 5.29084 39.5674H131.934C134.719 39.5674 137 37.3405 137 34.6215V4.94613C137 2.22712 134.719 0.000236766 131.934 0.000236766Z" fill="#A6A6A6"/>
<path d="M48.2658 10.1332C48.2658 10.9592 48.0125 11.6207 47.5136 12.114C46.9399 12.6989 46.1927 12.9932 45.2771 12.9932C44.4019 12.9932 43.6547 12.6939 43.0418 12.1041C42.4276 11.5057 42.1211 10.7712 42.1211 9.89209C42.1211 9.01296 42.4276 8.27849 43.0418 7.68499C43.6547 7.09024 44.4019 6.79102 45.2771 6.79102C45.7127 6.79102 46.1281 6.87881 46.5245 7.04202C46.9196 7.20647 47.2413 7.42904 47.4743 7.70353L46.9449 8.22533C46.5384 7.7567 45.985 7.52548 45.2771 7.52548C44.6388 7.52548 44.0853 7.7431 43.6155 8.18205C43.1507 8.62223 42.9177 9.19225 42.9177 9.89209C42.9177 10.5919 43.1507 11.1669 43.6155 11.6071C44.0853 12.0411 44.6388 12.2636 45.2771 12.2636C45.9546 12.2636 46.5245 12.0411 46.9741 11.6021C47.2704 11.3116 47.4389 10.9109 47.4832 10.399H45.2771V9.68436H48.2202C48.2557 9.83892 48.2658 9.98853 48.2658 10.1332Z" fill="white" stroke="white" stroke-width="0.16" stroke-miterlimit="10"/>
<path d="M52.9353 7.65504H50.1707V9.53448H52.6631V10.2492H50.1707V12.1286H52.9353V12.8569H49.3881V6.92676H52.9353V7.65504Z" fill="white" stroke="white" stroke-width="0.16" stroke-miterlimit="10"/>
<path d="M56.2306 12.8569H55.448V7.65504H53.7522V6.92676H57.9276V7.65504H56.2306V12.8569Z" fill="white" stroke="white" stroke-width="0.16" stroke-miterlimit="10"/>
<path d="M60.949 12.8569V6.92676H61.7304V12.8569H60.949Z" fill="white" stroke="white" stroke-width="0.16" stroke-miterlimit="10"/>
<path d="M65.1945 12.8569H64.4181V7.65504H62.7161V6.92676H66.8966V7.65504H65.1945V12.8569Z" fill="white" stroke="white" stroke-width="0.16" stroke-miterlimit="10"/>
<path d="M74.8017 12.0942C74.2027 12.6939 73.4606 12.9932 72.5753 12.9932C71.685 12.9932 70.9429 12.6939 70.3439 12.0942C69.7461 11.4958 69.4485 10.7613 69.4485 9.89209C69.4485 9.02285 69.7461 8.28838 70.3439 7.68993C70.9429 7.09024 71.685 6.79102 72.5753 6.79102C73.4555 6.79102 74.1976 7.09024 74.7966 7.69488C75.3995 8.29828 75.6971 9.0278 75.6971 9.89209C75.6971 10.7613 75.3995 11.4958 74.8017 12.0942ZM70.9226 11.5972C71.3735 12.0411 71.9218 12.2636 72.5753 12.2636C73.2237 12.2636 73.7772 12.0411 74.2229 11.5972C74.6725 11.1533 74.9005 10.5833 74.9005 9.89209C74.9005 9.2009 74.6725 8.63089 74.2229 8.18699C73.7772 7.7431 73.2237 7.52053 72.5753 7.52053C71.9218 7.52053 71.3735 7.7431 70.9226 8.18699C70.473 8.63089 70.2451 9.2009 70.2451 9.89209C70.2451 10.5833 70.473 11.1533 70.9226 11.5972Z" fill="white" stroke="white" stroke-width="0.16" stroke-miterlimit="10"/>
<path d="M76.795 12.8569V6.92676H77.7449L80.6982 11.5388H80.7324L80.6982 10.3988V6.92676H81.4796V12.8569H80.664L77.5714 8.01733H77.5372L77.5714 9.1623V12.8569H76.795Z" fill="white" stroke="white" stroke-width="0.16" stroke-miterlimit="10"/>
<path d="M69.2559 21.5174C66.8763 21.5174 64.9323 23.2855 64.9323 25.7251C64.9323 28.1449 66.8763 29.9316 69.2559 29.9316C71.6406 29.9316 73.5846 28.1449 73.5846 25.7251C73.5846 23.2855 71.6406 21.5174 69.2559 21.5174ZM69.2559 28.2747C67.9502 28.2747 66.8269 27.2224 66.8269 25.7251C66.8269 24.2079 67.9502 23.1742 69.2559 23.1742C70.5616 23.1742 71.69 24.2079 71.69 25.7251C71.69 27.2224 70.5616 28.2747 69.2559 28.2747ZM59.8222 21.5174C57.4375 21.5174 55.4986 23.2855 55.4986 25.7251C55.4986 28.1449 57.4375 29.9316 59.8222 29.9316C62.2057 29.9316 64.1459 28.1449 64.1459 25.7251C64.1459 23.2855 62.2057 21.5174 59.8222 21.5174ZM59.8222 28.2747C58.5153 28.2747 57.3882 27.2224 57.3882 25.7251C57.3882 24.2079 58.5153 23.1742 59.8222 23.1742C61.1279 23.1742 62.2513 24.2079 62.2513 25.7251C62.2513 27.2224 61.1279 28.2747 59.8222 28.2747ZM48.5966 22.807V24.5949H52.9696C52.8417 25.594 52.4997 26.3285 51.9754 26.8404C51.3371 27.4586 50.343 28.1449 48.5966 28.1449C45.9054 28.1449 43.7981 26.0243 43.7981 23.3968C43.7981 20.7693 45.9054 18.6487 48.5966 18.6487C50.0517 18.6487 51.1104 19.2039 51.8918 19.9235L53.1823 18.6636C52.0894 17.6447 50.6355 16.862 48.5966 16.862C44.9062 16.862 41.8047 19.7937 41.8047 23.3968C41.8047 26.9999 44.9062 29.9316 48.5966 29.9316C50.5912 29.9316 52.0894 29.2935 53.2672 28.0966C54.4741 26.9183 54.8502 25.2614 54.8502 23.9235C54.8502 23.5081 54.8148 23.126 54.7514 22.807H48.5966ZM94.4998 24.1931C94.1439 23.2521 93.0459 21.5174 90.8094 21.5174C88.5931 21.5174 86.7479 23.2225 86.7479 25.7251C86.7479 28.0818 88.5741 29.9316 91.0221 29.9316C93.0016 29.9316 94.1439 28.7532 94.6137 28.067L93.1447 27.1112C92.6546 27.811 91.9871 28.2747 91.0221 28.2747C90.0634 28.2747 89.3758 27.8456 88.935 26.9999L94.6986 24.6716L94.4998 24.1931ZM88.6235 25.594C88.5741 23.9718 89.914 23.1408 90.874 23.1408C91.6262 23.1408 92.2645 23.5081 92.4773 24.0336L88.6235 25.594ZM83.939 29.6756H85.8335V17.3109H83.939V29.6756ZM80.8362 22.4546H80.7729C80.3473 21.9625 79.5356 21.5174 78.5072 21.5174C76.3492 21.5174 74.3761 23.3671 74.3761 25.7387C74.3761 28.0966 76.3492 29.9316 78.5072 29.9316C79.5356 29.9316 80.3473 29.4827 80.7729 28.9758H80.8362V29.5792C80.8362 31.1878 79.956 32.0521 78.5363 32.0521C77.3788 32.0521 76.6608 31.236 76.3644 30.5498L74.7168 31.2212C75.1917 32.3365 76.4493 33.709 78.5363 33.709C80.7577 33.709 82.632 32.4329 82.632 29.3282V21.7733H80.8362V22.4546ZM78.6693 28.2747C77.3636 28.2747 76.2707 27.2076 76.2707 25.7387C76.2707 24.2561 77.3636 23.1742 78.6693 23.1742C79.956 23.1742 80.9704 24.2561 80.9704 25.7387C80.9704 27.2076 79.956 28.2747 78.6693 28.2747ZM103.37 17.3109H98.8385V29.6756H100.728V24.9906H103.37C105.468 24.9906 107.526 23.5081 107.526 21.1501C107.526 18.7934 105.463 17.3109 103.37 17.3109ZM103.419 23.2707H100.728V19.0308H103.419C104.83 19.0308 105.636 20.1745 105.636 21.1501C105.636 22.1072 104.83 23.2707 103.419 23.2707ZM115.1 21.4939C113.734 21.4939 112.315 22.0824 111.731 23.3869L113.408 24.0731C113.769 23.3869 114.432 23.1643 115.134 23.1643C116.114 23.1643 117.108 23.7393 117.123 24.7544V24.8843C116.781 24.6914 116.049 24.4058 115.149 24.4058C113.343 24.4058 111.503 25.3764 111.503 27.1878C111.503 28.8447 112.982 29.9118 114.645 29.9118C115.916 29.9118 116.618 29.3517 117.059 28.7H117.123V29.6558H118.948V24.9127C118.948 22.7204 117.272 21.4939 115.1 21.4939ZM114.872 28.2697C114.254 28.2697 113.392 27.9705 113.392 27.2224C113.392 26.2654 114.466 25.8982 115.396 25.8982C116.228 25.8982 116.618 26.0775 117.123 26.3136C116.975 27.4586 115.966 28.2697 114.872 28.2697ZM125.597 21.7647L123.425 27.1248H123.361L121.115 21.7647H119.077L122.451 29.2552L120.526 33.4234H122.501L127.699 21.7647H125.597ZM108.565 29.6756H110.459V17.3109H108.565V29.6756Z" fill="white"/>
<path d="M10.797 7.45712C10.4994 7.76129 10.3271 8.23486 10.3271 8.84815V30.7238C10.3271 31.3371 10.4994 31.8107 10.797 32.1149L10.8704 32.1816L23.4259 19.9282V19.6389L10.8704 7.3854L10.797 7.45712Z" fill="url(#paint0_linear_3748_156)"/>
<path d="M27.6068 24.0146L23.4263 19.9281V19.6388L27.6118 15.5522L27.7056 15.6054L32.6624 18.359C34.077 19.1405 34.077 20.4264 32.6624 21.2128L27.7056 23.9615L27.6068 24.0146Z" fill="url(#paint1_linear_3748_156)"/>
<path d="M27.7057 23.9615L23.4264 19.7835L10.7975 32.1148C11.2673 32.597 12.0335 32.6551 12.9048 32.1729L27.7057 23.9615Z" fill="url(#paint2_linear_3748_156)"/>
<path d="M27.7057 15.6061L12.9048 7.39472C12.0335 6.91744 11.2673 6.97555 10.7975 7.45778L23.4264 19.7842L27.7057 15.6061Z" fill="url(#paint3_linear_3748_156)"/>
<defs>
<linearGradient id="paint0_linear_3748_156" x1="22.3111" y1="30.9516" x2="5.71507" y2="13.9535" gradientUnits="userSpaceOnUse">
<stop stop-color="#00A0FF"/>
<stop offset="0.0066" stop-color="#00A1FF"/>
<stop offset="0.2601" stop-color="#00BEFF"/>
<stop offset="0.5122" stop-color="#00D2FF"/>
<stop offset="0.7604" stop-color="#00DFFF"/>
<stop offset="1" stop-color="#00E3FF"/>
</linearGradient>
<linearGradient id="paint1_linear_3748_156" x1="34.5044" y1="19.7821" x2="9.9894" y2="19.7821" gradientUnits="userSpaceOnUse">
<stop stop-color="#FFE000"/>
<stop offset="0.4087" stop-color="#FFBD00"/>
<stop offset="0.7754" stop-color="#FFA500"/>
<stop offset="1" stop-color="#FF9C00"/>
</linearGradient>
<linearGradient id="paint2_linear_3748_156" x1="25.3787" y1="17.5122" x2="2.87313" y2="-5.53871" gradientUnits="userSpaceOnUse">
<stop stop-color="#FF3A44"/>
<stop offset="1" stop-color="#C31162"/>
</linearGradient>
<linearGradient id="paint3_linear_3748_156" x1="7.61853" y1="39.3935" x2="17.6683" y2="29.1003" gradientUnits="userSpaceOnUse">
<stop stop-color="#32A071"/>
<stop offset="0.0685" stop-color="#2DA771"/>
<stop offset="0.4762" stop-color="#15CF74"/>
<stop offset="0.8009" stop-color="#06E775"/>
<stop offset="1" stop-color="#00F076"/>
</linearGradient>
</defs>
</svg>
