<svg width="61" height="61" viewBox="0 0 61 61" fill="none" xmlns="http://www.w3.org/2000/svg">
<rect width="60.597" height="60.597" rx="24.2388" fill="#6F34FF"/>
<mask id="mask0_5_278" style="mask-type:alpha" maskUnits="userSpaceOnUse" x="18" y="18" width="25" height="25">
<rect x="18.179" y="18.1791" width="24.2388" height="24.2388" fill="#D9D9D9"/>
</mask>
<g mask="url(#mask0_5_278)">
<path d="M27.2684 36.3582V34.5403H38.7819V36.3582H27.2684ZM27.2684 31.2074V29.3895H38.7819V31.2074H27.2684ZM27.2684 26.0567V24.2388H38.7819V26.0567H27.2684ZM23.6273 37.2671C23.1259 37.2671 22.6984 37.0886 22.3449 36.7316C21.9914 36.3746 21.8147 35.9454 21.8147 35.4439C21.8147 34.9425 21.9932 34.515 22.3502 34.1616C22.7072 33.8081 23.1365 33.6313 23.6379 33.6313C24.1394 33.6313 24.5668 33.8098 24.9203 34.1669C25.2738 34.5239 25.4505 34.9531 25.4505 35.4545C25.4505 35.956 25.272 36.3834 24.915 36.7369C24.558 37.0904 24.1287 37.2671 23.6273 37.2671ZM23.6273 32.1164C23.1259 32.1164 22.6984 31.9379 22.3449 31.5809C21.9914 31.2239 21.8147 30.7946 21.8147 30.2932C21.8147 29.7917 21.9932 29.3643 22.3502 29.0108C22.7072 28.6573 23.1365 28.4806 23.6379 28.4806C24.1394 28.4806 24.5668 28.6591 24.9203 29.0161C25.2738 29.3731 25.4505 29.8024 25.4505 30.3038C25.4505 30.8052 25.272 31.2327 24.915 31.5862C24.558 31.9397 24.1287 32.1164 23.6273 32.1164ZM23.6273 26.9657C23.1259 26.9657 22.6984 26.7871 22.3449 26.4301C21.9914 26.0731 21.8147 25.6439 21.8147 25.1424C21.8147 24.641 21.9932 24.2135 22.3502 23.8601C22.7072 23.5066 23.1365 23.3298 23.6379 23.3298C24.1394 23.3298 24.5668 23.5083 24.9203 23.8654C25.2738 24.2224 25.4505 24.6516 25.4505 25.153C25.4505 25.6545 25.272 26.0819 24.915 26.4354C24.558 26.7889 24.1287 26.9657 23.6273 26.9657Z" fill="white"/>
</g>
</svg>
