<svg width="61" height="61" viewBox="0 0 61 61" fill="none" xmlns="http://www.w3.org/2000/svg">
<rect width="60.597" height="60.597" rx="24.2388" fill="#4FC386"/>
<mask id="mask0_5_286" style="mask-type:alpha" maskUnits="userSpaceOnUse" x="18" y="18" width="25" height="25">
<rect x="18.1792" y="18.1791" width="24.2388" height="24.2388" fill="#D9D9D9"/>
</mask>
<g mask="url(#mask0_5_286)">
<path d="M32.7224 29.0613L29.3138 25.6527L30.5763 24.365L32.7224 26.5112L37.4439 21.7897L38.7316 23.0774L32.7224 29.0613ZM26.6627 36.6612L33.3284 38.7063L39.2619 36.8884C39.1272 36.5349 38.9042 36.2572 38.5928 36.0552C38.2814 35.8532 37.9321 35.7522 37.5449 35.7522H32.2175C31.9313 35.7522 31.6452 35.7312 31.359 35.6891C31.0728 35.647 30.7951 35.5755 30.5258 35.4745L28.8089 34.818L29.3643 33.0759L31.1318 33.7323C31.3169 33.7997 31.4979 33.8502 31.6746 33.8838C31.8513 33.9175 32.0323 33.9343 32.2175 33.9343H34.5403C34.5403 33.766 34.4983 33.6229 34.4141 33.5051C34.3299 33.3873 34.2037 33.2947 34.0354 33.2274L27.5717 30.9045H26.6627V36.6612ZM20.603 39.994V29.0866H27.5212C27.6558 29.0866 27.7821 29.0992 27.8999 29.1244C28.0177 29.1497 28.1356 29.1791 28.2534 29.2128L34.7171 31.5357C35.2221 31.7209 35.6218 32.0323 35.9164 32.4699C36.211 32.9075 36.3583 33.3957 36.3583 33.9343H37.5449C38.5549 33.9343 39.4176 34.2878 40.1329 34.9948C40.8483 35.7017 41.206 36.5602 41.206 37.5701V38.1761L33.3537 40.6L26.6627 38.5548V39.994H20.603ZM22.4209 38.1761H24.8448V30.9045H22.4209V38.1761Z" fill="white"/>
</g>
</svg>
