<svg width="61" height="61" viewBox="0 0 61 61" fill="none" xmlns="http://www.w3.org/2000/svg">
<rect width="60.597" height="60.597" rx="24.2388" fill="#F38434"/>
<mask id="mask0_5_294" style="mask-type:alpha" maskUnits="userSpaceOnUse" x="18" y="18" width="25" height="25">
<rect x="18.1792" y="18.1791" width="24.2388" height="24.2388" fill="#D9D9D9"/>
</mask>
<g mask="url(#mask0_5_294)">
<path d="M21.209 41.206C20.7091 41.206 20.2811 41.0279 19.9251 40.6719C19.5691 40.3159 19.3911 39.888 19.3911 39.388V27.8746H21.209V39.388H37.5702V41.206H21.209ZM24.8448 37.5701C24.3449 37.5701 23.917 37.3921 23.5609 37.0361C23.2049 36.6801 23.0269 36.2521 23.0269 35.7522V24.2388H27.8747V22.4209C27.8747 21.921 28.0527 21.493 28.4087 21.137C28.7647 20.781 29.1927 20.603 29.6926 20.603H34.5404C35.0403 20.603 35.4683 20.781 35.8243 21.137C36.1803 21.493 36.3583 21.921 36.3583 22.4209V24.2388H41.206V35.7522C41.206 36.2521 41.028 36.6801 40.672 37.0361C40.316 37.3921 39.8881 37.5701 39.3881 37.5701H24.8448ZM24.8448 35.7522H39.3881V26.0567H24.8448V35.7522ZM29.6926 24.2388H34.5404V22.4209H29.6926V24.2388Z" fill="white"/>
</g>
</svg>
