<svg width="16" height="16" viewBox="0 0 16 16" fill="none" xmlns="http://www.w3.org/2000/svg">
    <path d="M8 1.5C4.4101 1.5 1.5 4.4101 1.5 8C1.5 11.5899 4.4101 14.5 8 14.5C11.5899 14.5 14.5 11.5899 14.5 8C14.5 4.4101 11.5899 1.5 8 1.5ZM8 3.66667C10.3934 3.66667 12.3333 5.60665 12.3333 8C12.3333 8.80334 12.1107 9.55291 11.7298 10.1979L5.80212 4.27022C6.44709 3.88931 7.19666 3.66667 8 3.66667ZM4.27022 5.80265L10.1973 11.7298C9.55247 12.1105 8.80318 12.3333 8 12.3333C5.60665 12.3333 3.66667 10.3934 3.66667 8C3.66667 7.19682 3.88945 6.44753 4.27022 5.80265Z" fill="#FF3B30"/>
</svg>