<svg width="24" height="24" viewBox="0 0 24 24" fill="none" xmlns="http://www.w3.org/2000/svg">
<path d="M4.50542 4.7964L4.79719 4.73986L4.816 4.72164L12 3.02743L19.4521 4.78487L19.4726 4.78971L19.4933 4.79367C19.6453 4.82283 19.7757 4.90102 19.8657 5.00713C19.9551 5.11253 20.0001 5.23948 20 5.36581V5.36634V10.1188C20 13.869 18.1426 16.5408 16.2224 18.3114C15.2621 19.1969 14.2986 19.8437 13.5754 20.2685C13.2147 20.4803 12.9164 20.6353 12.7118 20.7359C12.6641 20.7594 12.6215 20.7798 12.5845 20.7973H12.5433L12.32 20.9186C12.2238 20.9709 12.1132 20.9996 11.999 21C11.8844 20.9998 11.7733 20.9711 11.6768 20.9186L11.6327 20.8947L11.5881 20.876L11.5877 20.8758L11.5872 20.8756L11.5868 20.8754L11.5865 20.8753L11.5756 20.8706C11.5644 20.8657 11.5457 20.8575 11.5202 20.8459C11.4691 20.8227 11.3905 20.7862 11.2882 20.7359C11.0836 20.6353 10.7853 20.4803 10.4246 20.2685C9.70136 19.8437 8.73789 19.1969 7.77758 18.3114C5.85737 16.5408 4 13.869 4 10.1188V5.36702C4.00023 5.24115 4.04518 5.11473 4.1342 5.00971L3.37135 4.36313L4.1342 5.00971C4.22391 4.90386 4.35389 4.82577 4.50542 4.7964Z" stroke="#2F96FF" stroke-width="2"/>
</svg>
