<svg width="12" height="12" viewBox="0 0 12 12" fill="none" xmlns="http://www.w3.org/2000/svg">
    <path d="M11.3399 0.000749405C11.1311 0.0088487 10.9395 0.130335 10.829 0.324714L4.91342 10.2704L1.08109 6.63123C0.916496 6.4436 0.669606 6.37341 0.442368 6.4517C0.216359 6.52864 0.0480807 6.73922 0.00877476 6.99569C-0.0305312 7.25351 0.0640486 7.51269 0.255665 7.66792L4.63828 11.8363C4.77585 11.9645 4.95764 12.0212 5.13574 11.9928C5.31508 11.9632 5.47353 11.8511 5.57179 11.6851L11.8902 1.08063C12.0253 0.863306 12.0364 0.582537 11.9197 0.353061C11.803 0.124936 11.5782 -0.0113992 11.3399 0.000749405Z" fill="white"/>
</svg>