<svg width="20" height="20" viewBox="0 0 20 20" fill="none" xmlns="http://www.w3.org/2000/svg">
    <path d="M16.6706 2.50023C16.4508 2.50543 16.2419 2.59728 16.0896 2.75577L10.0121 8.83324L3.9346 2.75577C3.85695 2.67594 3.76408 2.61248 3.66148 2.56915C3.55888 2.52582 3.44864 2.50349 3.33727 2.50349C3.1715 2.50353 3.0095 2.55301 2.87199 2.64561C2.73448 2.7382 2.62771 2.8697 2.56533 3.0233C2.50295 3.17689 2.48779 3.3456 2.5218 3.50785C2.5558 3.6701 2.63742 3.81853 2.75622 3.93415L8.83369 10.0116L2.75622 16.0891C2.67624 16.1659 2.61239 16.2579 2.5684 16.3596C2.52441 16.4614 2.50117 16.5709 2.50004 16.6818C2.49891 16.7927 2.51992 16.9027 2.56183 17.0053C2.60374 17.1079 2.6657 17.2012 2.7441 17.2796C2.8225 17.358 2.91576 17.42 3.0184 17.4619C3.12105 17.5038 3.23103 17.5248 3.3419 17.5237C3.45277 17.5225 3.56229 17.4993 3.66407 17.4553C3.76584 17.4113 3.85782 17.3475 3.9346 17.2675L10.0121 11.19L16.0896 17.2675C16.1663 17.3475 16.2583 17.4113 16.3601 17.4553C16.4619 17.4993 16.5714 17.5225 16.6823 17.5237C16.7931 17.5248 16.9031 17.5038 17.0058 17.4619C17.1084 17.42 17.2017 17.358 17.2801 17.2796C17.3585 17.2012 17.4204 17.1079 17.4623 17.0053C17.5042 16.9027 17.5252 16.7927 17.5241 16.6818C17.523 16.5709 17.4997 16.4614 17.4558 16.3596C17.4118 16.2579 17.3479 16.1659 17.2679 16.0891L11.1905 10.0116L17.2679 3.93415C17.389 3.81777 17.472 3.66756 17.5062 3.50318C17.5404 3.3388 17.5242 3.16792 17.4596 3.01293C17.395 2.85794 17.2852 2.72607 17.1444 2.63459C17.0036 2.5431 16.8385 2.49627 16.6706 2.50023Z" fill="#141414"/>
</svg>