<svg width="120" height="75" viewBox="0 0 120 75" fill="none" xmlns="http://www.w3.org/2000/svg">
<path d="M22.5001 0.000488281H97.4999L120 22.5006H0L22.5001 0.000488281Z" fill="#D1D8EA"/>
<path d="M26.25 7.50049H93.7499L112.5 26.2431C112.5 26.2431 110.962 45.0004 108.251 45.0004H11.0437C8.77501 45.0004 7.5 26.2431 7.5 26.2431L26.25 7.50049Z" fill="#D1D8EA"/>
<path d="M26.25 7.50049H93.7499L112.5 26.2431C112.5 26.2431 110.962 45.0004 108.251 45.0004H11.0437C8.77501 45.0004 7.5 26.2431 7.5 26.2431L26.25 7.50049Z" fill="white" fill-opacity="0.2"/>
<path d="M26.2497 7.50049H93.7496L112.5 26.2431C112.5 26.2431 110.962 45.0004 108.251 45.0004H11.0435C8.77477 45.0004 7.49976 26.2431 7.49976 26.2431L26.2497 7.50049Z" fill="white" fill-opacity="0.2"/>
<path d="M26.2497 7.50049H93.7496L112.5 26.2431C112.5 26.2431 110.962 45.0004 108.251 45.0004H11.0435C8.77477 45.0004 7.49976 26.2431 7.49976 26.2431L26.2497 7.50049Z" fill="white" fill-opacity="0.2"/>
<path d="M82.4997 22.5V29.9925C82.4997 34.14 79.1399 37.5002 74.9998 37.5002H44.9998C40.8597 37.5002 37.4999 34.1404 37.4999 29.9925V22.5H0V67.4998C0 71.6399 3.3598 74.9997 7.4999 74.9997H112.5C116.64 74.9997 120 71.6399 120 67.4998V22.5H82.4997Z" fill="#D1D8EA"/>
<path d="M43.3107 46.5C42.244 46.5 41.3792 47.3648 41.3792 48.4316V51.007C41.3792 52.0738 42.244 52.9386 43.3107 52.9386C44.3775 52.9386 45.2423 52.0738 45.2423 51.007V48.4316C45.2423 47.3648 44.3775 46.5 43.3107 46.5Z" fill="#46586A"/>
<path d="M76.2766 46.5C75.2098 46.5 74.345 47.3648 74.345 48.4316V51.007C74.345 52.0738 75.2098 52.9386 76.2766 52.9386C77.3433 52.9386 78.2082 52.0738 78.2082 51.007V48.4316C78.2082 47.3648 77.3433 46.5 76.2766 46.5Z" fill="#46586A"/>
<path d="M64.8765 55.9006C63.914 55.4398 62.7607 55.8475 62.3008 56.81C61.8717 57.7073 60.9381 58.287 59.9226 58.287C58.9071 58.287 57.9735 57.7073 57.5444 56.81C57.0842 55.8475 55.9306 55.4406 54.9687 55.9006C54.0063 56.3608 53.5991 57.5141 54.0593 58.4763C55.1266 60.7082 57.428 62.1502 59.9226 62.1502C62.4172 62.1502 64.7188 60.7082 65.7859 58.4763C66.2461 57.5141 65.8389 56.3608 64.8765 55.9006Z" fill="#46586A"/>
</svg>
