<svg width="32" height="32" viewBox="0 0 32 32" fill="none" xmlns="http://www.w3.org/2000/svg">
<path d="M15.9993 2.66528C8.64754 2.66528 2.66602 8.64681 2.66602 15.9986C2.66602 18.1822 3.24115 20.2232 4.17383 22.0429L2.72852 27.2174C2.39188 28.4196 3.58063 29.6083 4.7832 29.2721L9.96159 27.8267C11.7798 28.7575 13.8178 29.3319 15.9993 29.3319C23.3512 29.3319 29.3327 23.3504 29.3327 15.9986C29.3327 8.64681 23.3512 2.66528 15.9993 2.66528ZM15.9993 4.66528C22.2702 4.66528 27.3327 9.72775 27.3327 15.9986C27.3327 22.2695 22.2702 27.3319 15.9993 27.3319C13.9983 27.3319 12.1264 26.8116 10.4941 25.9023C10.2641 25.774 9.99268 25.7417 9.73893 25.8124L4.81445 27.1861L6.18945 22.2642C6.26048 22.0101 6.22819 21.7382 6.09961 21.5077C5.18845 19.8743 4.66602 18.0016 4.66602 15.9986C4.66602 9.72775 9.72849 4.66528 15.9993 4.66528ZM10.3327 12.6653C10.2002 12.6634 10.0686 12.6879 9.94564 12.7373C9.82267 12.7867 9.71075 12.8601 9.61638 12.9531C9.52201 13.0462 9.44707 13.157 9.39593 13.2793C9.34478 13.4016 9.31844 13.5328 9.31844 13.6653C9.31844 13.7978 9.34478 13.929 9.39593 14.0513C9.44707 14.1735 9.52201 14.2844 9.61638 14.3774C9.71075 14.4705 9.82267 14.5438 9.94564 14.5933C10.0686 14.6427 10.2002 14.6672 10.3327 14.6653H21.666C21.7985 14.6672 21.9301 14.6427 22.0531 14.5933C22.176 14.5438 22.2879 14.4705 22.3823 14.3774C22.4767 14.2844 22.5516 14.1735 22.6028 14.0513C22.6539 13.929 22.6803 13.7978 22.6803 13.6653C22.6803 13.5328 22.6539 13.4016 22.6028 13.2793C22.5516 13.157 22.4767 13.0462 22.3823 12.9531C22.2879 12.8601 22.176 12.7867 22.0531 12.7373C21.9301 12.6879 21.7985 12.6634 21.666 12.6653H10.3327ZM10.3327 17.3319C10.2002 17.3301 10.0686 17.3546 9.94564 17.404C9.82267 17.4534 9.71075 17.5267 9.61638 17.6198C9.52201 17.7128 9.44707 17.8237 9.39593 17.946C9.34478 18.0682 9.31844 18.1994 9.31844 18.3319C9.31844 18.4645 9.34478 18.5957 9.39593 18.7179C9.44707 18.8402 9.52201 18.9511 9.61638 19.0441C9.71075 19.1372 9.82267 19.2105 9.94564 19.2599C10.0686 19.3093 10.2002 19.3338 10.3327 19.3319H18.9993C19.1319 19.3338 19.2634 19.3093 19.3864 19.2599C19.5094 19.2105 19.6213 19.1372 19.7157 19.0441C19.81 18.9511 19.885 18.8402 19.9361 18.7179C19.9873 18.5957 20.0136 18.4645 20.0136 18.3319C20.0136 18.1994 19.9873 18.0682 19.9361 17.946C19.885 17.8237 19.81 17.7128 19.7157 17.6198C19.6213 17.5267 19.5094 17.4534 19.3864 17.404C19.2634 17.3546 19.1319 17.3301 18.9993 17.3319H10.3327Z" fill="#ECF1FC"/>
</svg>
