<svg width="22" height="22" viewBox="0 0 22 22" fill="none" xmlns="http://www.w3.org/2000/svg">
    <path d="M11 0.25C10.9632 0.25 10.929 0.260152 10.8926 0.261719C8.82812 0.282856 6.81339 0.898038 5.08924 2.03374C3.36509 3.16943 2.00444 4.7776 1.16994 6.66602C1.15192 6.7025 1.13689 6.74038 1.12502 6.7793C0.557177 8.11001 0.263798 9.54166 0.262456 10.9885C0.261113 12.4353 0.551835 13.8675 1.1172 15.1992C1.1172 15.1999 1.1172 15.2005 1.1172 15.2012C1.13726 15.2716 1.16753 15.3387 1.20705 15.4004C1.20769 15.4017 1.20835 15.403 1.209 15.4043C2.05695 17.2923 3.43189 18.8954 5.1687 20.021C6.90551 21.1467 8.93034 21.747 11 21.75C13.0724 21.7457 15.0995 21.1431 16.8377 20.0147C18.576 18.8862 19.9514 17.2799 20.7988 15.3887C20.8236 15.3484 20.8446 15.3059 20.8613 15.2617C21.4448 13.9165 21.7472 12.4663 21.75 11C21.7466 8.17215 20.6291 5.45953 18.6395 3.44991C16.65 1.44028 13.9488 0.295524 11.1211 0.263672C11.0801 0.261681 11.0415 0.25 11 0.25ZM11 1.75C12.0201 1.75 13.1095 3.52095 13.7324 6.25H8.26759C8.89051 3.52095 9.97989 1.75 11 1.75ZM8.20119 2.1875C7.54732 3.24694 7.06969 4.67582 6.7422 6.25H3.07423C4.23138 4.31659 6.05445 2.87202 8.20119 2.1875ZM13.8086 2.19922C15.9472 2.88496 17.7638 4.32458 18.9199 6.25H15.2578C14.9317 4.68236 14.4584 3.25722 13.8086 2.19922ZM2.34572 7.75H6.48244C6.33915 8.81442 6.25002 9.91065 6.25002 11C6.25002 12.0894 6.33915 13.1856 6.48244 14.25H2.34963C1.56204 12.1551 1.56065 9.8458 2.34572 7.75ZM7.99025 7.75H14.0098C14.1551 8.75547 14.25 9.8379 14.25 11C14.25 12.1621 14.1551 13.2445 14.0098 14.25H7.99025C7.84495 13.2445 7.75002 12.1621 7.75002 11C7.75002 9.8379 7.84495 8.75547 7.99025 7.75ZM15.5176 7.75H19.6465C20.041 8.78837 20.2454 9.88924 20.25 11C20.2462 12.1107 20.0425 13.2116 19.6485 14.25H15.5176C15.6609 13.1856 15.75 12.0894 15.75 11C15.75 9.91065 15.6609 8.81442 15.5176 7.75ZM3.06838 15.75H6.7422C7.06857 17.3188 7.54282 18.7445 8.19338 19.8027C6.04892 19.1202 4.22683 17.6794 3.06838 15.75ZM8.26759 15.75H13.7324C13.1249 18.4115 12.0746 20.1543 11.0762 20.2383C11.028 20.2393 10.9798 20.24 10.9317 20.2402C9.93094 20.1647 8.87669 18.4185 8.26759 15.75ZM15.2578 15.75H18.9258C17.7688 17.6783 15.9489 19.119 13.8067 19.8027C14.4572 18.7445 14.9315 17.3188 15.2578 15.75Z" fill="#2F96FF"/>
</svg>