<svg width="16" height="16" viewBox="0 0 16 16" fill="none" xmlns="http://www.w3.org/2000/svg">
    <path d="M8.00065 1.33203C4.32665 1.33203 1.33398 4.3247 1.33398 7.9987C1.33398 11.6727 4.32665 14.6654 8.00065 14.6654C11.6747 14.6654 14.6673 11.6727 14.6673 7.9987C14.6673 4.3247 11.6747 1.33203 8.00065 1.33203ZM8.00065 2.66536C8.16617 2.66536 8.3476 2.73312 8.57878 2.95312C8.80995 3.17313 9.06096 3.54195 9.27669 4.02734C9.44091 4.39684 9.57526 4.84782 9.69075 5.33203H6.31055C6.42604 4.84782 6.56039 4.39684 6.72461 4.02734C6.94034 3.54195 7.19135 3.17313 7.42252 2.95312C7.6537 2.73312 7.83513 2.66536 8.00065 2.66536ZM5.63477 3.22135C5.59134 3.30862 5.54655 3.39413 5.50586 3.48568C5.26471 4.02825 5.07754 4.65617 4.93685 5.33203H3.38216C3.90645 4.42348 4.69057 3.68827 5.63477 3.22135ZM10.3665 3.22135C11.3107 3.68827 12.0948 4.42348 12.6191 5.33203H11.0645C10.9238 4.65617 10.7366 4.02825 10.4954 3.48568C10.4548 3.39413 10.41 3.30862 10.3665 3.22135ZM2.8418 6.66536H4.73242C4.6915 7.09662 4.66732 7.54112 4.66732 7.9987C4.66732 8.45628 4.6915 8.90078 4.73242 9.33203H2.8418C2.73235 8.90522 2.66732 8.46044 2.66732 7.9987C2.66732 7.53695 2.73235 7.09217 2.8418 6.66536ZM6.07878 6.66536H9.92252C9.96893 7.09376 10.0006 7.53645 10.0006 7.9987C10.0006 8.46095 9.96893 8.90364 9.92252 9.33203H6.07878C6.03237 8.90364 6.00065 8.46095 6.00065 7.9987C6.00065 7.53645 6.03237 7.09376 6.07878 6.66536ZM11.2689 6.66536H13.1595C13.2689 7.09217 13.334 7.53695 13.334 7.9987C13.334 8.46044 13.2689 8.90522 13.1595 9.33203H11.2689C11.3098 8.90078 11.334 8.45628 11.334 7.9987C11.334 7.54112 11.3098 7.09662 11.2689 6.66536ZM3.38216 10.6654H4.93685C5.07754 11.3412 5.26471 11.9691 5.50586 12.5117C5.54655 12.6033 5.59134 12.6888 5.63477 12.776C4.69057 12.3091 3.90645 11.5739 3.38216 10.6654ZM6.31055 10.6654H9.69075C9.57526 11.1496 9.44091 11.6005 9.27669 11.9701C9.06096 12.4554 8.80995 12.8243 8.57878 13.0443C8.3476 13.2643 8.16617 13.332 8.00065 13.332C7.83513 13.332 7.6537 13.2643 7.42252 13.0443C7.19135 12.8243 6.94034 12.4554 6.72461 11.9701C6.56039 11.6005 6.42604 11.1496 6.31055 10.6654ZM11.0645 10.6654H12.6191C12.0948 11.5739 11.3107 12.3091 10.3665 12.776C10.41 12.6888 10.4548 12.6033 10.4954 12.5117C10.7366 11.9691 10.9238 11.3412 11.0645 10.6654Z" fill="#141414"/>
</svg>