<svg width="16" height="16" viewBox="0 0 16 16" fill="none" xmlns="http://www.w3.org/2000/svg">
<path fill-rule="evenodd" clip-rule="evenodd" d="M5.44673 6.7689L8.5 3.92494L11.5533 6.7689C11.8841 7.07704 12.4211 7.07704 12.7519 6.7689C13.0827 6.46076 13.0827 5.96059 12.7519 5.65245L9.06495 2.21827C8.75331 1.92724 8.24749 1.92724 7.93505 2.21827L4.24811 5.65245C3.9173 5.96059 3.9173 6.46076 4.24811 6.7689C4.57893 7.07704 5.11591 7.07704 5.44673 6.7689ZM11.5533 9.2311L8.5 12.0751L5.44673 9.2311C5.11591 8.92297 4.57893 8.92297 4.24811 9.2311C3.9173 9.53924 3.9173 10.0394 4.24811 10.3475L7.93505 13.7817C8.24669 14.0728 8.75251 14.0728 9.06495 13.7817L12.7519 10.3476C13.0827 10.0394 13.0827 9.53924 12.7519 9.2311C12.4211 8.92297 11.8841 8.92297 11.5533 9.2311Z" fill="#3C3C43" fill-opacity="0.6"/>
</svg>
