<svg width="88" height="88" viewBox="0 0 88 88" fill="none" xmlns="http://www.w3.org/2000/svg">
<g clip-path="url(#clip0_4092_6561)">
<path d="M60.5 13.75H5.5C3.22183 13.75 1.375 15.5968 1.375 17.875V77C1.375 79.2782 3.22183 81.125 5.5 81.125H60.5C62.7782 81.125 64.625 79.2782 64.625 77V17.875C64.625 15.5968 62.7782 13.75 60.5 13.75Z" fill="#2F96FF"/>
<path d="M38.5 6.875H70.125C71.219 6.875 72.2682 7.3096 73.0418 8.08318C73.8154 8.85677 74.25 9.90598 74.25 11V17.875H38.5V6.875Z" fill="#96A1C3"/>
<path d="M8.25 17.875H74.25V70.125C74.25 71.219 73.8154 72.2682 73.0418 73.0418C72.2682 73.8154 71.219 74.25 70.125 74.25H12.375C11.281 74.25 10.2318 73.8154 9.45818 73.0418C8.6846 72.2682 8.25 71.219 8.25 70.125V17.875Z" fill="#F5F7FF"/>
<path d="M70.125 70.125H12.375C11.281 70.125 10.2318 69.6904 9.45818 68.9168C8.6846 68.1432 8.25 67.094 8.25 66V70.125C8.25 71.219 8.6846 72.2682 9.45818 73.0418C10.2318 73.8154 11.281 74.25 12.375 74.25H70.125C71.219 74.25 72.2682 73.8154 73.0418 73.0418C73.8154 72.2682 74.25 71.219 74.25 70.125V66C74.25 67.094 73.8154 68.1432 73.0418 68.9168C72.2682 69.6904 71.219 70.125 70.125 70.125Z" fill="#CCD3EB"/>
<path d="M49.5 17.875H8.25V11C8.25 9.906 8.6846 8.85679 9.45818 8.0832C10.2318 7.30961 11.281 6.87501 12.375 6.87501H43.4638C44.0256 6.87319 44.5746 7.04353 45.0368 7.36311C45.4989 7.68268 45.8521 8.13616 46.0488 8.66251L49.5 17.875Z" fill="#CCD3EB"/>
<path d="M68.75 13.75C68.4781 13.75 68.2122 13.6694 67.9861 13.5183C67.76 13.3672 67.5837 13.1524 67.4797 12.9012C67.3756 12.6499 67.3484 12.3735 67.4014 12.1068C67.4545 11.84 67.5854 11.595 67.7777 11.4027C67.97 11.2104 68.215 11.0795 68.4817 11.0264C68.7485 10.9734 69.0249 11.0006 69.2762 11.1047C69.5274 11.2087 69.7422 11.385 69.8933 11.6111C70.0444 11.8372 70.125 12.1031 70.125 12.375C70.125 12.7397 69.9801 13.0894 69.7223 13.3473C69.4644 13.6051 69.1147 13.75 68.75 13.75Z" fill="#F5F7FF"/>
<path d="M41.25 11C40.9781 11 40.7122 11.0806 40.4861 11.2317C40.26 11.3828 40.0837 11.5976 39.9797 11.8488C39.8756 12.1001 39.8484 12.3765 39.9014 12.6432C39.9545 12.91 40.0854 13.155 40.2777 13.3473C40.47 13.5396 40.715 13.6705 40.9818 13.7236C41.2485 13.7766 41.5249 13.7494 41.7762 13.6453C42.0274 13.5413 42.2422 13.365 42.3933 13.1389C42.5444 12.9128 42.625 12.6469 42.625 12.375C42.625 12.0103 42.4801 11.6606 42.2223 11.4027C41.9644 11.1449 41.6147 11 41.25 11Z" fill="#2F96FF"/>
<path d="M35.75 11C35.4781 11 35.2122 11.0806 34.9861 11.2317C34.76 11.3828 34.5837 11.5976 34.4797 11.8488C34.3756 12.1001 34.3484 12.3765 34.4014 12.6432C34.4545 12.91 34.5854 13.155 34.7777 13.3473C34.97 13.5396 35.215 13.6705 35.4818 13.7236C35.7485 13.7766 36.0249 13.7494 36.2762 13.6453C36.5274 13.5413 36.7422 13.365 36.8933 13.1389C37.0444 12.9128 37.125 12.6469 37.125 12.375C37.125 12.0103 36.9801 11.6606 36.7223 11.4027C36.4644 11.1449 36.1147 11 35.75 11Z" fill="#2F96FF"/>
<path d="M30.25 11C29.9781 11 29.7122 11.0806 29.4861 11.2317C29.26 11.3828 29.0837 11.5976 28.9797 11.8488C28.8756 12.1001 28.8484 12.3765 28.9014 12.6432C28.9545 12.91 29.0854 13.155 29.2777 13.3473C29.47 13.5396 29.715 13.6705 29.9818 13.7236C30.2485 13.7766 30.5249 13.7494 30.7762 13.6453C31.0274 13.5413 31.2422 13.365 31.3933 13.1389C31.5444 12.9128 31.625 12.6469 31.625 12.375C31.625 12.0103 31.4801 11.6606 31.2223 11.4027C30.9644 11.1449 30.6147 11 30.25 11Z" fill="#2F96FF"/>
<path d="M86.625 33V40.5763C86.6243 44.3751 85.429 48.0775 83.2081 51.1596C80.9873 54.2416 77.8534 56.5472 74.25 57.75C70.6466 56.5472 67.5127 54.2416 65.2919 51.1596C63.071 48.0775 61.8757 44.3751 61.875 40.5763V33C64.0561 33.0001 66.2159 32.5702 68.2307 31.735C70.2456 30.8998 72.0761 29.6756 73.6175 28.1325L74.25 27.5L74.8825 28.1325C76.4239 29.6756 78.2544 30.8998 80.2693 31.735C82.2841 32.5702 84.4439 33.0001 86.625 33Z" fill="#2F96FF"/>
<path d="M24.75 72.875C24.3853 72.875 24.0356 73.0199 23.7777 73.2777C23.5199 73.5356 23.375 73.8853 23.375 74.25C23.375 74.6147 23.5199 74.9644 23.7777 75.2223C24.0356 75.4801 24.3853 75.625 24.75 75.625H27.5C27.8647 75.625 28.2144 75.4801 28.4723 75.2223C28.7301 74.9644 28.875 74.6147 28.875 74.25C28.875 73.8853 28.7301 73.5356 28.4723 73.2777C28.2144 73.0199 27.8647 72.875 27.5 72.875H24.75Z" fill="#033C59"/>
<path d="M86.625 31.625C84.625 31.6311 82.6437 31.2405 80.7957 30.4758C78.9477 29.7111 77.2696 28.5875 75.8587 27.17L75.2263 26.5238C75.0984 26.3949 74.9464 26.2926 74.7788 26.2228C74.6112 26.153 74.4315 26.117 74.25 26.117C74.0685 26.117 73.8888 26.153 73.7212 26.2228C73.5537 26.2926 73.4016 26.3949 73.2738 26.5238L72.6413 27.17C71.2304 28.5875 69.5524 29.7111 67.7043 30.4758C65.8563 31.2405 63.875 31.6311 61.875 31.625C61.5103 31.625 61.1606 31.7699 60.9027 32.0277C60.6449 32.2856 60.5 32.6353 60.5 33V40.5763C60.498 44.4918 61.6783 48.3167 63.8863 51.5503C66.0944 54.7839 69.2273 57.2754 72.875 58.6988V70.125C72.875 70.8543 72.5853 71.5538 72.0695 72.0695C71.5538 72.5853 70.8543 72.875 70.125 72.875H33C32.6353 72.875 32.2856 73.0199 32.0277 73.2777C31.7699 73.5356 31.625 73.8853 31.625 74.25C31.625 74.6147 31.7699 74.9644 32.0277 75.2223C32.2856 75.4801 32.6353 75.625 33 75.625H63.25V77C63.25 77.7293 62.9603 78.4288 62.4445 78.9445C61.9288 79.4603 61.2293 79.75 60.5 79.75H5.5C4.77065 79.75 4.07118 79.4603 3.55546 78.9445C3.03973 78.4288 2.75 77.7293 2.75 77V17.875C2.75 17.1457 3.03973 16.4462 3.55546 15.9305C4.07118 15.4147 4.77065 15.125 5.5 15.125H6.875V70.125C6.875 71.5837 7.45446 72.9826 8.48591 74.0141C9.51736 75.0455 10.9163 75.625 12.375 75.625H19.25C19.6147 75.625 19.9644 75.4801 20.2223 75.2223C20.4801 74.9644 20.625 74.6147 20.625 74.25C20.625 73.8853 20.4801 73.5356 20.2223 73.2777C19.9644 73.0199 19.6147 72.875 19.25 72.875H12.375C11.6457 72.875 10.9462 72.5853 10.4305 72.0695C9.91473 71.5538 9.625 70.8543 9.625 70.125V19.25H72.875V22C72.875 22.3647 73.0199 22.7144 73.2777 22.9723C73.5356 23.2301 73.8853 23.375 74.25 23.375C74.6147 23.375 74.9644 23.2301 75.2223 22.9723C75.4801 22.7144 75.625 22.3647 75.625 22V11C75.625 9.54131 75.0455 8.14236 74.0141 7.11091C72.9826 6.07946 71.5837 5.5 70.125 5.5H12.375C10.9163 5.5 9.51736 6.07946 8.48591 7.11091C7.45446 8.14236 6.875 9.54131 6.875 11V12.375H5.5C4.04131 12.375 2.64236 12.9545 1.61091 13.9859C0.579463 15.0174 0 16.4163 0 17.875L0 77C0 78.4587 0.579463 79.8576 1.61091 80.8891C2.64236 81.9205 4.04131 82.5 5.5 82.5H60.5C61.9587 82.5 63.3576 81.9205 64.3891 80.8891C65.4205 79.8576 66 78.4587 66 77V75.625H70.125C71.5837 75.625 72.9826 75.0455 74.0141 74.0141C75.0455 72.9826 75.625 71.5837 75.625 70.125V58.6988C79.2727 57.2754 82.4056 54.7839 84.6137 51.5503C86.8218 48.3167 88.002 44.4918 88 40.5763V33C88 32.6353 87.8551 32.2856 87.5973 32.0277C87.3394 31.7699 86.9897 31.625 86.625 31.625ZM72.875 11V16.5H50.4488L47.355 8.25H70.125C70.8543 8.25 71.5538 8.53973 72.0695 9.05546C72.5853 9.57118 72.875 10.2707 72.875 11ZM9.625 11C9.625 10.2707 9.91473 9.57118 10.4305 9.05546C10.9462 8.53973 11.6457 8.25 12.375 8.25H43.4638C43.7447 8.24909 44.0192 8.33426 44.2503 8.49405C44.4813 8.65384 44.6579 8.88057 44.7563 9.14375L47.5063 16.5H9.625V11ZM85.25 40.5763C85.253 44.0086 84.1988 47.3586 82.2306 50.1706C80.2625 52.9826 77.4759 55.1201 74.25 56.2925C71.0241 55.1201 68.2375 52.9826 66.2694 50.1706C64.3012 47.3586 63.247 44.0086 63.25 40.5763V34.375C67.3723 34.075 71.2616 32.3491 74.25 29.4938C77.2384 32.3491 81.1277 34.075 85.25 34.375V40.5763Z" fill="#033C59"/>
<path d="M53.625 38.4999H51.9888L50.0637 29.8511C49.8798 29.0158 49.4747 28.2452 48.8908 27.6202C48.3069 26.9951 47.5658 26.5385 46.7449 26.2981C45.924 26.0577 45.0536 26.0425 44.2248 26.2539C43.3959 26.4653 42.6392 26.8957 42.0337 27.4999L41.25 28.2836L40.4663 27.4999C39.8627 26.8957 39.108 26.4646 38.281 26.2516C37.454 26.0386 36.5849 26.0515 35.7646 26.2889C34.9442 26.5263 34.2026 26.9795 33.6172 27.6013C33.0317 28.223 32.6239 28.9905 32.4363 29.8236L30.5113 38.4999H28.875C28.5103 38.4999 28.1606 38.6447 27.9027 38.9026C27.6449 39.1605 27.5 39.5102 27.5 39.8749C27.5 40.2396 27.6449 40.5893 27.9027 40.8472C28.1606 41.105 28.5103 41.2499 28.875 41.2499H53.625C53.9897 41.2499 54.3394 41.105 54.5973 40.8472C54.8551 40.5893 55 40.2396 55 39.8749C55 39.5102 54.8551 39.1605 54.5973 38.9026C54.3394 38.6447 53.9897 38.4999 53.625 38.4999Z" fill="#2F96FF"/>
<path d="M48.125 44C46.9088 44.004 45.7281 44.411 44.7678 45.1574C43.8074 45.9037 43.1216 46.9474 42.8175 48.125H39.6825C39.3479 46.8289 38.552 45.6993 37.444 44.948C36.3361 44.1966 34.9921 43.8752 33.6642 44.0439C32.3362 44.2125 31.1153 44.8598 30.2303 45.8642C29.3454 46.8687 28.8572 48.1614 28.8572 49.5C28.8572 50.8387 29.3454 52.1314 30.2303 53.1358C31.1153 54.1403 32.3362 54.7875 33.6642 54.9562C34.9921 55.1249 36.3361 54.8034 37.444 54.0521C38.552 53.3008 39.3479 52.1712 39.6825 50.875H42.8175C43.0749 51.8718 43.6068 52.7763 44.3528 53.4857C45.0988 54.1951 46.029 54.6808 47.0374 54.8878C48.0458 55.0947 49.0921 55.0144 50.0572 54.6561C51.0222 54.2978 51.8674 53.6758 52.4965 52.861C53.1256 52.0461 53.5133 51.071 53.6156 50.0467C53.718 49.0224 53.5307 47.9899 53.0753 47.0666C52.6198 46.1434 51.9144 45.3666 51.0393 44.8245C50.1642 44.2823 49.1545 43.9967 48.125 44ZM34.375 52.25C33.8311 52.25 33.2994 52.0887 32.8472 51.7866C32.395 51.4844 32.0425 51.0549 31.8344 50.5524C31.6262 50.0499 31.5718 49.497 31.6779 48.9635C31.784 48.4301 32.0459 47.9401 32.4305 47.5555C32.8151 47.1709 33.3051 46.909 33.8385 46.8029C34.372 46.6968 34.9249 46.7512 35.4274 46.9594C35.9299 47.1675 36.3594 47.52 36.6616 47.9722C36.9637 48.4244 37.125 48.9561 37.125 49.5C37.125 50.2294 36.8353 50.9288 36.3196 51.4446C35.8038 51.9603 35.1044 52.25 34.375 52.25ZM48.125 52.25C47.5811 52.25 47.0494 52.0887 46.5972 51.7866C46.145 51.4844 45.7925 51.0549 45.5844 50.5524C45.3762 50.0499 45.3218 49.497 45.4279 48.9635C45.534 48.4301 45.7959 47.9401 46.1805 47.5555C46.5651 47.1709 47.0551 46.909 47.5885 46.8029C48.122 46.6968 48.6749 46.7512 49.1774 46.9594C49.6799 47.1675 50.1094 47.52 50.4116 47.9722C50.7137 48.4244 50.875 48.9561 50.875 49.5C50.875 50.2294 50.5853 50.9288 50.0696 51.4446C49.5539 51.9603 48.8544 52.25 48.125 52.25Z" fill="#96A1C3"/>
<path d="M13.75 24.75H19.25C19.6147 24.75 19.9644 24.6051 20.2223 24.3473C20.4801 24.0894 20.625 23.7397 20.625 23.375C20.625 23.0103 20.4801 22.6606 20.2223 22.4027C19.9644 22.1449 19.6147 22 19.25 22H13.75C13.3853 22 13.0356 22.1449 12.7777 22.4027C12.5199 22.6606 12.375 23.0103 12.375 23.375C12.375 23.7397 12.5199 24.0894 12.7777 24.3473C13.0356 24.6051 13.3853 24.75 13.75 24.75Z" fill="#2F96FF"/>
<path d="M19.25 27.5H13.75C13.3853 27.5 13.0356 27.6449 12.7777 27.9027C12.5199 28.1606 12.375 28.5103 12.375 28.875C12.375 29.2397 12.5199 29.5894 12.7777 29.8473C13.0356 30.1051 13.3853 30.25 13.75 30.25H19.25C19.6147 30.25 19.9644 30.1051 20.2223 29.8473C20.4801 29.5894 20.625 29.2397 20.625 28.875C20.625 28.5103 20.4801 28.1606 20.2223 27.9027C19.9644 27.6449 19.6147 27.5 19.25 27.5Z" fill="#2F96FF"/>
<path d="M68.75 61.875H57.75C56.9906 61.875 56.375 62.4906 56.375 63.25V68.75C56.375 69.5094 56.9906 70.125 57.75 70.125H68.75C69.5094 70.125 70.125 69.5094 70.125 68.75V63.25C70.125 62.4906 69.5094 61.875 68.75 61.875Z" fill="#96A1C3"/>
<path d="M13.75 67.375C13.4781 67.375 13.2122 67.4556 12.9861 67.6067C12.76 67.7578 12.5837 67.9726 12.4797 68.2238C12.3756 68.4751 12.3484 68.7515 12.4014 69.0183C12.4545 69.285 12.5854 69.53 12.7777 69.7223C12.97 69.9146 13.215 70.0455 13.4818 70.0986C13.7485 70.1516 14.0249 70.1244 14.2762 70.0203C14.5274 69.9163 14.7422 69.74 14.8933 69.5139C15.0444 69.2878 15.125 69.0219 15.125 68.75C15.125 68.3853 14.9801 68.0356 14.7223 67.7777C14.4644 67.5199 14.1147 67.375 13.75 67.375Z" fill="#96A1C3"/>
<path d="M19.25 67.375C18.9781 67.375 18.7122 67.4556 18.4861 67.6067C18.26 67.7578 18.0837 67.9726 17.9797 68.2238C17.8756 68.4751 17.8484 68.7515 17.9014 69.0183C17.9545 69.285 18.0854 69.53 18.2777 69.7223C18.47 69.9146 18.715 70.0455 18.9818 70.0986C19.2485 70.1516 19.5249 70.1244 19.7762 70.0203C20.0274 69.9163 20.2422 69.74 20.3933 69.5139C20.5444 69.2878 20.625 69.0219 20.625 68.75C20.625 68.3853 20.4801 68.0356 20.2223 67.7777C19.9644 67.5199 19.6147 67.375 19.25 67.375Z" fill="#96A1C3"/>
<path fill-rule="evenodd" clip-rule="evenodd" d="M74.3806 35.6191L78.9887 37.4718L77.66 38.3942L74.3806 37.1896L71.1012 38.3942L69.7725 37.4718L74.3806 35.6191ZM68.0946 38.2204L74.3808 40.6652L80.667 38.2204L79.6364 40.7754L74.3808 42.9572L69.1251 40.7754L68.0946 38.2204ZM74.3807 44.9889L70.4008 43.2004L71.0609 45.0989L74.3803 46.5619L77.6993 45.099L78.3609 43.2619L74.3807 44.9889ZM72.2891 47.8559L74.378 48.8622L76.4719 47.8559L77.0026 49.1716L74.3779 50.286L71.7585 49.1716L72.2891 47.8559ZM81.7141 42.7714L80.8124 40.5999L79.8849 42.0455L80.1905 42.773L78.5724 46.9335L77.5744 47.4283L78.1025 48.7376L79.6367 48.1035L81.7141 42.7714ZM67.9491 40.5355L67.0476 42.7707L69.0031 48.1038L70.6594 48.7356L71.1869 47.4279L70.1893 46.9333L68.6303 42.7706L68.8747 42.0434L67.9491 40.5355Z" fill="white"/>
</g>
<defs>
<clipPath id="clip0_4092_6561">
<rect width="88" height="88" fill="white"/>
</clipPath>
</defs>
</svg>
