<svg width="16" height="16" viewBox="0 0 16 16" fill="none" xmlns="http://www.w3.org/2000/svg">
    <path d="M3.33333 2C2.60462 2 2 2.60462 2 3.33333V12.6667C2 13.3954 2.60462 14 3.33333 14H12.6667C13.3954 14 14 13.3954 14 12.6667V3.33333C14 2.60462 13.3954 2 12.6667 2H3.33333ZM3.33333 3.33333H12.6667V12.6667H3.33333V3.33333ZM6 4.66667V6H4.66667V7.33333H6V8.66667H4.66667V10H6V11.3333H7.33333V10H8.66667V11.3333H10V10H11.3333V8.66667H10V7.33333H11.3333V6H10V4.66667H8.66667V6H7.33333V4.66667H6ZM7.33333 7.33333H8.66667V8.66667H7.33333V7.33333Z" fill="#141414"/>
</svg>