<svg width="48" height="48" viewBox="0 0 48 48" fill="none" xmlns="http://www.w3.org/2000/svg">
<path fill-rule="evenodd" clip-rule="evenodd" d="M14.25 16.5C14.25 11.124 18.624 6.75 24 6.75C29.376 6.75 33.75 11.124 33.75 16.5V20.5107C35.497 21.1289 36.75 22.7911 36.75 24.75V36.75C36.75 39.2355 34.7355 41.25 32.25 41.25H15.75C13.2645 41.25 11.25 39.2355 11.25 36.75V24.75C11.25 22.7911 12.503 21.1289 14.25 20.5107V16.5ZM30.75 16.5C30.75 12.7785 27.7222 9.75 24 9.75C20.2778 9.75 17.25 12.7785 17.25 16.5V20.25H30.75V16.5ZM25.65 25.0681C25.8442 25.1818 25.9374 25.4121 25.8772 25.6289L24.8757 29.2329L28.3882 28.9699C28.5954 28.9544 28.7903 29.0697 28.8765 29.2587C28.9628 29.4477 28.9221 29.6705 28.7745 29.8168L22.7722 35.7696C22.6124 35.928 22.366 35.9591 22.1719 35.8453C21.9779 35.7315 21.8847 35.5013 21.9449 35.2845L22.9504 31.6663L19.5232 31.854C19.3176 31.8652 19.1264 31.7483 19.0428 31.5602C18.9591 31.372 19.0004 31.1518 19.1465 31.0067L25.0497 25.1441C25.2094 24.9855 25.4558 24.9543 25.65 25.0681Z" fill="black"/>
</svg>
