<svg width="48" height="48" viewBox="0 0 48 48" fill="none" xmlns="http://www.w3.org/2000/svg">
<path d="M33.75 6.75C28.374 6.75 24 11.124 24 16.5V20.25H9C6.5145 20.25 4.5 22.2645 4.5 24.75V36.75C4.5 39.2355 6.5145 41.25 9 41.25H25.5C27.9855 41.25 30 39.2355 30 36.75V24.75C30 22.7911 28.747 21.1289 27 20.5107V16.5C27 12.7785 30.0278 9.75 33.75 9.75C37.4723 9.75 40.5 12.7785 40.5 16.5V21.75C40.5 22.5787 41.172 23.25 42 23.25C42.828 23.25 43.5 22.5787 43.5 21.75V16.5C43.5 11.124 39.126 6.75 33.75 6.75Z" fill="#141414"/>
</svg>
