<svg width="24" height="24" viewBox="0 0 24 24" fill="none" xmlns="http://www.w3.org/2000/svg">
<path d="M12.0043 21C12.4575 21 12.8423 20.6405 12.8423 20.2058V12.8235H20.1705C20.6152 12.8235 21 12.4473 21 12.0042C21 11.5527 20.6152 11.1849 20.1705 11.1849H12.8423V3.79424C12.8423 3.3595 12.4575 3 12.0043 3C11.5425 3 11.1663 3.3595 11.1663 3.79424V11.1849H3.838C3.39335 11.1849 3 11.5527 3 12.0042C3 12.4473 3.39335 12.8235 3.838 12.8235H11.1663V20.2058C11.1663 20.6405 11.5425 21 12.0043 21Z" fill="#2F96FF"/>
</svg>
