<svg width="16" height="16" viewBox="0 0 16 16" fill="none" xmlns="http://www.w3.org/2000/svg">
<path fill-rule="evenodd" clip-rule="evenodd" d="M7.99992 14.6668C11.6813 14.6668 14.6666 11.6815 14.6666 8.00016C14.6666 4.31883 11.6813 1.3335 7.99992 1.3335C4.31859 1.3335 1.33325 4.31883 1.33325 8.00016C1.33325 11.6815 4.31859 14.6668 7.99992 14.6668ZM7.32025 10.6188C7.47659 10.4598 7.67692 10.3818 7.91925 10.3818C8.15992 10.3818 8.36458 10.4625 8.51992 10.6188C8.67625 10.7765 8.75425 10.9772 8.75425 11.2205C8.75425 11.4598 8.67725 11.6578 8.52492 11.8142C8.37125 11.9705 8.17059 12.0485 7.92059 12.0485C7.66958 12.0485 7.46892 11.9705 7.31525 11.8142C7.16258 11.6582 7.08592 11.4602 7.08592 11.2205C7.08592 10.9768 7.16392 10.7765 7.32025 10.6188ZM8.02325 4.3335C8.75525 4.3335 9.32292 4.50916 9.72792 4.86216C10.1316 5.21516 10.3333 5.7125 10.3353 6.3555C10.3353 6.64716 10.2689 6.92316 10.1373 7.1835C10.0069 7.4425 9.77625 7.7305 9.44959 8.04683L9.02892 8.44383C8.76592 8.69516 8.61592 8.98816 8.57825 9.3255L8.55725 9.6665H7.23059C7.23059 9.18483 7.28925 8.7745 7.40759 8.4895C7.52492 8.2045 7.73958 7.92316 8.05225 7.64716C8.36458 7.36983 8.57292 7.14483 8.67592 6.9715C8.78025 6.7985 8.83092 6.61483 8.83092 6.42216C8.83092 5.84016 8.56258 5.54983 8.02358 5.54983C7.76825 5.54983 7.56259 5.62783 7.41025 5.7855C7.25659 5.9415 7.17592 6.15783 7.16925 6.4325L7.16658 6.66683H5.66658V6.3335H5.67192C5.69792 5.7255 5.90892 5.2425 6.30592 4.89083C6.72492 4.51983 7.29792 4.3335 8.02325 4.3335Z" fill="#141414" fill-opacity="0.5"/>
</svg>
