<svg width="119" height="64" viewBox="0 0 119 64" fill="none" xmlns="http://www.w3.org/2000/svg">
    <rect width="64" height="64" rx="32" fill="#2F96FF" />
    <path
        d="M32 12C20.954 12 12 20.954 12 32C12 43.046 20.954 52 32 52C43.046 52 52 43.046 52 32C52 20.954 43.046 12 32 12ZM37.172 40L30.586 33.414C30.21 33.038 30 32.53 30 32V22C30 20.896 30.896 20 32 20C33.104 20 34 20.896 34 22V31.172L40 37.172C40.78 37.952 40.78 39.22 40 40C39.22 40.78 37.952 40.78 37.172 40Z"
        fill="white" />
    <rect x="55" width="64" height="64" rx="32" fill="#FF9500" />
    <path
        d="M105 22V20.5C105 16.916 102.084 14 98.5 14H75.5C71.916 14 69 16.916 69 20.5V22H105ZM69 25V43.5C69 47.084 71.916 50 75.5 50H98.5C102.084 50 105 47.084 105 43.5V25H69ZM83 42.5C83 43.329 82.329 44 81.5 44C80.671 44 80 43.329 80 42.5V33.581L78.974 33.923C78.19 34.188 77.339 33.76 77.077 32.974C76.815 32.188 77.24 31.339 78.026 31.077L81.026 30.077C81.483 29.924 81.985 30.001 82.377 30.283C82.768 30.565 83 31.018 83 31.5V42.5ZM91 44C88.302 44 86.733 42.807 86.563 42.671C85.916 42.153 85.811 41.21 86.329 40.563C86.841 39.921 87.773 39.812 88.42 40.315C88.485 40.363 89.385 41 91 41C91.913 41 93 40.696 93 39.25C93 38.285 92.215 37.5 91.25 37.5H88C87.554 37.5 87.13 37.301 86.846 36.958C86.561 36.615 86.444 36.162 86.526 35.723L87.372 31.223C87.505 30.514 88.125 30 88.846 30H94C94.829 30 95.5 30.671 95.5 31.5C95.5 32.329 94.829 33 94 33H90.09L89.808 34.5H91.249C93.868 34.5 95.999 36.631 95.999 39.25C96 42.047 93.944 44 91 44Z"
        fill="white" />
</svg>