<svg width="24" height="25" viewBox="0 0 24 25" fill="none" xmlns="http://www.w3.org/2000/svg">
<path d="M6.25 3.5C4.458 3.5 3 4.958 3 6.75V7.5H21V6.75C21 4.958 19.542 3.5 17.75 3.5H6.25ZM3 9V18.25C3 20.042 4.458 21.5 6.25 21.5H12.0283C11.3803 20.489 11 19.29 11 18C11 16.451 11.5442 15.0301 12.4482 13.9131C12.3087 13.9671 12.1585 14 12 14C11.3095 14 10.75 13.4405 10.75 12.75C10.75 12.0595 11.3095 11.5 12 11.5C12.6905 11.5 13.25 12.0595 13.25 12.75C13.25 12.893 13.2208 13.0278 13.1768 13.1553C14.3258 12.1288 15.838 11.5 17.5 11.5C18.79 11.5 19.989 11.8803 21 12.5283V9H3ZM7.75 11.5C8.4405 11.5 9 12.0595 9 12.75C9 13.4405 8.4405 14 7.75 14C7.0595 14 6.5 13.4405 6.5 12.75C6.5 12.0595 7.0595 11.5 7.75 11.5ZM17.5 12.5C14.4625 12.5 12 14.9625 12 18C12 21.0375 14.4625 23.5 17.5 23.5C20.5375 23.5 23 21.0375 23 18C23 14.9625 20.5375 12.5 17.5 12.5ZM17.5 15.5C20.091 15.5 21.3781 17.6565 21.4316 17.748C21.5221 17.904 21.5221 18.096 21.4316 18.252C21.3781 18.344 20.091 20.5 17.5 20.5C14.909 20.5 13.6219 18.3435 13.5684 18.252C13.4779 18.096 13.4779 17.904 13.5684 17.748C13.6219 17.6565 14.909 15.5 17.5 15.5ZM7.75 16C8.4405 16 9 16.5595 9 17.25C9 17.9405 8.4405 18.5 7.75 18.5C7.0595 18.5 6.5 17.9405 6.5 17.25C6.5 16.5595 7.0595 16 7.75 16ZM17.5 16.5C16.6715 16.5 16 17.1715 16 18C16 18.8285 16.6715 19.5 17.5 19.5C18.3285 19.5 19 18.8285 19 18C19 17.1715 18.3285 16.5 17.5 16.5Z" fill="#9747FF"/>
</svg>
