<svg width="20" height="22" viewBox="0 0 20 22" fill="none" xmlns="http://www.w3.org/2000/svg">
<path fill-rule="evenodd" clip-rule="evenodd" d="M13.4055 0.13719C13.797 0.366525 13.985 0.83065 13.8635 1.26777L11.8446 8.53293L18.9254 8.00281C19.3431 7.97154 19.736 8.2039 19.9098 8.58498C20.0837 8.96606 20.0016 9.41511 19.7042 9.71006L7.6042 21.7101C7.28216 22.0294 6.7855 22.0921 6.39424 21.8627C6.00298 21.6333 5.8151 21.1693 5.93654 20.7323L7.96348 13.4384L1.05471 13.8167C0.640262 13.8394 0.254877 13.6037 0.0862609 13.2244C-0.0823552 12.8452 0.00085628 12.4011 0.295367 12.1087L12.1954 0.29048C12.5173 -0.0292151 13.0141 -0.0921436 13.4055 0.13719ZM3.56926 11.676L9.24535 11.3652C9.56702 11.3475 9.87747 11.486 10.0793 11.737C10.2812 11.9881 10.3498 12.321 10.2635 12.6314L8.87307 17.6349L16.3702 10.1997L10.5747 10.6336C10.2499 10.6579 9.93364 10.5225 9.72703 10.2708C9.52041 10.019 9.44934 9.68243 9.53654 9.36864L10.9256 4.37028L3.56926 11.676Z" fill="#2F96FF"/>
</svg>
