<svg width="24" height="25" viewBox="0 0 24 25" fill="none" xmlns="http://www.w3.org/2000/svg">
<g clip-path="url(#clip0_4595_21573)">
<path d="M5.55469 6.10156C5.07629 6.10156 4.62431 6.31558 4.32031 6.68438L0.376563 11.4703L0.375 11.4719C0.132693 11.7603 -0.000100629 12.1249 5.72141e-08 12.5016C0.000981349 12.8915 0.144336 13.2677 0.403125 13.5594L4.32031 18.3188C4.62431 18.6884 5.07629 18.9016 5.55469 18.9016H22.4C23.284 18.9016 24 18.1856 24 17.3016V7.70156C24 6.81756 23.284 6.10156 22.4 6.10156H5.55469ZM5.6 10.9016C6.484 10.9016 7.2 11.6176 7.2 12.5016C7.2 13.3856 6.484 14.1016 5.6 14.1016C4.716 14.1016 4 13.3856 4 12.5016C4 11.6176 4.716 10.9016 5.6 10.9016ZM10.4 10.9016C11.284 10.9016 12 11.6176 12 12.5016C12 13.3856 11.284 14.1016 10.4 14.1016C9.516 14.1016 8.8 13.3856 8.8 12.5016C8.8 11.6176 9.516 10.9016 10.4 10.9016ZM15.2 10.9016C16.084 10.9016 16.8 11.6176 16.8 12.5016C16.8 13.3856 16.084 14.1016 15.2 14.1016C14.316 14.1016 13.6 13.3856 13.6 12.5016C13.6 11.6176 14.316 10.9016 15.2 10.9016ZM20 10.9016C20.884 10.9016 21.6 11.6176 21.6 12.5016C21.6 13.3856 20.884 14.1016 20 14.1016C19.116 14.1016 18.4 13.3856 18.4 12.5016C18.4 11.6176 19.116 10.9016 20 10.9016Z" fill="#34C759"/>
</g>
<defs>
<clipPath id="clip0_4595_21573">
<rect width="24" height="24" fill="white" transform="translate(0 0.5)"/>
</clipPath>
</defs>
</svg>
