<svg width="24" height="24" viewBox="0 0 24 24" fill="none" xmlns="http://www.w3.org/2000/svg">
<path d="M12 2C11.7348 2.00003 11.4805 2.10539 11.2929 2.29292C11.1054 2.48045 11 2.73479 11 3V4C10.9975 4.25826 11.0951 4.50746 11.2722 4.69543C11.4493 4.88341 11.6923 4.99557 11.9502 5.00844C12.2082 5.02131 12.4611 4.9339 12.656 4.76449C12.851 4.59509 12.9728 4.35683 12.9961 4.09961C16.9474 4.59269 20 7.91144 20 12C20 16.43 16.43 20 12 20C7.56996 20 4 16.43 4 12C4 9.84309 4.84808 7.89688 6.23047 6.45801C6.32199 6.36341 6.39394 6.25167 6.44219 6.1292C6.49044 6.00673 6.51404 5.87594 6.51163 5.74434C6.50923 5.61273 6.48087 5.48289 6.42817 5.36227C6.37548 5.24165 6.2995 5.13261 6.20458 5.04142C6.10965 4.95023 5.99767 4.87867 5.87503 4.83085C5.75239 4.78303 5.62152 4.75989 5.48993 4.76275C5.35833 4.76562 5.22859 4.79443 5.10815 4.84755C4.98772 4.90066 4.87895 4.97703 4.78809 5.07227C3.06247 6.86839 2 9.31691 2 12C2 17.511 6.48904 22 12 22C17.511 22 22 17.511 22 12C22 6.48904 17.511 2 12 2ZM7.98926 6.99023C7.79041 6.99048 7.59615 7.05 7.43129 7.16119C7.26643 7.27238 7.13845 7.43018 7.06372 7.61446C6.98898 7.79873 6.97088 8.00109 7.01171 8.19571C7.05255 8.39032 7.15047 8.56834 7.29297 8.70703L10.5039 11.918C10.4928 12.1214 10.5232 12.325 10.5933 12.5163C10.6634 12.7076 10.7718 12.8826 10.9118 13.0306C11.0518 13.1787 11.2205 13.2967 11.4076 13.3773C11.5947 13.458 11.7962 13.4998 12 13.5C12.3978 13.5 12.7794 13.342 13.0607 13.0607C13.342 12.7794 13.5 12.3978 13.5 12C13.5 11.6022 13.342 11.2206 13.0607 10.9393C12.7794 10.658 12.3978 10.5 12 10.5C11.9726 10.5006 11.9453 10.5019 11.918 10.5039L8.70703 7.29297C8.61373 7.19706 8.50212 7.12084 8.37883 7.06884C8.25554 7.01684 8.12307 6.99011 7.98926 6.99023Z" fill="black"/>
</svg>
