<svg width="32" height="32" viewBox="0 0 32 32" fill="none" xmlns="http://www.w3.org/2000/svg">
<path d="M16 2.66699C8.63602 2.66699 2.66669 8.63633 2.66669 16.0003C2.66669 23.3643 8.63602 29.3337 16 29.3337C23.364 29.3337 29.3334 23.3643 29.3334 16.0003C29.3334 8.63633 23.364 2.66699 16 2.66699ZM19.448 21.3337L15.0574 16.943C14.8067 16.6923 14.6667 16.3537 14.6667 16.0003V9.33366C14.6667 8.59766 15.264 8.00033 16 8.00033C16.736 8.00033 17.3334 8.59766 17.3334 9.33366V15.4483L21.3334 19.4483C21.8534 19.9683 21.8534 20.8137 21.3334 21.3337C20.8134 21.8537 19.968 21.8537 19.448 21.3337Z" fill="#141414"/>
</svg>
