<svg width="24" height="24" viewBox="0 0 24 24" fill="none" xmlns="http://www.w3.org/2000/svg">
<path d="M7.13687 19.9061L7.13638 19.9058C5.67569 19.1003 5 17.9695 5 16.75V15.9895C5 15.4448 5.44478 15 5.9895 15H18.0105C18.5552 15 19 15.4448 19 15.9895V16.75C19 18.0933 18.2549 19.1182 16.9513 19.8579C15.6234 20.6115 13.8061 21 12 21C10.1041 21 8.38023 20.5926 7.13687 19.9061ZM9.17157 4.17157C9.92172 3.42143 10.9391 3 12 3C13.0609 3 14.0783 3.42143 14.8284 4.17157C15.5786 4.92172 16 5.93913 16 7C16 8.06087 15.5786 9.07828 14.8284 9.82843C14.0783 10.5786 13.0609 11 12 11C10.9391 11 9.92172 10.5786 9.17157 9.82843C8.42143 9.07828 8 8.06087 8 7C8 5.93913 8.42143 4.92172 9.17157 4.17157Z" stroke="#141414" stroke-opacity="0.5" stroke-width="2"/>
</svg>
