<svg width="34" height="34" viewBox="0 0 34 34" fill="none" xmlns="http://www.w3.org/2000/svg">
<path d="M27.625 7.79175L26.7471 21.994C26.5227 25.6225 26.4106 27.4368 25.5011 28.7413C25.0513 29.3861 24.4725 29.9304 23.801 30.3394C22.443 31.1667 20.6252 31.1667 16.9897 31.1667C13.3494 31.1667 11.5293 31.1667 10.1703 30.3379C9.49847 29.9282 8.91933 29.3829 8.4698 28.7369C7.56058 27.4304 7.45089 25.6136 7.23153 21.9799L6.375 7.79175" stroke="#013945" stroke-width="1.36864" stroke-linecap="round"/>
<path d="M4.25 7.79159H29.75M22.7456 7.79159L21.7786 5.79654C21.1361 4.47129 20.8148 3.80866 20.2607 3.3954C20.1379 3.30373 20.0077 3.22218 19.8716 3.15158C19.258 2.83325 18.5216 2.83325 17.0489 2.83325C15.5391 2.83325 14.7843 2.83325 14.1605 3.16492C14.0223 3.23843 13.8904 3.32328 13.7662 3.41858C13.2057 3.84858 12.8926 4.53545 12.2664 5.9092L11.4083 7.79159" stroke="#013945" stroke-width="1.36864" stroke-linecap="round"/>
<path d="M13.457 23.375V14.875" stroke="#013945" stroke-width="1.36864" stroke-linecap="round"/>
<path d="M20.543 23.375V14.875" stroke="#013945" stroke-width="1.36864" stroke-linecap="round"/>
</svg>
