<svg width="22" height="22" viewBox="0 0 22 22" fill="none" xmlns="http://www.w3.org/2000/svg">
<path d="M10.6473 0C4.76701 0 0 4.76701 0 10.6473C0 15.6405 3.4378 19.8304 8.07535 20.9812V13.9011H5.87987V10.6473H8.07535V9.24527C8.07535 5.62135 9.71546 3.94163 13.2734 3.94163C13.948 3.94163 15.1119 4.07409 15.5881 4.20611V7.15542C15.3368 7.12901 14.9003 7.11581 14.3581 7.11581C12.6124 7.11581 11.9378 7.77722 11.9378 9.49655V10.6473H15.4156L14.8181 13.9011H11.9378V21.2167C17.2099 20.58 21.295 16.0911 21.295 10.6473C21.2946 4.76701 16.5276 0 10.6473 0Z" fill="black"/>
</svg>
