<svg width="23" height="23" viewBox="0 0 23 23" fill="none" xmlns="http://www.w3.org/2000/svg">
<g clip-path="url(#clip0_93_699)">
<path d="M11.2077 2.01826C14.2023 2.01826 14.5569 2.0314 15.7346 2.08393C16.8291 2.13209 17.4201 2.31597 17.8141 2.4692C18.3351 2.67058 18.7116 2.91575 19.1012 3.3054C19.4953 3.69942 19.7361 4.07155 19.9374 4.59253C20.0907 4.98655 20.2746 5.58196 20.3227 6.67208C20.3752 7.85414 20.3884 8.20876 20.3884 11.1989C20.3884 14.1935 20.3752 14.5481 20.3227 15.7258C20.2746 16.8203 20.0907 17.4113 19.9374 17.8054C19.7361 18.3263 19.4909 18.7028 19.1012 19.0925C18.7072 19.4865 18.3351 19.7273 17.8141 19.9287C17.4201 20.0819 16.8247 20.2658 15.7346 20.314C14.5525 20.3665 14.1979 20.3796 11.2077 20.3796C8.21314 20.3796 7.85852 20.3665 6.68084 20.314C5.58634 20.2658 4.99531 20.0819 4.60129 19.9287C4.0803 19.7273 3.70379 19.4821 3.31415 19.0925C2.92013 18.6985 2.67934 18.3263 2.47795 17.8054C2.32472 17.4113 2.14085 16.8159 2.09269 15.7258C2.04015 14.5437 2.02702 14.1891 2.02702 11.1989C2.02702 8.20439 2.04015 7.84977 2.09269 6.67208C2.14085 5.57758 2.32472 4.98655 2.47795 4.59253C2.67934 4.07155 2.92451 3.69504 3.31415 3.3054C3.70817 2.91137 4.0803 2.67058 4.60129 2.4692C4.99531 2.31597 5.59072 2.13209 6.68084 2.08393C7.85852 2.0314 8.21314 2.01826 11.2077 2.01826ZM11.2077 0C8.16498 0 7.7841 0.013134 6.5889 0.0656701C5.39808 0.118206 4.5794 0.310838 3.87016 0.586653C3.13028 0.875601 2.50422 1.25649 1.88254 1.88254C1.25649 2.50422 0.875601 3.13028 0.586653 3.86578C0.310838 4.5794 0.118206 5.3937 0.0656701 6.58452C0.013134 7.7841 0 8.16498 0 11.2077C0 14.2504 0.013134 14.6313 0.0656701 15.8265C0.118206 17.0173 0.310838 17.836 0.586653 18.5452C0.875601 19.2851 1.25649 19.9112 1.88254 20.5329C2.50422 21.1545 3.13028 21.5398 3.86578 21.8244C4.5794 22.1002 5.3937 22.2928 6.58452 22.3453C7.77972 22.3979 8.16061 22.411 11.2033 22.411C14.246 22.411 14.6269 22.3979 15.8221 22.3453C17.0129 22.2928 17.8316 22.1002 18.5409 21.8244C19.2764 21.5398 19.9024 21.1545 20.5241 20.5329C21.1458 19.9112 21.531 19.2851 21.8156 18.5496C22.0914 17.836 22.2841 17.0217 22.3366 15.8309C22.3891 14.6357 22.4023 14.2548 22.4023 11.2121C22.4023 8.16936 22.3891 7.78847 22.3366 6.59328C22.2841 5.40246 22.0914 4.58377 21.8156 3.87454C21.5398 3.13027 21.1589 2.50422 20.5329 1.88254C19.9112 1.26087 19.2851 0.875601 18.5496 0.591031C17.836 0.315216 17.0217 0.122584 15.8309 0.0700481C14.6313 0.013134 14.2504 0 11.2077 0Z" fill="#060606"/>
<path d="M11.2073 5.45068C8.02884 5.45068 5.4502 8.02933 5.4502 11.2078C5.4502 14.3862 8.02884 16.9648 11.2073 16.9648C14.3857 16.9648 16.9644 14.3862 16.9644 11.2078C16.9644 8.02933 14.3857 5.45068 11.2073 5.45068ZM11.2073 14.9422C9.14523 14.9422 7.47283 13.2698 7.47283 11.2078C7.47283 9.14572 9.14523 7.47332 11.2073 7.47332C13.2693 7.47332 14.9417 9.14572 14.9417 11.2078C14.9417 13.2698 13.2693 14.9422 11.2073 14.9422Z" fill="#060606"/>
<path d="M18.5367 5.22296C18.5367 5.96722 17.9326 6.56701 17.1927 6.56701C16.4484 6.56701 15.8486 5.96284 15.8486 5.22296C15.8486 4.47869 16.4528 3.87891 17.1927 3.87891C17.9326 3.87891 18.5367 4.48307 18.5367 5.22296Z" fill="#060606"/>
</g>
<defs>
<clipPath id="clip0_93_699">
<rect width="22.4154" height="22.4154" fill="white"/>
</clipPath>
</defs>
</svg>
