<svg width="25" height="25" viewBox="0 0 25 25" fill="none" xmlns="http://www.w3.org/2000/svg">
<path d="M12.3584 0C5.533 0 0.000120163 5.53302 0 12.3584V18.5381C0 20.4573 -2.09808e-05 21.4168 0.313477 22.1738C0.731585 23.1832 1.53357 23.9852 2.54297 24.4033C3.29997 24.7168 4.2595 24.7168 6.17871 24.7168H12.3584C19.1838 24.7167 24.7168 19.1838 24.7168 12.3584C24.7167 5.5331 19.1837 0.000120086 12.3584 0ZM11.623 16.7188C11.939 16.7188 12.2122 16.8343 12.4424 17.0645C12.6764 17.2907 12.7939 17.5639 12.7939 17.8838C12.7939 18.0982 12.739 18.2953 12.6299 18.4746C12.5246 18.65 12.3843 18.7902 12.209 18.8955C12.0334 19.0008 11.8376 19.0537 11.623 19.0537C11.3033 19.0536 11.0279 18.94 10.7979 18.7139C10.5681 18.4839 10.4532 18.2072 10.4531 17.8838C10.4531 17.5641 10.5679 17.2906 10.7979 17.0645C11.0279 16.8344 11.3033 16.7188 11.623 16.7188ZM11.9219 6.79492C12.6395 6.79493 13.2674 6.92919 13.8057 7.19824C14.344 7.46352 14.7621 7.83657 15.0586 8.31641C15.3587 8.79217 15.5087 9.34784 15.5088 9.9834C15.5088 10.4203 15.4402 10.8149 15.3037 11.166C15.1672 11.513 14.9722 11.8228 14.7188 12.0957C14.4691 12.3688 14.1685 12.6106 13.8174 12.8213C13.4858 13.028 13.2165 13.2435 13.0098 13.4658C12.8071 13.6881 12.659 13.9518 12.5654 14.2559C12.4719 14.5601 12.4209 14.9364 12.4131 15.3848V15.4961H10.7402V15.3848C10.748 14.6592 10.8195 14.0815 10.9561 13.6523C11.0964 13.2235 11.2955 12.8765 11.5527 12.6113C11.8101 12.3461 12.1207 12.1042 12.4834 11.8857C12.7175 11.7375 12.928 11.571 13.1152 11.3877C13.3025 11.2044 13.4513 10.9938 13.5605 10.7559C13.6697 10.518 13.7246 10.2544 13.7246 9.96582C13.7246 9.61893 13.6421 9.31884 13.4785 9.06543C13.3147 8.81188 13.0963 8.61603 12.8232 8.47949C12.5541 8.33906 12.2534 8.26954 11.9219 8.26953C11.6215 8.26953 11.3346 8.33123 11.0615 8.45605C10.7884 8.58089 10.5623 8.77672 10.3828 9.04199C10.2035 9.30329 10.0996 9.64043 10.0723 10.0537H8.29395C8.32127 9.35176 8.49865 8.75902 8.82617 8.27539C9.15381 7.78784 9.58678 7.41861 10.125 7.16895C10.6672 6.91928 11.2665 6.79492 11.9219 6.79492Z" fill="black"/>
</svg>
