<svg width="176" height="40" viewBox="0 0 176 40" fill="none" xmlns="http://www.w3.org/2000/svg">
    <g clip-path="url(#clip0_2122_1807)">
        <path d="M57.2307 10.5293H61.1723L68.07 29.3522H63.596L62.131 25.1369H56.2453L54.8073 29.3522H50.333L57.2307 10.5293ZM61.412 22.1412L59.2017 15.4869L56.9377 22.1412H61.412Z" fill="#2F96FF"/>
        <path d="M78.4279 29.6185C77.3626 29.6185 76.4393 29.3976 75.6583 28.9557C74.8769 28.5139 74.2733 27.8953 73.8473 27.0999V35.0003H69.5859V15.435H73.2879V17.6885C73.8029 16.8932 74.4419 16.2746 75.2056 15.8327C75.9866 15.3909 76.9099 15.1699 77.9753 15.1699C78.9163 15.1699 79.7773 15.3555 80.5586 15.7267C81.3576 16.0978 82.0409 16.6104 82.6093 17.2643C83.1953 17.9006 83.6479 18.6606 83.9676 19.5443C84.3049 20.4103 84.4736 21.347 84.4736 22.3545C84.4736 23.3972 84.3226 24.3605 84.0206 25.2442C83.7189 26.1279 83.3016 26.8967 82.7689 27.5506C82.2363 28.1869 81.5973 28.6906 80.8516 29.0618C80.1059 29.4329 79.2979 29.6185 78.4279 29.6185ZM76.9899 26.0395C77.4513 26.0395 77.8686 25.9423 78.2416 25.7479C78.6323 25.5358 78.9696 25.2618 79.2536 24.926C79.5376 24.5902 79.7506 24.2014 79.8926 23.7595C80.0526 23.3 80.1323 22.8228 80.1323 22.3279C80.1323 21.8154 80.0436 21.347 79.8659 20.9229C79.7063 20.481 79.4756 20.101 79.1736 19.7829C78.8896 19.4647 78.5346 19.2173 78.1083 19.0406C77.6999 18.8638 77.2563 18.7755 76.7766 18.7755C76.1909 18.7755 75.6226 18.9522 75.0723 19.3057C74.5396 19.6415 74.1313 20.101 73.8473 20.6843V23.5475C74.1313 24.2544 74.5573 24.8465 75.1256 25.3237C75.7116 25.8009 76.3329 26.0395 76.9899 26.0395Z" fill="#2F96FF"/>
        <path d="M95.4641 29.6185C94.3987 29.6185 93.4754 29.3976 92.6944 28.9557C91.9131 28.5139 91.3094 27.8953 90.8834 27.0999V35.0003H86.6221V15.435H90.3241V17.6885C90.8391 16.8932 91.4781 16.2746 92.2414 15.8327C93.0227 15.3909 93.9461 15.1699 95.0114 15.1699C95.9524 15.1699 96.8134 15.3555 97.5947 15.7267C98.3937 16.0978 99.0771 16.6104 99.6454 17.2643C100.231 17.9006 100.684 18.6606 101.004 19.5443C101.341 20.4103 101.51 21.347 101.51 22.3545C101.51 23.3972 101.359 24.3605 101.057 25.2442C100.755 26.1279 100.338 26.8967 99.8051 27.5506C99.2724 28.1869 98.6334 28.6906 97.8877 29.0618C97.1421 29.4329 96.3341 29.6185 95.4641 29.6185ZM94.0261 26.0395C94.4874 26.0395 94.9047 25.9423 95.2777 25.7479C95.6684 25.5358 96.0057 25.2618 96.2897 24.926C96.5737 24.5902 96.7867 24.2014 96.9287 23.7595C97.0887 23.3 97.1684 22.8228 97.1684 22.3279C97.1684 21.8154 97.0797 21.347 96.9021 20.9229C96.7424 20.481 96.5117 20.101 96.2097 19.7829C95.9257 19.4647 95.5707 19.2173 95.1444 19.0406C94.7361 18.8638 94.2924 18.7755 93.8127 18.7755C93.2271 18.7755 92.6587 18.9522 92.1084 19.3057C91.5757 19.6415 91.1674 20.101 90.8834 20.6843V23.5475C91.1674 24.2544 91.5934 24.8465 92.1617 25.3237C92.7477 25.8009 93.3691 26.0395 94.0261 26.0395Z" fill="#2F96FF"/>
        <path d="M119.481 24.5272C119.481 25.3402 119.312 26.0471 118.975 26.6481C118.637 27.249 118.176 27.7527 117.59 28.1592C117.004 28.548 116.32 28.8485 115.539 29.0606C114.758 29.255 113.932 29.3522 113.062 29.3522H103.848V10.5293H114.367C115.024 10.5293 115.619 10.6707 116.152 10.9535C116.684 11.2363 117.137 11.6074 117.51 12.0669C117.883 12.5088 118.167 13.0213 118.362 13.6046C118.575 14.1702 118.682 14.7534 118.682 15.3543C118.682 16.2557 118.451 17.1041 117.989 17.8994C117.545 18.6947 116.871 19.2956 115.965 19.7021C117.048 20.0203 117.901 20.5858 118.522 21.3989C119.161 22.2119 119.481 23.2546 119.481 24.5272ZM115.033 23.6523C115.033 23.0691 114.864 22.5742 114.527 22.1677C114.19 21.7612 113.764 21.5579 113.249 21.5579H108.215V25.6671H113.062C113.63 25.6671 114.101 25.4816 114.474 25.1104C114.847 24.7393 115.033 24.2532 115.033 23.6523ZM108.215 14.2408V18.138H112.503C112.982 18.138 113.409 17.9789 113.781 17.6608C114.154 17.3427 114.341 16.8478 114.341 16.1762C114.341 15.5576 114.172 15.0804 113.835 14.7446C113.515 14.4088 113.124 14.2408 112.663 14.2408H108.215Z" fill="#2F96FF"/>
        <path d="M121.653 10H125.915V24.3955C125.915 25.456 126.367 25.9862 127.273 25.9862C127.486 25.9862 127.717 25.9597 127.965 25.9067C128.232 25.836 128.471 25.7388 128.684 25.6151L129.244 28.7964C128.711 29.0438 128.098 29.2382 127.406 29.3796C126.714 29.521 126.066 29.5917 125.462 29.5917C124.237 29.5917 123.296 29.2736 122.639 28.6373C121.982 28.0011 121.653 27.082 121.653 25.8802V10Z" fill="#2F96FF"/>
        <path d="M137.285 29.6185C136.096 29.6185 135.03 29.4241 134.089 29.0353C133.166 28.6464 132.385 28.125 131.746 27.4711C131.107 26.7995 130.618 26.0307 130.281 25.1646C129.961 24.2809 129.802 23.3619 129.802 22.4075C129.802 21.4531 129.961 20.5429 130.281 19.6768C130.618 18.7931 131.107 18.0243 131.746 17.3704C132.385 16.6987 133.166 16.1685 134.089 15.7797C135.03 15.3732 136.096 15.1699 137.285 15.1699C138.475 15.1699 139.531 15.3732 140.454 15.7797C141.378 16.1685 142.159 16.6987 142.798 17.3704C143.437 18.0243 143.926 18.7931 144.263 19.6768C144.6 20.5429 144.769 21.4531 144.769 22.4075C144.769 23.3619 144.6 24.2809 144.263 25.1646C143.943 26.0307 143.464 26.7995 142.825 27.4711C142.186 28.125 141.395 28.6464 140.454 29.0353C139.531 29.4241 138.475 29.6185 137.285 29.6185ZM134.169 22.4075C134.169 23.5033 134.462 24.387 135.048 25.0586C135.634 25.7125 136.38 26.0395 137.285 26.0395C137.729 26.0395 138.137 25.9511 138.51 25.7744C138.883 25.5977 139.203 25.3502 139.469 25.0321C139.753 24.7139 139.975 24.334 140.135 23.8921C140.295 23.4326 140.375 22.9377 140.375 22.4075C140.375 21.3117 140.082 20.4368 139.496 19.7829C138.91 19.1113 138.173 18.7755 137.285 18.7755C136.841 18.7755 136.424 18.8638 136.034 19.0406C135.661 19.2173 135.332 19.4647 135.048 19.7829C134.782 20.101 134.569 20.4898 134.409 20.9494C134.249 21.3912 134.169 21.8773 134.169 22.4075Z" fill="#2F96FF"/>
        <path d="M146.057 22.381C146.057 21.4266 146.225 20.5163 146.563 19.6503C146.9 18.7666 147.388 17.9978 148.027 17.3439C148.667 16.6722 149.448 16.142 150.371 15.7532C151.312 15.3644 152.377 15.1699 153.567 15.1699C155.183 15.1699 156.541 15.5146 157.642 16.2039C158.742 16.8755 159.568 17.7592 160.118 18.855L155.964 20.101C155.413 19.2173 154.606 18.7755 153.54 18.7755C152.653 18.7755 151.907 19.1024 151.303 19.7564C150.717 20.4103 150.424 21.2852 150.424 22.381C150.424 22.9289 150.504 23.4326 150.664 23.8921C150.824 24.334 151.046 24.7139 151.33 25.0321C151.614 25.3502 151.942 25.5977 152.315 25.7744C152.706 25.9511 153.114 26.0395 153.54 26.0395C154.073 26.0395 154.561 25.9158 155.005 25.6683C155.449 25.4032 155.777 25.0674 155.99 24.6609L160.145 25.9335C159.63 27.0116 158.805 27.8953 157.668 28.5846C156.55 29.2739 155.183 29.6185 153.567 29.6185C152.395 29.6185 151.339 29.4241 150.398 29.0353C149.474 28.6288 148.684 28.0985 148.027 27.4446C147.388 26.773 146.9 26.0042 146.563 25.1381C146.225 24.2544 146.057 23.3354 146.057 22.381Z" fill="#2F96FF"/>
        <path d="M171.473 29.3531L167.824 23.7593L166.332 25.2969V29.3531H162.071V10H166.332V21.2142L171.046 15.4348H175.574L170.54 21.4263L176 29.3531H171.473Z" fill="#2F96FF"/>
        <path d="M19.999 13.7614L2.85449 7.09375L5.66505 14.062L19.999 20.0126L34.3328 14.062L37.1435 7.09375L19.999 13.7614Z" fill="#2F96FF"/>
        <path d="M32.567 5.05283L19.9993 0L7.43164 5.05283L11.0553 7.5684L19.9993 4.2832L28.9433 7.5684L32.567 5.05283Z" fill="#2F96FF"/>
        <path d="M20.001 25.5535L9.14648 20.6758L10.9469 25.8536L19.9998 29.8439L29.0518 25.854L30.8561 20.8437L20.001 25.5535Z" fill="#2F96FF"/>
        <path d="M19.9929 36.1177L14.2959 33.373L12.8486 36.9614L19.9928 40.0007L27.151 36.9614L25.7037 33.373L19.9929 36.1177Z" fill="#2F96FF"/>
        <path d="M40.0001 19.5063L37.5411 13.584L35.0115 17.5265L35.8448 19.5106L31.4317 30.8577L28.71 32.2073L30.1502 35.7781L34.3345 34.0487L40.0001 19.5063Z" fill="#2F96FF"/>
        <path d="M0 19.5043L2.45876 13.4082L4.98303 17.5209L4.31643 19.5041L8.5684 30.857L11.2891 32.2061L9.8506 35.7726L5.3333 34.0496L0 19.5043Z" fill="#2F96FF"/>
    </g>
    <defs>
        <clipPath id="clip0_2122_1807">
            <rect width="176" height="40" fill="white"/>
        </clipPath>
    </defs>
</svg>