<svg width="200" height="200" viewBox="0 0 200 200" fill="none" xmlns="http://www.w3.org/2000/svg">
    <g clip-path="url(#clip0_5334_25570)">
        <path d="M100 8C49.2372 8 8 49.2372 8 100C8 150.763 49.2372 192 100 192C150.763 192 192 150.763 192 100C192 49.2372 150.763 8 100 8ZM100 16C131.952 16 159.703 33.7801 173.906 60H100C99.8486 59.9992 99.6973 60.0071 99.5469 60.0234C78.9555 60.2564 62.0467 76.1415 60.1875 96.3125L32.1406 50.6016C47.4064 29.6548 72.0592 16 100 16ZM27.2969 58.0078L65.9062 120.922C66.0388 121.147 66.1932 121.359 66.3672 121.555L66.375 121.57C73.5008 132.634 85.8997 140 100 140C105.652 140 111.025 138.807 115.906 136.68L89.2812 183.297C47.9199 178.039 16 142.804 16 100C16 84.6789 20.1503 70.3661 27.2969 58.0078ZM100 68C117.72 68 132 82.2795 132 100C132 105.685 130.519 111.006 127.937 115.625L127.93 115.633C127.88 115.709 127.833 115.787 127.789 115.867C122.287 125.509 111.934 132 100 132C82.2795 132 68 117.72 68 100C68 82.2795 82.2795 68 100 68ZM123.891 68H177.687C181.747 77.8614 184 88.6631 184 100C184 146.439 146.439 184 100 184C99.3687 184 98.7451 183.967 98.1172 183.953L134.734 119.836C134.823 119.685 134.901 119.528 134.969 119.367C138.165 113.623 140 107.023 140 100C140 86.9144 133.644 75.3037 123.891 68Z" fill="#141414" fill-opacity="0.15"/>
        <rect x="127.273" y="127.273" width="72.7273" height="72.7273" rx="36.3636" fill="#FF3B30"/>
        <path fill-rule="evenodd" clip-rule="evenodd" d="M163.637 186.365C176.187 186.365 186.365 176.187 186.365 163.637C186.365 151.087 176.187 140.91 163.637 140.91C151.087 140.91 140.91 151.087 140.91 163.637C140.91 176.187 151.087 186.365 163.637 186.365ZM165.91 152.274C165.91 151.024 164.887 150.001 163.637 150.001C162.387 150.001 161.365 151.024 161.365 152.274V163.637C161.365 164.887 162.387 165.91 163.637 165.91C164.887 165.91 165.91 164.887 165.91 163.637V152.274ZM164.91 175.001C165.462 175.001 165.91 174.553 165.91 174.001V171.456C165.91 170.903 165.462 170.456 164.91 170.456H162.365C161.812 170.456 161.365 170.903 161.365 171.456V174.001C161.365 174.553 161.812 175.001 162.365 175.001H164.91Z" fill="white"/>
    </g>
    <defs>
        <clipPath id="clip0_5334_25570">
            <rect width="200" height="200" fill="white"/>
        </clipPath>
    </defs>
</svg>
