<svg width="124" height="20" viewBox="0 0 124 20" fill="none" xmlns="http://www.w3.org/2000/svg">
    <g clip-path="url(#clip0_501_330)">
        <path d="M0.265714 3.76195C5.22571 5.52386 9.25571 9.52386 11.2929 14.6667C11.4257 15 11.8686 15 11.9571 14.6667C13.9943 9.52386 18.0243 5.52386 22.9843 3.76195C23.1171 3.71433 23.25 3.57148 23.25 3.381V0.666713C23.25 0.380999 23.0286 0.190522 22.7629 0.285761C20.46 1.00005 18.29 2.09528 16.2971 3.61909C14.6143 4.90481 13.1529 6.381 11.9129 8.09529C11.78 8.28576 11.47 8.28576 11.3371 8.09529C10.0971 6.381 8.63571 4.90481 6.95286 3.61909C4.96 2.09528 2.79 0.952427 0.487143 0.285761C0.221429 0.190522 0 0.380999 0 0.666713V3.381C0 3.57148 0.0885714 3.71433 0.265714 3.76195Z" fill="#3BAAE1"/>
        <path d="M0.265714 8.85717C5.22571 10.6191 9.25571 14.6191 11.2929 19.7619C11.4257 20.0953 11.8686 20.0953 11.9571 19.7619C13.9943 14.6191 18.0243 10.6191 22.9843 8.85717C23.1171 8.80955 23.25 8.66669 23.25 8.47621V5.76193C23.25 5.47621 23.0286 5.28574 22.7629 5.38098C20.46 6.09526 18.29 7.1905 16.2971 8.71431C14.6143 10 13.1529 11.4762 11.9129 13.1905C11.78 13.381 11.47 13.381 11.3371 13.1905C10.0971 11.4762 8.63571 10 6.95286 8.71431C4.96 7.1905 2.79 6.04764 0.487143 5.38098C0.221429 5.28574 0 5.47621 0 5.76193V8.47621C0 8.66669 0.0885714 8.80955 0.265714 8.85717Z" fill="#93C021"/>
        <path d="M52.4786 15.7619C51.6815 15.7619 50.9729 15.6191 50.3529 15.3334C49.7329 15.0476 49.2458 14.6667 48.8472 14.1429C48.4486 13.6191 48.1386 13.0476 47.9615 12.3334C47.7401 11.6667 47.6515 10.9048 47.6515 10.0953C47.6515 9.28573 47.7401 8.57145 47.9615 7.85716C48.1829 7.14287 48.4486 6.57145 48.8472 6.04764C49.2458 5.52383 49.7329 5.14287 50.3529 4.85716C50.9729 4.57145 51.6815 4.42859 52.4786 4.42859C53.2758 4.42859 54.0286 4.57145 54.6043 4.85716C55.2243 5.14287 55.7115 5.57145 56.1101 6.04764C56.5086 6.57145 56.8186 7.14287 56.9958 7.85716C57.1729 8.57145 57.3058 9.28573 57.3058 10.0953C57.3058 10.9048 57.2172 11.6191 56.9958 12.3334C56.8186 13 56.5086 13.6191 56.1101 14.1429C55.7115 14.6667 55.2243 15.0476 54.6043 15.3334C53.9843 15.6191 53.2758 15.7619 52.4786 15.7619ZM52.4786 13.5238C53.1872 13.5238 53.7186 13.2381 54.0286 12.6667C54.3386 12.0953 54.5158 11.2381 54.5158 10.1905C54.5158 9.14287 54.3386 8.28573 54.0286 7.7143C53.7186 7.14287 53.1872 6.85716 52.4786 6.85716C51.7701 6.85716 51.2386 7.14287 50.9286 7.7143C50.6186 8.28573 50.4415 9.14287 50.4415 10.1905C50.4415 11.2381 50.6186 12.0953 50.9286 12.6667C51.2386 13.2381 51.7701 13.5238 52.4786 13.5238Z" fill="black"/>
        <path d="M59.7858 0.238037H61.6015C61.8672 0.238037 62.0443 0.476132 62.0443 0.714228V5.33327C62.6643 4.66661 63.9929 4.42851 64.5686 4.42851C65.1443 4.42851 65.6758 4.52375 66.2072 4.76185C66.6943 4.99994 67.1372 5.33328 67.4915 5.76185C67.8458 6.23804 68.1558 6.76185 68.3329 7.47613C68.5543 8.1428 68.6429 8.95232 68.6429 9.9047C68.6429 10.8095 68.51 11.619 68.2443 12.3333C67.9786 13.0476 67.6243 13.6666 67.1372 14.1428C66.65 14.6666 66.03 15.0476 65.3215 15.2857C64.6129 15.5714 63.8158 15.7142 62.93 15.7142C62.6643 15.7142 62.3543 15.7142 62.0443 15.6666C61.7343 15.619 61.4243 15.619 61.07 15.5714C60.76 15.5238 60.45 15.4761 60.14 15.3809C59.9629 15.3333 59.7858 15.2857 59.6529 15.238C59.4758 15.1904 59.3429 14.9999 59.3429 14.7618V0.714228C59.3429 0.476132 59.52 0.238037 59.7858 0.238037ZM62.0886 13.1904C62.2658 13.238 62.3986 13.2857 62.5758 13.2857C62.7529 13.2857 62.93 13.2857 63.1072 13.2857C63.9486 13.2857 64.6129 12.9999 65.1 12.4761C65.5872 11.9523 65.8086 11.0952 65.8086 9.99994C65.8086 8.99994 65.6758 8.23804 65.3658 7.71423C65.0558 7.19042 64.5243 7.04756 63.86 7.09518C63.3286 7.1428 62.8858 7.38089 62.5315 7.76185C62.2215 8.1428 62.0886 8.61899 62.0886 9.38089V13.1904V13.1904Z" fill="black"/>
        <path d="M71.3443 6.99998H70.5029C70.2372 6.99998 70.0601 6.76188 70.0601 6.52379V5.23807C70.0601 4.95236 70.2815 4.76188 70.5029 4.76188H73.6029C73.8686 4.76188 74.0458 4.99998 74.0458 5.23807V15.0476C74.0458 15.3333 73.8243 15.5238 73.6029 15.5238H71.7872C71.5215 15.5238 71.3443 15.2857 71.3443 15.0476V6.99998ZM70.9458 2.42855V0.571405C70.9458 0.285691 71.1672 0.0952148 71.3886 0.0952148H73.3372C73.6029 0.0952148 73.7801 0.33331 73.7801 0.571405V2.38093C73.7801 2.66664 73.5586 2.85712 73.3372 2.85712H71.3886C71.1229 2.90474 70.9458 2.66664 70.9458 2.42855Z" fill="black"/>
        <path d="M77.0129 0.238037H79.0501C79.2272 0.238037 79.4044 0.380894 79.4044 0.618989V11.238C79.4044 11.6666 79.4486 11.9999 79.4929 12.2857C79.5372 12.5714 79.6258 12.7618 79.7144 12.9047C79.8029 13.0476 79.9358 13.1428 80.1129 13.1904C80.2901 13.238 80.4672 13.2857 80.6886 13.2857C80.7772 13.2857 80.9101 13.2857 81.0429 13.2857C81.2201 13.2857 81.3972 13.4285 81.4415 13.619L81.5744 15.1904C81.5744 15.3809 81.4858 15.5714 81.3086 15.5714C81.1758 15.619 81.0429 15.619 80.8658 15.619C80.5558 15.6666 80.2901 15.6666 80.0686 15.6666C79.0501 15.6666 78.2529 15.3809 77.6772 14.7618C77.0572 14.1904 76.7915 13.1904 76.7915 11.8571V0.618989C76.7029 0.428513 76.8358 0.238037 77.0129 0.238037Z" fill="black"/>
        <path d="M85.2501 11.0476C85.2944 11.9048 85.5601 12.4762 86.0473 12.8571C86.5344 13.2381 87.1987 13.4286 87.9958 13.4286C88.4387 13.4286 88.8815 13.381 89.3687 13.2857C89.6787 13.2381 89.9444 13.1429 90.2101 13.0476C90.4758 12.9524 90.6973 13.1429 90.7858 13.381L91.0958 14.7143C91.1401 14.9524 91.0073 15.2381 90.7858 15.2857C89.8558 15.6191 88.8815 15.7619 87.7744 15.7619C86.8444 15.7619 86.0473 15.6191 85.383 15.3333C84.7187 15.0476 84.1873 14.6667 83.7444 14.1905C83.3015 13.7143 82.9915 13.0952 82.8144 12.4286C82.593 11.7619 82.5044 11 82.5044 10.1905C82.5044 9.38096 82.593 8.66667 82.8144 7.95239C83.0358 7.2381 83.3458 6.66667 83.7444 6.14286C84.143 5.61905 84.6744 5.2381 85.2501 4.90477C85.8701 4.61905 86.5344 4.4762 87.3758 4.4762C88.0844 4.4762 88.7044 4.61905 89.2358 4.85715C89.7673 5.14286 90.2544 5.4762 90.6087 5.95239C91.0073 6.42858 91.273 6.95239 91.4944 7.57143C91.6715 8.19048 91.8044 8.90477 91.8044 9.61905C91.8044 9.90477 91.8044 10.1429 91.7601 10.381C91.7601 10.4286 91.7601 10.5238 91.7601 10.5714C91.7158 10.8095 91.5387 11 91.3172 11H85.2501V11.0476ZM89.1915 8.95239C89.1472 8.28572 89.0144 7.76191 88.6601 7.33334C88.3501 6.90477 87.9072 6.71429 87.3315 6.71429C86.6672 6.71429 86.1801 6.90477 85.8701 7.28572C85.5158 7.66667 85.3387 8.2381 85.2501 8.95239H89.1915V8.95239Z" fill="black"/>
        <path d="M93.7529 14.5238C93.8415 14.2857 94.0629 14.1428 94.3286 14.1905C94.5501 14.2381 94.7715 14.3333 95.0372 14.3809C95.4801 14.4762 95.9229 14.5238 96.3215 14.5238C97.1186 14.5238 97.6944 14.3333 98.1815 13.9524C98.6244 13.5714 98.8458 13.1428 98.8458 12.5714C98.8458 12.1905 98.7572 11.9047 98.6244 11.619C98.4915 11.3809 98.3144 11.1905 98.0929 11C97.8715 10.8095 97.6058 10.7143 97.3401 10.5714C97.0744 10.4762 96.7644 10.3809 96.4544 10.2381C96.1444 10.1428 95.7901 9.99998 95.4801 9.85713C95.1701 9.71427 94.8601 9.52379 94.6386 9.33332C94.3729 9.09522 94.1958 8.85713 94.0629 8.57141C93.9301 8.2857 93.8415 7.90474 93.8415 7.42855C93.8415 6.57141 94.1515 5.90474 94.7272 5.38093C95.3029 4.85713 96.1886 4.57141 97.3844 4.57141C97.8715 4.57141 98.3586 4.61903 98.8458 4.71427C99.1115 4.76189 99.3329 4.80951 99.5101 4.90474C99.7315 4.95236 99.8644 5.23808 99.8201 5.47617L99.7758 5.71427C99.7315 5.99998 99.4658 6.14284 99.2444 6.0476C99.0672 5.99998 98.8458 5.95236 98.6244 5.90474C98.1815 5.80951 97.7829 5.76189 97.2958 5.76189C96.4986 5.76189 95.9229 5.90474 95.6129 6.19046C95.3029 6.47617 95.1258 6.90474 95.1258 7.38093C95.1258 7.66665 95.1701 7.85713 95.3029 8.0476C95.3915 8.23808 95.5686 8.38093 95.7458 8.52379C95.9229 8.66665 96.1444 8.76189 96.3658 8.85713C96.5872 8.95236 96.8529 9.0476 97.1186 9.14284C97.4729 9.2857 97.8272 9.38093 98.1815 9.57141C98.5358 9.71427 98.8458 9.90474 99.1558 10.1428C99.4658 10.3809 99.6872 10.6666 99.8644 11.0476C100.042 11.4286 100.13 11.8571 100.13 12.4286C100.13 12.9524 100.042 13.3809 99.8644 13.8095C99.6872 14.2381 99.4215 14.5714 99.0672 14.8571C98.7129 15.1428 98.3144 15.3809 97.8715 15.5238C97.3844 15.6666 96.8972 15.7619 96.3215 15.7619C95.7015 15.7619 95.1258 15.7143 94.6386 15.619C94.3729 15.5714 94.1072 15.5238 93.8858 15.4286C93.6201 15.3333 93.4872 15.0952 93.5758 14.8095L93.7529 14.5238Z" fill="black"/>
        <path d="M106.109 15.7619C105.356 15.7619 104.736 15.619 104.16 15.3333C103.584 15.0476 103.141 14.6666 102.787 14.1428C102.433 13.619 102.123 13.0476 101.946 12.3809C101.769 11.7143 101.68 10.9524 101.68 10.1904C101.68 9.42854 101.769 8.66664 101.946 7.99997C102.123 7.3333 102.389 6.71426 102.787 6.23807C103.141 5.71426 103.629 5.3333 104.16 5.04759C104.736 4.76188 105.356 4.61902 106.109 4.61902C106.861 4.61902 107.481 4.76188 108.057 5.04759C108.589 5.3333 109.076 5.71426 109.43 6.23807C109.784 6.76188 110.094 7.3333 110.271 7.99997C110.449 8.66664 110.537 9.42854 110.537 10.1904C110.537 10.9524 110.449 11.7143 110.271 12.3809C110.094 13.0476 109.784 13.6666 109.43 14.1428C109.076 14.6666 108.589 15.0476 108.057 15.3333C107.481 15.619 106.817 15.7619 106.109 15.7619ZM106.109 14.5714C107.127 14.5714 107.924 14.1904 108.411 13.3809C108.943 12.619 109.164 11.5238 109.164 10.1904C109.164 8.85711 108.899 7.76188 108.411 6.99997C107.88 6.23807 107.127 5.80949 106.109 5.80949C105.09 5.80949 104.293 6.19045 103.806 6.99997C103.274 7.76188 103.053 8.85711 103.053 10.1904C103.053 11.5238 103.319 12.619 103.806 13.3809C104.293 14.1904 105.046 14.5714 106.109 14.5714Z" fill="black"/>
        <path d="M113.416 6.04762H112.176C111.91 6.04762 111.733 5.80952 111.733 5.57143C111.733 5.52381 111.733 5.42857 111.733 5.38095C111.733 5.09524 111.954 4.90476 112.176 4.90476H113.416V3.95238C113.416 2.61905 113.681 1.66667 114.213 1C114.744 0.333333 115.586 0 116.781 0C117.047 0 117.313 0 117.534 0.047619C117.579 0.047619 117.623 0.047619 117.667 0.047619C117.933 0.0952381 118.11 0.333333 118.021 0.619048L117.977 0.857143C117.933 1.09524 117.711 1.28571 117.446 1.2381C117.446 1.2381 117.446 1.2381 117.401 1.2381C117.224 1.19048 117.003 1.19048 116.781 1.19048C116.427 1.19048 116.161 1.2381 115.896 1.28571C115.63 1.38095 115.409 1.52381 115.231 1.71429C115.054 1.90476 114.921 2.19048 114.833 2.57143C114.744 2.95238 114.7 3.38095 114.7 3.95238V4.80952H116.959C117.224 4.80952 117.401 5.04762 117.401 5.28571C117.401 5.33333 117.401 5.42857 117.401 5.47619C117.401 5.7619 117.18 5.95238 116.959 5.95238H114.7V14.9524C114.7 15.2381 114.479 15.4286 114.257 15.4286H113.859C113.593 15.4286 113.416 15.1905 113.416 14.9524V6.04762V6.04762Z" fill="black"/>
        <path d="M119.926 6.04762H118.686C118.42 6.04762 118.243 5.80953 118.243 5.57143V5.38096C118.243 5.09524 118.464 4.90476 118.686 4.90476H119.926V3.09524C119.926 2.95238 119.97 2.80953 120.059 2.71429L120.457 2.33334C120.767 2.04762 121.21 2.28572 121.21 2.71429V4.90476H123.424C123.69 4.90476 123.867 5.14286 123.867 5.38096V5.57143C123.867 5.85715 123.646 6.04762 123.424 6.04762H121.21V13C121.21 13.3333 121.254 13.6191 121.343 13.8095C121.431 14 121.52 14.1905 121.653 14.2857C121.786 14.381 121.963 14.4762 122.14 14.5238C122.317 14.5714 122.494 14.5714 122.671 14.5714C122.937 14.5714 123.203 14.5714 123.424 14.5238C123.69 14.4762 123.911 14.6667 123.956 14.9048L124 15.0952C124.044 15.381 123.867 15.6191 123.646 15.6667C123.291 15.7619 122.893 15.7619 122.45 15.7619C121.697 15.7619 121.121 15.5714 120.634 15.1429C120.191 14.7143 119.926 14.0476 119.926 13.0476V6.04762V6.04762Z" fill="black"/>
        <path d="M45.0386 5.47621C44.5072 4.80954 43.6657 4.47621 42.5143 4.47621C42.0272 4.47621 41.5843 4.52383 41.23 4.61906C40.4772 4.85716 39.8572 5.28573 39.5029 5.85716C39.0157 4.80954 38.0415 4.42859 36.6243 4.42859C36.27 4.42859 35.7386 4.47621 35.4286 4.57145C35.2957 4.61907 35.1629 4.66668 35.0743 4.7143C34.5429 4.90478 34.0557 5.28573 33.7457 5.7143C33.7015 5.52383 33.6572 5.33335 33.6129 5.09526C33.5686 4.85716 33.3915 4.7143 33.17 4.7143H31.7086C31.4429 4.7143 31.2657 4.9524 31.2657 5.19049V15C31.2657 15.2857 31.4872 15.4762 31.7086 15.4762H33.5686C33.8343 15.4762 34.0115 15.2381 34.0115 15V9.85716C34.0115 9.28573 34.0557 8.80954 34.1886 8.42859C34.2772 8.04764 34.41 7.76192 34.5872 7.57145C34.7643 7.38097 34.9415 7.23811 35.1629 7.14287C35.3843 7.09526 35.6057 7.04764 35.8272 7.04764C36.3586 7.04764 36.7129 7.23811 36.89 7.66668C37.0672 8.04764 37.1557 8.66668 37.1557 9.38097V15C37.1557 15.2857 37.3772 15.4762 37.5986 15.4762H39.4586C39.7243 15.4762 39.9015 15.2381 39.9015 15V9.7143C39.9015 9.19049 39.9457 8.7143 40.0786 8.38097C40.1672 8.04764 40.3443 7.76192 40.5215 7.57145C40.6986 7.38097 40.8757 7.23811 41.0972 7.19049C41.3186 7.14287 41.54 7.09526 41.7615 7.09526C42.2929 7.09526 42.6472 7.28573 42.8243 7.7143C43.0015 8.09526 43.09 8.7143 43.09 9.42859V15.0476C43.09 15.3334 43.3115 15.5238 43.5329 15.5238H45.3929C45.6586 15.5238 45.8357 15.2857 45.8357 15.0476V8.66668C45.8357 7.23811 45.57 6.14287 45.0386 5.47621Z" fill="black"/>
    </g>
    <defs>
        <clipPath id="clip0_501_330">
            <rect width="124" height="20" fill="white"/>
        </clipPath>
    </defs>
</svg>