<svg width="200" height="200" viewBox="0 0 200 200" fill="none" xmlns="http://www.w3.org/2000/svg">
    <path d="M100 7.67969C49.0605 7.67969 7.67969 49.0605 7.67969 100C7.67969 150.94 49.0605 192.32 100 192.32C150.94 192.32 192.32 150.94 192.32 100C192.32 49.0605 150.94 7.67969 100 7.67969ZM100 15.6797C146.616 15.6797 184.32 53.384 184.32 100C184.32 146.616 146.616 184.32 100 184.32C53.384 184.32 15.6797 146.616 15.6797 100C15.6797 98.5433 15.7163 97.0947 15.7891 95.6562C18.0447 51.0638 54.8407 15.6797 100 15.6797ZM100 24C58.0737 24 24 58.0737 24 100C24 141.926 58.0737 176 100 176C141.926 176 176 141.926 176 100C176 58.0737 141.926 24 100 24ZM100 32C117.31 32 133.045 38.4961 145.039 49.1172L85.9453 84.5703C85.3809 84.9086 84.9086 85.3809 84.5703 85.9453L49.1172 145.039C38.4961 133.045 32 117.31 32 100C32 62.3973 62.3973 32 100 32ZM99.9375 35.9453C98.878 35.9619 97.8684 36.3981 97.1301 37.1583C96.3919 37.9185 95.9855 38.9405 96 40V44C95.9925 44.53 96.0904 45.0563 96.2881 45.5482C96.4857 46.04 96.7792 46.4877 97.1514 46.8652C97.5235 47.2427 97.967 47.5424 98.4561 47.747C98.9451 47.9516 99.4699 48.057 100 48.057C100.53 48.057 101.055 47.9516 101.544 47.747C102.033 47.5424 102.476 47.2427 102.849 46.8652C103.221 46.4877 103.514 46.04 103.712 45.5482C103.91 45.0563 104.007 44.53 104 44V40C104.007 39.4648 103.907 38.9337 103.706 38.4379C103.504 37.9421 103.205 37.4919 102.826 37.1138C102.447 36.7357 101.996 36.4375 101.5 36.2368C101.004 36.0361 100.473 35.937 99.9375 35.9453ZM122.898 40.5156C122.112 40.5324 121.348 40.7807 120.702 41.2296C120.055 41.6784 119.556 42.3078 119.266 43.0391L117.734 46.7344C117.525 47.2212 117.414 47.7448 117.408 48.2748C117.402 48.8048 117.502 49.3307 117.701 49.8219C117.901 50.313 118.196 50.7596 118.569 51.1358C118.943 51.512 119.387 51.8102 119.877 52.0131C120.367 52.216 120.892 52.3196 121.422 52.3178C121.952 52.316 122.476 52.2089 122.964 52.0027C123.453 51.7965 123.895 51.4953 124.266 51.1166C124.637 50.738 124.929 50.2894 125.125 49.7969L126.656 46.1016C126.922 45.4863 127.029 44.8141 126.967 44.1468C126.906 43.4794 126.677 42.8383 126.303 42.2822C125.929 41.7261 125.421 41.2729 124.826 40.9642C124.231 40.6556 123.568 40.5013 122.898 40.5156ZM76.9375 40.5312C76.278 40.5378 75.6304 40.7074 75.0522 41.0247C74.4741 41.3421 73.9834 41.7976 73.6238 42.3505C73.2642 42.9034 73.0469 43.5366 72.9913 44.1937C72.9356 44.8509 73.0433 45.5117 73.3047 46.1172L74.8359 49.8125C75.0375 50.2979 75.3326 50.7388 75.7046 51.1101C76.0765 51.4814 76.518 51.7758 77.0037 51.9765C77.4895 52.1772 78.01 52.2802 78.5355 52.2797C79.0611 52.2791 79.5814 52.1751 80.0667 51.9735C80.5521 51.7718 80.993 51.4766 81.3642 51.1045C81.7354 50.7325 82.0297 50.291 82.2303 49.8052C82.4308 49.3194 82.5337 48.7989 82.5331 48.2733C82.5325 47.7478 82.4283 47.2275 82.2266 46.7422L80.6875 43.0469C80.3885 42.2987 79.8705 41.6582 79.2014 41.2094C78.5323 40.7605 77.7432 40.5241 76.9375 40.5312ZM57.4922 53.5703C56.6955 53.5705 55.917 53.8085 55.2564 54.254C54.5959 54.6994 54.0833 55.3319 53.7846 56.0705C53.4858 56.809 53.4143 57.62 53.5794 58.3994C53.7444 59.1789 54.1384 59.8912 54.7109 60.4453L57.5469 63.2656C57.916 63.649 58.3579 63.9548 58.8467 64.1653C59.3355 64.3757 59.8614 64.4865 60.3935 64.4912C60.9257 64.4959 61.4534 64.3943 61.9458 64.1925C62.4382 63.9906 62.8854 63.6926 63.2612 63.3158C63.637 62.9389 63.9338 62.4909 64.1343 61.9979C64.3348 61.505 64.4349 60.977 64.4287 60.4448C64.4226 59.9127 64.3104 59.3871 64.0986 58.8989C63.8868 58.4107 63.5797 57.9696 63.1953 57.6016L60.3594 54.7812C59.9866 54.3981 59.5408 54.0935 59.0484 53.8855C58.5559 53.6775 58.0268 53.5703 57.4922 53.5703ZM150.883 54.9609C161.504 66.9548 168 82.6897 168 100C168 137.603 137.603 168 100 168C82.6897 168 66.9548 161.504 54.9609 150.883L114.055 115.43C114.619 115.091 115.091 114.619 115.43 114.055L150.883 54.9609ZM136.344 63.6562L109.086 109.086L63.6562 136.344L90.9141 90.9141L136.344 63.6562ZM155.266 72.8594C154.77 72.8787 154.283 72.99 153.828 73.1875L150.133 74.7266C149.648 74.9291 149.208 75.2252 148.837 75.5979C148.467 75.9706 148.173 76.4126 147.974 76.8987C147.774 77.3848 147.672 77.9055 147.674 78.431C147.675 78.9565 147.781 79.4765 147.983 79.9614C148.186 80.4462 148.482 80.8864 148.855 81.2568C149.228 81.6271 149.67 81.9204 150.156 82.1199C150.642 82.3194 151.163 82.4211 151.688 82.4193C152.214 82.4175 152.734 82.3122 153.219 82.1094L156.906 80.5703C157.781 80.2197 158.504 79.5714 158.948 78.7397C159.392 77.908 159.527 76.9463 159.331 76.0243C159.135 75.1023 158.62 74.2792 157.876 73.7002C157.132 73.1211 156.208 72.8234 155.266 72.8594ZM44.5391 73.0234C43.6056 73.0158 42.6989 73.3349 41.9759 73.9254C41.2529 74.5158 40.7592 75.3406 40.5802 76.2567C40.4012 77.1729 40.5483 78.1228 40.9959 78.942C41.4436 79.7611 42.1635 80.398 43.0312 80.7422L46.7266 82.2734C47.2134 82.4832 47.737 82.5941 48.267 82.5998C48.797 82.6054 49.3229 82.5057 49.814 82.3063C50.3052 82.107 50.7518 81.812 51.128 81.4386C51.5042 81.0651 51.8024 80.6207 52.0053 80.131C52.2082 79.6413 52.3118 79.1162 52.31 78.5861C52.3082 78.0561 52.2011 77.5317 51.9949 77.0434C51.7887 76.555 51.4875 76.1126 51.1088 75.7417C50.7302 75.3708 50.2815 75.0788 49.7891 74.8828L46.0938 73.3516C45.6027 73.1393 45.074 73.0278 44.5391 73.0234ZM100 92C97.8783 92 95.8434 92.8429 94.3431 94.3431C92.8429 95.8434 92 97.8783 92 100C92 102.122 92.8429 104.157 94.3431 105.657C95.8434 107.157 97.8783 108 100 108C102.122 108 104.157 107.157 105.657 105.657C107.157 104.157 108 102.122 108 100C108 97.8783 107.157 95.8434 105.657 94.3431C104.157 92.8429 102.122 92 100 92ZM40 96C39.47 95.9925 38.9437 96.0904 38.4518 96.2881C37.96 96.4857 37.5123 96.7792 37.1348 97.1514C36.7573 97.5235 36.4576 97.967 36.253 98.4561C36.0484 98.9451 35.943 99.4699 35.943 100C35.943 100.53 36.0484 101.055 36.253 101.544C36.4576 102.033 36.7573 102.476 37.1348 102.849C37.5123 103.221 37.96 103.514 38.4518 103.712C38.9437 103.91 39.47 104.007 40 104H44C44.53 104.007 45.0563 103.91 45.5482 103.712C46.04 103.514 46.4877 103.221 46.8652 102.849C47.2427 102.476 47.5424 102.033 47.747 101.544C47.9516 101.055 48.057 100.53 48.057 100C48.057 99.4699 47.9516 98.9451 47.747 98.4561C47.5424 97.967 47.2427 97.5235 46.8652 97.1514C46.4877 96.7792 46.04 96.4857 45.5482 96.2881C45.0563 96.0904 44.53 95.9925 44 96H40ZM156 96C155.47 95.9925 154.944 96.0904 154.452 96.2881C153.96 96.4857 153.512 96.7792 153.135 97.1514C152.757 97.5235 152.458 97.967 152.253 98.4561C152.048 98.9451 151.943 99.4699 151.943 100C151.943 100.53 152.048 101.055 152.253 101.544C152.458 102.033 152.757 102.476 153.135 102.849C153.512 103.221 153.96 103.514 154.452 103.712C154.944 103.91 155.47 104.007 156 104H160C160.53 104.007 161.056 103.91 161.548 103.712C162.04 103.514 162.488 103.221 162.865 102.849C163.243 102.476 163.542 102.033 163.747 101.544C163.952 101.055 164.057 100.53 164.057 100C164.057 99.4699 163.952 98.9451 163.747 98.4561C163.542 97.967 163.243 97.5235 162.865 97.1514C162.488 96.7792 162.04 96.4857 161.548 96.2881C161.056 96.0904 160.53 95.9925 160 96H156ZM151.719 117.398C150.785 117.391 149.879 117.71 149.156 118.3C148.433 118.891 147.939 119.716 147.76 120.632C147.581 121.548 147.728 122.498 148.176 123.317C148.623 124.136 149.343 124.773 150.211 125.117L153.906 126.648C154.393 126.858 154.917 126.969 155.447 126.975C155.977 126.98 156.503 126.881 156.994 126.681C157.485 126.482 157.931 126.187 158.308 125.814C158.684 125.44 158.982 124.996 159.185 124.506C159.388 124.016 159.491 123.491 159.49 122.961C159.488 122.431 159.381 121.907 159.175 121.418C158.968 120.93 158.667 120.488 158.288 120.117C157.91 119.746 157.461 119.454 156.969 119.258L153.273 117.727C152.782 117.514 152.254 117.403 151.719 117.398ZM48.2188 117.562C47.7234 117.582 47.2359 117.693 46.7812 117.891L43.0938 119.43C42.5975 119.624 42.1449 119.915 41.7627 120.286C41.3805 120.658 41.0763 121.101 40.868 121.592C40.6598 122.082 40.5516 122.61 40.5498 123.142C40.5481 123.675 40.6528 124.203 40.8579 124.695C41.0629 125.187 41.3642 125.633 41.744 126.007C42.1237 126.38 42.5744 126.674 43.0694 126.872C43.5644 127.069 44.0938 127.165 44.6266 127.155C45.1594 127.145 45.6847 127.029 46.1719 126.812L49.8672 125.273C50.7431 124.923 51.4668 124.274 51.9106 123.441C52.3543 122.609 52.4895 121.646 52.2923 120.723C52.095 119.801 51.5781 118.977 50.8327 118.399C50.0873 117.821 49.1615 117.524 48.2188 117.562ZM139.586 135.523C138.789 135.524 138.011 135.762 137.35 136.207C136.69 136.653 136.177 137.285 135.878 138.024C135.58 138.762 135.508 139.573 135.673 140.353C135.838 141.132 136.232 141.844 136.805 142.398L139.641 145.219C140.01 145.602 140.452 145.908 140.94 146.118C141.429 146.329 141.955 146.44 142.487 146.444C143.019 146.449 143.547 146.347 144.04 146.145C144.532 145.944 144.979 145.646 145.355 145.269C145.731 144.892 146.027 144.444 146.228 143.951C146.428 143.458 146.529 142.93 146.522 142.398C146.516 141.866 146.404 141.34 146.192 140.852C145.98 140.364 145.673 139.923 145.289 139.555L142.453 136.734C142.08 136.351 141.635 136.047 141.142 135.839C140.65 135.631 140.121 135.523 139.586 135.523ZM121.414 147.664C120.753 147.669 120.103 147.837 119.523 148.155C118.943 148.472 118.451 148.928 118.09 149.482C117.729 150.036 117.512 150.671 117.456 151.33C117.401 151.989 117.51 152.651 117.773 153.258L119.312 156.953C119.501 157.456 119.789 157.916 120.159 158.305C120.53 158.695 120.974 159.005 121.467 159.219C121.96 159.433 122.491 159.545 123.029 159.549C123.566 159.553 124.098 159.449 124.594 159.242C125.09 159.036 125.54 158.732 125.916 158.348C126.292 157.964 126.587 157.509 126.783 157.009C126.979 156.508 127.072 155.974 127.057 155.437C127.042 154.9 126.919 154.371 126.695 153.883L125.164 150.188C124.866 149.438 124.349 148.796 123.68 148.345C123.01 147.895 122.221 147.658 121.414 147.664ZM78.5 147.688C77.7157 147.705 76.9538 147.953 76.3093 148.4C75.6648 148.848 75.166 149.475 74.875 150.203L73.3438 153.898C73.134 154.385 73.0231 154.909 73.0174 155.439C73.0118 155.969 73.1115 156.495 73.3109 156.986C73.5102 157.477 73.8052 157.924 74.1786 158.3C74.552 158.676 74.9965 158.974 75.4862 159.177C75.9759 159.38 76.501 159.484 77.0311 159.482C77.5611 159.48 78.0855 159.373 78.5738 159.167C79.0621 158.961 79.5046 158.659 79.8755 158.281C80.2464 157.902 80.5383 157.453 80.7344 156.961L82.2656 153.266C82.53 152.65 82.6356 151.978 82.5726 151.311C82.5097 150.644 82.2803 150.004 81.9055 149.449C81.5307 148.893 81.0225 148.441 80.4275 148.133C79.8325 147.826 79.1697 147.672 78.5 147.688ZM99.9375 151.945C98.878 151.962 97.8684 152.398 97.1301 153.158C96.3919 153.918 95.9855 154.94 96 156V160C95.9925 160.53 96.0904 161.056 96.2881 161.548C96.4857 162.04 96.7792 162.488 97.1514 162.865C97.5235 163.243 97.967 163.542 98.4561 163.747C98.9451 163.952 99.4699 164.057 100 164.057C100.53 164.057 101.055 163.952 101.544 163.747C102.033 163.542 102.476 163.243 102.849 162.865C103.221 162.488 103.514 162.04 103.712 161.548C103.91 161.056 104.007 160.53 104 160V156C104.007 155.465 103.907 154.934 103.706 154.438C103.504 153.942 103.205 153.492 102.826 153.114C102.447 152.736 101.996 152.437 101.5 152.237C101.004 152.036 100.473 151.937 99.9375 151.945Z" fill="#141414" fill-opacity="0.15"/>
    <rect x="127.272" y="127.273" width="72.7273" height="72.7273" rx="36.3636" fill="#FF3B30"/>
    <path fill-rule="evenodd" clip-rule="evenodd" d="M163.636 186.365C176.186 186.365 186.364 176.187 186.364 163.637C186.364 151.087 176.186 140.91 163.636 140.91C151.086 140.91 140.909 151.087 140.909 163.637C140.909 176.187 151.086 186.365 163.636 186.365ZM165.909 152.274C165.909 151.024 164.886 150.001 163.636 150.001C162.386 150.001 161.364 151.024 161.364 152.274V163.637C161.364 164.887 162.386 165.91 163.636 165.91C164.886 165.91 165.909 164.887 165.909 163.637V152.274ZM164.909 175.001C165.461 175.001 165.909 174.553 165.909 174.001V171.456C165.909 170.903 165.461 170.456 164.909 170.456H162.364C161.811 170.456 161.364 170.903 161.364 171.456V174.001C161.364 174.553 161.811 175.001 162.364 175.001H164.909Z" fill="white"/>
</svg>
