<svg width="20" height="20" viewBox="0 0 20 20" fill="none" xmlns="http://www.w3.org/2000/svg">
    <rect width="20" height="20" rx="10" fill="#2F96FF"/>
    <path d="M10.0002 7.89761L4.22217 5.65045L5.16939 7.99891L10.0002 10.0044L14.8311 7.99891L15.7783 5.65045L10.0002 7.89761Z" fill="white"/>
    <path d="M14.2358 4.9625L10.0002 3.25958L5.76465 4.9625L6.98589 5.81029L10.0002 4.70311L13.0145 5.81029L14.2358 4.9625Z" fill="white"/>
    <path d="M10.0005 11.8717L6.34229 10.2278L6.94904 11.9729L10.0001 13.3177L13.0508 11.973L13.6589 10.2844L10.0005 11.8717Z" fill="white"/>
    <path d="M9.99763 15.4317L8.07761 14.5067L7.58984 15.716L9.99757 16.7404L12.4101 15.7161L11.9223 14.5068L9.99763 15.4317Z" fill="white"/>
    <path d="M16.7406 9.83347L15.9119 7.83752L15.0593 9.16624L15.3402 9.83492L13.8528 13.6591L12.9355 14.114L13.4209 15.3174L14.8311 14.7346L16.7406 9.83347Z" fill="white"/>
    <path d="M3.25977 9.83319L4.08842 7.77869L4.93915 9.16475L4.7145 9.83313L6.1475 13.6593L7.06443 14.114L6.57963 15.316L5.05721 14.7353L3.25977 9.83319Z" fill="white"/>
</svg>